<?xml version="1.0" encoding="UTF-8" standalone="no"?>
<!-- Created with Inkscape (http://www.inkscape.org/) -->

<svg
   xmlns:dc="http://purl.org/dc/elements/1.1/"
   xmlns:cc="http://creativecommons.org/ns#"
   xmlns:rdf="http://www.w3.org/1999/02/22-rdf-syntax-ns#"
   xmlns:svg="http://www.w3.org/2000/svg"
   xmlns="http://www.w3.org/2000/svg"
   xmlns:sodipodi="http://sodipodi.sourceforge.net/DTD/sodipodi-0.dtd"
   xmlns:inkscape="http://www.inkscape.org/namespaces/inkscape"
   width="210mm"
   height="297mm"
   id="svg2"
   version="1.1"
   inkscape:version="0.48.0 r9654"
   sodipodi:docname="Neues Dokument 1">
  <defs
     id="defs4">
    <marker
       inkscape:stockid="Arrow2Lend"
       orient="auto"
       refY="0.0"
       refX="0.0"
       id="Arrow2Lend"
       style="overflow:visible;">
      <path
         id="path3781"
         style="font-size:12.0;fill-rule:evenodd;stroke-width:0.62500000;stroke-linejoin:round;"
         d="M 8.7185878,4.0337352 L -2.2072895,0.016013256 L 8.7185884,-4.0017078 C 6.9730900,-1.6296469 6.9831476,1.6157441 8.7185878,4.0337352 z "
         transform="scale(1.1) rotate(180) translate(1,0)" />
    </marker>
  </defs>
  <sodipodi:namedview
     id="base"
     pagecolor="#ffffff"
     bordercolor="#666666"
     borderopacity="1.0"
     inkscape:pageopacity="0.0"
     inkscape:pageshadow="2"
     inkscape:zoom="0.84856717"
     inkscape:cx="370.86878"
     inkscape:cy="620.45766"
     inkscape:document-units="px"
     inkscape:current-layer="layer1"
     showgrid="false"
     inkscape:window-width="1920"
     inkscape:window-height="1081"
     inkscape:window-x="0"
     inkscape:window-y="22"
     inkscape:window-maximized="0" />
  <metadata
     id="metadata7">
    <rdf:RDF>
      <cc:Work
         rdf:about="">
        <dc:format>image/svg+xml</dc:format>
        <dc:type
           rdf:resource="http://purl.org/dc/dcmitype/StillImage" />
        <dc:title></dc:title>
      </cc:Work>
    </rdf:RDF>
  </metadata>
  <g
     inkscape:label="Ebene 1"
     inkscape:groupmode="layer"
     id="layer1">
    <rect
       style="fill:#80ff00;fill-opacity:0;stroke:#000000;stroke-width:1.46059716;stroke-linecap:round;stroke-miterlimit:10;stroke-opacity:0.58842444;stroke-dasharray:none"
       id="rect2985"
       width="198.53941"
       height="198.5394"
       x="17.797594"
       y="17.301767"
       rx="3.3148279"
       ry="3.4588745" />
    <path
       style="fill:none;stroke:#000000;stroke-width:6.86999989;stroke-linecap:butt;stroke-linejoin:miter;stroke-miterlimit:4;stroke-opacity:1;stroke-dasharray:none;marker-end:url(#Arrow2Lend)"
       d="m 24.635418,116.75518 c 94.602382,0 177.072382,-0.57271 177.072382,-0.57271"
       id="path2987"
       inkscape:connector-curvature="0"
       sodipodi:nodetypes="cc" />
    <path
       sodipodi:type="arc"
       style="fill:#ff0000;fill-opacity:1;stroke:#000000;stroke-width:6.86999989;stroke-linecap:round;stroke-miterlimit:4;stroke-opacity:1;stroke-dasharray:none"
       id="path4201"
       sodipodi:cx="53.834587"
       sodipodi:cy="118.27483"
       sodipodi:rx="25.771877"
       sodipodi:ry="24.626459"
       d="m 79.606464,118.27483 a 25.771877,24.626459 0 1 1 -51.543754,0 25.771877,24.626459 0 1 1 51.543754,0 z"
       transform="matrix(1.1951163,0,0,1.2507032,-6.6238701,-31.355247)" />
    <rect
       ry="3.4588745"
       rx="3.3148279"
       y="17.301767"
       x="245.73552"
       height="198.5394"
       width="198.53941"
       id="rect4219"
       style="fill:#80ff00;fill-opacity:0;stroke:#000000;stroke-width:1.46059716;stroke-linecap:round;stroke-miterlimit:10;stroke-opacity:0.58842444;stroke-dasharray:none" />
    <path
       sodipodi:nodetypes="cc"
       inkscape:connector-curvature="0"
       id="path4221"
       d="m 252.57335,116.75518 c 94.60238,0 177.07238,-0.57271 177.07238,-0.57271"
       style="fill:none;stroke:#000000;stroke-width:6.86999989;stroke-linecap:butt;stroke-linejoin:miter;stroke-miterlimit:4;stroke-opacity:1;stroke-dasharray:none;marker-end:url(#Arrow2Lend)" />
    <rect
       ry="3.4588745"
       rx="3.3148279"
       y="228.05844"
       x="20.088427"
       height="198.5394"
       width="198.53941"
       id="rect4225"
       style="fill:#80ff00;fill-opacity:0;stroke:#000000;stroke-width:1.46059716;stroke-linecap:round;stroke-miterlimit:10;stroke-opacity:0.58842444;stroke-dasharray:none" />
    <path
       sodipodi:nodetypes="cc"
       inkscape:connector-curvature="0"
       id="path4227"
       d="m 26.926251,327.51185 c 94.602379,0 177.072379,-0.57271 177.072379,-0.57271"
       style="fill:none;stroke:#000000;stroke-width:6.86999989;stroke-linecap:butt;stroke-linejoin:miter;stroke-miterlimit:4;stroke-opacity:1;stroke-dasharray:none;marker-end:url(#Arrow2Lend)" />
    <path
       sodipodi:type="star"
       style="fill:#00ff00;fill-opacity:1;stroke:#000000;stroke-width:6.86999989;stroke-linecap:round;stroke-miterlimit:4;stroke-opacity:1;stroke-dasharray:none"
       id="path4233"
       sodipodi:sides="3"
       sodipodi:cx="-34.935211"
       sodipodi:cy="267.75171"
       sodipodi:r1="48.233471"
       sodipodi:r2="24.116735"
       sodipodi:arg1="2.0928879"
       sodipodi:arg2="3.1400855"
       inkscape:flatsided="true"
       inkscape:rounded="0"
       inkscape:randomized="0"
       d="m -58.988961,309.55942 -0.125916,-83.54273 72.413082,41.66232 z"
       inkscape:transform-center-x="-12.026876"
       inkscape:transform-center-y="0.036347807"
       transform="translate(88.769797,59.540082)" />
    <rect
       style="fill:#80ff00;fill-opacity:0;stroke:#000000;stroke-width:1.46059716;stroke-linecap:round;stroke-miterlimit:10;stroke-opacity:0.58842444;stroke-dasharray:none"
       id="rect4235"
       width="198.53941"
       height="198.5394"
       x="247.45364"
       y="228.05844"
       rx="3.3148279"
       ry="3.4588745" />
    <path
       sodipodi:type="arc"
       style="fill:none;stroke:#000000;stroke-width:7.31585693;stroke-linecap:round;stroke-miterlimit:4;stroke-opacity:1;stroke-dasharray:none"
       id="path4237"
       sodipodi:cx="340.76147"
       sodipodi:cy="323.01807"
       sodipodi:rx="70.44313"
       sodipodi:ry="69.01136"
       d="m 411.20461,323.01807 a 70.44313,69.01136 0 1 1 -140.88627,0 70.44313,69.01136 0 1 1 140.88627,0 z"
       transform="matrix(0.54117254,0,0,0.55240018,115.68748,100.95751)" />
    <path
       transform="matrix(0.47419397,0,0,0.48403202,229.12651,123.04166)"
       d="m 411.20461,323.01807 a 70.44313,69.01136 0 1 1 -140.88627,0 70.44313,69.01136 0 1 1 140.88627,0 z"
       sodipodi:ry="69.01136"
       sodipodi:rx="70.44313"
       sodipodi:cy="323.01807"
       sodipodi:cx="340.76147"
       id="path4239"
       style="fill:none;stroke:#000000;stroke-width:25.04760361;stroke-linecap:round;stroke-miterlimit:4;stroke-opacity:1;stroke-dasharray:none"
       sodipodi:type="arc" />
    <path
       transform="matrix(0.54117254,0,0,0.55240018,115.68748,192.94829)"
       d="m 411.20461,323.01807 a 70.44313,69.01136 0 1 1 -140.88627,0 70.44313,69.01136 0 1 1 140.88627,0 z"
       sodipodi:ry="69.01136"
       sodipodi:rx="70.44313"
       sodipodi:cy="323.01807"
       sodipodi:cx="340.76147"
       id="path4241"
       style="fill:none;stroke:#000000;stroke-width:7.31585693;stroke-linecap:round;stroke-miterlimit:4;stroke-opacity:1;stroke-dasharray:none"
       sodipodi:type="arc" />
    <path
       sodipodi:type="arc"
       style="fill:none;stroke:#000000;stroke-width:9.75447559;stroke-linecap:round;stroke-miterlimit:4;stroke-opacity:1;stroke-dasharray:none"
       id="path4243"
       sodipodi:cx="340.76147"
       sodipodi:cy="323.01807"
       sodipodi:rx="70.44313"
       sodipodi:ry="69.01136"
       d="m 411.20461,323.01807 a 70.44313,69.01136 0 1 1 -140.88627,0 70.44313,69.01136 0 1 1 140.88627,0 z"
       transform="matrix(0.4058794,0,0,0.41430014,161.79017,237.5571)" />
    <path
       sodipodi:type="arc"
       style="fill:none;stroke:#000000;stroke-width:15.40788555;stroke-linecap:round;stroke-miterlimit:4;stroke-opacity:1;stroke-dasharray:none"
       id="path4245"
       sodipodi:cx="340.76147"
       sodipodi:cy="323.01807"
       sodipodi:rx="70.44313"
       sodipodi:ry="69.01136"
       d="m 411.20461,323.01807 a 70.44313,69.01136 0 1 1 -140.88627,0 70.44313,69.01136 0 1 1 140.88627,0 z"
       transform="matrix(0.513911,0,0,0.52457305,215.59248,201.93696)" />
    <path
       transform="matrix(0.34247311,0,0,0.34957836,274.01191,258.46341)"
       d="m 411.20461,323.01807 a 70.44313,69.01136 0 1 1 -140.88627,0 70.44313,69.01136 0 1 1 140.88627,0 z"
       sodipodi:ry="69.01136"
       sodipodi:rx="70.44313"
       sodipodi:cy="323.01807"
       sodipodi:cx="340.76147"
       id="path4247"
       style="fill:none;stroke:#000000;stroke-width:23.12088585;stroke-linecap:round;stroke-miterlimit:4;stroke-opacity:1;stroke-dasharray:none"
       sodipodi:type="arc" />
  </g>
</svg>
