<?xml version="1.0" encoding="UTF-8" standalone="no"?>
<!-- Created with Inkscape (http://www.inkscape.org/) -->
<svg
   xmlns:dc="http://purl.org/dc/elements/1.1/"
   xmlns:cc="http://creativecommons.org/ns#"
   xmlns:rdf="http://www.w3.org/1999/02/22-rdf-syntax-ns#"
   xmlns:svg="http://www.w3.org/2000/svg"
   xmlns="http://www.w3.org/2000/svg"
   xmlns:sodipodi="http://sodipodi.sourceforge.net/DTD/sodipodi-0.dtd"
   xmlns:inkscape="http://www.inkscape.org/namespaces/inkscape"
   width="431.78528"
   height="53.715294"
   id="svg2"
   sodipodi:version="0.32"
   inkscape:version="0.46"
   sodipodi:docbase="/home/haf/shared/kieler/trunk/common/doc/images"
   sodipodi:docname="kieler-trac-logo-path.svg"
   inkscape:export-filename="/Users/haf/shared/kieler/trunk/common/doc/images/kieler-trac-logo.png"
   inkscape:export-xdpi="150"
   inkscape:export-ydpi="150"
   inkscape:output_extension="org.inkscape.output.svg.inkscape"
   version="1.0">
  <defs
     id="defs4">
    <inkscape:perspective
       sodipodi:type="inkscape:persp3d"
       inkscape:vp_x="0 : 526.18109 : 1"
       inkscape:vp_y="0 : 1000 : 0"
       inkscape:vp_z="744.09448 : 526.18109 : 1"
       inkscape:persp3d-origin="372.04724 : 350.78739 : 1"
       id="perspective38" />
    <marker
       inkscape:stockid="Arrow1Mend"
       orient="auto"
       refY="0"
       refX="0"
       id="Arrow1Mend"
       style="overflow:visible">
      <path
         id="path2998"
         d="M 0,0 L 5,-5 L -12.5,0 L 5,5 L 0,0 z"
         style="fill-rule:evenodd;stroke:#000000;stroke-width:1pt;marker-start:none"
         transform="matrix(-0.4,0,0,-0.4,-4,0)" />
    </marker>
    <marker
       inkscape:stockid="Arrow2Mend"
       orient="auto"
       refY="0"
       refX="0"
       id="Arrow2Mend"
       style="overflow:visible">
      <path
         id="path2980"
         style="font-size:12px;fill-rule:evenodd;stroke-width:0.625;stroke-linejoin:round"
         d="M 8.7185878,4.0337352 L -2.2072895,0.016013256 L 8.7185884,-4.0017078 C 6.97309,-1.6296469 6.9831476,1.6157441 8.7185878,4.0337352 z"
         transform="scale(-0.6,-0.6)" />
    </marker>
    <marker
       inkscape:stockid="Arrow2Lend"
       orient="auto"
       refY="0"
       refX="0"
       id="Arrow2Lend"
       style="overflow:visible">
      <path
         id="path2986"
         style="font-size:12px;fill-rule:evenodd;stroke-width:0.625;stroke-linejoin:round"
         d="M 8.7185878,4.0337352 L -2.2072895,0.016013256 L 8.7185884,-4.0017078 C 6.97309,-1.6296469 6.9831476,1.6157441 8.7185878,4.0337352 z"
         transform="matrix(-1.1,0,0,-1.1,-1.1,0)" />
    </marker>
  </defs>
  <sodipodi:namedview
     id="base"
     pagecolor="#ffffff"
     bordercolor="#666666"
     borderopacity="1.0"
     gridtolerance="10000"
     guidetolerance="10"
     objecttolerance="10"
     inkscape:pageopacity="0.0"
     inkscape:pageshadow="2"
     inkscape:zoom="2.793113"
     inkscape:cx="137.58594"
     inkscape:cy="-11.559822"
     inkscape:document-units="px"
     inkscape:current-layer="layer1"
     inkscape:window-width="1280"
     inkscape:window-height="945"
     inkscape:window-x="0"
     inkscape:window-y="27"
     showgrid="false" />
  <metadata
     id="metadata7">
    <rdf:RDF>
      <cc:Work
         rdf:about="">
        <dc:format>image/svg+xml</dc:format>
        <dc:type
           rdf:resource="http://purl.org/dc/dcmitype/StillImage" />
      </cc:Work>
    </rdf:RDF>
  </metadata>
  <g
     inkscape:label="Layer 1"
     inkscape:groupmode="layer"
     id="layer1"
     transform="translate(-23.831138,-24.283325)">
    <rect
       style="opacity:1;fill:#d5e5ff;fill-opacity:1;stroke:#2b0000;stroke-width:0.81815296;stroke-linecap:butt;stroke-linejoin:miter;stroke-miterlimit:4;stroke-dasharray:none;stroke-opacity:1"
       id="rect1927"
       width="36.378059"
       height="37.882584"
       x="99.648628"
       y="39.706959"
       rx="0.38987687"
       ry="0.66313428" />
    <rect
       style="opacity:1;fill:#d5e5ff;fill-opacity:1;stroke:#2b0000;stroke-width:0.81815296;stroke-linecap:butt;stroke-linejoin:miter;stroke-miterlimit:4;stroke-dasharray:none;stroke-opacity:1"
       id="rect1925"
       width="36.378059"
       height="37.882584"
       x="41.647469"
       y="24.692402"
       rx="0.38987687"
       ry="0.66313428" />
    <text
       xml:space="preserve"
       style="font-size:12px;font-style:normal;font-weight:normal;fill:#000000;fill-opacity:1;stroke:none;stroke-width:1pt;stroke-linecap:butt;stroke-linejoin:miter;stroke-opacity:1;font-family:Bitstream Vera Sans"
       x="213.1297"
       y="49.278538"
       id="text1907"><tspan
         sodipodi:role="line"
         x="213.1297"
         y="49.278538"
         id="tspan1911"><tspan
   style="font-weight:bold"
   id="tspan3018">K</tspan>iel <tspan
   style="font-weight:bold"
   id="tspan3020">I</tspan>ntegrated <tspan
   style="font-weight:bold"
   id="tspan3022">E</tspan>nvironment for <tspan
   style="font-weight:bold"
   id="tspan3024">L</tspan>ayout</tspan></text>
    <path
       style="font-size:12px;font-style:normal;font-weight:normal;fill:#8a8a8a;fill-opacity:1;stroke:none;stroke-width:1pt;stroke-linecap:butt;stroke-linejoin:miter;stroke-opacity:1;font-family:Bitstream Vera Sans"
       d="M 332.31917,56.396611 C 332.10583,56.524617 331.91117,56.61795 331.73517,56.676611 C 331.55917,56.72995 331.39917,56.756617 331.25517,56.756611 C 331.24983,56.756617 331.03117,56.727284 330.59917,56.668611 C 330.1725,56.60995 329.8125,56.580617 329.51917,56.580611 C 329.23117,56.580617 328.9885,56.591284 328.79117,56.612611 C 328.59917,56.63395 328.44717,56.65795 328.33517,56.684611 C 328.2285,56.711284 328.0045,56.756617 327.66317,56.820611 C 327.32184,56.884617 326.89517,56.959283 326.38317,57.044611 C 325.81251,57.204616 325.52717,57.500616 325.52717,57.932611 C 325.46317,58.049949 325.39917,58.209949 325.33517,58.412611 C 325.27117,58.615282 325.23917,58.932615 325.23917,59.364611 C 325.20717,59.348614 325.17517,59.359281 325.14317,59.396611 C 325.11651,59.433948 325.10317,59.521947 325.10317,59.660611 C 325.10317,59.724614 325.10584,59.801947 325.11117,59.892611 C 325.11651,59.98328 325.12717,60.09528 325.14317,60.228611 C 325.52184,60.148613 325.80184,60.09528 325.98317,60.068611 C 326.16451,60.041947 326.30317,60.028614 326.39917,60.028611 C 326.43117,60.028614 326.45784,60.03128 326.47917,60.036611 L 329.83117,59.652611 L 330.21517,59.652611 C 330.0925,60.004614 329.5805,60.257947 328.67917,60.412611 C 327.8845,60.50328 327.07917,60.596613 326.26317,60.692611 C 325.45251,60.78328 325.04717,60.945946 325.04717,61.180611 C 325.04717,61.484612 325.27917,61.769945 325.74317,62.036611 C 326.20717,62.297945 326.86851,62.428611 327.72717,62.428611 C 328.15384,62.428611 328.69517,62.364611 329.35117,62.236611 C 330.00717,62.108612 330.4205,62.044612 330.59117,62.044611 C 330.5005,62.359278 330.3405,62.567278 330.11117,62.668611 C 329.88717,62.769944 329.58317,62.820611 329.19917,62.820611 C 329.11917,62.820611 328.9885,62.817944 328.80717,62.812611 C 328.62584,62.807277 328.48717,62.804611 328.39117,62.804611 L 327.24717,62.804611 C 326.19651,62.804611 325.43917,62.665944 324.97517,62.388611 C 324.51651,62.105945 324.28717,61.543279 324.28717,60.700611 C 324.28717,60.31128 324.33251,59.892614 324.42317,59.444611 C 324.51917,58.996615 324.56717,58.745948 324.56717,58.692611 C 324.56717,58.681948 324.58051,58.657948 324.60717,58.620611 C 324.63917,58.583282 324.65517,58.519282 324.65517,58.428611 C 324.65517,58.385949 324.65251,58.332615 324.64717,58.268611 C 324.64184,58.199282 324.63117,58.119282 324.61517,58.028611 C 324.29517,57.895282 324.11384,57.820616 324.07117,57.804611 C 324.02317,57.788616 323.99917,57.735283 323.99917,57.644611 C 323.99917,57.420616 324.27651,57.183283 324.83117,56.932611 C 325.39117,56.676617 326.03917,56.460617 326.77517,56.284611 C 327.5165,56.108618 328.11917,56.020618 328.58317,56.020611 C 329.3565,56.020618 329.96984,56.023284 330.42317,56.028611 C 330.8765,56.033951 331.3005,56.039284 331.69517,56.044611 L 331.80717,56.044611 C 332.04183,56.044618 332.2125,56.036618 332.31917,56.020611 L 332.31917,56.396611 M 338.48567,61.820611 C 337.52567,62.289945 336.915,62.583278 336.65367,62.700611 C 336.39767,62.817944 335.867,62.876611 335.06167,62.876611 C 334.02701,62.876611 333.16834,62.721944 332.48567,62.412611 C 331.80301,62.097945 331.46167,61.548612 331.46167,60.764611 C 331.46167,60.636613 331.59501,60.35928 331.86167,59.932611 C 332.13367,59.505947 332.51501,59.113948 333.00567,58.756611 C 333.49634,58.399282 334.07501,58.220615 334.74167,58.220611 C 334.86434,58.220615 335.03767,58.268615 335.26167,58.364611 C 335.48567,58.455282 335.66434,58.548615 335.79767,58.644611 L 335.79767,58.964611 C 335.71767,58.980615 335.64834,58.988615 335.58967,58.988611 C 335.53634,58.988615 335.387,58.985948 335.14167,58.980611 C 334.89634,58.969948 334.691,58.964615 334.52567,58.964611 C 333.90167,58.964615 333.35767,59.159281 332.89367,59.548611 C 332.43501,59.937947 332.20567,60.377947 332.20567,60.868611 C 332.20567,61.215279 332.47501,61.548612 333.01367,61.868611 C 333.55767,62.188611 334.20301,62.348611 334.94967,62.348611 C 335.48834,62.348611 335.94967,62.281945 336.33367,62.148611 C 336.723,62.009945 337.05634,61.841945 337.33367,61.644611 C 337.435,61.564612 337.53634,61.481945 337.63767,61.396611 C 337.65367,61.396612 337.731,61.441946 337.86967,61.532611 C 338.00833,61.617945 338.21367,61.713945 338.48567,61.820611 M 338.40742,62.500611 C 338.38609,62.559278 338.35942,62.617944 338.32742,62.676611 C 338.29542,62.735278 338.25542,62.764611 338.20742,62.764611 C 338.11676,62.764611 338.03409,62.665944 337.95942,62.468611 C 337.88476,62.265945 337.80742,61.975278 337.72742,61.596611 C 337.64742,61.217946 337.52742,60.636613 337.36742,59.852611 C 337.21276,59.063281 337.10609,58.505948 337.04742,58.180611 C 336.98876,57.849949 336.95942,57.32195 336.95942,56.596611 C 336.95409,56.527284 336.95142,56.46595 336.95142,56.412611 C 336.95142,56.273951 336.96742,56.161951 336.99942,56.076611 C 337.03676,55.991284 337.11142,55.948618 337.22342,55.948611 C 337.31409,55.948618 337.37009,55.988618 337.39142,56.068611 C 337.41809,56.143284 337.43142,56.287284 337.43142,56.500611 L 337.43142,56.940611 C 337.43142,57.388616 337.44476,57.783283 337.47142,58.124611 C 337.50342,58.460615 337.55142,58.825948 337.61542,59.220611 C 337.67942,59.492614 337.77276,59.873947 337.89542,60.364611 C 338.01809,60.855279 338.13276,61.327279 338.23942,61.780611 C 338.35142,62.228611 338.40742,62.468611 338.40742,62.500611 M 340.23505,55.852611 C 340.23505,56.065951 340.20038,56.207284 340.13105,56.276611 C 340.06705,56.340617 339.93371,56.401951 339.73105,56.460611 C 339.70438,56.412617 339.67238,56.308617 339.63505,56.148611 C 339.60305,55.983284 339.58705,55.844618 339.58705,55.732611 C 339.58705,55.636618 339.59772,55.564618 339.61905,55.516611 C 339.64038,55.468618 339.67772,55.444618 339.73105,55.444611 C 339.92305,55.444618 340.05371,55.468618 340.12305,55.516611 C 340.19771,55.559285 340.23505,55.671285 340.23505,55.852611 M 343.37105,60.716611 C 343.37104,61.191279 343.01905,61.612612 342.31505,61.980611 C 341.61638,62.348611 340.95505,62.532611 340.33105,62.532611 C 339.90438,62.532611 339.64038,62.460611 339.53905,62.316611 C 339.43772,62.172611 339.31238,61.839278 339.16305,61.316611 C 339.09905,61.332612 339.03505,61.361946 338.97105,61.404611 C 338.91238,61.441946 338.85905,61.481945 338.81105,61.524611 L 337.89905,61.524611 L 337.89905,61.020611 C 338.50705,60.860613 338.90972,60.657946 339.10705,60.412611 C 339.30972,60.16728 339.45638,59.82328 339.54705,59.380611 C 339.63772,58.937948 339.74971,58.601948 339.88305,58.372611 C 340.05371,58.441949 340.22438,58.508615 340.39505,58.572611 C 340.50171,58.620615 340.63505,58.721948 340.79505,58.876611 C 340.52305,59.212614 340.30971,59.588614 340.15505,60.004611 C 340.00038,60.420613 339.92305,60.825946 339.92305,61.220611 C 339.92305,61.471279 339.97905,61.668612 340.09105,61.812611 C 340.20305,61.956612 340.34971,62.028612 340.53105,62.028611 C 340.64305,62.028612 340.91505,61.977945 341.34705,61.876611 C 341.78438,61.775279 342.19505,61.612612 342.57905,61.388611 C 342.96838,61.164612 343.16304,60.871279 343.16305,60.508611 C 343.22171,60.492613 343.26438,60.484613 343.29105,60.484611 C 343.32838,60.484613 343.35504,60.492613 343.37105,60.508611 C 343.38704,60.524613 343.39504,60.55128 343.39505,60.588611 C 343.39504,60.620613 343.39238,60.64728 343.38705,60.668611 C 343.38704,60.684613 343.38171,60.700613 343.37105,60.716611 M 346.4843,60.252611 C 346.4843,60.588613 346.33496,60.871279 346.0363,61.100611 C 345.74296,61.329946 345.33496,61.444612 344.8123,61.444611 C 344.67896,61.444612 344.5323,61.428612 344.3723,61.396611 C 344.2123,61.364612 344.09763,61.348612 344.0283,61.348611 C 343.95897,61.348612 343.89497,61.356612 343.8363,61.372611 C 343.78297,61.383279 343.71097,61.407279 343.6203,61.444611 L 343.6203,61.764611 C 343.64163,61.828612 343.70563,62.167278 343.8123,62.780611 C 343.91897,63.399277 343.98563,63.775277 344.0123,63.908611 C 344.07096,64.132609 344.12963,64.359276 344.1883,64.588611 C 344.18296,64.641942 344.17763,64.697942 344.1723,64.756611 C 344.1883,64.772609 344.2043,64.788609 344.2203,64.804611 C 344.2363,64.825942 344.2443,64.847275 344.2443,64.868611 C 344.2443,64.911275 344.2043,64.945942 344.1243,64.972611 C 344.04963,65.004609 343.9083,65.020609 343.7003,65.020611 C 343.67897,65.020609 343.59097,64.911275 343.4363,64.692611 C 343.28697,64.479276 343.14563,64.180609 343.0123,63.796611 C 342.8843,63.417944 342.8203,62.977944 342.8203,62.476611 L 342.8203,61.764611 C 342.8203,60.67128 342.88697,59.801947 343.0203,59.156611 C 343.15897,58.505948 343.54297,58.180615 344.1723,58.180611 C 344.6523,58.180615 345.1563,58.407282 345.6843,58.860611 C 346.21763,59.313948 346.4843,59.777947 346.4843,60.252611 M 345.9243,60.332611 C 345.9243,59.95928 345.72696,59.623281 345.3323,59.324611 C 344.93763,59.025948 344.57763,58.857948 344.2523,58.820611 L 343.7003,59.012611 C 343.65763,59.177948 343.6363,59.316614 343.6363,59.428611 C 343.6523,59.620614 343.66563,59.82328 343.6763,60.036611 C 343.6923,60.244613 343.7003,60.449947 343.7003,60.652611 C 343.81763,60.668613 344.00963,60.71128 344.2763,60.780611 C 344.54296,60.849946 344.80163,60.884613 345.0523,60.884611 C 345.40963,60.884613 345.6443,60.852613 345.7563,60.788611 C 345.8683,60.71928 345.9243,60.56728 345.9243,60.332611 M 352.30405,61.860611 C 352.30404,61.988612 352.16804,62.159278 351.89605,62.372611 C 351.62404,62.585944 351.29871,62.692611 350.92005,62.692611 L 348.88805,62.692611 C 348.33338,62.628611 347.77872,62.548611 347.22405,62.452611 C 346.66938,62.351278 346.39205,62.217945 346.39205,62.052611 C 346.39205,61.908612 346.43738,61.804612 346.52805,61.740611 C 346.61338,61.676612 347.00005,61.473945 347.68805,61.132611 L 348.06405,61.132611 L 348.06405,61.404611 C 347.80805,61.521945 347.65338,61.599279 347.60005,61.636611 C 347.54672,61.689945 347.48538,61.748612 347.41605,61.812611 C 347.54938,61.945945 347.83205,62.065945 348.26405,62.172611 C 348.70138,62.273945 349.21871,62.324611 349.81605,62.324611 C 350.14138,62.303278 350.48538,62.265945 350.84805,62.212611 C 351.21071,62.153945 351.48271,62.036612 351.66405,61.860611 C 351.41338,61.673945 350.79205,61.433946 349.80005,61.140611 C 348.80805,60.847279 348.04005,60.548613 347.49605,60.244611 C 346.95205,59.940614 346.68005,59.495281 346.68005,58.908611 C 346.68005,58.481948 346.77338,58.223282 346.96005,58.132611 C 347.14672,58.036616 347.48272,57.988616 347.96805,57.988611 C 348.30938,57.988616 348.56005,58.007282 348.72005,58.044611 C 348.88005,58.081949 349.02671,58.156615 349.16005,58.268611 L 349.16005,58.548611 C 348.88805,58.660615 348.71205,58.716615 348.63205,58.716611 C 348.59471,58.716615 348.57071,58.689948 348.56005,58.636611 C 348.54938,58.577948 348.50405,58.548615 348.42405,58.548611 C 348.17871,58.633948 347.93071,58.727282 347.68005,58.828611 C 347.43472,58.924615 347.31205,59.012615 347.31205,59.092611 C 347.31205,59.503281 347.54405,59.809947 348.00805,60.012611 C 348.47738,60.209947 349.30938,60.513946 350.50405,60.924611 C 351.70404,61.329946 352.30404,61.641945 352.30405,61.860611 M 358.01892,62.492611 C 358.01892,62.588611 357.96292,62.697944 357.85092,62.820611 C 357.73892,62.948611 357.58692,63.012611 357.39492,63.012611 C 357.11759,63.012611 356.49892,62.913944 355.53892,62.716611 C 354.58426,62.513944 353.91759,62.324611 353.53892,62.148611 C 353.16559,61.967278 352.90426,61.815278 352.75492,61.692611 C 352.60559,61.564612 352.40826,61.351279 352.16292,61.052611 C 352.04026,61.068613 351.92826,61.076613 351.82692,61.076611 C 351.51226,61.076613 351.25093,60.996613 351.04292,60.836611 C 350.83493,60.67128 350.73093,60.49528 350.73092,60.308611 C 350.73093,60.196613 350.77893,60.105947 350.87492,60.036611 C 350.96559,59.961947 351.09093,59.913947 351.25092,59.892611 C 351.28293,59.924614 351.34693,59.988614 351.44292,60.084611 C 351.53893,60.17528 351.61359,60.241947 351.66692,60.284611 L 352.29092,60.308611 C 352.29092,59.769947 352.50959,59.337948 352.94692,59.012611 C 353.38426,58.681948 353.82159,58.452615 354.25892,58.324611 C 354.69626,58.191282 354.99492,58.119282 355.15492,58.108611 C 355.32025,58.092616 355.46959,58.081949 355.60292,58.076611 C 356.10425,58.076616 356.54425,58.191282 356.92292,58.420611 C 357.30692,58.644615 357.49892,58.927281 357.49892,59.268611 C 357.49892,59.444614 357.34959,59.663281 357.05092,59.924611 C 356.75759,60.180613 356.30692,60.40728 355.69892,60.604611 C 355.09092,60.801946 354.34159,60.900613 353.45092,60.900611 C 353.37626,60.889946 353.32559,60.884613 353.29892,60.884611 C 353.22426,60.884613 353.18692,60.903279 353.18692,60.940611 C 353.18692,60.977946 353.23226,61.039279 353.32292,61.124611 C 353.41892,61.209946 353.50692,61.284612 353.58692,61.348611 C 353.91759,61.551279 354.24826,61.751279 354.57892,61.948611 C 355.04826,62.108612 355.63759,62.188611 356.34692,62.188611 C 356.60825,62.188611 356.77092,62.132611 356.83492,62.020611 C 356.89892,61.903278 357.05092,61.817945 357.29092,61.764611 L 357.60292,61.764611 L 358.01892,62.492611 M 356.77092,59.420611 C 356.67492,59.143281 356.51225,58.961948 356.28292,58.876611 C 356.05359,58.791282 355.69625,58.748615 355.21092,58.748611 C 354.64026,58.748615 354.16026,58.892615 353.77092,59.180611 C 353.38159,59.463281 353.06159,59.873947 352.81092,60.412611 C 352.89092,60.380613 352.95226,60.364613 352.99492,60.364611 C 353.02692,60.364613 353.06692,60.372613 353.11492,60.388611 C 353.16292,60.404613 353.20026,60.412613 353.22692,60.412611 C 353.87226,60.412613 354.60826,60.30328 355.43492,60.084611 C 356.26159,59.865947 356.70692,59.644614 356.77092,59.420611 M 368.3988,63.012611 C 368.39879,63.15661 368.38013,63.241944 368.3428,63.268611 C 368.30546,63.30061 368.22013,63.31661 368.0868,63.316611 C 368.00146,63.31661 367.63879,63.201944 366.9988,62.972611 C 366.35879,62.743278 366.00679,62.628611 365.9428,62.628611 C 365.91613,62.628611 365.72946,62.559278 365.3828,62.420611 C 365.03613,62.276611 364.6628,62.089945 364.2628,61.860611 C 363.86813,61.625945 363.50813,61.345946 363.1828,61.020611 C 363.62013,60.812613 364.0228,60.596613 364.3908,60.372611 C 364.76413,60.148613 364.9508,59.724614 364.9508,59.100611 C 364.9508,58.593948 364.74546,58.161949 364.3348,57.804611 C 363.92946,57.44195 363.57213,57.260616 363.2628,57.260611 C 363.04946,57.260616 362.86813,57.44195 362.7188,57.804611 C 362.56947,58.161949 362.4948,58.569948 362.4948,59.028611 C 362.4948,59.161948 362.55347,59.505947 362.6708,60.060611 C 362.78813,60.61528 362.91346,61.193946 363.0468,61.796611 C 363.18546,62.399278 363.25746,62.700611 363.2628,62.700611 L 363.2628,63.012611 L 362.8068,63.012611 C 362.5668,62.708611 362.38547,62.201945 362.2628,61.492611 C 362.14013,60.777946 362.02813,60.10328 361.9268,59.468611 C 361.7828,58.844615 361.56413,58.505948 361.2708,58.452611 C 361.29213,58.377949 361.3188,58.199282 361.3508,57.916611 C 361.37747,57.633949 361.50547,57.492616 361.7348,57.492611 C 361.7508,57.492616 361.80147,57.513949 361.8868,57.556611 C 361.97213,57.599283 362.07347,57.655283 362.1908,57.724611 C 362.31347,57.511283 362.4388,57.295283 362.5668,57.076611 C 362.7588,56.84195 363.01746,56.724617 363.3428,56.724611 C 363.84946,56.724617 364.33213,56.991283 364.7908,57.524611 C 365.2548,58.057949 365.4868,58.559282 365.4868,59.028611 C 365.4868,59.396614 365.3508,59.764614 365.0788,60.132611 C 364.78013,60.47928 364.48146,60.825946 364.1828,61.172611 C 364.1828,61.273946 364.44413,61.420612 364.9668,61.612611 C 365.48946,61.804612 365.95079,61.993945 366.3508,62.180611 C 366.75613,62.361945 367.08413,62.481944 367.3348,62.540611 C 367.59079,62.599278 367.85479,62.628611 368.1268,62.628611 L 368.3988,62.628611 C 368.51079,62.628611 368.56679,62.663278 368.5668,62.732611 C 368.56679,62.785944 368.54546,62.839277 368.5028,62.892611 C 368.46013,62.945944 368.42546,62.985944 368.3988,63.012611 M 369.0788,55.852611 C 369.0788,56.065951 369.04413,56.207284 368.9748,56.276611 C 368.9108,56.340617 368.77746,56.401951 368.5748,56.460611 C 368.54813,56.412617 368.51613,56.308617 368.4788,56.148611 C 368.4468,55.983284 368.4308,55.844618 368.4308,55.732611 C 368.4308,55.636618 368.44147,55.564618 368.4628,55.516611 C 368.48413,55.468618 368.52147,55.444618 368.5748,55.444611 C 368.7668,55.444618 368.89746,55.468618 368.9668,55.516611 C 369.04146,55.559285 369.0788,55.671285 369.0788,55.852611 M 372.2148,60.716611 C 372.21479,61.191279 371.8628,61.612612 371.1588,61.980611 C 370.46013,62.348611 369.7988,62.532611 369.1748,62.532611 C 368.74813,62.532611 368.48413,62.460611 368.3828,62.316611 C 368.28147,62.172611 368.15613,61.839278 368.0068,61.316611 C 367.9428,61.332612 367.8788,61.361946 367.8148,61.404611 C 367.75613,61.441946 367.7028,61.481945 367.6548,61.524611 L 366.7428,61.524611 L 366.7428,61.020611 C 367.3508,60.860613 367.75347,60.657946 367.9508,60.412611 C 368.15347,60.16728 368.30013,59.82328 368.3908,59.380611 C 368.48147,58.937948 368.59346,58.601948 368.7268,58.372611 C 368.89746,58.441949 369.06813,58.508615 369.2388,58.572611 C 369.34546,58.620615 369.4788,58.721948 369.6388,58.876611 C 369.3668,59.212614 369.15346,59.588614 368.9988,60.004611 C 368.84413,60.420613 368.7668,60.825946 368.7668,61.220611 C 368.7668,61.471279 368.8228,61.668612 368.9348,61.812611 C 369.0468,61.956612 369.19346,62.028612 369.3748,62.028611 C 369.4868,62.028612 369.7588,61.977945 370.1908,61.876611 C 370.62813,61.775279 371.0388,61.612612 371.4228,61.388611 C 371.81213,61.164612 372.00679,60.871279 372.0068,60.508611 C 372.06546,60.492613 372.10813,60.484613 372.1348,60.484611 C 372.17213,60.484613 372.19879,60.492613 372.2148,60.508611 C 372.23079,60.524613 372.23879,60.55128 372.2388,60.588611 C 372.23879,60.620613 372.23613,60.64728 372.2308,60.668611 C 372.23079,60.684613 372.22546,60.700613 372.2148,60.716611 M 378.72005,61.820611 C 377.76004,62.289945 377.14938,62.583278 376.88805,62.700611 C 376.63204,62.817944 376.10138,62.876611 375.29605,62.876611 C 374.26138,62.876611 373.40271,62.721944 372.72005,62.412611 C 372.03738,62.097945 371.69605,61.548612 371.69605,60.764611 C 371.69605,60.636613 371.82938,60.35928 372.09605,59.932611 C 372.36805,59.505947 372.74938,59.113948 373.24005,58.756611 C 373.73071,58.399282 374.30938,58.220615 374.97605,58.220611 C 375.09871,58.220615 375.27205,58.268615 375.49605,58.364611 C 375.72005,58.455282 375.89871,58.548615 376.03205,58.644611 L 376.03205,58.964611 C 375.95205,58.980615 375.88271,58.988615 375.82405,58.988611 C 375.77071,58.988615 375.62138,58.985948 375.37605,58.980611 C 375.13071,58.969948 374.92538,58.964615 374.76005,58.964611 C 374.13605,58.964615 373.59205,59.159281 373.12805,59.548611 C 372.66938,59.937947 372.44005,60.377947 372.44005,60.868611 C 372.44005,61.215279 372.70938,61.548612 373.24805,61.868611 C 373.79205,62.188611 374.43738,62.348611 375.18405,62.348611 C 375.72271,62.348611 376.18405,62.281945 376.56805,62.148611 C 376.95738,62.009945 377.29071,61.841945 377.56805,61.644611 C 377.66938,61.564612 377.77071,61.481945 377.87205,61.396611 C 377.88804,61.396612 377.96538,61.441946 378.10405,61.532611 C 378.24271,61.617945 378.44804,61.713945 378.72005,61.820611 M 380.6178,63.052611 C 380.4418,63.137944 380.29246,63.217944 380.1698,63.292611 C 380.04713,63.367277 379.98313,63.40461 379.9778,63.404611 C 379.68446,63.40461 379.46046,63.15661 379.3058,62.660611 C 379.15646,62.164611 379.01246,61.844612 378.8738,61.700611 C 378.7778,61.775279 378.64713,61.932612 378.4818,62.172611 C 378.31647,62.407278 378.07913,62.604611 377.7698,62.764611 C 377.71647,62.641944 377.67647,62.495278 377.6498,62.324611 C 377.62313,62.153945 377.6098,61.993945 377.6098,61.844611 C 377.6098,61.652612 377.62047,61.489945 377.6418,61.356611 C 377.66313,61.217946 377.68447,61.097946 377.7058,60.996611 C 377.66847,60.985946 377.62847,60.969946 377.5858,60.948611 C 377.54847,60.921946 377.51647,60.865946 377.4898,60.780611 C 377.43647,60.47128 377.3698,60.092614 377.2898,59.644611 C 377.21513,59.196614 377.12447,58.660615 377.0178,58.036611 C 376.9058,57.407283 376.8498,57.068617 376.8498,57.020611 C 376.8498,56.983283 376.8338,56.90595 376.8018,56.788611 C 376.76447,56.66595 376.7458,56.580617 376.7458,56.532611 C 376.7458,56.463284 376.75913,56.393951 376.7858,56.324611 C 376.80713,56.255284 376.85247,56.177951 376.9218,56.092611 C 377.13513,56.140617 377.27913,56.327284 377.3538,56.652611 C 377.44447,57.367283 377.5378,58.079282 377.6338,58.788611 C 377.70313,59.087281 377.77247,59.505947 377.8418,60.044611 C 377.91647,60.577946 377.9538,61.017946 377.9538,61.364611 C 377.9538,61.583279 377.94047,61.743279 377.9138,61.844611 L 378.1298,61.844611 C 378.29513,61.748612 378.4418,61.548612 378.5698,61.244611 C 378.6978,60.935279 378.8578,60.780613 379.0498,60.780611 C 379.23646,60.780613 379.3698,61.007279 379.4498,61.460611 C 379.53513,61.908612 379.6338,62.249945 379.7458,62.484611 C 379.86313,62.719278 380.1538,62.836611 380.6178,62.836611 L 380.6178,63.052611 M 393.43042,62.172611 C 393.35575,62.215278 392.91042,62.305945 392.09442,62.444611 C 391.28375,62.583278 390.46242,62.705944 389.63042,62.812611 C 388.79842,62.924611 388.23842,62.980611 387.95042,62.980611 C 386.92109,62.980611 386.14242,62.804611 385.61442,62.452611 C 385.09176,62.100612 384.75842,61.679279 384.61442,61.188611 C 384.47042,60.697946 384.39842,60.11128 384.39842,59.428611 C 384.39842,58.132615 384.78776,57.132616 385.56642,56.428611 C 386.35042,55.724618 387.34775,55.372618 388.55842,55.372611 C 389.24642,55.372618 389.75575,55.484618 390.08642,55.708611 C 390.42242,55.932618 390.59042,56.260617 390.59042,56.692611 C 390.59042,56.772617 390.55042,56.847283 390.47042,56.916611 C 390.39575,56.980617 390.31575,57.039283 390.23042,57.092611 C 390.09709,56.80995 389.96642,56.527284 389.83842,56.244611 C 389.63042,55.999284 389.20375,55.876618 388.55842,55.876611 C 387.50242,55.876618 386.66242,56.220617 386.03842,56.908611 C 385.41976,57.591283 385.11042,58.465948 385.11042,59.532611 C 385.11042,60.396613 385.23842,61.031279 385.49442,61.436611 C 385.75042,61.841945 386.10509,62.100612 386.55842,62.212611 C 387.01709,62.319278 387.65175,62.372611 388.46242,62.372611 L 389.77442,62.372611 C 389.99309,62.372611 390.35309,62.297945 390.85442,62.148611 C 391.35575,61.993945 391.80108,61.847278 392.19042,61.708611 C 392.57975,61.564612 392.89175,61.447279 393.12642,61.356611 L 393.43042,61.356611 L 393.43042,62.172611 M 393.56367,62.500611 C 393.54234,62.559278 393.51567,62.617944 393.48367,62.676611 C 393.45167,62.735278 393.41167,62.764611 393.36367,62.764611 C 393.27301,62.764611 393.19034,62.665944 393.11567,62.468611 C 393.04101,62.265945 392.96367,61.975278 392.88367,61.596611 C 392.80367,61.217946 392.68367,60.636613 392.52367,59.852611 C 392.36901,59.063281 392.26234,58.505948 392.20367,58.180611 C 392.14501,57.849949 392.11567,57.32195 392.11567,56.596611 C 392.11034,56.527284 392.10767,56.46595 392.10767,56.412611 C 392.10767,56.273951 392.12367,56.161951 392.15567,56.076611 C 392.19301,55.991284 392.26767,55.948618 392.37967,55.948611 C 392.47034,55.948618 392.52634,55.988618 392.54767,56.068611 C 392.57434,56.143284 392.58767,56.287284 392.58767,56.500611 L 392.58767,56.940611 C 392.58767,57.388616 392.60101,57.783283 392.62767,58.124611 C 392.65967,58.460615 392.70767,58.825948 392.77167,59.220611 C 392.83567,59.492614 392.92901,59.873947 393.05167,60.364611 C 393.17434,60.855279 393.28901,61.327279 393.39567,61.780611 C 393.50767,62.228611 393.56367,62.468611 393.56367,62.500611 M 395.3913,55.852611 C 395.3913,56.065951 395.35663,56.207284 395.2873,56.276611 C 395.2233,56.340617 395.08996,56.401951 394.8873,56.460611 C 394.86063,56.412617 394.82863,56.308617 394.7913,56.148611 C 394.7593,55.983284 394.7433,55.844618 394.7433,55.732611 C 394.7433,55.636618 394.75397,55.564618 394.7753,55.516611 C 394.79663,55.468618 394.83397,55.444618 394.8873,55.444611 C 395.0793,55.444618 395.20996,55.468618 395.2793,55.516611 C 395.35396,55.559285 395.3913,55.671285 395.3913,55.852611 M 398.5273,60.716611 C 398.52729,61.191279 398.1753,61.612612 397.4713,61.980611 C 396.77263,62.348611 396.1113,62.532611 395.4873,62.532611 C 395.06063,62.532611 394.79663,62.460611 394.6953,62.316611 C 394.59397,62.172611 394.46863,61.839278 394.3193,61.316611 C 394.2553,61.332612 394.1913,61.361946 394.1273,61.404611 C 394.06863,61.441946 394.0153,61.481945 393.9673,61.524611 L 393.0553,61.524611 L 393.0553,61.020611 C 393.6633,60.860613 394.06597,60.657946 394.2633,60.412611 C 394.46597,60.16728 394.61263,59.82328 394.7033,59.380611 C 394.79397,58.937948 394.90596,58.601948 395.0393,58.372611 C 395.20996,58.441949 395.38063,58.508615 395.5513,58.572611 C 395.65796,58.620615 395.7913,58.721948 395.9513,58.876611 C 395.6793,59.212614 395.46596,59.588614 395.3113,60.004611 C 395.15663,60.420613 395.0793,60.825946 395.0793,61.220611 C 395.0793,61.471279 395.1353,61.668612 395.2473,61.812611 C 395.3593,61.956612 395.50596,62.028612 395.6873,62.028611 C 395.7993,62.028612 396.0713,61.977945 396.5033,61.876611 C 396.94063,61.775279 397.3513,61.612612 397.7353,61.388611 C 398.12463,61.164612 398.31929,60.871279 398.3193,60.508611 C 398.37796,60.492613 398.42063,60.484613 398.4473,60.484611 C 398.48463,60.484613 398.51129,60.492613 398.5273,60.508611 C 398.54329,60.524613 398.55129,60.55128 398.5513,60.588611 C 398.55129,60.620613 398.54863,60.64728 398.5433,60.668611 C 398.54329,60.684613 398.53796,60.700613 398.5273,60.716611 M 403.78455,62.492611 C 403.78454,62.588611 403.72854,62.697944 403.61655,62.820611 C 403.50454,62.948611 403.35254,63.012611 403.16055,63.012611 C 402.88321,63.012611 402.26455,62.913944 401.30455,62.716611 C 400.34988,62.513944 399.68321,62.324611 399.30455,62.148611 C 398.93122,61.967278 398.66988,61.815278 398.52055,61.692611 C 398.37122,61.564612 398.17388,61.351279 397.92855,61.052611 C 397.80588,61.068613 397.69388,61.076613 397.59255,61.076611 C 397.27788,61.076613 397.01655,60.996613 396.80855,60.836611 C 396.60055,60.67128 396.49655,60.49528 396.49655,60.308611 C 396.49655,60.196613 396.54455,60.105947 396.64055,60.036611 C 396.73122,59.961947 396.85655,59.913947 397.01655,59.892611 C 397.04855,59.924614 397.11255,59.988614 397.20855,60.084611 C 397.30455,60.17528 397.37922,60.241947 397.43255,60.284611 L 398.05655,60.308611 C 398.05655,59.769947 398.27522,59.337948 398.71255,59.012611 C 399.14988,58.681948 399.58721,58.452615 400.02455,58.324611 C 400.46188,58.191282 400.76055,58.119282 400.92055,58.108611 C 401.08588,58.092616 401.23521,58.081949 401.36855,58.076611 C 401.86988,58.076616 402.30988,58.191282 402.68855,58.420611 C 403.07254,58.644615 403.26454,58.927281 403.26455,59.268611 C 403.26454,59.444614 403.11521,59.663281 402.81655,59.924611 C 402.52321,60.180613 402.07255,60.40728 401.46455,60.604611 C 400.85655,60.801946 400.10721,60.900613 399.21655,60.900611 C 399.14188,60.889946 399.09122,60.884613 399.06455,60.884611 C 398.98988,60.884613 398.95255,60.903279 398.95255,60.940611 C 398.95255,60.977946 398.99788,61.039279 399.08855,61.124611 C 399.18455,61.209946 399.27255,61.284612 399.35255,61.348611 C 399.68321,61.551279 400.01388,61.751279 400.34455,61.948611 C 400.81388,62.108612 401.40321,62.188611 402.11255,62.188611 C 402.37388,62.188611 402.53654,62.132611 402.60055,62.020611 C 402.66454,61.903278 402.81654,61.817945 403.05655,61.764611 L 403.36855,61.764611 L 403.78455,62.492611 M 402.53655,59.420611 C 402.44055,59.143281 402.27788,58.961948 402.04855,58.876611 C 401.81921,58.791282 401.46188,58.748615 400.97655,58.748611 C 400.40588,58.748615 399.92588,58.892615 399.53655,59.180611 C 399.14722,59.463281 398.82722,59.873947 398.57655,60.412611 C 398.65655,60.380613 398.71788,60.364613 398.76055,60.364611 C 398.79255,60.364613 398.83255,60.372613 398.88055,60.388611 C 398.92855,60.404613 398.96588,60.412613 398.99255,60.412611 C 399.63788,60.412613 400.37388,60.30328 401.20055,60.084611 C 402.02721,59.865947 402.47255,59.644614 402.53655,59.420611 M 408.47642,62.092611 C 408.47642,62.247278 408.41509,62.369945 408.29242,62.460611 C 408.16975,62.545944 408.02575,62.588611 407.86042,62.588611 C 407.66309,62.588611 407.50042,62.497944 407.37242,62.316611 C 407.24442,62.129945 407.00975,61.751279 406.66842,61.180611 C 406.32709,60.609946 406.05775,60.249947 405.86042,60.100611 C 405.68442,60.68728 405.48709,61.193946 405.26842,61.620611 C 405.04976,62.047278 404.75109,62.455278 404.37242,62.844611 L 403.99642,62.844611 C 403.80976,62.380611 403.66576,61.713945 403.56442,60.844611 C 403.46842,59.969947 403.38309,59.361948 403.30842,59.020611 C 403.23376,58.679282 403.04709,58.415282 402.74842,58.228611 C 402.83376,57.977949 402.89776,57.801949 402.94042,57.700611 C 402.98309,57.599283 403.04442,57.484616 403.12442,57.356611 C 403.45509,57.516616 403.67376,57.791283 403.78042,58.180611 C 403.88709,58.564615 403.98576,59.148614 404.07642,59.932611 C 404.17242,60.716613 404.28976,61.271279 404.42842,61.596611 C 404.70576,61.463279 404.97242,61.135279 405.22842,60.612611 C 405.48442,60.089947 405.61242,59.337948 405.61242,58.356611 L 405.98842,58.356611 L 408.47642,62.092611 M 411.91355,61.284611 C 411.91355,61.380612 411.87088,61.473945 411.78555,61.564611 C 411.70021,61.655279 411.59888,61.700612 411.48155,61.700611 L 410.58555,61.340611 L 410.43355,61.340611 L 410.43355,62.828611 L 410.04955,62.828611 C 409.90555,62.796611 409.59622,62.551278 409.12155,62.092611 C 408.64688,61.633945 408.40955,61.324612 408.40955,61.164611 C 408.40955,60.977946 408.63355,60.873946 409.08155,60.852611 C 409.53488,60.831279 409.76155,60.737946 409.76155,60.572611 C 409.76155,60.396613 409.70822,60.097947 409.60155,59.676611 C 409.50022,59.249948 409.44955,58.996615 409.44955,58.916611 L 408.44955,56.148611 C 408.52955,56.015284 408.59355,55.924618 408.64155,55.876611 C 408.68955,55.828618 408.75355,55.804618 408.83355,55.804611 C 408.92422,55.804618 409.13222,56.236617 409.45755,57.100611 C 409.78288,57.964616 409.98555,58.615282 410.06555,59.052611 L 410.36155,60.644611 C 410.43621,60.713946 410.71355,60.801946 411.19355,60.908611 C 411.67355,61.015279 411.91355,61.140612 411.91355,61.284611 M 409.76955,62.212611 L 409.76155,61.300611 L 409.56955,61.284611 C 409.49488,61.284612 409.42555,61.289946 409.36155,61.300611 C 409.29755,61.305946 409.26555,61.335279 409.26555,61.388611 C 409.26555,61.468612 409.33488,61.593945 409.47355,61.764611 C 409.61755,61.935278 409.71622,62.084612 409.76955,62.212611"
       id="text1915"
       sodipodi:nodetypes="csssssssccscssscssccccssssscsssccssssssscsssssscccccssssssssccsssssssssssccsssssssssssccssssccscsssssccssscscccsscscsssssscssssccsssssccssssssssssccsssccsccsscsssccsccssscccscscscssssssccsssssssccssssscssssssccssssssssssssscssccccssscssssccsssssscsssssssscccsccsssccsssccsssccssccscsssssccssscscccsscscsssssscssssccssssssssccsssssssssssccssscscsssssssssssscccssccsssscccsssssssssssccsssssccssccccsssssssssssccssssccscsssssccssscscccsscscsssssscssssccssssscssssssccssssssssssssscssccccssscssssccsssscsccsscscsscsccccscccccsssssccsssccsccccsssc" />
    <rect
       style="opacity:1;fill:#d5e5ff;fill-opacity:1;stroke:#2b0000;stroke-width:0.81815296;stroke-linecap:butt;stroke-linejoin:miter;stroke-miterlimit:4;stroke-dasharray:none;stroke-opacity:1"
       id="rect1919"
       width="36.378059"
       height="37.882584"
       x="158.77449"
       y="24.692402"
       rx="0.38987687"
       ry="0.66313428" />
    <g
       style="overflow:visible"
       id="g1884"
       transform="matrix(7.247721e-2,0,0,7.247721e-2,163.9977,30.04937)">
      <path
         id="path1873"
         d="M 177.783,374.859 C 177.783,374.859 117.397,344.296 70.518,276.416 C 23.641,208.519 13.132,154.143 7.885,121.513 C 2.638,88.891 0,33 0,0 L 177.783,0 L 355.553,0 C 355.553,33 352.927,88.891 347.682,121.513 C 342.419,154.143 331.939,208.519 285.047,276.415 C 238.157,344.296 177.783,374.859 177.783,374.859"
         style="fill:#df002a" />
      <polygon
         id="polygon1875"
         points="177.957,10.294 151.33,84.175 125.078,12.366 97.32,85.675 70.316,15.925 16.306,15.925 16.306,68.804 84.956,97.685 15.553,134.437 88.697,147.186 31.686,189.948 107.439,192.2 56.444,243.948 128.457,234.569 86.826,289.709 165.202,269.083 134.457,324.221 177.957,356.661 221.471,324.221 190.712,269.083 269.102,289.709 227.458,234.569 299.47,243.948 248.461,192.2 324.213,189.948 267.217,147.186 340.345,134.437 270.972,97.685 339.591,68.804 339.591,15.925 285.584,15.925 258.594,85.675 230.848,12.366 204.584,84.175 177.957,10.294 "
         style="fill:#ffffff" />
      <path
         id="path1877"
         d="M 151.071,177.434 C 141.107,174.734 130.138,171.977 122.045,166.756 C 129.65,175.417 140.592,184.378 151.059,188.828 L 151.071,177.434 z M 197.224,178.99 C 191.195,180.051 184.036,180.609 177.629,180.609 C 177.629,180.609 164.371,180.05 158.342,178.99 L 158.356,191.522 C 164.328,193.156 171.488,194.026 177.937,194.026 C 183.546,194.026 191.223,193.156 197.209,191.522 L 197.224,178.99 z M 174.225,174.232 C 160.953,173.751 146.467,170.707 135.274,166.605 L 135.302,153.214 C 146.409,157.275 160.798,160.198 174.21,160.673 L 174.225,174.232 z M 127.877,150.654 C 119.825,146.754 111.046,141.066 105.451,135.608 C 107.279,141.239 110.503,150.186 113.363,155.182 C 117.522,158.14 122.993,161.699 127.878,164.044 L 127.878,150.654 L 127.877,150.654 z M 197.098,153.102 C 191.153,153.925 184.286,154.373 177.909,154.373 C 171.517,154.373 164.414,153.925 158.454,153.102 L 158.454,141.462 C 164.386,142.251 171.503,142.663 177.909,142.663 C 184.315,142.663 191.167,142.251 197.098,141.462 L 197.098,153.102 L 197.098,153.102 z M 204.507,177.42 C 214.445,174.733 225.428,171.977 233.508,166.756 C 225.93,175.417 214.96,184.378 204.507,188.808 L 204.507,177.42 z M 181.342,174.232 C 194.613,173.751 209.085,170.707 220.279,166.605 L 220.251,153.214 C 209.157,157.275 194.769,160.198 181.371,160.673 L 181.342,174.232 z M 227.69,150.654 C 235.741,146.754 244.52,141.066 250.101,135.608 C 248.274,141.239 245.063,150.186 242.19,155.182 C 238.031,158.14 232.587,161.699 227.69,164.044 L 227.69,150.654 z M 204.592,151.881 L 204.592,140.34 C 209.49,139.32 215.017,137.611 219.344,136.104 L 219.344,118.485 L 228.484,118.485 L 228.484,132.376 C 243.557,125.19 253.032,114.843 253.103,103.35 L 264.687,103.35 C 264.853,105.778 264.812,107.642 264.812,110.126 C 264.812,163.06 226.727,206.658 177.797,206.736 C 129.37,206.371 90.754,163.06 90.754,110.126 C 90.754,107.642 90.713,105.778 90.88,103.35 L 102.463,103.35 C 102.532,114.844 112.008,125.19 127.082,132.376 L 127.082,118.485 L 136.208,118.485 L 136.208,136.104 C 140.549,137.612 146.075,139.321 150.988,140.34 L 150.988,151.881 C 143.996,150.353 136.585,147.839 130.655,145.28 C 130.655,145.28 128.085,144.183 126.831,143.535 C 124.695,142.495 122.616,141.38 120.662,140.207 C 105.045,131.358 98.011,122.19 97.328,121.458 C 102.324,165.487 136.488,199.93 177.783,200.015 C 219.789,199.93 253.228,165.488 258.252,121.458 C 257.555,122.19 250.534,131.358 234.903,140.207 C 232.935,141.38 230.884,142.495 228.734,143.535 C 227.478,144.183 226.181,144.825 224.841,145.482 C 224.842,145.483 211.556,150.353 204.592,151.881"
         style="fill:#3c474c" />
    </g>
    <text
       xml:space="preserve"
       style="font-size:12px;font-style:normal;font-weight:normal;fill:#000000;fill-opacity:1;stroke:none;stroke-width:1pt;stroke-linecap:butt;stroke-linejoin:miter;stroke-opacity:1;font-family:Bitstream Vera Sans"
       x="45.208107"
       y="48.286518"
       id="text1899"><tspan
         sodipodi:role="line"
         id="tspan1901"
         x="45.208107"
         y="48.286518"
         style="font-size:13px;font-weight:bold;font-family:Arial">KIEL</tspan></text>
    <path
       style="font-size:12px;font-style:normal;font-weight:normal;fill:#000000;fill-opacity:1;stroke:none;stroke-width:1pt;stroke-linecap:butt;stroke-linejoin:miter;stroke-opacity:1;font-family:Bitstream Vera Sans"
       d="M 120.69292,53.740247 C 120.37291,53.932256 120.08091,54.072256 119.81692,54.160247 C 119.55291,54.240256 119.31291,54.280256 119.09692,54.280247 C 119.08891,54.280256 118.76091,54.236256 118.11292,54.148247 C 117.47291,54.060256 116.93291,54.016256 116.49292,54.016247 C 116.06091,54.016256 115.69691,54.032256 115.40092,54.064247 C 115.11291,54.096256 114.88491,54.132256 114.71692,54.172247 C 114.55691,54.212256 114.22091,54.280256 113.70892,54.376247 C 113.19691,54.472256 112.55692,54.584255 111.78892,54.712247 C 110.93292,54.952255 110.50492,55.396255 110.50492,56.044247 C 110.40892,56.220254 110.31292,56.460254 110.21692,56.764247 C 110.12092,57.068253 110.07292,57.544252 110.07292,58.192247 C 110.02492,58.168252 109.97692,58.184252 109.92892,58.240247 C 109.88892,58.296252 109.86892,58.428252 109.86892,58.636247 C 109.86892,58.732251 109.87292,58.848251 109.88092,58.984247 C 109.88892,59.120251 109.90492,59.288251 109.92892,59.488247 C 110.49692,59.368251 110.91692,59.288251 111.18892,59.248247 C 111.46092,59.208251 111.66892,59.188251 111.81292,59.188247 C 111.86092,59.188251 111.90092,59.192251 111.93292,59.200247 L 116.96092,58.624247 L 117.53692,58.624247 C 117.35291,59.152251 116.58491,59.53225 115.23292,59.764247 C 114.04091,59.90025 112.83291,60.04025 111.60892,60.184247 C 110.39292,60.32025 109.78492,60.564249 109.78492,60.916247 C 109.78492,61.372249 110.13292,61.800248 110.82892,62.200247 C 111.52492,62.592247 112.51692,62.788247 113.80492,62.788247 C 114.44491,62.788247 115.25691,62.692247 116.24092,62.500247 C 117.22491,62.308248 117.84491,62.212248 118.10092,62.212247 C 117.96491,62.684247 117.72491,62.996247 117.38092,63.148247 C 117.04491,63.300247 116.58891,63.376247 116.01292,63.376247 C 115.89291,63.376247 115.69691,63.372247 115.42492,63.364247 C 115.15291,63.356247 114.94491,63.352247 114.80092,63.352247 L 113.08492,63.352247 C 111.50892,63.352247 110.37292,63.144247 109.67692,62.728247 C 108.98892,62.304248 108.64492,61.460249 108.64492,60.196247 C 108.64492,59.61225 108.71292,58.984251 108.84892,58.312247 C 108.99292,57.640252 109.06492,57.264253 109.06492,57.184247 C 109.06492,57.168253 109.08492,57.132253 109.12492,57.076247 C 109.17292,57.020253 109.19692,56.924253 109.19692,56.788247 C 109.19692,56.724253 109.19292,56.644253 109.18492,56.548247 C 109.17692,56.444254 109.16092,56.324254 109.13692,56.188247 C 108.65692,55.988254 108.38492,55.876254 108.32092,55.852247 C 108.24892,55.828254 108.21292,55.748254 108.21292,55.612247 C 108.21292,55.276255 108.62892,54.920255 109.46092,54.544247 C 110.30092,54.160256 111.27292,53.836256 112.37692,53.572247 C 113.48891,53.308257 114.39291,53.176257 115.08892,53.176247 C 116.24891,53.176257 117.16891,53.180257 117.84892,53.188247 C 118.52891,53.196257 119.16491,53.204257 119.75692,53.212247 L 119.92492,53.212247 C 120.27691,53.212257 120.53291,53.200257 120.69292,53.176247 L 120.69292,53.740247 M 129.88267,63.664247 C 129.88266,63.880246 129.85466,64.008246 129.79867,64.048247 C 129.74266,64.096246 129.61466,64.120246 129.41467,64.120247 C 129.28666,64.120246 128.74266,63.948246 127.78267,63.604247 C 126.82266,63.260247 126.29466,63.088247 126.19867,63.088247 C 126.15866,63.088247 125.87866,62.984247 125.35867,62.776247 C 124.83866,62.560247 124.27866,62.280248 123.67867,61.936247 C 123.08667,61.584248 122.54667,61.164249 122.05867,60.676247 C 122.71467,60.36425 123.31866,60.04025 123.87067,59.704247 C 124.43066,59.368251 124.71066,58.732251 124.71067,57.796247 C 124.71066,57.036253 124.40266,56.388254 123.78667,55.852247 C 123.17867,55.308255 122.64267,55.036255 122.17867,55.036247 C 121.85867,55.036255 121.58667,55.308255 121.36267,55.852247 C 121.13867,56.388254 121.02667,57.000253 121.02667,57.688247 C 121.02667,57.888252 121.11467,58.404252 121.29067,59.236247 C 121.46667,60.06825 121.65467,60.936249 121.85467,61.840247 C 122.06267,62.744247 122.17067,63.196247 122.17867,63.196247 L 122.17867,63.664247 L 121.49467,63.664247 C 121.13467,63.208247 120.86267,62.448248 120.67867,61.384247 C 120.49467,60.31225 120.32667,59.300251 120.17467,58.348247 C 119.95867,57.412253 119.63067,56.904253 119.19067,56.824247 C 119.22267,56.712253 119.26267,56.444254 119.31067,56.020247 C 119.35067,55.596254 119.54267,55.384255 119.88667,55.384247 C 119.91067,55.384255 119.98667,55.416255 120.11467,55.480247 C 120.24267,55.544254 120.39467,55.628254 120.57067,55.732247 C 120.75467,55.412255 120.94267,55.088255 121.13467,54.760247 C 121.42267,54.408256 121.81067,54.232256 122.29867,54.232247 C 123.05867,54.232256 123.78266,54.632255 124.47067,55.432247 C 125.16666,56.232254 125.51466,56.984253 125.51467,57.688247 C 125.51466,58.240252 125.31066,58.792251 124.90267,59.344247 C 124.45466,59.86425 124.00666,60.38425 123.55867,60.904247 C 123.55866,61.056249 123.95066,61.276249 124.73467,61.564247 C 125.51866,61.852248 126.21066,62.136248 126.81067,62.416247 C 127.41866,62.688247 127.91066,62.868247 128.28667,62.956247 C 128.67066,63.044247 129.06666,63.088247 129.47467,63.088247 L 129.88267,63.088247 C 130.05066,63.088247 130.13466,63.140247 130.13467,63.244247 C 130.13466,63.324247 130.10266,63.404247 130.03867,63.484247 C 129.97466,63.564246 129.92266,63.624246 129.88267,63.664247"
       id="text1903" />
    <path
       style="fill:none;fill-opacity:0.75;fill-rule:evenodd;stroke:#000000;stroke-width:1;stroke-linecap:butt;stroke-linejoin:miter;marker-end:url(#Arrow2Mend);stroke-miterlimit:4;stroke-dasharray:none;stroke-opacity:1"
       d="M 78.359288,49.769216 C 92.458331,49.769216 98.000701,49.769216 98.000701,49.769216"
       id="path1935"
       sodipodi:nodetypes="cc" />
    <path
       style="fill:none;fill-opacity:0.75;fill-rule:evenodd;stroke:#000000;stroke-width:1;stroke-linecap:butt;stroke-linejoin:miter;marker-end:url(#Arrow2Mend);stroke-miterlimit:4;stroke-dasharray:none;stroke-opacity:1"
       d="M 77.797167,31.552226 C 152.02814,31.239536 157.10923,31.414996 157.10923,31.414996"
       id="path1937"
       sodipodi:nodetypes="cc" />
    <path
       style="fill:none;fill-opacity:0.75;fill-rule:evenodd;stroke:#000000;stroke-width:1;stroke-linecap:butt;stroke-linejoin:miter;marker-end:url(#Arrow2Mend);stroke-miterlimit:4;stroke-dasharray:none;stroke-opacity:1"
       d="M 24.832251,68.303926 C 90.999821,68.303926 97.957271,68.303926 97.957271,68.303926"
       id="path1939"
       sodipodi:nodetypes="cc" />
    <path
       style="fill:none;fill-opacity:0.75;fill-rule:evenodd;stroke:#000000;stroke-width:1;stroke-linecap:butt;stroke-linejoin:miter;marker-end:url(#Arrow2Mend);stroke-miterlimit:4;stroke-dasharray:none;stroke-opacity:1"
       d="M 24.331138,43.643306 C 35.093864,43.643306 40.046621,43.643306 40.046621,43.643306"
       id="path1941"
       sodipodi:nodetypes="cc" />
    <path
       style="fill:none;fill-opacity:0.75;fill-rule:evenodd;stroke:#000000;stroke-width:0.99631989;stroke-linecap:butt;stroke-linejoin:miter;marker-end:url(#Arrow2Mend);stroke-miterlimit:4;stroke-dasharray:none;stroke-opacity:1"
       d="M 135.65587,58.674036 C 152.51821,58.674036 157.07902,58.792076 157.07902,58.792076"
       id="path1943"
       sodipodi:nodetypes="cc" />
    <path
       style="fill:none;fill-opacity:0.75;fill-rule:evenodd;stroke:#000000;stroke-width:1;stroke-linecap:butt;stroke-linejoin:miter;marker-end:url(#Arrow2Mend);stroke-miterlimit:4;stroke-dasharray:none;stroke-opacity:1"
       d="M 195.28741,43.646996 C 201.91372,43.646996 206.9844,43.764916 206.9844,43.764916"
       id="path1945"
       sodipodi:nodetypes="cc" />
  </g>
</svg>
