<?xml version="1.0" encoding="UTF-8" standalone="no"?>
<!-- Created with Inkscape (http://www.inkscape.org/) -->
<svg
   xmlns:dc="http://purl.org/dc/elements/1.1/"
   xmlns:cc="http://creativecommons.org/ns#"
   xmlns:rdf="http://www.w3.org/1999/02/22-rdf-syntax-ns#"
   xmlns:svg="http://www.w3.org/2000/svg"
   xmlns="http://www.w3.org/2000/svg"
   xmlns:sodipodi="http://sodipodi.sourceforge.net/DTD/sodipodi-0.dtd"
   xmlns:inkscape="http://www.inkscape.org/namespaces/inkscape"
   width="1000"
   height="1000"
   id="svg2"
   sodipodi:version="0.32"
   inkscape:version="0.46"
   version="1.0"
   sodipodi:docname="tu.svg"
   inkscape:output_extension="org.inkscape.output.svg.inkscape">
  <defs
     id="defs4">
    <linearGradient
       id="linearGradient3210">
      <stop
         style="stop-color:#828282;stop-opacity:1;"
         offset="0"
         id="stop3212" />
      <stop
         style="stop-color:#c8c8c8;stop-opacity:1;"
         offset="1"
         id="stop3214" />
    </linearGradient>
    <inkscape:perspective
       sodipodi:type="inkscape:persp3d"
       inkscape:vp_x="751.69607 : 330.79439 : 1"
       inkscape:vp_y="6.1230318e-14 : 1000 : 0"
       inkscape:vp_z="1008.6806 : 895.24487 : 1"
       inkscape:persp3d-origin="372.04724 : 350.78739 : 1"
       id="perspective10" />
  </defs>
  <sodipodi:namedview
     id="base"
     pagecolor="#ffffff"
     bordercolor="#666666"
     borderopacity="1.0"
     gridtolerance="10000"
     guidetolerance="10000"
     objecttolerance="10000"
     inkscape:pageopacity="0.0"
     inkscape:pageshadow="2"
     inkscape:zoom="0.737"
     inkscape:cx="520.8587"
     inkscape:cy="491.27423"
     inkscape:document-units="px"
     inkscape:current-layer="g3266"
     showgrid="true"
     height="2979.92px"
     borderlayer="true"
     inkscape:showpageshadow="true"
     inkscape:window-width="1280"
     inkscape:window-height="945"
     inkscape:window-x="0"
     inkscape:window-y="27"
     inkscape:snap-global="true"
     showguides="true"
     inkscape:snap-bbox="true"
     inkscape:object-paths="false"
     inkscape:object-nodes="false"
     inkscape:bbox-paths="false"
     inkscape:bbox-nodes="false">
    <inkscape:grid
       type="xygrid"
       id="grid3179"
       visible="true"
       enabled="true"
       spacingx="50px"
       spacingy="50px"
       units="px" />
  </sodipodi:namedview>
  <metadata
     id="metadata7">
    <rdf:RDF>
      <cc:Work
         rdf:about="">
        <dc:format>image/svg+xml</dc:format>
        <dc:type
           rdf:resource="http://purl.org/dc/dcmitype/StillImage" />
      </cc:Work>
    </rdf:RDF>
  </metadata>
  <g
     inkscape:label="Layer 1"
     inkscape:groupmode="layer"
     id="layer1">
    <g
       id="g3266">
      <rect
         style="opacity:1;fill:#e6e6e6;fill-opacity:1;fill-rule:nonzero;stroke:#000000;stroke-width:30;stroke-linecap:round;stroke-linejoin:round;stroke-miterlimit:4;stroke-dasharray:none;stroke-dashoffset:0;stroke-opacity:1"
         id="rect3415"
         width="900"
         height="550"
         x="50"
         y="50"
         rx="0.30279118"
         ry="0.69955355" />
      <path
         style="opacity:1;fill:#000000;fill-opacity:1;fill-rule:nonzero;stroke:#000000;stroke-width:5;stroke-linecap:round;stroke-linejoin:round;stroke-miterlimit:4;stroke-dasharray:none;stroke-dashoffset:0;stroke-opacity:1"
         id="path3419"
         d="M 104.50349,183.78112 C 105.59135,179.97628 107.23322,176.36461 108.74747,172.71821 C 111.2335,167.39096 113.66031,162.04043 115.99499,156.64458 C 118.46114,150.82078 120.86319,144.97012 123.39455,139.17421 C 125.60603,134.19492 128.17686,129.39987 130.32401,124.39143 C 131.77701,120.64836 133.71298,117.16111 135.65931,113.66415 C 137.25368,110.69533 139.05321,107.84679 140.92919,105.05019 C 146.42972,97.93278 156.10359,89.63953 164.91321,93.36024 C 168.43936,95.82451 171.1445,99.21137 173.86567,102.49316 C 177.61007,107.2215 181.28689,112.00553 185.11099,116.67 C 188.71446,120.80951 191.62568,125.38381 194.25505,130.18034 C 196.47187,133.96389 198.40296,137.9025 200.49422,141.75516 C 201.95932,144.80585 203.82003,147.63674 205.463,150.58967 C 207.04009,152.76485 208.60684,155.07606 210.74477,156.73658 C 212.44295,158.40107 213.77387,159.12216 216.12444,158.7142 C 216.44495,158.66433 216.7743,158.65446 217.08596,158.56459 C 218.29836,158.21498 219.69166,157.46055 220.77656,156.85354 C 221.38143,156.51511 223.1424,155.40893 222.53982,155.75143 C 217.60837,158.55441 212.70566,161.40765 207.78858,164.23576 C 214.21553,160.30739 220.17409,155.66021 226.22482,151.18434 C 232.76077,146.43684 238.73982,141.0076 244.79515,135.68035 C 249.49556,131.6088 254.1383,127.47476 258.9474,123.53091 C 263.97717,119.42331 268.93908,115.24513 274.06834,111.26107 C 279.11533,107.51515 284.23752,103.87083 289.32831,100.18326 C 296.90541,94.92648 293.5362,97.18574 310.00134,87.94352 C 310.97567,87.39661 312.27277,87.17516 313.37125,87.41443 C 314.59107,87.68012 315.63974,88.47992 316.6583,89.13067 C 321.6858,93.43046 325.90003,98.64196 329.83702,103.9338 C 335.17455,111.28862 340.06792,118.93095 344.23678,127.00689 C 348.13796,134.63809 351.10795,142.72326 353.32564,150.99244 C 354.98343,157.80958 356.28401,164.7075 357.69285,171.57917 C 358.64811,176.14419 359.16461,180.81683 360.48705,185.29909 C 360.67237,185.66188 360.81458,186.05015 361.04301,186.38746 C 361.18609,186.59873 361.34553,186.84571 361.58808,186.92492 C 362.10305,187.09309 362.42678,185.73445 362.38091,185.75812 C 347.1422,193.62208 341.77179,199.50096 347.53456,193.48087 C 351.69583,187.9101 355.67827,182.20497 359.70383,176.53408 C 364.19315,170.17752 368.68926,163.81454 373.69029,157.84714 C 376.96357,153.99224 380.1191,150.03286 383.65972,146.4169 C 386.77043,143.43343 389.98456,140.58119 393.59854,138.22444 C 408.37152,128.77444 412.2859,125.71524 427.05502,124.62211 C 434.80859,123.80961 442.18872,125.44852 449.33774,128.31204 C 455.08874,130.78594 460.36679,134.05442 464.79223,138.47759 C 469.08478,143.40161 472.04399,149.29287 475.61945,154.72856 C 478.92844,159.4783 482.48382,164.08987 485.45683,169.06187 C 487.28516,172.24914 489.83412,174.8949 492.13602,177.72382 C 493.8076,179.72376 495.97663,181.03286 498.62209,180.76186 C 499.52899,180.63331 500.35262,180.57735 501.20686,180.18408 C 501.70507,179.95471 503.08262,179.04697 502.60482,179.31628 C 497.56218,182.15854 492.5807,185.10955 487.51118,187.90358 C 486.72038,188.33941 489.02291,186.91505 489.76107,186.39502 C 490.63893,185.77657 491.49245,185.12427 492.35814,184.4889 C 500.39908,178.14164 508.39043,171.73133 516.35282,165.28563 C 525.08887,158.3743 533.62987,151.2197 542.41246,144.36753 C 553.54471,136.36322 565.66328,129.79307 577.50204,122.93654 C 579.97732,121.76855 583.25541,119.83485 586.09938,121.10515 C 586.60504,121.33101 587.02822,121.70854 587.49264,122.01023 C 591.92039,125.91097 594.89167,131.14383 597.82491,136.18803 C 601.56333,142.79769 605.2542,149.43404 608.96212,156.06086 C 611.70288,161.30107 614.87261,166.2815 618.08872,171.23476 C 619.81351,174.07989 621.90827,176.5507 625.03955,177.79358 C 626.2552,177.86175 627.48719,177.92131 628.62183,177.38124 C 629.08976,177.15851 630.39348,176.30583 629.94137,176.55911 C 614.40956,185.26034 609.92571,188.78066 616.5489,183.77425 C 622.59783,178.17558 628.24487,172.15023 633.75117,166.02199 C 642.07115,156.28106 650.11586,146.31016 658.44807,136.57885 C 665.34251,128.07853 673.08825,120.34356 680.57621,112.38132 C 685.53318,107.16715 690.69764,102.15588 695.81435,97.09979 C 702.9301,90.65149 711.54122,86.65932 720.01269,82.02085 C 721.11164,81.41913 721.93449,81.67059 723.07425,81.78662 C 727.84758,84.47251 730.25684,91.22108 732.6047,95.94209 C 737.13037,107.18029 742.29065,118.13303 747.3273,129.14565 C 750.865,137.12086 754.8783,144.86878 758.88169,152.61621 C 762.08652,158.64727 765.40582,164.61587 768.60132,170.65211 C 771.38201,175.81995 774.3869,180.94266 778.08863,185.51142 C 780.49084,188.0603 782.55504,189.32339 786.01603,188.29883 C 786.44966,188.1694 786.90282,188.09303 787.31693,187.91056 C 788.4433,187.41425 791.54861,185.39506 790.47433,185.99586 C 774.77031,194.77851 771.30152,197.51451 778.4982,192.45161 C 779.43088,191.79547 780.36008,191.13441 781.29102,190.4758 C 787.50264,186.05086 793.4503,181.27962 799.40902,176.52488 C 802.94131,173.62718 806.48968,170.74852 809.9817,167.80204 L 828.4365,160.27391 C 824.99079,163.54958 820.94452,166.15428 817.39118,169.31624 C 811.41168,174.04024 805.477,178.81767 799.3503,183.35133 C 790.41622,189.67974 788.2492,190.71307 775.12419,198.41516 C 773.5231,199.35473 771.87937,200.06832 770.01964,200.25612 C 766.26572,200.27533 763.48863,198.52709 761.18088,195.57982 C 757.61399,190.76219 754.58129,185.57044 751.70617,180.31666 C 748.54489,174.24943 745.29503,168.22991 742.06391,162.19974 C 738.19453,154.33725 734.34881,146.45379 730.96993,138.36513 C 726.15205,127.31596 721.30088,116.25202 715.90146,105.47847 C 714.35839,102.58008 711.10772,95.17596 707.94403,93.74916 C 707.63819,93.61124 707.2799,93.65338 706.94784,93.60549 C 700.92758,95.01738 689.77582,103.01721 719.79809,85.52456 C 720.42225,85.16089 718.53965,86.23657 717.93674,86.63449 C 716.83899,87.35901 714.91016,88.85985 713.89029,89.63762 C 708.60974,94.73541 703.31141,99.8163 698.15455,105.04004 C 690.54428,113.08306 682.54699,120.77896 675.52023,129.35788 C 667.19293,138.97355 659.21109,148.87285 651.13104,158.69513 C 645.87826,164.76525 640.4139,170.63939 634.80456,176.38191 C 628.00095,182.90701 632.60807,178.74832 614.33532,188.90512 C 612.52317,189.9124 610.19486,189.43908 608.38049,188.79864 C 605.16291,187.03226 602.84964,184.34067 601.05983,181.14639 C 598.00013,176.05796 594.88498,171.00274 592.20025,165.69831 C 588.55972,159.05352 584.88163,152.42642 581.07783,145.87407 C 578.29314,141.18504 575.38429,136.12968 570.79912,132.98196 C 567.76661,132.03411 564.88568,133.88509 562.27156,135.26766 C 593.48897,117.15682 566.68919,132.50226 560.05714,137.32534 C 551.10512,144.1193 542.50628,151.36011 533.68133,158.31653 C 525.93278,164.63297 518.1369,170.89096 510.45538,177.28902 C 502.10212,183.73265 493.19185,192.07073 482.37218,192.42687 C 479.36363,191.86447 476.9384,190.40477 475.07786,187.93013 C 472.73882,185.01215 470.1276,182.2862 468.39346,178.92918 C 465.52781,173.94323 462.20435,169.2242 458.92553,164.50475 C 455.3857,159.20444 452.36644,153.49427 448.08242,148.73811 C 443.80208,144.61125 438.82674,141.37432 433.32714,139.07196 C 426.11311,136.43467 419.15753,135.18863 411.44994,136.17732 C 408.30049,136.51662 405.17163,136.8533 402.11426,137.73121 C 395.37526,139.66627 384.15429,147.51952 412.02249,131.09311 C 408.29429,133.2507 405.0269,135.93024 401.90316,138.89504 C 398.12728,142.35446 394.9582,146.40519 391.61309,150.26994 C 386.40474,156.12025 381.75633,162.43724 377.31283,168.88392 C 373.41068,174.46061 369.41209,179.9816 365.79191,185.74387 C 360.56139,192.72888 363.93161,188.61487 346.60053,198.21584 C 345.12274,199.0345 343.30827,195.70234 343.02271,194.80341 C 341.80952,190.201 341.3594,185.43026 340.52853,180.75154 C 339.21746,173.87941 337.93057,166.99735 336.35969,160.17964 C 334.36339,151.98562 331.49119,143.98763 327.66265,136.46441 C 323.59925,128.45161 318.66124,120.96305 313.31767,113.7453 C 309.44279,108.69888 305.27211,103.64607 300,100 C 298.51588,99.34257 297.6188,99.07264 296.04272,99.68709 C 295.5577,99.87618 294.19368,100.64214 294.6416,100.37688 C 313.36524,89.2889 314.06979,88.796 307.54024,92.97999 C 302.40056,96.67122 297.26432,100.36248 292.12393,104.04959 C 286.98501,108.00747 281.98304,112.11402 277.00692,116.27405 C 272.12883,120.15112 267.52965,124.34439 262.78577,128.38085 C 256.55775,133.67285 250.58123,139.27169 243.98838,144.12533 C 238.10394,148.55293 232.26796,153.07119 226.13906,157.14914 C 219.81911,160.8254 213.51445,164.52806 207.17922,168.17793 C 204.94061,169.46764 202.52757,170.59272 199.8958,170.54965 C 197.46757,170.28317 195.49292,169.03368 193.7819,167.32064 C 191.61943,165.34043 189.78959,162.96148 188.1934,160.51036 C 186.58218,157.53094 184.6975,154.69963 183.3047,151.60393 C 181.26788,147.72907 179.37541,143.77652 177.21237,139.96881 C 174.64531,135.27755 171.87803,130.75619 168.35923,126.69758 C 164.59205,122.00377 160.90737,117.24502 157.0691,112.60822 C 154.49303,109.69393 151.92468,106.41366 148.40191,104.62169 C 147.38446,104.4524 147.19592,104.30945 146.1907,104.56378 C 145.83649,104.6534 144.85598,105.14888 145.16855,104.95967 C 175.64256,86.51247 164.02731,92.54932 159.22146,97.08255 C 157.26877,99.82807 155.39051,102.61284 153.74058,105.55485 C 151.88157,109.08081 149.7056,112.42937 148.23482,116.15545 C 146.08415,121.24516 143.42684,126.06433 141.08788,131.06538 C 138.52381,136.83278 136.16432,142.68393 133.71245,148.49922 C 131.46002,153.85569 129.09136,159.1621 126.64029,164.43179 C 125.32104,167.96522 123.62889,171.35444 122.61043,175.00096 L 104.50349,183.78112 z" />
      <path
         style="opacity:1;fill:#000000;fill-opacity:1;fill-rule:nonzero;stroke:#000000;stroke-width:5;stroke-linecap:round;stroke-linejoin:round;stroke-miterlimit:4;stroke-dasharray:none;stroke-dashoffset:0;stroke-opacity:1"
         id="path3421"
         d="M 148.45746,368.71155 C 150.73608,364.88026 153.19883,361.17574 155.45237,357.32666 C 159.13609,351.00158 162.54101,344.52002 166.23633,338.20146 C 170.46725,330.98316 175.06152,323.98231 180.05789,317.27215 C 184.55935,311.69225 189.4596,306.45571 194.42226,301.2883 C 198.96713,296.75556 203.7103,292.42234 208.74938,288.44485 C 217.76041,281.95073 227.51164,276.51841 237.69286,272.13635 C 242.15763,270.33161 244.24913,269.90449 248.55755,272.23677 C 254.66439,277.09291 259.65606,283.18433 264.51615,289.2426 C 272.29541,298.94168 278.45661,309.77408 284.86936,320.38933 C 290.45236,329.65746 295.93269,338.98242 301.39416,348.32288 C 303.92302,352.72104 306.2601,357.23057 308.85173,361.59222 C 310.59849,364.61296 312.70756,367.07833 316.01763,368.29926 C 316.42008,368.30961 316.82251,368.33983 317.22499,368.33032 C 318.64266,368.29681 319.72642,367.91747 320.95119,367.2092 C 321.47793,366.90459 323.03006,365.94446 322.4988,366.24113 C 317.57516,368.99068 312.68112,371.79291 307.77228,374.5688 C 316.10204,367.9991 323.10682,359.95344 330.27354,352.18072 C 337.71117,344.19928 344.76348,335.86815 352.17089,327.8615 C 358.9485,320.87675 366.01091,314.1632 373.26077,307.67037 C 378.31107,303.09558 383.59126,298.79033 389.26273,295.01148 C 396.40854,290.60007 398.39164,289.33372 409.90821,283.49223 C 411.01624,282.93021 412.79706,283.72312 413.62786,284.30038 C 415.93885,285.9061 416.35464,287.37305 417.88812,289.90611 C 424.86456,303.24313 432.43397,316.25933 439.76593,329.40191 C 444.76887,337.99904 449.87523,346.54109 455.10295,355.00383 C 457.51455,359.29058 459.78368,363.65009 462.16622,367.95198 C 463.53207,370.40315 465.05627,373.16742 468.08491,373.52922 C 466.81513,375.31354 473.84942,370.95721 472.71785,371.58273 C 457.74147,379.86153 452.86495,383.92371 459.85857,378.37138 C 468.35805,370.72196 476.73553,362.93211 485.01493,355.04424 C 500.23745,339.40673 515.87863,324.1863 531.12142,308.5677 C 535.75933,304.04847 540.1484,299.28168 544.77392,294.75037 C 546.01986,293.52981 548.00411,291.52449 549.63884,290.61523 C 555.86473,287.15229 562.20064,283.89096 568.48155,280.52882 C 569.08312,280.87467 569.8127,281.05918 570.28625,281.56637 C 572.27901,283.70074 572.59552,287.70385 573.11563,290.36765 C 574.63102,298.12898 573.14178,291.01343 574.83053,298.87879 C 576.4852,306.30201 578.77775,313.55953 580.85729,320.86927 C 582.03939,323.81713 582.24673,328.11821 585.28016,329.86875 C 586.24771,330.00023 585.80657,330.09555 586.61192,329.62445 C 581.05296,332.639 575.52418,335.70989 569.93504,338.66811 C 569.54795,338.87299 570.68575,338.20152 570.99419,337.89059 C 571.76645,337.1121 572.8901,335.27764 573.4214,334.46902 C 576.70978,328.51067 580.7918,323.15137 585.51694,318.27579 C 588.35766,315.56585 591.42333,313.06568 594.83179,311.09629 C 603.87591,305.87066 610.33071,299.96724 620.00247,298.64661 C 620.80471,298.85655 621.64907,298.94498 622.40921,299.27643 C 626.84091,301.2088 629.67718,306.38402 631.95912,310.33237 C 634.83669,315.01125 636.96472,320.11994 640.65942,324.2428 C 642.74261,326.16061 645.40148,327.03724 648.19275,326.59899 C 654.78574,323.75608 661.25653,320.49402 667.70654,317.31121 C 673.80216,314.11944 680.0731,311.28319 686.22637,308.20863 C 690.11766,306.26431 693.92214,304.14662 697.84177,302.26009 C 711.90254,295.49258 726.35575,289.89663 740.98023,284.49911 C 768.54989,275.19227 796.45776,266.91616 824.51027,259.19895 C 832.24158,257.20187 839.84311,254.75515 847.5,252.5 L 832.18547,264.2773 C 824.98871,266.17153 817.81885,268.17088 810.57528,269.88347 C 782.90308,276.86558 755.48726,284.83697 728.53302,294.23983 C 723.39507,296.17608 718.21469,298.00329 713.11916,300.04858 C 692.58548,308.29059 673.09215,318.71329 653.40843,328.75054 C 639.32647,335.90897 652.90096,329.03891 641.66765,334.65354 C 638.60966,336.18198 635.55197,338.13829 632.05842,338.38458 C 628.78509,338.10448 625.9181,336.95879 623.69643,334.43866 C 620.19413,330.02995 618.08013,324.83219 615.1435,320.05938 C 613.25792,316.91493 610.14239,311.57442 606.24106,310.60629 C 605.6149,310.4509 604.95319,310.52705 604.30925,310.48744 C 597.39664,312.11097 589.30226,318.09719 612.81987,304.1351 C 613.92259,303.48043 610.57075,305.37269 609.4955,306.07158 C 608.39038,306.78987 607.3231,307.5678 606.28637,308.38169 C 605.27771,309.17355 604.33864,310.05026 603.36478,310.88454 C 598.61056,315.47591 594.44732,320.58404 591.43331,326.50601 C 587.0196,334.26937 579.44347,347.00722 568.30308,340.54091 C 565.44148,337.75463 564.64377,333.93986 563.6693,330.18526 C 561.91067,322.73276 559.71816,315.39016 557.97657,307.93288 C 557.95928,307.85665 556.12069,299.74975 556.07057,299.541 C 555.8265,298.52442 554.85627,293.45914 553.71954,292.66466 C 553.45746,292.48149 553.08164,292.61952 552.7627,292.59696 C 557.80007,289.57156 562.85753,286.57937 567.87482,283.52078 C 568.71344,283.00955 566.09969,284.38322 565.30033,284.95389 C 564.21232,285.73062 563.232,286.6496 562.23879,287.54436 C 557.15186,292.12706 552.50792,297.17519 547.45538,301.7947 C 532.02881,317.09048 516.47625,332.26397 501.67784,348.17634 C 493.83736,355.85334 485.96257,363.48892 477.99444,371.03279 C 470.65683,377.69766 476.02609,373.0664 457.27254,384.08846 C 455.44869,385.16039 453.58667,385.39072 451.56945,384.80834 C 448.42342,383.41447 446.46207,380.86446 444.9508,377.81721 C 442.70436,373.4648 440.59425,369.0527 438.36659,364.6893 C 433.46169,356.00865 428.561,347.32271 423.80745,338.55867 C 416.82852,325.30738 409.6711,312.09712 401.3314,299.64294 C 400.06387,298.04767 399.18033,296.28355 397.21917,295.49598 C 395.70662,294.88856 393.82355,296.04789 394.31649,295.74138 C 402.75939,290.49139 415.68556,283.4003 407.55959,287.87369 C 401.67506,291.63226 396.0836,295.78889 390.90193,300.48688 C 383.59076,306.90461 376.53959,313.62055 369.69875,320.53519 C 362.10581,328.52362 354.97067,336.94157 347.43997,344.99071 C 340.42576,352.56428 333.68529,360.4157 326.04266,367.38034 C 319.71285,371.14277 313.41578,374.96085 307.05321,378.66764 C 304.65492,380.06486 301.98653,380.29778 299.39632,379.33701 C 295.99635,377.57205 293.63556,374.80162 291.74379,371.48839 C 289.17525,367.08191 286.99115,362.47474 284.64156,357.95028 C 279.67689,348.36287 274.47422,338.89813 269.10492,329.5321 C 262.72923,318.96516 255.79346,308.7432 248.18158,299.02261 C 243.40445,293.22173 238.46877,287.252 232.0637,283.18105 C 228.1402,281.7914 225.89806,282.83055 222.19272,284.38762 C 220.65579,285.04531 219.74776,285.40764 218.24675,286.15641 C 217.58917,286.48443 215.66646,287.56299 216.29857,287.18823 C 243.57642,271.01578 232.77505,277.3647 226.97837,281.18962 C 221.72448,284.97927 216.97293,289.38721 212.28698,293.84921 C 207.31234,298.99884 202.43633,304.23861 197.7539,309.65708 C 192.64799,316.27305 187.98096,323.2154 183.74491,330.42128 C 180.08264,336.63621 176.8635,343.09396 173.3259,349.37801 C 171.1797,353.07438 169.04094,356.75695 166.81741,360.40493 L 148.45746,368.71155 z" />
      <path
         style="opacity:1;fill:#000000;fill-opacity:1;fill-rule:nonzero;stroke:#000000;stroke-width:5;stroke-linecap:round;stroke-linejoin:round;stroke-miterlimit:4;stroke-dasharray:none;stroke-dashoffset:0;stroke-opacity:1"
         id="path3423"
         d="M 156.61256,509.06366 C 159.90827,508.14384 162.90527,506.51794 165.85916,504.83089 C 171.97142,501.4033 174.66109,499.88621 152.80342,512.3624 C 152.10924,512.75864 154.17288,511.53768 154.85945,511.12839 C 156.91509,509.90293 158.93579,508.63309 160.96545,507.36525 C 164.93523,505.12175 168.68123,502.5383 172.37485,499.87422 C 175.54223,497.69241 178.46417,495.19484 181.75196,493.1923 C 190.45706,487.87702 199.26118,482.66762 208.38654,478.1076 C 212.32522,475.83961 216.56742,474.33917 220.85259,472.88548 C 227.15876,470.84829 233.65109,469.56436 240.20717,468.67359 C 243.69009,468.57271 247.33711,467.37672 250.83583,467.98981 C 252.71677,468.31941 253.4824,468.90268 255.16146,469.79241 C 259.73351,473.11201 263.1616,477.73675 266.62177,482.14515 C 269.83747,486.62665 272.5691,491.44429 275.37341,496.1928 C 277.82413,500.4722 280.79123,504.41854 283.34502,508.6298 C 285.35415,512.12573 287.87568,515.26097 290.54913,518.26208 C 293.33985,521.31498 296.81015,523.10581 300.76724,524.08542 C 303.87866,524.57369 307.13313,525.05638 310.25773,524.48085 C 314.34948,522.79375 318.40867,520.87733 322.35483,518.83213 C 327.98275,515.86637 333.69867,513.09778 339.33014,510.13427 C 345.25845,506.89981 357.20294,500.08078 330.72088,515.232 C 329.79221,515.76332 332.57564,514.16449 333.49042,513.60958 C 335.41416,512.44263 337.30416,511.22094 339.21323,510.03013 C 345.29939,506.15582 351.29152,502.13671 357.30971,498.15776 C 368.05328,491.021 379.23458,484.58544 390.5913,478.47201 C 396.87164,475.10005 403.38092,472.17108 409.87819,469.246 C 416.09749,466.07748 422.66403,463.83649 429.27651,461.66571 C 435.50558,459.52339 441.84397,457.66384 448.31187,456.39857 C 452.93488,455.22645 456.97347,456.694 461.01974,458.83143 C 465.00248,461.15071 468.10102,464.55764 470.51553,468.43112 C 472.98902,472.0048 474.65855,476.0339 476.8598,479.75908 C 479.41117,483.46629 480.72145,487.80235 482.52376,491.88227 C 484.57205,496.25376 486.4616,500.68375 488.92975,504.84108 C 490.53631,507.38883 491.91628,510.41981 494.6994,511.84998 C 496.98781,513.44894 499.85012,513.6673 502.55544,513.4894 C 507.84508,512.62871 512.75997,510.33425 517.72963,508.42355 C 525.76901,505.6653 533.66579,502.52387 541.52872,499.30368 C 549.34614,496.00117 556.96826,492.25025 564.63347,488.61013 C 571.71176,485.8996 597.36415,471.15405 568.14522,487.90807 C 574.41553,484.31161 580.40299,480.26119 586.46273,476.32865 C 595.29335,470.51074 604.68374,465.54574 613.78954,460.20587 C 618.53533,457.42282 604.25982,465.70669 599.47144,468.41581 C 598.64794,468.88172 601.08633,467.42937 601.89377,466.93615 C 608.29658,463.27563 614.69939,459.61512 621.1022,455.95461 C 621.88941,455.54045 622.68385,455.13976 623.46383,454.71215 C 624.19519,454.3112 624.9042,453.87036 625.63552,453.46933 C 626.30263,453.10352 628.31651,452.03032 627.65837,452.41205 C 607.89807,463.87336 607.75283,463.97996 613.80251,460.29027 C 619.93368,456.78815 626.00288,453.17522 632.19604,449.78391 C 634.69741,448.41419 636.70698,451.36825 637.80708,453.04747 C 639.86085,456.50597 641.61939,460.11171 643.23095,463.79332 C 644.78414,466.48394 645.44038,469.48865 646.35752,472.41015 C 647.00122,474.24483 647.3094,476.39558 648.87926,477.69178 C 650.77088,478.43814 653.04327,477.49028 654.91232,476.95422 C 658.28231,476.39276 661.5845,475.53665 664.96063,475.001 C 668.1291,474.5245 671.3329,474.47971 674.52936,474.48093 C 678.5935,474.51897 682.65771,474.50097 686.72188,474.4825 C 689.98697,474.21941 692.62808,474.59688 694.8863,477.08318 C 696.37173,479.45329 696.9872,482.24332 697.6763,484.92412 C 698.52246,488.45925 699.18522,492.04206 699.86,495.61574 C 700.75882,498.74583 701.32068,501.94898 702.01997,505.12309 C 702.72326,507.76682 703.02814,510.50674 704.07485,513.04724 C 705.2461,514.95311 707.45688,515.00943 709.47574,515.15683 C 709.58733,515.13637 711.88012,514.71738 711.93663,514.70144 C 716.6206,513.38044 738.85465,499.80084 700.08889,521.82427 C 703.93796,519.22737 707.11176,515.81164 710.59993,512.77737 C 715.24518,508.64732 720.04552,504.68764 724.50183,500.35086 C 727.64516,496.98924 730.86346,493.70065 734.0286,490.35932 C 736.83986,487.21409 740.01145,484.43416 743.27459,481.77364 C 744.31895,480.92246 745.3638,480.0758 746.38064,479.19203 L 764.95293,471.73693 C 763.8286,472.56697 762.89582,473.57683 761.70638,474.3233 C 758.50499,477.10136 754.965,479.53148 752.18039,482.77468 C 749.01891,486.16503 745.7881,489.47248 742.61997,492.85406 C 738.22589,497.29777 733.30417,501.1653 728.74794,505.43699 C 725.21903,508.33584 722.16307,511.70268 718.6281,514.58864 C 713.53814,517.54529 702.07655,527.18774 693.15134,526.71915 C 690.43106,526.26954 687.99181,525.40329 686.62547,522.8117 C 685.54126,520.16024 685.10675,517.35654 684.46118,514.57841 C 683.69042,511.38462 683.35942,508.08588 682.35579,504.93885 C 681.72882,501.42442 681.00283,497.92024 680.18056,494.44959 C 679.47483,492.12271 679.01762,489.64661 677.78696,487.52755 C 675.8397,485.7232 673.12909,486.19931 670.65916,486.14892 C 666.59969,486.11737 662.53935,486.0753 658.48046,486.17859 C 655.33672,486.27497 652.18432,486.40322 649.08074,486.95521 C 645.71764,487.57515 642.37879,488.33641 639.04701,489.10203 C 636.51813,489.67972 633.88721,490.00763 631.76304,488.20478 C 630.15245,486.45027 629.4128,484.30034 628.81754,482.02102 C 627.93965,479.15018 627.46546,476.15207 625.91469,473.51123 C 624.44,469.92656 622.84667,466.38248 620.64937,463.17082 C 620.24022,462.65078 619.80546,461.88819 619.12397,461.61394 C 618.30203,461.28318 617.34147,461.97079 616.64602,462.25634 C 621.88223,459.21666 627.11843,456.17697 632.35464,453.13728 C 631.85814,453.42782 631.36282,453.7204 630.86513,454.00891 C 624.67154,457.59926 618.48583,461.20329 612.2808,464.77384 C 610.93014,465.55105 609.54347,466.26397 608.16993,466.99999 C 607.39753,467.41388 605.09251,468.67632 605.84557,468.2282 C 610.58848,465.40588 615.37648,462.66001 620.14193,459.87592 C 609.42209,466.47379 581.1248,482.4727 612.79543,464.25295 C 613.69546,463.73517 611.024,465.33708 610.12673,465.85963 C 605.42542,468.59753 609.24811,466.17449 604.49648,469.30397 C 598.3919,473.2179 592.43061,477.35537 586.15219,480.99274 C 574.13061,487.90982 562.25783,495.06711 549.53274,500.6335 C 541.921,504.20551 534.36334,507.91381 526.57218,511.08358 C 518.58697,514.34462 510.55182,517.47615 502.44362,520.41941 C 497.28851,522.44316 492.10607,524.81563 486.50401,525.16716 C 483.42968,525.02092 480.39899,524.59008 477.86725,522.68808 C 475.101,520.67399 473.50538,517.65062 471.8712,514.704 C 469.41834,510.46062 467.49012,505.97555 465.34015,501.57872 C 463.49571,497.59512 462.35719,493.25807 459.72646,489.66984 C 457.54994,485.95613 455.96028,481.90913 453.47384,478.36392 C 451.18072,474.80788 448.30994,471.68397 444.51159,469.69419 C 440.64941,467.88198 436.91162,467.12389 432.6837,468.2332 C 426.33166,469.54268 420.11396,471.42337 413.98717,473.54229 C 407.40393,475.76007 400.93255,478.2123 394.69651,481.29665 C 388.21644,484.26177 381.70316,487.1781 375.47248,490.64937 C 368.20864,494.62486 369.32822,494.04719 386.40443,484.17072 C 387.28443,483.66175 384.6577,485.21135 383.79197,485.74421 C 380.96387,487.48492 381.18406,487.40574 378.33117,489.22625 C 377.33343,489.86294 376.3287,490.4886 375.32746,491.11977 C 369.30555,495.06883 363.33553,499.08853 357.30452,503.02314 C 346.39918,509.70144 335.50146,516.41296 324.1469,522.32742 C 318.4904,525.28209 312.73759,528.04013 307.10788,531.04582 C 302.98554,533.10601 298.78308,535.47658 294.23674,536.36894 C 290.93291,536.45352 287.61638,536.15048 284.4193,535.2783 C 280.26432,533.92878 276.59326,531.73497 273.59279,528.50928 C 270.86774,525.39939 268.31576,522.14285 266.26795,518.53684 C 263.71722,514.31806 260.90037,510.26868 258.42649,506.00113 C 255.65721,501.32831 252.93497,496.60129 249.79934,492.16783 C 246.56337,487.96465 243.28327,483.51422 238.72009,480.67542 C 238.0563,480.41235 237.41551,480.08152 236.72872,479.8862 C 232.84014,478.7803 228.58212,480.15472 224.6724,480.30114 C 218.10514,481.28918 211.60974,482.72807 205.34383,484.96422 C 201.06113,486.48169 196.92299,488.29236 192.94138,490.49159 C 188.78874,492.69143 193.62011,490.12974 189.34665,492.40306 C 188.76147,492.71435 187.01775,493.66929 187.58982,493.33451 C 215.21182,477.1698 206.13287,482.40276 200.31261,486.03459 C 196.9389,488.0163 193.79946,490.23214 190.71202,492.64584 C 186.95433,495.22709 183.39113,498.09727 179.36411,500.27478 C 176.58971,501.84609 173.967,503.654 171.208,505.26133 C 164.94211,508.91168 158.66745,512.54696 152.39015,516.17765 C 151.74821,516.54894 151.09702,516.90399 150.45046,517.26716 C 147.34993,518.94512 144.10804,520.26931 140.80423,521.49472 L 156.61256,509.06366 z" />
      <path
         style="opacity:1;fill:#00e100;fill-opacity:1;fill-rule:nonzero;stroke:#000000;stroke-width:10;stroke-linecap:round;stroke-linejoin:round;stroke-miterlimit:4;stroke-dasharray:none;stroke-dashoffset:0;stroke-opacity:1"
         id="path3427"
         d="M 487.53872,242.53923 C 491.85603,246.51857 496.23036,250.43364 500.9102,253.98204 C 507.4056,258.78031 513.69168,263.84209 520.3324,268.43912 C 526.27172,272.00994 531.36756,276.71208 536.52126,281.29513 C 541.69146,285.8094 546.6103,290.59858 551.32656,295.58812 C 555.94714,300.71986 560.63222,305.79003 565.27861,310.89679 C 569.32111,315.52756 573.49845,320.01877 577.24718,324.89397 C 580.93265,329.31101 584.02499,334.17533 587.34097,338.86666 C 591.706,344.60101 595.27859,350.86122 599.25826,356.85472 C 603.26088,363.49172 607.41009,370.03227 611.72879,376.47082 C 615.38687,381.93548 618.94157,387.47105 622.46111,393.02624 C 625.34148,397.75365 628.23543,402.47195 631.60033,406.87298 C 633.90895,410.48906 636.33828,414.00558 638.49236,417.71501 C 639.82148,419.77455 641.09889,423.62409 643.48919,424.66775 C 654.28235,408.38678 592.95376,454.14069 609.38984,442.53804 C 611.83659,440.04741 613.69088,437.11181 615.413,434.09776 C 617.91709,429.05253 620.19124,423.89281 622.52783,418.76639 C 625.7953,411.41825 628.99034,404.03545 632.11681,396.62552 C 635.42835,388.9936 638.31902,381.19282 641.10228,373.35622 C 643.79846,366.03102 646.96224,358.90035 650.08362,351.75105 C 652.8827,345.46147 655.67473,339.16874 658.4866,332.88478 C 661.11257,326.82753 664.25999,321.02181 667.35142,315.19488 C 670.331,309.91073 673.20543,304.56799 676.33996,299.3734 C 679.39957,294.41828 682.25373,289.342 685.16379,284.29883 C 687.44462,279.85024 689.81453,275.45746 692.34213,271.1443 C 695.09445,266.34085 698.40736,261.89856 701.33721,257.20323 C 704.41497,251.81867 708.16849,246.87 711.68506,241.77351 C 715.84683,235.92439 720.3774,230.34814 724.79929,224.69552 C 729.41771,218.76038 734.63698,213.33891 739.66016,207.7539 C 744.64044,202.48776 749.19141,196.83427 754.18133,191.58069 C 758.48124,187.24887 762.78115,182.91634 767.34097,178.85673 C 771.85304,174.94324 776.54316,171.24006 781.22501,167.53313 C 785.91045,163.67557 790.54035,159.75087 795.24249,155.91343 C 799.3248,152.52939 803.73146,149.57393 807.95123,146.37144 C 811.23701,144.03915 814.39806,141.5442 817.60899,139.11275 C 819.41331,138.10878 820.9304,136.69104 822.68552,135.63146 L 863.69023,118.85635 C 862.28821,120.64896 860.25677,121.71776 858.52565,123.17844 C 854.84383,125.17748 851.7471,127.99404 848.33515,130.40078 C 843.9173,133.42391 839.71876,136.77315 835.30956,139.81768 C 830.55855,143.59912 825.84314,147.43004 821.26846,151.42272 C 816.68929,155.25852 811.89925,158.83546 807.26524,162.60531 C 802.67376,166.63877 798.18254,170.77028 793.86573,175.10236 C 788.62094,180.25997 783.85146,185.83054 778.8809,191.25044 C 773.9658,196.78287 768.90554,202.1847 764.14929,207.85556 C 759.71522,213.4114 755.31252,218.99621 750.99483,224.6418 C 747.5654,229.64514 744.13815,234.6494 740.80102,239.71459 C 738.07263,244.43463 735.07807,248.9632 732.01067,253.46372 C 729.54399,257.88384 726.84099,262.1697 724.59487,266.71175 C 721.72124,271.84165 718.83101,276.95269 715.72725,281.94368 C 712.5638,287.10866 709.65087,292.40203 706.62824,297.65096 C 703.29157,303.28045 700.31921,309.12116 697.54761,315.04816 C 694.61043,321.33872 691.87001,327.71618 688.88367,333.98369 C 685.67461,341.08124 682.47689,348.18091 679.58791,355.41602 C 676.64009,363.26405 673.9902,371.22907 670.63688,378.92063 C 667.48332,386.19907 664.49262,393.54607 661.52093,400.90004 C 659.34929,405.986 657.1989,411.05602 655.17191,416.2 C 653.66467,419.36137 652.26768,422.57928 650.07846,425.34267 C 642.28555,439.23453 621.23086,443.62147 609.6297,449.98231 C 609.35139,450.1349 607.25342,449.25267 607.10142,449.15695 C 606.63251,448.86165 606.25547,448.44094 605.83249,448.08293 C 603.70133,445.50752 602.00867,442.61879 600.61344,439.58245 C 598.5591,435.99658 596.25232,432.57385 594.14925,429.01537 C 590.95988,424.38285 588.18886,419.49204 585.29852,414.67083 C 581.83132,409.12122 578.27408,403.62925 574.7833,398.09469 C 570.57661,391.60776 566.82778,384.83853 562.61992,378.35394 C 558.56605,372.45337 554.6017,366.49146 550.27413,360.78523 C 546.86877,356.21057 543.64428,351.50209 540.10056,347.03128 C 536.3646,342.29982 532.64686,337.55632 528.54082,333.13284 C 524.00183,327.98278 519.39703,322.89521 514.68334,317.9039 C 510.04894,313.01063 505.19507,308.32637 500.06504,303.95304 C 494.99028,299.52213 489.9891,295.00449 484.35187,291.27907 C 477.9049,286.38897 471.49075,281.4587 464.89952,276.76269 C 459.99482,273.13438 455.28187,269.20079 450,266.11829 L 487.53872,242.53923 z" />
    </g>
  </g>
</svg>
