<?xml version="1.0" encoding="UTF-8" standalone="no"?>
<!-- Created with Inkscape (http://www.inkscape.org/) -->
<svg
   xmlns:dc="http://purl.org/dc/elements/1.1/"
   xmlns:cc="http://creativecommons.org/ns#"
   xmlns:rdf="http://www.w3.org/1999/02/22-rdf-syntax-ns#"
   xmlns:svg="http://www.w3.org/2000/svg"
   xmlns="http://www.w3.org/2000/svg"
   xmlns:xlink="http://www.w3.org/1999/xlink"
   xmlns:sodipodi="http://sodipodi.sourceforge.net/DTD/sodipodi-0.dtd"
   xmlns:inkscape="http://www.inkscape.org/namespaces/inkscape"
   width="684.17316"
   height="599.37946"
   id="svg2"
   sodipodi:version="0.32"
   inkscape:version="0.46"
   sodipodi:docname="backhoe.svg"
   inkscape:output_extension="org.inkscape.output.svg.inkscape"
   version="1.0"
   viewBox="0 0 684 599">
  <sodipodi:namedview
     id="base"
     pagecolor="#ffffff"
     bordercolor="#666666"
     borderopacity="1.0"
     gridtolerance="10000"
     guidetolerance="10"
     objecttolerance="10"
     inkscape:pageopacity="0.0"
     inkscape:pageshadow="2"
     inkscape:zoom="1.0174481"
     inkscape:cx="342.53595"
     inkscape:cy="254.744"
     inkscape:document-units="px"
     inkscape:current-layer="layer1"
     showgrid="false"
     inkscape:window-width="1280"
     inkscape:window-height="977"
     inkscape:window-x="0"
     inkscape:window-y="20" />
  <defs
     id="defs4">
    <inkscape:perspective
       sodipodi:type="inkscape:persp3d"
       inkscape:vp_x="0 : 526.18109 : 1"
       inkscape:vp_y="0 : 1000 : 0"
       inkscape:vp_z="744.09448 : 526.18109 : 1"
       inkscape:persp3d-origin="372.04724 : 350.78739 : 1"
       id="perspective10" />
    <inkscape:perspective
       id="perspective2447"
       inkscape:persp3d-origin="372.04724 : 350.78739 : 1"
       inkscape:vp_z="744.09448 : 526.18109 : 1"
       inkscape:vp_y="0 : 1000 : 0"
       inkscape:vp_x="0 : 526.18109 : 1"
       sodipodi:type="inkscape:persp3d" />
    <inkscape:perspective
       id="perspective2497"
       inkscape:persp3d-origin="372.04724 : 350.78739 : 1"
       inkscape:vp_z="744.09448 : 526.18109 : 1"
       inkscape:vp_y="0 : 1000 : 0"
       inkscape:vp_x="0 : 526.18109 : 1"
       sodipodi:type="inkscape:persp3d" />
    <inkscape:perspective
       id="perspective2623"
       inkscape:persp3d-origin="372.04724 : 350.78739 : 1"
       inkscape:vp_z="744.09448 : 526.18109 : 1"
       inkscape:vp_y="0 : 1000 : 0"
       inkscape:vp_x="0 : 526.18109 : 1"
       sodipodi:type="inkscape:persp3d" />
    <inkscape:perspective
       id="perspective2777"
       inkscape:persp3d-origin="372.04724 : 350.78739 : 1"
       inkscape:vp_z="744.09448 : 526.18109 : 1"
       inkscape:vp_y="0 : 1000 : 0"
       inkscape:vp_x="0 : 526.18109 : 1"
       sodipodi:type="inkscape:persp3d" />
    <inkscape:perspective
       id="perspective2827"
       inkscape:persp3d-origin="372.04724 : 350.78739 : 1"
       inkscape:vp_z="744.09448 : 526.18109 : 1"
       inkscape:vp_y="0 : 1000 : 0"
       inkscape:vp_x="0 : 526.18109 : 1"
       sodipodi:type="inkscape:persp3d" />
    <inkscape:perspective
       id="perspective2877"
       inkscape:persp3d-origin="372.04724 : 350.78739 : 1"
       inkscape:vp_z="744.09448 : 526.18109 : 1"
       inkscape:vp_y="0 : 1000 : 0"
       inkscape:vp_x="0 : 526.18109 : 1"
       sodipodi:type="inkscape:persp3d" />
    <inkscape:perspective
       id="perspective2927"
       inkscape:persp3d-origin="372.04724 : 350.78739 : 1"
       inkscape:vp_z="744.09448 : 526.18109 : 1"
       inkscape:vp_y="0 : 1000 : 0"
       inkscape:vp_x="0 : 526.18109 : 1"
       sodipodi:type="inkscape:persp3d" />
    <inkscape:perspective
       id="perspective2977"
       inkscape:persp3d-origin="372.04724 : 350.78739 : 1"
       inkscape:vp_z="744.09448 : 526.18109 : 1"
       inkscape:vp_y="0 : 1000 : 0"
       inkscape:vp_x="0 : 526.18109 : 1"
       sodipodi:type="inkscape:persp3d" />
    <inkscape:perspective
       id="perspective3192"
       inkscape:persp3d-origin="372.04724 : 350.78739 : 1"
       inkscape:vp_z="744.09448 : 526.18109 : 1"
       inkscape:vp_y="0 : 1000 : 0"
       inkscape:vp_x="0 : 526.18109 : 1"
       sodipodi:type="inkscape:persp3d" />
    <inkscape:perspective
       id="perspective3291"
       inkscape:persp3d-origin="372.04724 : 350.78739 : 1"
       inkscape:vp_z="744.09448 : 526.18109 : 1"
       inkscape:vp_y="0 : 1000 : 0"
       inkscape:vp_x="0 : 526.18109 : 1"
       sodipodi:type="inkscape:persp3d" />
    <radialGradient
       r="36.904343"
       fy="122.93433"
       fx="124.75272"
       cy="122.93433"
       cx="124.75272"
       gradientTransform="matrix(1,0,0,0.98913,0,1.336244)"
       gradientUnits="userSpaceOnUse"
       id="radialGradient2196"
       xlink:href="#linearGradient3528"
       inkscape:collect="always" />
    <radialGradient
       r="36.904343"
       fy="122.93433"
       fx="124.75272"
       cy="122.93433"
       cx="124.75272"
       gradientTransform="matrix(1,0,0,0.98913,0,1.336244)"
       gradientUnits="userSpaceOnUse"
       id="radialGradient17974"
       xlink:href="#linearGradient3528"
       inkscape:collect="always" />
    <linearGradient
       y2="186.41083"
       x2="82.849258"
       y1="0"
       x1="0"
       gradientTransform="matrix(0.627646,0,0,1.593255,57.96866,54.71846)"
       gradientUnits="userSpaceOnUse"
       id="linearGradient17067"
       xlink:href="#back"
       inkscape:collect="always" />
    <radialGradient
       r="340.96289"
       fy="350.82419"
       fx="298.12531"
       cy="350.82419"
       cx="298.12531"
       gradientTransform="matrix(1,0,0,1.112913,0,-39.61257)"
       gradientUnits="userSpaceOnUse"
       id="radialGradient17054"
       xlink:href="#linearGradient3528"
       inkscape:collect="always" />
    <radialGradient
       r="340.96289"
       fy="350.82419"
       fx="298.12531"
       cy="350.82419"
       cx="298.12531"
       gradientTransform="matrix(1,0,0,1.112913,0,-39.61257)"
       gradientUnits="userSpaceOnUse"
       id="radialGradient17052"
       xlink:href="#linearGradient3528"
       inkscape:collect="always" />
    <radialGradient
       r="340.96289"
       fy="350.82419"
       fx="298.12531"
       cy="350.82419"
       cx="298.12531"
       gradientTransform="matrix(1,0,0,1.112913,0,-39.61257)"
       gradientUnits="userSpaceOnUse"
       id="radialGradient17050"
       xlink:href="#linearGradient3528"
       inkscape:collect="always" />
    <radialGradient
       r="340.96289"
       fy="350.82419"
       fx="298.12531"
       cy="350.82419"
       cx="298.12531"
       gradientTransform="matrix(1,0,0,1.112913,0,-39.61257)"
       gradientUnits="userSpaceOnUse"
       id="radialGradient17048"
       xlink:href="#linearGradient3528"
       inkscape:collect="always" />
    <radialGradient
       r="340.96289"
       fy="350.82419"
       fx="298.12531"
       cy="350.82419"
       cx="298.12531"
       gradientTransform="matrix(1,0,0,1.112913,0,-39.61257)"
       gradientUnits="userSpaceOnUse"
       id="radialGradient17046"
       xlink:href="#linearGradient3528"
       inkscape:collect="always" />
    <radialGradient
       r="340.96289"
       fy="350.82419"
       fx="298.12531"
       cy="350.82419"
       cx="298.12531"
       gradientTransform="matrix(1,0,0,1.112913,0,-39.61257)"
       gradientUnits="userSpaceOnUse"
       id="radialGradient17044"
       xlink:href="#linearGradient3528"
       inkscape:collect="always" />
    <radialGradient
       r="340.96289"
       fy="350.82419"
       fx="298.12531"
       cy="350.82419"
       cx="298.12531"
       gradientTransform="matrix(1,0,0,1.112913,0,-39.61257)"
       gradientUnits="userSpaceOnUse"
       id="radialGradient17042"
       xlink:href="#linearGradient3528"
       inkscape:collect="always" />
    <radialGradient
       r="340.96289"
       fy="350.82419"
       fx="298.12531"
       cy="350.82419"
       cx="298.12531"
       gradientTransform="matrix(1,0,0,1.112913,0,-39.61257)"
       gradientUnits="userSpaceOnUse"
       id="radialGradient17040"
       xlink:href="#linearGradient3528"
       inkscape:collect="always" />
    <radialGradient
       r="312.88068"
       fy="420.37048"
       fx="356.63849"
       cy="420.37048"
       cx="356.63849"
       gradientTransform="matrix(0.420135,0,0,0.457467,505.0828,124.9475)"
       gradientUnits="userSpaceOnUse"
       id="radialGradient17020"
       xlink:href="#linearGradient3528"
       inkscape:collect="always" />
    <radialGradient
       r="44"
       fy="265"
       fx="65"
       cy="265"
       cx="65"
       gradientUnits="userSpaceOnUse"
       id="radialGradient15190"
       xlink:href="#b"
       inkscape:collect="always" />
    <radialGradient
       r="44"
       fy="265"
       fx="65"
       cy="265"
       cx="65"
       gradientUnits="userSpaceOnUse"
       id="radialGradient15112"
       xlink:href="#b"
       inkscape:collect="always" />
    <linearGradient
       y2="186.41083"
       x2="82.849258"
       y1="0"
       x1="0"
       gradientTransform="matrix(0.635938,0,0,1.113422,218.1939,55.85133)"
       gradientUnits="userSpaceOnUse"
       id="linearGradient15110"
       xlink:href="#back"
       inkscape:collect="always" />
    <linearGradient
       id="linearGradient3528">
      <stop
         id="stop3530"
         offset="0"
         style="stop-color:white;stop-opacity:0;" />
      <stop
         id="stop3532"
         offset="1"
         style="stop-color:black;stop-opacity:0.39175257;" />
    </linearGradient>
    <linearGradient
       id="linearGradient2070">
      <stop
         id="stop2072"
         offset="0.0000000"
         style="stop-color:#ff0000;stop-opacity:1.0000000;" />
      <stop
         id="stop2074"
         offset="1.0000000"
         style="stop-color:#9a1a00;stop-opacity:1.0000000;" />
    </linearGradient>
    <linearGradient
       id="linearGradient14993"
       x1="0"
       y1="0"
       x2="0.40000001"
       y2="0.89999998">
      <stop
         stop-color="#5c656c"
         offset="0"
         id="stop14946" />
      <stop
         stop-color="#aab2b7"
         offset="1"
         id="stop14948" />
    </linearGradient>
    <radialGradient
       cx="0.5"
       cy="0.5"
       r="0.5"
       fx="0.5"
       fy="0.5"
       id="radialGradient14997">
      <stop
         stop-color="#fc7474"
         offset="0"
         id="stop14951" />
      <stop
         stop-color="#d53a3a"
         offset="0.7"
         id="stop14953" />
      <stop
         stop-color="#af0000"
         offset="1"
         id="stop14955" />
    </radialGradient>
    <radialGradient
       cx="0.5"
       cy="0.5"
       r="0.5"
       fx="0.5"
       fy="0.5"
       id="radialGradient15002">
      <stop
         stop-color="#fcfc74"
         offset="0"
         id="stop14958" />
      <stop
         stop-color="#d4d53a"
         offset="0.7"
         id="stop14960" />
      <stop
         stop-color="#afa500"
         offset="1"
         id="stop14962" />
    </radialGradient>
    <radialGradient
       cx="0.5"
       cy="0.5"
       r="0.5"
       fx="0.5"
       fy="0.5"
       id="radialGradient15007">
      <stop
         stop-color="#4d4d4d"
         offset="0"
         id="stop14965" />
      <stop
         stop-color="#1a1a1a"
         offset="0.7"
         id="stop14967" />
      <stop
         stop-color="#000000"
         offset="1"
         id="stop14969" />
    </radialGradient>
    <linearGradient
       x1="0"
       y1="0"
       x2="0"
       y2="1.05"
       id="linearGradient15012">
      <stop
         stop-color="#fff"
         stop-opacity="0.9;"
         offset="0"
         id="stop14972" />
      <stop
         stop-color="#fff"
         stop-opacity="0.2;"
         offset="0.7"
         id="stop14974" />
      <stop
         stop-color="#fff"
         stop-opacity="0.3;"
         offset="1"
         id="stop14976" />
    </linearGradient>
    <path
       d="M 35,50 C 40.908991,38.920641 52.443394,32 65,32 C 77.556606,32 89.091009,38.920641 95,50 C 97,53.333333 97,56.666667 95,60 C 75,72 55,72 35,60 C 33,56.666667 33,53.333333 35,50 z"
       id="path15017" />
    <linearGradient
       gradientUnits="userSpaceOnUse"
       gradientTransform="scale(0.627646,1.593255)"
       id="back"
       x1="0"
       y1="0"
       x2="82.849258"
       y2="186.41083">
      <stop
         stop-color="#5c656c"
         offset="0"
         id="stop14861" />
      <stop
         stop-color="#aab2b7"
         offset="1"
         id="stop14863" />
    </linearGradient>
    <radialGradient
       gradientUnits="userSpaceOnUse"
       cx="65"
       cy="65"
       r="44"
       fx="65"
       fy="65"
       id="r">
      <stop
         stop-color="#fc7474"
         offset="0"
         id="stop14866" />
      <stop
         stop-color="#d53a3a"
         offset="0.7"
         id="stop14868" />
      <stop
         stop-color="#af0000"
         offset="1"
         id="stop14870" />
    </radialGradient>
    <radialGradient
       gradientUnits="userSpaceOnUse"
       cx="65"
       cy="165"
       r="44"
       fx="65"
       fy="165"
       id="y">
      <stop
         stop-color="#fcfc74"
         offset="0"
         id="stop14873" />
      <stop
         stop-color="#d4d53a"
         offset="0.7"
         id="stop14875" />
      <stop
         stop-color="#afa500"
         offset="1"
         id="stop14877" />
    </radialGradient>
    <radialGradient
       gradientUnits="userSpaceOnUse"
       cx="65"
       cy="265"
       r="44"
       fx="65"
       fy="265"
       id="b">
      <stop
         stop-color="#4d4d4d"
         offset="0"
         id="stop14880" />
      <stop
         stop-color="#1a1a1a"
         offset="0.7"
         id="stop14882" />
      <stop
         stop-color="#000000"
         offset="1"
         id="stop14884" />
    </radialGradient>
    <linearGradient
       x1="0"
       y1="0"
       x2="0"
       y2="1.05"
       id="rg">
      <stop
         style="stop-color:white;stop-opacity:0.77319586;"
         stop-color="#fff"
         stop-opacity="0.9;"
         offset="0"
         id="stop14887" />
      <stop
         style="stop-color:white;stop-opacity:0.05154639;"
         stop-color="#fff"
         stop-opacity="0.2;"
         offset="0.69999999"
         id="stop14889" />
      <stop
         style="stop-color:white;stop-opacity:0.21649484;"
         stop-color="#fff"
         stop-opacity="0.3;"
         offset="1"
         id="stop14891" />
    </linearGradient>
    <path
       d="M 35,50 C 40.908991,38.920641 52.443394,32 65,32 C 77.556606,32 89.091009,38.920641 95,50 C 97,53.333333 97,56.666667 95,60 C 75,72 55,72 35,60 C 33,56.666667 33,53.333333 35,50 z"
       id="reflex" />
    <linearGradient
       id="linearGradient2876"
       y2="1.05"
       x2="0"
       y1="0"
       x1="0">
      <stop
         style="stop-color:white;stop-opacity:0.90196079;"
         id="stop2878"
         offset="0"
         stop-opacity="0.9;"
         stop-color="#fff" />
      <stop
         id="stop2880"
         offset="0.7"
         stop-opacity="0.2;"
         stop-color="#fff" />
      <stop
         id="stop2882"
         offset="1"
         stop-opacity="0.3;"
         stop-color="#fff" />
    </linearGradient>
    <inkscape:perspective
       id="perspective104"
       inkscape:persp3d-origin="145.54198 : 110 : 1"
       inkscape:vp_z="291.08395 : 165 : 1"
       inkscape:vp_y="0 : 1000 : 0"
       inkscape:vp_x="0 : 165 : 1"
       sodipodi:type="inkscape:persp3d" />
    <radialGradient
       inkscape:collect="always"
       xlink:href="#linearGradient3528"
       id="radialGradient2685"
       gradientUnits="userSpaceOnUse"
       gradientTransform="matrix(1,0,0,0.98913,0,1.336244)"
       cx="124.75272"
       cy="122.93433"
       fx="124.75272"
       fy="122.93433"
       r="36.904343" />
    <radialGradient
       inkscape:collect="always"
       xlink:href="#linearGradient3528"
       id="radialGradient3479"
       gradientUnits="userSpaceOnUse"
       gradientTransform="matrix(1,0,0,0.98913,0,1.336244)"
       cx="124.75272"
       cy="122.93433"
       fx="124.75272"
       fy="122.93433"
       r="36.904343" />
    <radialGradient
       inkscape:collect="always"
       xlink:href="#linearGradient3528"
       id="radialGradient3483"
       gradientUnits="userSpaceOnUse"
       gradientTransform="matrix(1,0,0,0.98913,0,1.336244)"
       cx="124.75272"
       cy="122.93433"
       fx="124.75272"
       fy="122.93433"
       r="36.904343" />
    <inkscape:perspective
       sodipodi:type="inkscape:persp3d"
       inkscape:vp_x="0 : 526.18109 : 1"
       inkscape:vp_y="0 : 1000 : 0"
       inkscape:vp_z="744.09448 : 526.18109 : 1"
       inkscape:persp3d-origin="372.04724 : 350.78739 : 1"
       id="perspective2587" />
    <inkscape:perspective
       sodipodi:type="inkscape:persp3d"
       inkscape:vp_x="0 : 526.18109 : 1"
       inkscape:vp_y="0 : 1000 : 0"
       inkscape:vp_z="744.09448 : 526.18109 : 1"
       inkscape:persp3d-origin="372.04724 : 350.78739 : 1"
       id="perspective2585" />
    <inkscape:perspective
       sodipodi:type="inkscape:persp3d"
       inkscape:vp_x="0 : 526.18109 : 1"
       inkscape:vp_y="0 : 1000 : 0"
       inkscape:vp_z="744.09448 : 526.18109 : 1"
       inkscape:persp3d-origin="372.04724 : 350.78739 : 1"
       id="perspective2583" />
    <inkscape:perspective
       sodipodi:type="inkscape:persp3d"
       inkscape:vp_x="0 : 526.18109 : 1"
       inkscape:vp_y="0 : 1000 : 0"
       inkscape:vp_z="744.09448 : 526.18109 : 1"
       inkscape:persp3d-origin="372.04724 : 350.78739 : 1"
       id="perspective2581" />
    <inkscape:perspective
       sodipodi:type="inkscape:persp3d"
       inkscape:vp_x="0 : 526.18109 : 1"
       inkscape:vp_y="0 : 1000 : 0"
       inkscape:vp_z="744.09448 : 526.18109 : 1"
       inkscape:persp3d-origin="372.04724 : 350.78739 : 1"
       id="perspective2579" />
    <inkscape:perspective
       sodipodi:type="inkscape:persp3d"
       inkscape:vp_x="0 : 526.18109 : 1"
       inkscape:vp_y="0 : 1000 : 0"
       inkscape:vp_z="744.09448 : 526.18109 : 1"
       inkscape:persp3d-origin="372.04724 : 350.78739 : 1"
       id="perspective2577" />
    <inkscape:perspective
       sodipodi:type="inkscape:persp3d"
       inkscape:vp_x="0 : 526.18109 : 1"
       inkscape:vp_y="0 : 1000 : 0"
       inkscape:vp_z="744.09448 : 526.18109 : 1"
       inkscape:persp3d-origin="372.04724 : 350.78739 : 1"
       id="perspective2575" />
    <inkscape:perspective
       sodipodi:type="inkscape:persp3d"
       inkscape:vp_x="0 : 526.18109 : 1"
       inkscape:vp_y="0 : 1000 : 0"
       inkscape:vp_z="744.09448 : 526.18109 : 1"
       inkscape:persp3d-origin="372.04724 : 350.78739 : 1"
       id="perspective2573" />
    <inkscape:perspective
       sodipodi:type="inkscape:persp3d"
       inkscape:vp_x="0 : 526.18109 : 1"
       inkscape:vp_y="0 : 1000 : 0"
       inkscape:vp_z="744.09448 : 526.18109 : 1"
       inkscape:persp3d-origin="372.04724 : 350.78739 : 1"
       id="perspective2571" />
    <inkscape:perspective
       sodipodi:type="inkscape:persp3d"
       inkscape:vp_x="0 : 526.18109 : 1"
       inkscape:vp_y="0 : 1000 : 0"
       inkscape:vp_z="744.09448 : 526.18109 : 1"
       inkscape:persp3d-origin="372.04724 : 350.78739 : 1"
       id="perspective2569" />
    <inkscape:perspective
       id="perspective2567"
       inkscape:persp3d-origin="372.04724 : 350.78739 : 1"
       inkscape:vp_z="744.09448 : 526.18109 : 1"
       inkscape:vp_y="0 : 1000 : 0"
       inkscape:vp_x="0 : 526.18109 : 1"
       sodipodi:type="inkscape:persp3d" />
    <inkscape:perspective
       sodipodi:type="inkscape:persp3d"
       inkscape:vp_x="0 : 526.18109 : 1"
       inkscape:vp_y="0 : 1000 : 0"
       inkscape:vp_z="744.09448 : 526.18109 : 1"
       inkscape:persp3d-origin="372.04724 : 350.78739 : 1"
       id="perspective2634" />
    <inkscape:perspective
       sodipodi:type="inkscape:persp3d"
       inkscape:vp_x="0 : 526.18109 : 1"
       inkscape:vp_y="0 : 1000 : 0"
       inkscape:vp_z="744.09448 : 526.18109 : 1"
       inkscape:persp3d-origin="372.04724 : 350.78739 : 1"
       id="perspective2632" />
    <inkscape:perspective
       sodipodi:type="inkscape:persp3d"
       inkscape:vp_x="0 : 526.18109 : 1"
       inkscape:vp_y="0 : 1000 : 0"
       inkscape:vp_z="744.09448 : 526.18109 : 1"
       inkscape:persp3d-origin="372.04724 : 350.78739 : 1"
       id="perspective2630" />
    <inkscape:perspective
       sodipodi:type="inkscape:persp3d"
       inkscape:vp_x="0 : 526.18109 : 1"
       inkscape:vp_y="0 : 1000 : 0"
       inkscape:vp_z="744.09448 : 526.18109 : 1"
       inkscape:persp3d-origin="372.04724 : 350.78739 : 1"
       id="perspective2628" />
    <inkscape:perspective
       sodipodi:type="inkscape:persp3d"
       inkscape:vp_x="0 : 526.18109 : 1"
       inkscape:vp_y="0 : 1000 : 0"
       inkscape:vp_z="744.09448 : 526.18109 : 1"
       inkscape:persp3d-origin="372.04724 : 350.78739 : 1"
       id="perspective2626" />
    <inkscape:perspective
       sodipodi:type="inkscape:persp3d"
       inkscape:vp_x="0 : 526.18109 : 1"
       inkscape:vp_y="0 : 1000 : 0"
       inkscape:vp_z="744.09448 : 526.18109 : 1"
       inkscape:persp3d-origin="372.04724 : 350.78739 : 1"
       id="perspective2624" />
    <inkscape:perspective
       sodipodi:type="inkscape:persp3d"
       inkscape:vp_x="0 : 526.18109 : 1"
       inkscape:vp_y="0 : 1000 : 0"
       inkscape:vp_z="744.09448 : 526.18109 : 1"
       inkscape:persp3d-origin="372.04724 : 350.78739 : 1"
       id="perspective2621" />
    <inkscape:perspective
       sodipodi:type="inkscape:persp3d"
       inkscape:vp_x="0 : 526.18109 : 1"
       inkscape:vp_y="0 : 1000 : 0"
       inkscape:vp_z="744.09448 : 526.18109 : 1"
       inkscape:persp3d-origin="372.04724 : 350.78739 : 1"
       id="perspective2619" />
    <inkscape:perspective
       sodipodi:type="inkscape:persp3d"
       inkscape:vp_x="0 : 526.18109 : 1"
       inkscape:vp_y="0 : 1000 : 0"
       inkscape:vp_z="744.09448 : 526.18109 : 1"
       inkscape:persp3d-origin="372.04724 : 350.78739 : 1"
       id="perspective2617" />
    <inkscape:perspective
       sodipodi:type="inkscape:persp3d"
       inkscape:vp_x="0 : 526.18109 : 1"
       inkscape:vp_y="0 : 1000 : 0"
       inkscape:vp_z="744.09448 : 526.18109 : 1"
       inkscape:persp3d-origin="372.04724 : 350.78739 : 1"
       id="perspective2615" />
    <inkscape:perspective
       id="perspective2613"
       inkscape:persp3d-origin="372.04724 : 350.78739 : 1"
       inkscape:vp_z="744.09448 : 526.18109 : 1"
       inkscape:vp_y="0 : 1000 : 0"
       inkscape:vp_x="0 : 526.18109 : 1"
       sodipodi:type="inkscape:persp3d" />
  </defs>
  <metadata
     id="metadata7">
    <rdf:RDF>
      <cc:Work
         rdf:about="">
        <dc:format>image/svg+xml</dc:format>
        <dc:type
           rdf:resource="http://purl.org/dc/dcmitype/StillImage" />
      </cc:Work>
    </rdf:RDF>
  </metadata>
  <g
     inkscape:label="Layer 1"
     inkscape:groupmode="layer"
     id="layer1"
     transform="translate(-37.04823,-504.50253)">
    <path
       id="path3299"
       d="M 37.29394,964.3485 L 37.29394,824.81499 L 379.25767,824.81499 L 721.2214,824.81499 L 721.2214,964.3485 L 721.2214,1103.882 L 379.25767,1103.882 L 37.29394,1103.882 L 37.29394,964.3485 z"
       style="fill:#cd843f" />
    <path
       id="path3301"
       d="M 37.04823,669.05023 L 37.04823,504.50253 L 379.13484,504.50253 L 721.2214,504.50253 L 721.2214,669.05023 L 721.2214,833.59795 L 379.13484,833.59795 L 37.04823,833.59795 L 37.04823,669.05023 z"
       style="fill:#acd7e5" />
    <path
       style="fill:none;fill-rule:evenodd;stroke:none;stroke-width:0.55612504px;stroke-linecap:butt;stroke-linejoin:miter;stroke-opacity:1"
       d="M 330.66121,811.24981 C 330.66121,811.93187 330.66121,814.50848 330.66121,816.11336 C 330.66121,817.63321 330.66121,819.15307 330.66121,820.67292 C 330.66121,822.19278 330.66121,823.71263 330.66121,825.23249 C 330.66121,826.75235 330.66121,828.2722 330.66121,829.79206 C 330.66121,830.09603 330.66121,830.40001 330.66121,830.70398"
       id="path2644"
       inkscape:label="#path3186" />
    <path
       inkscape:label="#path3186"
       id="path2646"
       d="M 330.6612,830.70399 C 330.6612,830.02194 330.6612,827.44531 330.6612,825.84044 C 330.6612,824.32058 330.6612,822.80073 330.6612,821.28087 C 330.6612,819.76102 330.6612,818.24116 330.6612,816.72132 C 330.6612,815.20144 330.6612,813.68161 330.6612,812.16173 C 330.6612,811.85777 330.6612,811.55379 330.6612,811.24983"
       style="fill:none;fill-rule:evenodd;stroke:none;stroke-width:0.55612504px;stroke-linecap:butt;stroke-linejoin:miter;stroke-opacity:1" />
    <g
       id="boom"
       inkscape:label="#g2540">
      <g
         inkscape:label="#g2533"
         id="stick">
        <g
           id="bucket"
           inkscape:label="#g2528">
          <g
             inkscape:label="#bucket"
             transform="translate(8.9666494,-0.8387151)"
             id="bucketInner"
             style="opacity:0.88999999;fill:#ff0000;stroke:#000000">
            <path
               id="path2431"
               d="M 691.748,810.46476 C 686.11235,807.79819 676.95912,803.66575 670.24997,800.75895 C 667.77605,799.6871 664.29198,798.11734 662.5076,797.2706 C 660.34169,796.24281 658.3466,795.98993 656.50563,796.50985 C 654.98893,796.93818 653.523,797.35191 653.248,797.42926 C 652.973,797.5066 650.89257,797.9107 648.62481,798.32726 C 644.64378,799.05853 644.48028,799.24038 643.8825,803.60166 C 642.76311,811.76853 634.57957,815.03483 630.29895,809.02325 C 628.53852,806.55096 628.31571,805.22694 628.86854,800.52325 C 629.22869,797.4589 629.91141,794.9517 630.38568,794.9517 C 630.85996,794.9517 631.248,793.6765 631.248,792.11792 C 631.248,789.11337 631.72281,788.72447 648.96574,777.60586 C 655.88846,773.14193 656.48443,772.9517 663.54622,772.9517 L 670.90896,772.9517 L 674.32085,777.7017 C 677.21731,781.73412 681.76092,788.63162 685.75192,795.05481 C 688.02117,798.707 692.85778,805.69467 695.54387,809.2017 C 698.87136,813.54615 698.51262,813.66552 691.748,810.46476 z"
               style="fill:#000000"
               inkscape:label="#path3091" />
          </g>
          <path
             transform="matrix(1.4595991,0,0,1.4595991,-277.67209,315.14526)"
             d="M 680.133,328.604 A 46.685429,46.685429 0 1 1 586.76214,328.604 A 46.685429,46.685429 0 1 1 680.133,328.604 z"
             sodipodi:ry="46.685429"
             sodipodi:rx="46.685429"
             sodipodi:cy="328.604"
             sodipodi:cx="633.44757"
             id="path2521"
             style="fill:none;fill-opacity:0.8745098;stroke:none;stroke-width:5;stroke-miterlimit:4;stroke-dasharray:none;stroke-opacity:1"
             sodipodi:type="arc" />
        </g>
        <path
           id="bla"
           d="M 519.3945,808.85911 C 518.1636,806.669 517.15649,803.91004 517.15649,802.72807 C 517.15649,801.54611 516.49213,799.56511 515.68014,798.32585 C 514.86815,797.0866 514.30565,794.62832 514.43014,792.86302 C 514.63019,790.02636 515.0051,789.64765 517.65649,789.60406 C 521.27989,789.54448 529.36128,788.8506 534.15584,788.18741 C 536.0812,787.92109 541.25649,787.43718 545.65649,787.11206 C 550.05649,786.78695 554.8872,786.31962 556.39139,786.07357 C 558.82606,785.67532 559.46273,786.22234 562.19097,791.05651 C 563.87654,794.04317 565.79583,796.91967 566.45607,797.44872 C 567.1163,797.97777 570.80649,798.68461 574.65649,799.01949 C 578.50649,799.35436 583.90649,799.83618 586.65649,800.09018 C 589.40649,800.34419 594.80649,800.78617 598.65649,801.07237 C 616.77426,802.41918 620.56698,802.78507 621.33595,803.26032 C 621.79092,803.54151 623.57703,801.49713 625.30509,798.71727 C 628.04544,794.30896 628.77992,793.73122 631.05175,794.19694 C 632.48436,794.49063 636.01623,794.72959 638.90036,794.72796 C 643.70189,794.72526 644.27344,794.97488 645.67604,797.68721 C 646.51853,799.31642 646.91954,800.64941 646.56716,800.64941 C 646.21478,800.64941 646.59421,801.66851 647.41034,802.91408 C 649.63612,806.31105 650.52056,811.26797 648.94934,811.53951 C 648.23827,811.66239 619.3011,812.00553 584.6445,812.30202 L 521.63251,812.84111 L 519.3945,808.85911 z"
           style="opacity:0.96634617;fill:#fda605;stroke:none"
           inkscape:label="#path3125" />
      </g>
      <path
         inkscape:label="#path3117"
         style="opacity:0.88999999;fill:#fdfd02;stroke:none;stroke-opacity:1"
         d="M 534.55126,807.08533 C 531.25127,806.32821 527.0402,805.48329 525.19332,805.20772 C 523.34646,804.93215 521.44449,804.4651 520.96674,804.16983 C 520.48898,803.87456 518.85006,803.46638 517.32468,803.26275 C 515.79931,803.05912 511.17626,802.15315 507.05126,801.24948 C 502.92626,800.34582 498.65126,799.4498 497.55126,799.25834 C 496.45127,799.06688 493.30126,798.42657 490.55126,797.83544 C 469.68527,793.35016 468.40287,793.16032 464.05126,793.91258 C 461.57627,794.34043 455.72627,795.35752 451.05126,796.17278 C 439.47716,798.19115 437.61258,798.50256 429.55126,799.76357 C 425.70127,800.36582 420.97627,801.29656 419.05126,801.83187 C 417.12626,802.36719 412.62626,803.22325 409.05126,803.73422 C 405.47627,804.2452 398.1378,805.34963 392.74357,806.18852 C 383.74178,807.58843 382.67355,807.57811 379.74357,806.06296 C 377.9878,805.15501 376.32626,804.47614 376.05126,804.55434 C 375.37671,804.74617 366.71472,801.54256 365.91855,800.80679 C 365.57057,800.48519 365.07612,797.88038 364.81979,795.01831 C 364.26382,788.81069 363.83329,788.99686 380.38557,788.28744 C 390.67043,787.84664 398.25545,786.08947 402.05126,783.26828 C 402.87626,782.65511 412.12329,777.90701 422.60022,772.71693 C 440.16547,764.01545 441.95386,762.88074 445.5607,758.14884 C 448.1267,754.78248 451.08256,752.27849 454.15353,750.86966 C 456.72824,749.68848 459.14066,748.72207 459.51448,748.72207 C 459.88827,748.72207 460.86578,748.05041 461.6867,747.22949 C 463.01014,745.90605 463.51199,745.90896 466.11527,747.25517 C 467.73006,748.09021 469.05126,748.52532 469.05126,748.22207 C 469.05126,747.91882 470.40126,748.36882 472.05126,749.22207 C 474.43842,750.45652 475.05352,751.43209 475.06227,753.99775 C 475.08488,760.62181 476.29535,764.86102 478.445,765.8444 C 481.34021,767.16887 484.57245,769.0798 486.19461,770.42607 C 486.94078,771.04533 488.00126,771.6536 488.55126,771.77779 C 489.10127,771.90197 490.45127,772.56523 491.55126,773.25169 C 493.7417,774.61865 499.29024,777.78402 508.55126,782.94996 C 511.85127,784.79075 516.35127,787.00933 518.55126,787.88013 C 522.22349,789.33366 524.8022,790.16506 536.69046,793.72839 C 540.35137,794.82569 540.89897,795.3881 541.42945,798.59556 C 542.26329,803.63716 542.19776,808.74748 541.30126,808.59199 C 540.88877,808.52044 537.85126,807.84245 534.55126,807.08533 z"
         id="path2404" />
    </g>
    <g
       id="g3241"
       transform="translate(-3.43998,18.182746)">
      <path
         style="fill:#fdfd00"
         d="M 161.06939,820.78929 C 148.1557,816.5545 140.53582,803.52289 143.88366,791.39803 L 144.91465,787.66412 L 139.49525,787.66412 L 134.07585,787.66412 L 134.07585,780.42284 L 134.07585,773.18156 L 112.79834,794.44182 L 91.520818,815.70207 L 68.346866,815.4331 L 45.172914,815.16412 L 56.217092,797.66412 C 62.29139,788.03912 67.61891,779.78726 68.056026,779.32666 C 68.493143,778.86605 73.241832,785.84105 78.608669,794.82666 C 87.799659,810.21498 92.16364,816.79927 88.830284,810.24884 L 87.346768,807.33356 L 110.71131,781.77269 C 130.37095,760.26499 134.07729,755.73232 134.08496,753.18797 L 134.09405,750.16412 L 174.33495,738.16412 C 196.46744,731.56412 213.56336,726.02032 212.32585,725.84457 C 211.08835,725.66882 210.07585,725.28856 210.07585,724.99955 C 210.07585,724.5008 225.85913,673.54735 226.8293,670.91412 C 227.15051,670.04227 226.04738,669.66412 223.18284,669.66412 C 219.5897,669.66412 219.07615,669.38261 219.07823,667.41412 C 219.08266,663.21897 227.39977,660.13203 245.6807,657.54049 L 261.78555,655.25743 L 296.9307,657.65422 L 332.07585,660.05101 L 332.07585,664.85757 L 332.07585,669.66412 L 320.57585,669.66412 L 309.07585,669.66412 L 309.07585,705.50913 C 309.07585,740.08415 309.14671,741.41827 311.07585,743.16412 C 312.17586,744.15961 313.07585,746.13296 313.07585,747.54936 C 313.07585,749.83395 314.14364,749.06128 322.53627,740.70355 C 333.61377,729.67209 330.77303,728.91313 346.07585,746.99261 C 356.18471,758.9357 356.92042,759.57016 365.82585,764.0244 L 375.07585,768.65098 L 375.07585,780.49335 L 375.07585,792.33572 L 360.82585,796.04898 C 352.98836,798.09128 346.42586,800.19017 346.24253,800.71319 C 345.82509,801.90402 332.07585,801.98253 332.07585,800.79408 C 332.07585,799.91359 323.2511,797.05973 322.7437,797.77613 C 322.59254,797.98952 321.64112,800.06774 320.62939,802.39438 C 318.099,808.21351 310.66909,815.47727 304.07585,818.57774 C 296.1737,822.29373 283.9633,822.29027 276.07585,818.56979 C 269.06205,815.26141 262.47857,808.67793 259.17019,801.66412 C 254.27969,791.29622 256.36772,773.2349 263.16832,767.08044 C 265.5471,764.92767 265.60694,763.64903 263.32585,763.71383 C 262.21425,763.7454 257.45081,769.7645 250.26796,780.21383 L 238.96004,796.66412 L 229.01796,796.66412 C 219.07971,796.66412 219.07585,796.66315 219.07585,794.16412 C 219.07585,791.80927 218.76552,791.66412 213.73084,791.66412 C 209.65582,791.66412 207.95577,791.18891 206.57585,789.66412 C 205.0823,788.01377 203.49588,787.66412 197.50147,787.66412 L 190.23707,787.66412 L 191.26806,791.39803 C 194.14995,801.83543 188.41747,813.97966 178.1637,819.15949 C 174.29067,821.116 164.81933,822.01902 161.06939,820.78929 z M 243.09658,761.41412 C 245.4883,755.20191 248.6706,748.82071 250.20305,747.16412 C 252.21239,744.99198 253.60034,741.61156 255.23268,734.91412 L 257.48714,725.66412 L 273.83691,725.66412 L 290.18669,725.66412 L 292.26459,730.66412 C 293.92951,734.67035 294.81289,735.66412 296.70918,735.66412 L 299.07585,735.66412 L 299.07585,702.66412 L 299.07585,669.66412 L 266.31171,669.66412 L 233.54757,669.66412 L 224.66806,696.41412 C 219.78432,711.12662 215.57178,723.74818 215.30683,724.46204 C 214.99731,725.29596 216.4844,724.9538 219.46666,723.50491 L 224.10822,721.24987 L 231.09203,728.18017 C 237.9055,734.94144 238.07585,735.23401 238.07585,740.17489 C 238.07585,744.90718 237.75816,745.55222 233.2315,750.01081 L 228.38716,754.78231 L 230.91318,763.72322 C 233.28184,772.10712 233.6051,772.66412 236.10224,772.66412 C 238.57182,772.66412 239.07994,771.84683 243.09658,761.41412 z M 235.34184,731.00717 C 234.54913,730.68658 235.16766,729.6163 237.07136,728.01445 C 240.80739,724.87078 243.15602,725.88543 239.97674,729.26962 C 237.64777,731.7487 237.40264,731.84059 235.34184,731.00717 z M 242.53161,725.6192 C 239.66118,722.70496 238.27056,720.66412 239.15523,720.66412 C 241.10703,720.66412 249.55159,729.25207 248.33756,730.00237 C 247.82861,730.31693 245.21594,728.3445 242.53161,725.6192 z"
         id="path3232" />
      <path
         style="fill:#fda400"
         d="M 161.06939,820.78929 C 148.1557,816.5545 140.53582,803.52289 143.88366,791.39803 L 144.91465,787.66412 L 139.49525,787.66412 L 134.07585,787.66412 L 134.07585,780.42284 L 134.07585,773.18156 L 112.79834,794.44182 L 91.520818,815.70207 L 68.346866,815.4331 L 45.172914,815.16412 L 56.217092,797.66412 C 62.29139,788.03912 67.61891,779.78726 68.056026,779.32666 C 68.493143,778.86605 73.241832,785.84105 78.608669,794.82666 C 87.801122,810.21743 92.16382,816.79951 88.828683,810.24579 L 87.343567,807.32745 L 113.45971,778.72009 L 139.57585,750.11273 L 170.57585,741.24277 C 187.62586,736.3643 202.36335,732.16088 203.32585,731.90184 C 204.64843,731.54589 205.07585,732.0361 205.07585,733.90887 C 205.07585,736.16378 203.60583,737.00706 188.74764,743.2755 L 172.41942,750.16412 L 167.69105,756.91412 L 162.96266,763.66412 L 153.20636,763.66412 C 143.67137,763.66412 143.38484,763.73218 140.57585,766.66412 L 137.70167,769.66412 L 147.38877,769.66412 L 157.07585,769.66412 L 157.07585,772.27111 C 157.07585,774.34557 157.43332,774.7396 158.82585,774.2001 C 163.18455,772.51141 170.06742,772.47532 175.2767,774.11384 C 179.95179,775.58434 182.00904,775.6699 190.34403,774.74049 C 206.23412,772.96864 205.07585,772.50291 205.07585,780.66412 L 205.07585,787.66412 L 209.57585,787.66412 L 214.07585,787.66412 L 214.07585,782.66412 L 214.07585,777.66412 L 228.92744,777.66412 L 243.77901,777.66412 L 245.59416,770.95846 C 248.16302,761.46827 255.92509,750.62863 262.33681,747.57754 L 267.09776,745.31198 L 290.13513,747.67019 L 313.17248,750.02839 L 322.58457,740.65544 C 333.60643,729.67941 330.77513,728.91562 346.07585,746.99261 C 356.18471,758.9357 356.92042,759.57016 365.82585,764.0244 L 375.07585,768.65098 L 375.07585,780.49335 L 375.07585,792.33572 L 360.82585,796.04898 C 352.98836,798.09128 346.42586,800.19017 346.24253,800.71319 C 345.82509,801.90402 332.07585,801.98253 332.07585,800.79408 C 332.07585,799.91359 323.2511,797.05973 322.7437,797.77613 C 322.59254,797.98952 321.64112,800.06774 320.62939,802.39438 C 318.099,808.21351 310.66909,815.47727 304.07585,818.57774 C 296.1737,822.29373 283.9633,822.29027 276.07585,818.56979 C 269.06205,815.26141 262.47857,808.67793 259.17019,801.66412 C 254.27969,791.29622 256.36772,773.2349 263.16832,767.08044 C 265.5471,764.92767 265.60694,763.64903 263.32585,763.71383 C 262.21425,763.7454 257.45081,769.7645 250.26796,780.21383 L 238.96004,796.66412 L 229.01796,796.66412 C 219.07971,796.66412 219.07585,796.66315 219.07585,794.16412 C 219.07585,791.80927 218.76552,791.66412 213.73084,791.66412 C 209.65582,791.66412 207.95577,791.18891 206.57585,789.66412 C 205.0823,788.01377 203.49588,787.66412 197.50147,787.66412 L 190.23707,787.66412 L 191.26806,791.39803 C 194.14995,801.83543 188.41747,813.97966 178.1637,819.15949 C 174.29067,821.116 164.81933,822.01902 161.06939,820.78929 z M 173.10858,807.14719 C 176.43663,805.4262 179.07585,801.01085 179.07585,797.16412 C 179.07585,785.62418 162.85897,781.4477 157.59278,791.63139 C 152.2726,801.91947 162.8205,812.46737 173.10858,807.14719 z M 296.82137,803.12598 C 301.57167,801.14118 303.84333,799.03669 306.18226,794.45396 C 312.48819,782.09859 300.76272,767.43667 286.68761,770.07718 C 281.84458,770.98574 276.9615,774.59614 274.35753,779.19369 C 266.40888,793.22779 281.64985,809.46505 296.82137,803.12598 z M 214.07585,770.83843 C 214.07585,769.83431 212.95085,767.95587 211.57585,766.66412 C 209.8893,765.07968 209.07585,763.24239 209.07585,761.01745 C 209.07585,759.20353 210.20085,751.30584 211.57585,743.46703 C 214.61517,726.14002 214.62853,725.66412 212.07585,725.66412 C 210.97585,725.66412 210.07585,725.37479 210.07585,725.02116 C 210.07585,724.46339 221.37183,687.89549 225.70858,674.41412 C 227.07032,670.18097 227.55427,669.66412 230.15622,669.66412 C 231.76202,669.66412 233.07585,670.01099 233.07585,670.43495 C 233.07585,670.85891 229.02585,683.33703 224.07585,698.16412 C 219.12586,712.99121 215.07585,725.23849 215.07585,725.38029 C 215.07585,725.5221 217.10813,724.65077 219.59203,723.444 L 224.10822,721.24987 L 231.09203,728.18017 C 237.9055,734.94144 238.07585,735.23401 238.07585,740.17489 C 238.07585,744.90964 237.75939,745.551 233.21436,750.02769 L 228.35287,754.81608 L 230.71436,762.93874 C 232.01318,767.4062 233.07585,771.42201 233.07585,771.86276 C 233.07585,772.30351 228.80085,772.66412 223.57585,772.66412 C 215.04487,772.66412 214.07585,772.4779 214.07585,770.83843 z M 303.78826,740.87977 L 299.07585,736.09542 L 299.07585,702.87977 L 299.07585,669.66412 L 304.07585,669.66412 L 309.07585,669.66412 L 309.07585,707.66412 C 309.07585,728.56412 308.94644,745.66412 308.78826,745.66412 C 308.63009,745.66412 306.38009,743.51116 303.78826,740.87977 z M 253.43193,742.41412 C 253.75607,741.17662 254.79083,736.90162 255.7314,732.91412 L 257.44155,725.66412 L 273.79424,725.66412 L 290.14693,725.66412 L 292.1114,730.24703 C 293.19185,732.76762 294.07585,735.15792 294.07585,735.5588 C 294.07585,736.16942 256.34015,744.68647 253.70923,744.66966 C 253.23257,744.66661 253.10779,743.65162 253.43193,742.41412 z M 235.34184,731.00717 C 234.54913,730.68658 235.16766,729.6163 237.07136,728.01445 C 240.80739,724.87078 243.15602,725.88543 239.97674,729.26962 C 237.64777,731.7487 237.40264,731.84059 235.34184,731.00717 z M 242.53161,725.6192 C 239.66118,722.70496 238.27056,720.66412 239.15523,720.66412 C 241.10703,720.66412 249.55159,729.25207 248.33756,730.00237 C 247.82861,730.31693 245.21594,728.3445 242.53161,725.6192 z"
         id="path3230" />
      <path
         style="fill:#686767"
         d="M 161.06939,820.78929 C 148.1557,816.5545 140.53582,803.52289 143.88366,791.39803 L 144.91465,787.66412 L 139.49525,787.66412 L 134.07585,787.66412 L 134.07585,780.31911 C 134.07585,770.26527 134.82785,769.66412 147.4046,769.66412 L 157.07585,769.66412 L 157.07585,772.27111 C 157.07585,774.34557 157.43332,774.7396 158.82585,774.2001 C 163.18455,772.51141 170.06742,772.47532 175.2767,774.11384 C 179.95179,775.58434 182.00904,775.6699 190.34403,774.74049 C 206.23412,772.96864 205.07585,772.50291 205.07585,780.66412 L 205.07585,787.66412 L 209.57585,787.66412 L 214.07585,787.66412 L 214.07585,782.66412 L 214.07585,777.66412 L 228.92744,777.66412 L 243.77901,777.66412 L 245.59416,770.95846 C 248.16302,761.46827 255.92509,750.62863 262.33681,747.57754 L 267.09776,745.31198 L 290.13513,747.67019 L 313.17248,750.02839 L 322.58457,740.65544 C 333.60643,729.67941 330.77513,728.91562 346.07585,746.99261 C 356.18471,758.9357 356.92042,759.57016 365.82585,764.0244 L 375.07585,768.65098 L 375.07585,780.49335 L 375.07585,792.33572 L 360.82585,796.04898 C 352.98836,798.09128 346.42586,800.19017 346.24253,800.71319 C 345.82509,801.90402 332.07585,801.98253 332.07585,800.79408 C 332.07585,799.91359 323.2511,797.05973 322.7437,797.77613 C 322.59254,797.98952 321.64112,800.06774 320.62939,802.39438 C 318.099,808.21351 310.66909,815.47727 304.07585,818.57774 C 296.1737,822.29373 283.9633,822.29027 276.07585,818.56979 C 269.06205,815.26141 262.47857,808.67793 259.17019,801.66412 C 254.27969,791.29622 256.36772,773.2349 263.16832,767.08044 C 265.5471,764.92767 265.60694,763.64903 263.32585,763.71383 C 262.21425,763.7454 257.45081,769.7645 250.26796,780.21383 L 238.96004,796.66412 L 229.01796,796.66412 C 219.07971,796.66412 219.07585,796.66315 219.07585,794.16412 C 219.07585,791.80927 218.76552,791.66412 213.73084,791.66412 C 209.65582,791.66412 207.95577,791.18891 206.57585,789.66412 C 205.0823,788.01377 203.49588,787.66412 197.50147,787.66412 L 190.23707,787.66412 L 191.26806,791.39803 C 194.14995,801.83543 188.41747,813.97966 178.1637,819.15949 C 174.29067,821.116 164.81933,822.01902 161.06939,820.78929 z M 173.10858,807.14719 C 176.43663,805.4262 179.07585,801.01085 179.07585,797.16412 C 179.07585,785.62418 162.85897,781.4477 157.59278,791.63139 C 152.2726,801.91947 162.8205,812.46737 173.10858,807.14719 z M 296.82137,803.12598 C 301.57167,801.14118 303.84333,799.03669 306.18226,794.45396 C 312.48819,782.09859 300.76272,767.43667 286.68761,770.07718 C 281.84458,770.98574 276.9615,774.59614 274.35753,779.19369 C 266.40888,793.22779 281.64985,809.46505 296.82137,803.12598 z M 46.298261,813.41412 C 47.097096,812.17662 52.363236,803.85162 58.000796,794.91412 C 63.638356,785.97662 68.409541,778.66412 68.603431,778.66412 C 68.797321,778.66412 73.337293,785.97662 78.692257,794.91412 C 84.047222,803.85162 89.075953,812.17662 89.867216,813.41412 L 91.305875,815.66412 L 68.075855,815.66412 L 44.845835,815.66412 L 46.298261,813.41412 z M 214.07585,770.83843 C 214.07585,769.83431 212.95085,767.95587 211.57585,766.66412 C 209.8893,765.07968 209.07585,763.24239 209.07585,761.01745 C 209.07585,759.20353 210.20085,751.30584 211.57585,743.46703 C 214.61517,726.14002 214.62853,725.66412 212.07585,725.66412 C 210.97585,725.66412 210.07585,725.37479 210.07585,725.02116 C 210.07585,724.46339 221.37183,687.89549 225.70858,674.41412 C 227.07032,670.18097 227.55427,669.66412 230.15622,669.66412 C 231.76202,669.66412 233.07585,670.01099 233.07585,670.43495 C 233.07585,670.85891 229.02585,683.33703 224.07585,698.16412 C 219.12586,712.99121 215.07585,725.23849 215.07585,725.38029 C 215.07585,725.5221 217.10813,724.65077 219.59203,723.444 L 224.10822,721.24987 L 231.09203,728.18017 C 237.9055,734.94144 238.07585,735.23401 238.07585,740.17489 C 238.07585,744.90964 237.75939,745.551 233.21436,750.02769 L 228.35287,754.81608 L 230.71436,762.93874 C 232.01318,767.4062 233.07585,771.42201 233.07585,771.86276 C 233.07585,772.30351 228.80085,772.66412 223.57585,772.66412 C 215.04487,772.66412 214.07585,772.4779 214.07585,770.83843 z M 303.78826,740.87977 L 299.07585,736.09542 L 299.07585,702.87977 L 299.07585,669.66412 L 304.07585,669.66412 L 309.07585,669.66412 L 309.07585,707.66412 C 309.07585,728.56412 308.94644,745.66412 308.78826,745.66412 C 308.63009,745.66412 306.38009,743.51116 303.78826,740.87977 z M 253.43193,742.41412 C 253.75607,741.17662 254.79083,736.90162 255.7314,732.91412 L 257.44155,725.66412 L 273.79424,725.66412 L 290.14693,725.66412 L 292.1114,730.24703 C 293.19185,732.76762 294.07585,735.15792 294.07585,735.5588 C 294.07585,736.16942 256.34015,744.68647 253.70923,744.66966 C 253.23257,744.66661 253.10779,743.65162 253.43193,742.41412 z M 235.34184,731.00717 C 234.54913,730.68658 235.16766,729.6163 237.07136,728.01445 C 240.80739,724.87078 243.15602,725.88543 239.97674,729.26962 C 237.64777,731.7487 237.40264,731.84059 235.34184,731.00717 z M 242.53161,725.6192 C 239.66118,722.70496 238.27056,720.66412 239.15523,720.66412 C 241.10703,720.66412 249.55159,729.25207 248.33756,730.00237 C 247.82861,730.31693 245.21594,728.3445 242.53161,725.6192 z"
         id="path3228" />
      <path
         style="fill:#000000"
         d="M 161.06939,820.78929 C 153.99101,818.46808 148.88326,814.17146 145.46641,807.66412 C 142.79172,802.57023 142.94548,791.46025 145.76397,786.16412 C 150.41654,777.42165 157.50018,773.2169 167.57585,773.2169 C 177.65152,773.2169 184.73517,777.42165 189.38773,786.16412 C 192.20622,791.46025 192.35999,802.57023 189.6853,807.66412 C 187.1034,812.5813 183.2336,816.50911 178.64825,818.86664 C 174.35823,821.07231 165.04022,822.09146 161.06939,820.78929 z M 173.10858,807.14719 C 176.43663,805.4262 179.07585,801.01085 179.07585,797.16412 C 179.07585,785.62418 162.85897,781.4477 157.59278,791.63139 C 152.2726,801.91947 162.8205,812.46737 173.10858,807.14719 z M 280.57585,820.32518 C 270.8533,817.10479 263.38058,810.59022 259.17019,801.66412 C 257.01259,797.09001 256.57585,794.73319 256.57585,787.66412 C 256.57585,777.39512 259.28584,770.64279 266.17019,763.75845 C 273.05453,756.87411 279.80685,754.16412 290.07585,754.16412 C 300.34485,754.16412 307.09718,756.87411 313.98152,763.75845 C 320.86586,770.64279 323.57585,777.39512 323.57585,787.66412 C 323.57585,794.73319 323.13912,797.09001 320.98152,801.66412 C 317.6629,808.69964 311.05557,815.2942 304.13056,818.48251 C 297.60746,821.48578 286.66433,822.34185 280.57585,820.32518 z M 296.82137,803.12598 C 301.57167,801.14118 303.84333,799.03669 306.18226,794.45396 C 312.48819,782.09859 300.76272,767.43667 286.68761,770.07718 C 281.84458,770.98574 276.9615,774.59614 274.35753,779.19369 C 266.40888,793.22779 281.64985,809.46505 296.82137,803.12598 z M 46.298261,813.41412 C 47.097096,812.17662 52.363236,803.85162 58.000796,794.91412 C 63.638356,785.97662 68.409541,778.66412 68.603431,778.66412 C 68.797321,778.66412 73.337293,785.97662 78.692257,794.91412 C 84.047222,803.85162 89.075953,812.17662 89.867216,813.41412 L 91.305875,815.66412 L 68.075855,815.66412 L 44.845835,815.66412 L 46.298261,813.41412 z M 214.07585,770.83843 C 214.07585,769.83431 212.95085,767.95587 211.57585,766.66412 C 209.8893,765.07968 209.07585,763.24239 209.07585,761.01745 C 209.07585,759.20353 210.20085,751.30584 211.57585,743.46703 C 214.61517,726.14002 214.62853,725.66412 212.07585,725.66412 C 210.97585,725.66412 210.07585,725.37479 210.07585,725.02116 C 210.07585,724.46339 221.37183,687.89549 225.70858,674.41412 C 227.07032,670.18097 227.55427,669.66412 230.15622,669.66412 C 231.76202,669.66412 233.07585,670.01099 233.07585,670.43495 C 233.07585,670.85891 229.02585,683.33703 224.07585,698.16412 C 219.12586,712.99121 215.07585,725.23849 215.07585,725.38029 C 215.07585,725.5221 217.10813,724.65077 219.59203,723.444 L 224.10822,721.24987 L 231.09203,728.18017 C 237.9055,734.94144 238.07585,735.23401 238.07585,740.17489 C 238.07585,744.90964 237.75939,745.551 233.21436,750.02769 L 228.35287,754.81608 L 230.71436,762.93874 C 232.01318,767.4062 233.07585,771.42201 233.07585,771.86276 C 233.07585,772.30351 228.80085,772.66412 223.57585,772.66412 C 215.04487,772.66412 214.07585,772.4779 214.07585,770.83843 z M 303.78826,740.87977 L 299.07585,736.09542 L 299.07585,702.87977 L 299.07585,669.66412 L 304.07585,669.66412 L 309.07585,669.66412 L 309.07585,707.66412 C 309.07585,728.56412 308.94644,745.66412 308.78826,745.66412 C 308.63009,745.66412 306.38009,743.51116 303.78826,740.87977 z M 253.43193,742.41412 C 253.75607,741.17662 254.79083,736.90162 255.7314,732.91412 L 257.44155,725.66412 L 273.79424,725.66412 L 290.14693,725.66412 L 292.1114,730.24703 C 293.19185,732.76762 294.07585,735.15792 294.07585,735.5588 C 294.07585,736.16942 256.34015,744.68647 253.70923,744.66966 C 253.23257,744.66661 253.10779,743.65162 253.43193,742.41412 z M 235.34184,731.00717 C 234.54913,730.68658 235.16766,729.6163 237.07136,728.01445 C 240.80739,724.87078 243.15602,725.88543 239.97674,729.26962 C 237.64777,731.7487 237.40264,731.84059 235.34184,731.00717 z M 242.53161,725.6192 C 239.66118,722.70496 238.27056,720.66412 239.15523,720.66412 C 241.10703,720.66412 249.55159,729.25207 248.33756,730.00237 C 247.82861,730.31693 245.21594,728.3445 242.53161,725.6192 z"
         id="path3226" />
    </g>
    <path
       id="legs"
       d="M 329.39813,796.4963 C 329.39813,782.4713 329.73563,770.99621 330.14813,770.99609 C 330.56063,770.99598 333.71063,772.00446 337.14813,773.23715 L 343.39814,775.4784 L 343.39814,798.73735 L 343.39814,821.9963 L 336.39813,821.9963 L 329.39813,821.9963 L 329.39813,796.4963 z"
       style="fill:#ff0000"
       inkscape:label="#path2991" />
    <circle
       sodipodi:ry="40"
       sodipodi:rx="40"
       sodipodi:cy="165"
       sodipodi:cx="65"
       style="fill:none;fill-opacity:1;stroke:#000000;stroke-width:4.9012928;stroke-miterlimit:4;stroke-dasharray:none"
       cx="65"
       cy="165"
       r="40"
       id="alarm"
       transform="matrix(0.3733264,0,0,0.3733264,66.7228,490.71711)"
       inkscape:label="#yellight" />
    <circle
       sodipodi:ry="40"
       sodipodi:rx="40"
       sodipodi:cy="165"
       sodipodi:cx="65"
       style="fill:none;fill-opacity:1;stroke:#000000;stroke-width:4.9012928;stroke-miterlimit:4;stroke-dasharray:none"
       cx="65"
       cy="165"
       r="40"
       id="cancelled"
       transform="matrix(0.3733264,0,0,0.3733264,65.85598,633.92077)"
       inkscape:label="#yellight" />
    <circle
       sodipodi:ry="40"
       sodipodi:rx="40"
       sodipodi:cy="165"
       sodipodi:cx="65"
       style="fill:none;fill-opacity:1;stroke:#000000;stroke-width:4.9012928;stroke-miterlimit:4;stroke-dasharray:none"
       cx="65"
       cy="165"
       r="40"
       id="done"
       transform="matrix(0.3733264,0,0,0.3733264,65.85598,562.90362)"
       inkscape:label="#yellight" />
    <text
       xml:space="preserve"
       style="font-size:16px;font-style:normal;font-variant:normal;font-weight:normal;font-stretch:normal;text-align:center;line-height:125%;writing-mode:lr-tb;text-anchor:middle;fill:#000000;fill-opacity:1;stroke:none;stroke-width:1px;stroke-linecap:butt;stroke-linejoin:miter;stroke-opacity:1;font-family:Verdana;-inkscape-font-specification:Verdana"
       x="91.516602"
       y="585.91943"
       id="text3461"
       sodipodi:linespacing="125%"><tspan
         sodipodi:role="line"
         id="tspan3463"
         x="91.516602"
         y="585.91943">Alarm</tspan></text>
    <text
       xml:space="preserve"
       style="font-size:16px;font-style:normal;font-variant:normal;font-weight:normal;font-stretch:normal;text-align:center;line-height:125%;writing-mode:lr-tb;text-anchor:middle;fill:#000000;fill-opacity:1;stroke:none;stroke-width:1px;stroke-linecap:butt;stroke-linejoin:miter;stroke-opacity:1;font-family:Verdana;-inkscape-font-specification:Verdana"
       x="88.075989"
       y="657.97937"
       id="text3465"
       sodipodi:linespacing="125%"><tspan
         sodipodi:role="line"
         id="tspan3473"
         x="88.075989"
         y="657.97937">Done</tspan></text>
    <text
       xml:space="preserve"
       style="font-size:16px;font-style:normal;font-variant:normal;font-weight:normal;font-stretch:normal;text-align:center;line-height:125%;writing-mode:lr-tb;text-anchor:middle;fill:#000000;fill-opacity:1;stroke:none;stroke-width:1px;stroke-linecap:butt;stroke-linejoin:miter;stroke-opacity:1;font-family:Verdana;-inkscape-font-specification:Verdana"
       x="91.058838"
       y="729.72748"
       id="text3469"
       sodipodi:linespacing="125%"><tspan
         sodipodi:role="line"
         id="tspan3475"
         x="91.058838"
         y="729.72748">Cancelled</tspan></text>
    <path
       sodipodi:type="arc"
       style="fill:url(#radialGradient2685);fill-opacity:1;stroke:none;stroke-width:1;stroke-linecap:butt;stroke-linejoin:miter;stroke-miterlimit:4;stroke-dasharray:none;stroke-opacity:1"
       id="path17968"
       sodipodi:cx="124.75272"
       sodipodi:cy="122.93433"
       sodipodi:rx="36.904343"
       sodipodi:ry="36.503208"
       d="M 161.65707,122.93433 A 36.904343,36.503208 0 1 1 87.848381,122.93433 A 36.904343,36.503208 0 1 1 161.65707,122.93433 z"
       transform="matrix(0.4080556,0,0,0.4080556,38.68935,646.07694)" />
    <path
       sodipodi:type="arc"
       style="fill:url(#radialGradient3483);fill-opacity:1;stroke:none;stroke-width:1;stroke-linecap:butt;stroke-linejoin:miter;stroke-miterlimit:4;stroke-dasharray:none;stroke-opacity:1"
       id="path3481"
       sodipodi:cx="124.75272"
       sodipodi:cy="122.93433"
       sodipodi:rx="36.904343"
       sodipodi:ry="36.503208"
       d="M 161.65707,122.93433 A 36.904343,36.503208 0 1 1 87.848381,122.93433 A 36.904343,36.503208 0 1 1 161.65707,122.93433 z"
       transform="matrix(0.4080556,0,0,0.4080556,39.21615,575.06941)" />
    <path
       sodipodi:type="arc"
       style="fill:url(#radialGradient3479);fill-opacity:1;stroke:none;stroke-width:1;stroke-linecap:butt;stroke-linejoin:miter;stroke-miterlimit:4;stroke-dasharray:none;stroke-opacity:1"
       id="path3477"
       sodipodi:cx="124.75272"
       sodipodi:cy="122.93433"
       sodipodi:rx="36.904343"
       sodipodi:ry="36.503208"
       d="M 161.65707,122.93433 A 36.904343,36.503208 0 1 1 87.848381,122.93433 A 36.904343,36.503208 0 1 1 161.65707,122.93433 z"
       transform="matrix(0.4080556,0,0,0.4080556,39.21615,501.35558)" />
    <g
       transform="translate(-39.013934,-468.13704)"
       id="g2589"
       inkscape:label="Layer 1">
      <path
         inkscape:label="#path3186"
         id="path_legs_down"
         d="M 336.43733,817.39452 C 336.43733,818.07658 336.43733,820.65319 336.43733,822.25807 C 336.43733,823.77792 336.43733,825.29778 336.43733,826.81763 C 336.43733,828.33749 336.43733,829.85734 336.43733,831.3772 C 336.43733,832.89706 336.43733,834.41691 336.43733,835.93677 C 336.43733,836.24074 336.43733,836.54472 336.43733,836.84869"
         style="fill:none;fill-rule:evenodd;stroke:none;stroke-width:0.55612504px;stroke-linecap:butt;stroke-linejoin:miter;stroke-opacity:1" />
      <path
         style="fill:none;fill-rule:evenodd;stroke:none;stroke-width:0.55612504px;stroke-linecap:butt;stroke-linejoin:miter;stroke-opacity:1"
         d="M 336.43732,836.8487 C 336.43732,836.16665 336.43732,833.59002 336.43732,831.98515 C 336.43732,830.46529 336.43732,828.94544 336.43732,827.42558 C 336.43732,825.90573 336.43732,824.38587 336.43732,822.86603 C 336.43732,821.34615 336.43732,819.82632 336.43732,818.30644 C 336.43732,818.00248 336.43732,817.6985 336.43732,817.39454"
         id="path_legs_up"
         inkscape:label="#path3186" />
    </g>
  </g>
</svg>
