<?xml version="1.0" encoding="UTF-8" standalone="no"?>
<!-- Created with Inkscape (http://www.inkscape.org/) -->
<svg
   xmlns:dc="http://purl.org/dc/elements/1.1/"
   xmlns:cc="http://creativecommons.org/ns#"
   xmlns:rdf="http://www.w3.org/1999/02/22-rdf-syntax-ns#"
   xmlns:svg="http://www.w3.org/2000/svg"
   xmlns="http://www.w3.org/2000/svg"
   xmlns:xlink="http://www.w3.org/1999/xlink"
   xmlns:sodipodi="http://sodipodi.sourceforge.net/DTD/sodipodi-0.dtd"
   xmlns:inkscape="http://www.inkscape.org/namespaces/inkscape"
   width="291.08395"
   height="330"
   id="svg14844"
   viewBox="0 0 292 330"
   sodipodi:version="0.32"
   inkscape:version="0.46"
   sodipodi:docbase="/home/haf/shared/kieler/trunk/kev/de.cau.cs.kieler.kev/examples"
   sodipodi:docname="Trafficlight.svg"
   version="1.0"
   inkscape:output_extension="org.inkscape.output.svg.inkscape">
  <defs
     id="defs14846">
    <inkscape:perspective
       sodipodi:type="inkscape:persp3d"
       inkscape:vp_x="0 : 165 : 1"
       inkscape:vp_y="0 : 1000 : 0"
       inkscape:vp_z="291.08395 : 165 : 1"
       inkscape:persp3d-origin="145.54198 : 110 : 1"
       id="perspective104" />
    <linearGradient
       x1="0"
       y1="0"
       x2="0"
       y2="1.05"
       id="linearGradient2876">
      <stop
         stop-color="#fff"
         stop-opacity="0.9;"
         offset="0"
         id="stop2878"
         style="stop-color:white;stop-opacity:0.90196079;" />
      <stop
         stop-color="#fff"
         stop-opacity="0.2;"
         offset="0.7"
         id="stop2880" />
      <stop
         stop-color="#fff"
         stop-opacity="0.3;"
         offset="1"
         id="stop2882" />
    </linearGradient>
    <path
       id="reflex"
       d="M 35,50 C 40.908991,38.920641 52.443394,32 65,32 C 77.556606,32 89.091009,38.920641 95,50 C 97,53.333333 97,56.666667 95,60 C 75,72 55,72 35,60 C 33,56.666667 33,53.333333 35,50 z " />
    <linearGradient
       id="rg"
       y2="1.05"
       x2="0"
       y1="0"
       x1="0">
      <stop
         id="stop14887"
         offset="0"
         stop-opacity="0.9;"
         stop-color="#fff"
         style="stop-color:white;stop-opacity:0.77319586;" />
      <stop
         id="stop14889"
         offset="0.69999999"
         stop-opacity="0.2;"
         stop-color="#fff"
         style="stop-color:white;stop-opacity:0.05154639;" />
      <stop
         id="stop14891"
         offset="1"
         stop-opacity="0.3;"
         stop-color="#fff"
         style="stop-color:white;stop-opacity:0.21649484;" />
    </linearGradient>
    <radialGradient
       id="b"
       fy="265"
       fx="65"
       r="44"
       cy="265"
       cx="65"
       gradientUnits="userSpaceOnUse">
      <stop
         id="stop14880"
         offset="0"
         stop-color="#4d4d4d" />
      <stop
         id="stop14882"
         offset="0.7"
         stop-color="#1a1a1a" />
      <stop
         id="stop14884"
         offset="1"
         stop-color="#000000" />
    </radialGradient>
    <radialGradient
       id="y"
       fy="165"
       fx="65"
       r="44"
       cy="165"
       cx="65"
       gradientUnits="userSpaceOnUse">
      <stop
         id="stop14873"
         offset="0"
         stop-color="#fcfc74" />
      <stop
         id="stop14875"
         offset="0.7"
         stop-color="#d4d53a" />
      <stop
         id="stop14877"
         offset="1"
         stop-color="#afa500" />
    </radialGradient>
    <radialGradient
       id="r"
       fy="65"
       fx="65"
       r="44"
       cy="65"
       cx="65"
       gradientUnits="userSpaceOnUse">
      <stop
         id="stop14866"
         offset="0"
         stop-color="#fc7474" />
      <stop
         id="stop14868"
         offset="0.7"
         stop-color="#d53a3a" />
      <stop
         id="stop14870"
         offset="1"
         stop-color="#af0000" />
    </radialGradient>
    <linearGradient
       y2="186.41083"
       x2="82.849258"
       y1="0"
       x1="0"
       id="back"
       gradientTransform="scale(0.627646,1.593255)"
       gradientUnits="userSpaceOnUse">
      <stop
         id="stop14861"
         offset="0"
         stop-color="#5c656c" />
      <stop
         id="stop14863"
         offset="1"
         stop-color="#aab2b7" />
    </linearGradient>
    <path
       id="path15017"
       d="M 35,50 C 40.908991,38.920641 52.443394,32 65,32 C 77.556606,32 89.091009,38.920641 95,50 C 97,53.333333 97,56.666667 95,60 C 75,72 55,72 35,60 C 33,56.666667 33,53.333333 35,50 z " />
    <linearGradient
       id="linearGradient15012"
       y2="1.05"
       x2="0"
       y1="0"
       x1="0">
      <stop
         id="stop14972"
         offset="0"
         stop-opacity="0.9;"
         stop-color="#fff" />
      <stop
         id="stop14974"
         offset="0.7"
         stop-opacity="0.2;"
         stop-color="#fff" />
      <stop
         id="stop14976"
         offset="1"
         stop-opacity="0.3;"
         stop-color="#fff" />
    </linearGradient>
    <radialGradient
       id="radialGradient15007"
       fy="0.5"
       fx="0.5"
       r="0.5"
       cy="0.5"
       cx="0.5">
      <stop
         id="stop14965"
         offset="0"
         stop-color="#4d4d4d" />
      <stop
         id="stop14967"
         offset="0.7"
         stop-color="#1a1a1a" />
      <stop
         id="stop14969"
         offset="1"
         stop-color="#000000" />
    </radialGradient>
    <radialGradient
       id="radialGradient15002"
       fy="0.5"
       fx="0.5"
       r="0.5"
       cy="0.5"
       cx="0.5">
      <stop
         id="stop14958"
         offset="0"
         stop-color="#fcfc74" />
      <stop
         id="stop14960"
         offset="0.7"
         stop-color="#d4d53a" />
      <stop
         id="stop14962"
         offset="1"
         stop-color="#afa500" />
    </radialGradient>
    <radialGradient
       id="radialGradient14997"
       fy="0.5"
       fx="0.5"
       r="0.5"
       cy="0.5"
       cx="0.5">
      <stop
         id="stop14951"
         offset="0"
         stop-color="#fc7474" />
      <stop
         id="stop14953"
         offset="0.7"
         stop-color="#d53a3a" />
      <stop
         id="stop14955"
         offset="1"
         stop-color="#af0000" />
    </radialGradient>
    <linearGradient
       y2="0.89999998"
       x2="0.40000001"
       y1="0"
       x1="0"
       id="linearGradient14993">
      <stop
         id="stop14946"
         offset="0"
         stop-color="#5c656c" />
      <stop
         id="stop14948"
         offset="1"
         stop-color="#aab2b7" />
    </linearGradient>
    <linearGradient
       id="linearGradient2070">
      <stop
         style="stop-color:#ff0000;stop-opacity:1.0000000;"
         offset="0.0000000"
         id="stop2072" />
      <stop
         style="stop-color:#9a1a00;stop-opacity:1.0000000;"
         offset="1.0000000"
         id="stop2074" />
    </linearGradient>
    <linearGradient
       id="linearGradient3528">
      <stop
         style="stop-color:white;stop-opacity:0;"
         offset="0"
         id="stop3530" />
      <stop
         style="stop-color:black;stop-opacity:0.39175257;"
         offset="1"
         id="stop3532" />
    </linearGradient>
    <linearGradient
       inkscape:collect="always"
       xlink:href="#back"
       id="linearGradient15110"
       gradientUnits="userSpaceOnUse"
       gradientTransform="matrix(0.635938,0,0,1.113422,218.1939,55.85133)"
       x1="0"
       y1="0"
       x2="82.849258"
       y2="186.41083" />
    <radialGradient
       inkscape:collect="always"
       xlink:href="#b"
       id="radialGradient15112"
       gradientUnits="userSpaceOnUse"
       cx="65"
       cy="265"
       fx="65"
       fy="265"
       r="44" />
    <radialGradient
       inkscape:collect="always"
       xlink:href="#b"
       id="radialGradient15190"
       gradientUnits="userSpaceOnUse"
       cx="65"
       cy="265"
       fx="65"
       fy="265"
       r="44" />
    <radialGradient
       inkscape:collect="always"
       xlink:href="#linearGradient3528"
       id="radialGradient17020"
       gradientUnits="userSpaceOnUse"
       gradientTransform="matrix(0.420135,0,0,0.457467,505.0828,124.9475)"
       cx="356.63849"
       cy="420.37048"
       fx="356.63849"
       fy="420.37048"
       r="312.88068" />
    <radialGradient
       inkscape:collect="always"
       xlink:href="#linearGradient3528"
       id="radialGradient17040"
       gradientUnits="userSpaceOnUse"
       gradientTransform="matrix(1,0,0,1.112913,0,-39.61257)"
       cx="298.12531"
       cy="350.82419"
       fx="298.12531"
       fy="350.82419"
       r="340.96289" />
    <radialGradient
       inkscape:collect="always"
       xlink:href="#linearGradient3528"
       id="radialGradient17042"
       gradientUnits="userSpaceOnUse"
       gradientTransform="matrix(1,0,0,1.112913,0,-39.61257)"
       cx="298.12531"
       cy="350.82419"
       fx="298.12531"
       fy="350.82419"
       r="340.96289" />
    <radialGradient
       inkscape:collect="always"
       xlink:href="#linearGradient3528"
       id="radialGradient17044"
       gradientUnits="userSpaceOnUse"
       gradientTransform="matrix(1,0,0,1.112913,0,-39.61257)"
       cx="298.12531"
       cy="350.82419"
       fx="298.12531"
       fy="350.82419"
       r="340.96289" />
    <radialGradient
       inkscape:collect="always"
       xlink:href="#linearGradient3528"
       id="radialGradient17046"
       gradientUnits="userSpaceOnUse"
       gradientTransform="matrix(1,0,0,1.112913,0,-39.61257)"
       cx="298.12531"
       cy="350.82419"
       fx="298.12531"
       fy="350.82419"
       r="340.96289" />
    <radialGradient
       inkscape:collect="always"
       xlink:href="#linearGradient3528"
       id="radialGradient17048"
       gradientUnits="userSpaceOnUse"
       gradientTransform="matrix(1,0,0,1.112913,0,-39.61257)"
       cx="298.12531"
       cy="350.82419"
       fx="298.12531"
       fy="350.82419"
       r="340.96289" />
    <radialGradient
       inkscape:collect="always"
       xlink:href="#linearGradient3528"
       id="radialGradient17050"
       gradientUnits="userSpaceOnUse"
       gradientTransform="matrix(1,0,0,1.112913,0,-39.61257)"
       cx="298.12531"
       cy="350.82419"
       fx="298.12531"
       fy="350.82419"
       r="340.96289" />
    <radialGradient
       inkscape:collect="always"
       xlink:href="#linearGradient3528"
       id="radialGradient17052"
       gradientUnits="userSpaceOnUse"
       gradientTransform="matrix(1,0,0,1.112913,0,-39.61257)"
       cx="298.12531"
       cy="350.82419"
       fx="298.12531"
       fy="350.82419"
       r="340.96289" />
    <radialGradient
       inkscape:collect="always"
       xlink:href="#linearGradient3528"
       id="radialGradient17054"
       gradientUnits="userSpaceOnUse"
       gradientTransform="matrix(1,0,0,1.112913,0,-39.61257)"
       cx="298.12531"
       cy="350.82419"
       fx="298.12531"
       fy="350.82419"
       r="340.96289" />
    <linearGradient
       inkscape:collect="always"
       xlink:href="#back"
       id="linearGradient17067"
       gradientUnits="userSpaceOnUse"
       gradientTransform="matrix(0.627646,0,0,1.593255,57.96866,54.71846)"
       x1="0"
       y1="0"
       x2="82.849258"
       y2="186.41083" />
    <radialGradient
       inkscape:collect="always"
       xlink:href="#linearGradient3528"
       id="radialGradient17970"
       gradientUnits="userSpaceOnUse"
       gradientTransform="matrix(1,0,0,0.98913,0,1.336244)"
       cx="124.75272"
       cy="122.93433"
       fx="124.75272"
       fy="122.93433"
       r="36.904343" />
    <radialGradient
       inkscape:collect="always"
       xlink:href="#linearGradient3528"
       id="radialGradient17974"
       gradientUnits="userSpaceOnUse"
       gradientTransform="matrix(1,0,0,0.98913,0,1.336244)"
       cx="124.75272"
       cy="122.93433"
       fx="124.75272"
       fy="122.93433"
       r="36.904343" />
    <radialGradient
       inkscape:collect="always"
       xlink:href="#linearGradient3528"
       id="radialGradient2196"
       gradientUnits="userSpaceOnUse"
       gradientTransform="matrix(1,0,0,0.98913,0,1.336244)"
       cx="124.75272"
       cy="122.93433"
       fx="124.75272"
       fy="122.93433"
       r="36.904343" />
  </defs>
  <sodipodi:namedview
     id="base"
     pagecolor="#ffffff"
     bordercolor="#666666"
     borderopacity="1.0"
     gridtolerance="10000"
     guidetolerance="10"
     objecttolerance="10"
     inkscape:pageopacity="0.0"
     inkscape:pageshadow="2"
     inkscape:zoom="2.2596098"
     inkscape:cx="144.63024"
     inkscape:cy="165"
     inkscape:document-units="px"
     inkscape:current-layer="layer1"
     inkscape:window-width="1280"
     inkscape:window-height="962"
     inkscape:window-x="0"
     inkscape:window-y="24"
     showgrid="false" />
  <metadata
     id="metadata14849">
    <rdf:RDF>
      <cc:Work
         rdf:about="">
        <dc:format>image/svg+xml</dc:format>
        <dc:type
           rdf:resource="http://purl.org/dc/dcmitype/StillImage" />
      </cc:Work>
    </rdf:RDF>
  </metadata>
  <g
     inkscape:label="Layer 1"
     inkscape:groupmode="layer"
     id="layer1"
     transform="translate(-57.96866,-54.71846)">
    <rect
       style="fill:url(#linearGradient17067);stroke:black;stroke-width:10"
       width="120"
       height="320"
       x="62.968658"
       y="59.71846"
       id="rect14894" />
    <circle
       sodipodi:ry="40"
       sodipodi:rx="40"
       sodipodi:cy="65"
       sodipodi:cx="65"
       style="fill:none;fill-opacity:1;stroke:black;stroke-width:8"
       cx="65"
       cy="65"
       r="40"
       id="cRed"
       transform="translate(57.96866,54.71846)"
       inkscape:label="#redlight" />
    <circle
       sodipodi:ry="40"
       sodipodi:rx="40"
       sodipodi:cy="165"
       sodipodi:cx="65"
       style="fill:none;fill-opacity:1;stroke:black;stroke-width:8"
       cx="65"
       cy="165"
       r="40"
       id="cYellow"
       transform="translate(57.96866,54.71846)"
       inkscape:label="#yellight" />
    <circle
       sodipodi:ry="40"
       sodipodi:rx="40"
       sodipodi:cy="265"
       sodipodi:cx="65"
       style="fill:lime;fill-opacity:1;stroke:black;stroke-width:8"
       cx="65"
       cy="265"
       r="40"
       id="cGreen"
       transform="translate(57.96866,54.71846)"
       inkscape:label="#grelight" />
    <rect
       style="fill:url(#linearGradient15110);stroke:black;stroke-width:8.41467476"
       width="121.58533"
       height="223.62724"
       x="223.25995"
       y="59.345512"
       id="rect14979" />
    <circle
       sodipodi:ry="40"
       sodipodi:rx="40"
       sodipodi:cy="265"
       sodipodi:cx="65"
       style="fill:url(#radialGradient15112);stroke:black;stroke-width:8"
       cx="65"
       cy="265"
       r="40"
       id="circle15026"
       transform="matrix(1.113959,0,0,1.113959,211.6453,-70.42859)" />
    <g
       inkscape:label="Layer 1"
       transform="matrix(9.351175e-2,0,0,9.351175e-2,256.1744,191.9643)"
       id="pGreen_master">
      <path
         style="fill:#626262;fill-opacity:1"
         id="pGreen"
         d="M 498.91743,728.9939 C 496.28466,726.36112 495.91101,721.94801 497.5767,713.15872 C 499.726,701.81758 504.65649,686.12637 512.50347,665.65445 C 516.13116,656.19019 519.86062,645.41581 520.79114,641.71138 L 522.483,634.97604 L 514.69735,627.63148 C 505.65495,619.10138 487.58964,604.54309 456.64286,580.84713 C 417.54508,550.90995 381.91305,521.93064 358.36933,500.92188 C 345.74994,489.66123 341.6921,486.99787 339.19285,488.33542 C 335.57944,490.26927 308.73766,518.10451 268.77249,561.36218 C 191.6684,644.81843 144.77937,694.34863 138.94368,698.50401 L 136.04854,700.56553 L 132.29403,698.08092 C 112.58285,685.03668 34.60392,614.50093 14.509629,591.53919 C 7.079171,583.0484 1.14286,572.90639 1.14286,568.70246 C 1.14286,567.4153 2.099228,565.40581 3.268121,564.23692 C 5.139888,562.36515 6.123924,562.18675 11.518121,562.74126 C 18.58038,563.46724 37.28187,568.27638 58.14286,574.73094 C 80.59692,581.67841 83.13114,581.79231 91.52666,576.23135 C 97.24061,572.44659 105.4923,562.96556 142.76274,517.36218 C 208.28369,437.192 212.14286,431.83592 212.14286,421.07048 C 212.14286,413.59269 210.26258,410.08264 204.85441,407.46459 C 199.17317,404.71435 195.67451,404.81268 187.43835,407.95409 C 166.39243,415.98135 161.56871,417.44375 157.47331,417.03854 C 151.43055,416.44065 143.18228,412.26845 118.01518,397.07955 C 105.71041,389.65334 83.94286,376.93757 69.64286,368.82226 C 33.03395,348.04658 29.0546,345.16211 27.62078,338.36218 C 26.21511,331.69577 20.27209,325.01364 -0.85714,306.34262 C -24.220664,285.69723 -37.014342,272.31003 -40.49854,264.86218 C -44.850549,255.55929 -43.155446,248.75104 -33.191011,235.51209 C -21.879937,220.48397 -14.840948,215.36218 -5.498524,215.36218 C 3.943037,215.36218 12.666556,221.09015 32.64286,240.40626 C 54.78226,261.81398 62.95907,267.75336 78.64286,273.8192 C 84.14286,275.94637 99.44286,282.28577 112.64286,287.90675 C 137.64088,298.55171 156.28275,305.11767 164.15443,306.04996 C 172.54351,307.04352 181.43275,300.18602 193.84071,283.14884 C 208.48614,263.03941 213.59816,256.48149 223.75696,244.77098 C 236.87171,229.65299 246.14286,216.84215 246.14286,213.8382 C 246.14286,207.81787 234.54777,198.78998 221.25496,194.46058 C 206.09358,189.5226 191.58707,178.0725 185.92756,166.57642 C 182.84438,160.31359 182.64309,159.25875 182.64656,149.38321 C 182.6492,141.9055 183.49832,134.43742 185.58205,123.56538 L 188.51384,108.26857 L 178.11226,97.83147 C 171.85477,91.55262 168.09557,87.0576 168.67677,86.5491 C 176.26048,79.91387 182.40155,76.61444 190.28524,74.93949 C 194.55857,74.03159 202.0948,64.66206 210.39286,49.9404 C 214.65536,42.37827 218.14286,35.82024 218.14286,35.36701 C 218.14286,34.91378 214.88036,32.74249 210.89286,30.54192 C 197.97139,23.41101 177.24703,8.8081 167.41375,-0.09454 C 163.02857,-4.0647 162.77977,-4.54551 163.87108,-6.94066 C 167.57844,-15.07744 192.80552,-12.7736 233.27274,-0.60261 L 240.90262,1.69217 L 247.22584,-5.22283 C 263.63674,-23.16958 270.55602,-28.63782 276.85418,-28.63782 C 278.38923,-28.63782 292.46966,-22.64551 308.14402,-15.32156 C 323.81838,-7.99762 357.56786,7.60514 383.14286,19.35125 C 408.71786,31.09735 429.81861,40.84329 430.03341,41.00888 C 430.24822,41.17447 429.63273,50.21791 428.66567,61.10541 C 427.6986,71.99291 427.07286,81.64269 427.27512,82.54936 C 427.50301,83.57092 439.05194,89.90728 457.64286,99.21072 C 474.14286,107.4678 490.78256,116.39228 494.61998,119.04289 C 502.28367,124.33642 504.70702,128.22659 502.01676,130.91685 C 497.89731,135.0363 468.89694,135.26785 443.30281,131.38565 C 427.56426,128.99837 419.08883,128.82164 415.26131,130.80093 C 407.32564,134.90462 366.14286,195.93571 366.14286,203.59233 C 366.14286,206.75405 370.72517,217.39232 383.91935,244.86218 C 407.42217,293.79428 415.26637,312.03756 424.9822,340.36218 C 436.4341,373.74796 437.47859,375.9522 449.50251,392.10849 C 467.18945,415.87407 488.10944,438.85674 562.1494,515.86218 C 624.19384,580.39166 633.28769,590.38278 636.78522,597.86218 C 639.29186,603.22259 639.79639,609.51306 638.08147,614.02365 C 636.12761,619.16268 621.81381,635.64905 602.64286,654.84119 C 568.27955,689.24247 532.2611,719.81324 517.17227,727.38462 C 511.27393,730.34433 501.15952,731.23598 498.91743,728.9939 z" />
    </g>
    <circle
       sodipodi:ry="40"
       sodipodi:rx="40"
       sodipodi:cy="265"
       sodipodi:cx="65"
       style="fill:url(#radialGradient15190);stroke:black;stroke-width:8"
       cx="65"
       cy="265"
       r="40"
       id="circle15166"
       transform="matrix(1.113959,0,0,1.113959,211.6453,-177.0169)" />
    <g
       id="pRed_master"
       inkscape:label="Layer 1"
       transform="matrix(0.27464,0,0,0.27464,336.32605,58.607888)">
      <path
         d="M -199.36153,364.90577 C -208.14843,364.23155 -217.92013,362.41465 -220.81755,360.91633 L -222.13376,360.2357 L -221.21448,359.25717 C -220.70888,358.71897 -219.15354,357.67014 -217.75818,356.92642 C -214.09566,354.97432 -213.64612,354.41041 -213.64612,351.76817 C -213.64612,350.54112 -214.87469,342.2102 -216.37628,333.25501 C -219.84152,312.58894 -221.97405,297.60545 -224.12732,278.79502 C -228.91222,236.99523 -229.49487,233.78621 -233.80298,225.50548 C -237.26066,218.85938 -242.64868,214.44849 -250.61096,211.74569 C -258.99223,208.90065 -270.16316,207.27951 -285.06906,206.74509 C -289.11286,206.60011 -293.22508,206.28127 -294.20734,206.03655 C -296.0527,205.5768 -297.64316,204.09455 -299.019,201.55226 C -299.70419,200.28615 -299.84677,200.22978 -302.36425,200.22978 C -303.81051,200.22978 -307.46648,200.63552 -310.48864,201.13142 C -315.75249,201.99516 -316.04784,202.00251 -317.5147,201.30644 C -318.43367,200.87036 -319.63454,199.71189 -320.51801,198.40916 C -325.929,190.43037 -323.35491,177.62606 -315.91072,175.4911 C -314.50558,175.08811 -312.19032,175.63752 -308.38655,177.27659 C -306.45112,178.11057 -305.15197,178.36514 -302.79214,178.37279 C -299.5503,178.38331 -298.7834,178.12578 -296.4127,176.23056 C -292.95203,173.46398 -285.35358,171.98043 -262.17171,169.54521 C -243.9221,167.62812 -245.44149,168.04344 -222.25899,158.63485 C -217.63757,156.75925 -213.43097,154.82499 -212.91099,154.3365 C -212.17571,153.64574 -211.96558,152.98277 -211.96558,151.35368 C -211.96558,149.35456 -212.07609,149.15188 -214.3883,146.91046 C -215.7208,145.61875 -218.01561,143.53523 -219.48788,142.28041 C -222.79197,139.46432 -225.02596,135.96173 -230.64423,125.29604 C -236.2625,114.63034 -235.20197,115.87563 -245.05099,111.94563 C -251.26029,109.46797 -253.13881,108.50536 -253.13881,107.8012 C -253.13881,106.6611 -247.47404,104.85897 -238.09609,103.01566 C -229.65475,101.35645 -229.15261,101.09532 -222.25889,94.779774 C -209.10366,82.727864 -199.16877,78.180464 -187.73106,78.975684 C -176.8967,79.728954 -166.08816,85.172064 -156.08763,93.967674 C -146.08709,102.76329 -146.19795,102.44869 -137.13236,104.61763 C -130.63682,106.17169 -126.41526,107.55458 -125.47723,108.43557 C -125.00399,108.88004 -125.21935,109.15471 -126.73763,110.04306 C -127.74478,110.63235 -130.88579,112.1003 -133.71771,113.30518 C -136.54963,114.51006 -139.59036,116.11533 -140.47487,116.87245 C -141.58499,117.82269 -142.94673,119.92701 -144.87154,123.66673 C -149.99634,133.62376 -154.09589,138.46308 -161.75701,143.59938 C -167.9364,147.74226 -168.69168,148.57103 -168.69168,151.20899 C -168.69168,153.16571 -167.37195,154.58677 -164.2403,156.00206 C -156.57675,159.46547 -138.14438,167.10708 -135.71108,167.82956 C -131.77467,168.99834 -129.34642,169.33278 -115.54461,170.60702 C -95.133856,172.49144 -88.046476,173.68167 -84.874756,175.75759 C -82.721266,177.16707 -79.796036,177.42483 -75.769086,176.55992 C -68.756826,175.05382 -66.873646,175.2317 -64.478966,177.62638 C -60.509786,181.59556 -59.409026,188.30117 -61.630576,194.9781 C -62.691416,198.16652 -64.078326,199.9985 -66.282606,201.12304 C -68.576036,202.29305 -70.588606,202.03883 -76.443776,199.83954 C -78.948286,198.8988 -81.397166,198.13292 -81.885746,198.13759 C -82.482796,198.14329 -83.738456,199.31063 -85.715026,201.69748 C -89.151176,205.84689 -88.105506,205.53469 -99.789546,205.89966 C -114.2637,206.35178 -125.14574,207.56134 -130.28244,209.28902 C -136.18558,211.27447 -140.34908,214.53671 -142.32287,218.72315 C -144.8715,224.12875 -146.69303,234.92988 -148.52112,255.47753 C -150.81565,281.26709 -153.94154,302.17969 -160.10563,332.97848 C -161.83835,341.63609 -163.37231,350.09497 -163.51439,351.776 L -163.77278,354.83241 L -161.92582,355.61345 C -160.91002,356.04302 -159.18398,356.72077 -158.09016,357.11956 C -156.99634,357.51835 -155.68241,358.18391 -155.17031,358.59858 L -154.2392,359.35253 L -155.53246,360.0213 C -158.56693,361.59048 -169.31837,363.70003 -176.88431,364.46811 C -184.45024,365.23619 -193.94414,365.32145 -199.36153,364.90577 z"
         id="pRed"
         sodipodi:nodetypes="ccccssssssssssssssssssssssszssssszsssssssssssssssssssssssscccsccccc"
         style="fill:#ff0000;fill-opacity:1" />
    </g>
    <path
       sodipodi:type="arc"
       style="opacity:1;fill:url(#radialGradient2196);fill-opacity:1;stroke:none;stroke-width:1;stroke-linecap:butt;stroke-linejoin:miter;stroke-miterlimit:4;stroke-dasharray:none;stroke-opacity:1"
       id="path17956"
       sodipodi:cx="124.75272"
       sodipodi:cy="122.93433"
       sodipodi:rx="36.904343"
       sodipodi:ry="36.503208"
       d="M 161.65707,122.93433 A 36.904343,36.503208 0 1 1 87.848381,122.93433 A 36.904343,36.503208 0 1 1 161.65707,122.93433 z"
       transform="matrix(1.046757,0,0,1.028362,-7.0257343,-5.574839)" />
    <path
       sodipodi:type="arc"
       style="opacity:1;fill:url(#radialGradient17970);fill-opacity:1;stroke:none;stroke-width:1;stroke-linecap:butt;stroke-linejoin:miter;stroke-miterlimit:4;stroke-dasharray:none;stroke-opacity:1"
       id="path17968"
       sodipodi:cx="124.75272"
       sodipodi:cy="122.93433"
       sodipodi:rx="36.904343"
       sodipodi:ry="36.503208"
       d="M 161.65707,122.93433 A 36.904343,36.503208 0 1 1 87.848381,122.93433 A 36.904343,36.503208 0 1 1 161.65707,122.93433 z"
       transform="translate(-1.5864088,96.630566)" />
    <path
       sodipodi:type="arc"
       style="opacity:1;fill:url(#radialGradient17974);fill-opacity:1;stroke:none;stroke-width:1;stroke-linecap:butt;stroke-linejoin:miter;stroke-miterlimit:4;stroke-dasharray:none;stroke-opacity:1"
       id="path17972"
       sodipodi:cx="124.75272"
       sodipodi:cy="122.93433"
       sodipodi:rx="36.904343"
       sodipodi:ry="36.503208"
       d="M 161.65707 122.93433 A 36.904343 36.503208 0 1 1  87.848381,122.93433 A 36.904343 36.503208 0 1 1  161.65707 122.93433 z"
       transform="translate(-1.093814,196.6678)" />
  </g>
</svg>
