<?xml version="1.0" encoding="UTF-8" standalone="no"?>
<!-- Created with Inkscape (http://www.inkscape.org/) -->

<svg
   xmlns:dc="http://purl.org/dc/elements/1.1/"
   xmlns:cc="http://creativecommons.org/ns#"
   xmlns:rdf="http://www.w3.org/1999/02/22-rdf-syntax-ns#"
   xmlns:svg="http://www.w3.org/2000/svg"
   xmlns="http://www.w3.org/2000/svg"
   xmlns:xlink="http://www.w3.org/1999/xlink"
   xmlns:sodipodi="http://sodipodi.sourceforge.net/DTD/sodipodi-0.dtd"
   xmlns:inkscape="http://www.inkscape.org/namespaces/inkscape"
   width="291.08395"
   height="330"
   id="svg14844"
   viewBox="0 0 292 330"
   sodipodi:version="0.32"
   inkscape:version="0.47 r22583"
   sodipodi:docname="Trafficlight.svg"
   version="1.0"
   inkscape:output_extension="org.inkscape.output.svg.inkscape">
  <defs
     id="defs14846">
    <inkscape:perspective
       sodipodi:type="inkscape:persp3d"
       inkscape:vp_x="0 : 165 : 1"
       inkscape:vp_y="0 : 1000 : 0"
       inkscape:vp_z="291.08395 : 165 : 1"
       inkscape:persp3d-origin="145.54198 : 110 : 1"
       id="perspective104" />
    <linearGradient
       x1="0"
       y1="0"
       x2="0"
       y2="1.05"
       id="linearGradient2876">
      <stop
         stop-color="#fff"
         stop-opacity="0.9;"
         offset="0"
         id="stop2878"
         style="stop-color:white;stop-opacity:0.90196079;" />
      <stop
         stop-color="#fff"
         stop-opacity="0.2;"
         offset="0.7"
         id="stop2880" />
      <stop
         stop-color="#fff"
         stop-opacity="0.3;"
         offset="1"
         id="stop2882" />
    </linearGradient>
    <path
       id="reflex"
       d="M 35,50 C 40.908991,38.920641 52.443394,32 65,32 C 77.556606,32 89.091009,38.920641 95,50 C 97,53.333333 97,56.666667 95,60 C 75,72 55,72 35,60 C 33,56.666667 33,53.333333 35,50 z " />
    <linearGradient
       id="rg"
       y2="1.05"
       x2="0"
       y1="0"
       x1="0">
      <stop
         id="stop14887"
         offset="0"
         stop-opacity="0.9;"
         stop-color="#fff"
         style="stop-color:white;stop-opacity:0.77319586;" />
      <stop
         id="stop14889"
         offset="0.69999999"
         stop-opacity="0.2;"
         stop-color="#fff"
         style="stop-color:white;stop-opacity:0.05154639;" />
      <stop
         id="stop14891"
         offset="1"
         stop-opacity="0.3;"
         stop-color="#fff"
         style="stop-color:white;stop-opacity:0.21649484;" />
    </linearGradient>
    <radialGradient
       id="b"
       fy="265"
       fx="65"
       r="44"
       cy="265"
       cx="65"
       gradientUnits="userSpaceOnUse">
      <stop
         id="stop14880"
         offset="0"
         stop-color="#4d4d4d" />
      <stop
         id="stop14882"
         offset="0.7"
         stop-color="#1a1a1a" />
      <stop
         id="stop14884"
         offset="1"
         stop-color="#000000" />
    </radialGradient>
    <radialGradient
       id="y"
       fy="165"
       fx="65"
       r="44"
       cy="165"
       cx="65"
       gradientUnits="userSpaceOnUse">
      <stop
         id="stop14873"
         offset="0"
         stop-color="#fcfc74" />
      <stop
         id="stop14875"
         offset="0.7"
         stop-color="#d4d53a" />
      <stop
         id="stop14877"
         offset="1"
         stop-color="#afa500" />
    </radialGradient>
    <radialGradient
       id="r"
       fy="65"
       fx="65"
       r="44"
       cy="65"
       cx="65"
       gradientUnits="userSpaceOnUse">
      <stop
         id="stop14866"
         offset="0"
         stop-color="#fc7474" />
      <stop
         id="stop14868"
         offset="0.7"
         stop-color="#d53a3a" />
      <stop
         id="stop14870"
         offset="1"
         stop-color="#af0000" />
    </radialGradient>
    <linearGradient
       y2="186.41083"
       x2="82.849258"
       y1="0"
       x1="0"
       id="back"
       gradientTransform="scale(0.627646,1.593255)"
       gradientUnits="userSpaceOnUse">
      <stop
         id="stop14861"
         offset="0"
         stop-color="#5c656c" />
      <stop
         id="stop14863"
         offset="1"
         stop-color="#aab2b7" />
    </linearGradient>
    <path
       id="path15017"
       d="M 35,50 C 40.908991,38.920641 52.443394,32 65,32 C 77.556606,32 89.091009,38.920641 95,50 C 97,53.333333 97,56.666667 95,60 C 75,72 55,72 35,60 C 33,56.666667 33,53.333333 35,50 z " />
    <linearGradient
       id="linearGradient15012"
       y2="1.05"
       x2="0"
       y1="0"
       x1="0">
      <stop
         id="stop14972"
         offset="0"
         stop-opacity="0.9;"
         stop-color="#fff" />
      <stop
         id="stop14974"
         offset="0.7"
         stop-opacity="0.2;"
         stop-color="#fff" />
      <stop
         id="stop14976"
         offset="1"
         stop-opacity="0.3;"
         stop-color="#fff" />
    </linearGradient>
    <radialGradient
       id="radialGradient15007"
       fy="0.5"
       fx="0.5"
       r="0.5"
       cy="0.5"
       cx="0.5">
      <stop
         id="stop14965"
         offset="0"
         stop-color="#4d4d4d" />
      <stop
         id="stop14967"
         offset="0.7"
         stop-color="#1a1a1a" />
      <stop
         id="stop14969"
         offset="1"
         stop-color="#000000" />
    </radialGradient>
    <radialGradient
       id="radialGradient15002"
       fy="0.5"
       fx="0.5"
       r="0.5"
       cy="0.5"
       cx="0.5">
      <stop
         id="stop14958"
         offset="0"
         stop-color="#fcfc74" />
      <stop
         id="stop14960"
         offset="0.7"
         stop-color="#d4d53a" />
      <stop
         id="stop14962"
         offset="1"
         stop-color="#afa500" />
    </radialGradient>
    <radialGradient
       id="radialGradient14997"
       fy="0.5"
       fx="0.5"
       r="0.5"
       cy="0.5"
       cx="0.5">
      <stop
         id="stop14951"
         offset="0"
         stop-color="#fc7474" />
      <stop
         id="stop14953"
         offset="0.7"
         stop-color="#d53a3a" />
      <stop
         id="stop14955"
         offset="1"
         stop-color="#af0000" />
    </radialGradient>
    <linearGradient
       y2="0.89999998"
       x2="0.40000001"
       y1="0"
       x1="0"
       id="linearGradient14993">
      <stop
         id="stop14946"
         offset="0"
         stop-color="#5c656c" />
      <stop
         id="stop14948"
         offset="1"
         stop-color="#aab2b7" />
    </linearGradient>
    <linearGradient
       id="linearGradient2070">
      <stop
         style="stop-color:#ff0000;stop-opacity:1.0000000;"
         offset="0.0000000"
         id="stop2072" />
      <stop
         style="stop-color:#9a1a00;stop-opacity:1.0000000;"
         offset="1.0000000"
         id="stop2074" />
    </linearGradient>
    <linearGradient
       id="linearGradient3528">
      <stop
         style="stop-color:white;stop-opacity:0;"
         offset="0"
         id="stop3530" />
      <stop
         style="stop-color:black;stop-opacity:0.39175257;"
         offset="1"
         id="stop3532" />
    </linearGradient>
    <linearGradient
       inkscape:collect="always"
       xlink:href="#back"
       id="linearGradient15110"
       gradientUnits="userSpaceOnUse"
       gradientTransform="matrix(0.635938,0,0,1.113422,218.1939,55.85133)"
       x1="0"
       y1="0"
       x2="82.849258"
       y2="186.41083" />
    <radialGradient
       inkscape:collect="always"
       xlink:href="#b"
       id="radialGradient15112"
       gradientUnits="userSpaceOnUse"
       cx="65"
       cy="265"
       fx="65"
       fy="265"
       r="44" />
    <radialGradient
       inkscape:collect="always"
       xlink:href="#b"
       id="radialGradient15190"
       gradientUnits="userSpaceOnUse"
       cx="65"
       cy="265"
       fx="65"
       fy="265"
       r="44" />
    <radialGradient
       inkscape:collect="always"
       xlink:href="#linearGradient3528"
       id="radialGradient17020"
       gradientUnits="userSpaceOnUse"
       gradientTransform="matrix(0.420135,0,0,0.457467,505.0828,124.9475)"
       cx="356.63849"
       cy="420.37048"
       fx="356.63849"
       fy="420.37048"
       r="312.88068" />
    <radialGradient
       inkscape:collect="always"
       xlink:href="#linearGradient3528"
       id="radialGradient17040"
       gradientUnits="userSpaceOnUse"
       gradientTransform="matrix(1,0,0,1.112913,0,-39.61257)"
       cx="298.12531"
       cy="350.82419"
       fx="298.12531"
       fy="350.82419"
       r="340.96289" />
    <radialGradient
       inkscape:collect="always"
       xlink:href="#linearGradient3528"
       id="radialGradient17042"
       gradientUnits="userSpaceOnUse"
       gradientTransform="matrix(1,0,0,1.112913,0,-39.61257)"
       cx="298.12531"
       cy="350.82419"
       fx="298.12531"
       fy="350.82419"
       r="340.96289" />
    <radialGradient
       inkscape:collect="always"
       xlink:href="#linearGradient3528"
       id="radialGradient17044"
       gradientUnits="userSpaceOnUse"
       gradientTransform="matrix(1,0,0,1.112913,0,-39.61257)"
       cx="298.12531"
       cy="350.82419"
       fx="298.12531"
       fy="350.82419"
       r="340.96289" />
    <radialGradient
       inkscape:collect="always"
       xlink:href="#linearGradient3528"
       id="radialGradient17046"
       gradientUnits="userSpaceOnUse"
       gradientTransform="matrix(1,0,0,1.112913,0,-39.61257)"
       cx="298.12531"
       cy="350.82419"
       fx="298.12531"
       fy="350.82419"
       r="340.96289" />
    <radialGradient
       inkscape:collect="always"
       xlink:href="#linearGradient3528"
       id="radialGradient17048"
       gradientUnits="userSpaceOnUse"
       gradientTransform="matrix(1,0,0,1.112913,0,-39.61257)"
       cx="298.12531"
       cy="350.82419"
       fx="298.12531"
       fy="350.82419"
       r="340.96289" />
    <radialGradient
       inkscape:collect="always"
       xlink:href="#linearGradient3528"
       id="radialGradient17050"
       gradientUnits="userSpaceOnUse"
       gradientTransform="matrix(1,0,0,1.112913,0,-39.61257)"
       cx="298.12531"
       cy="350.82419"
       fx="298.12531"
       fy="350.82419"
       r="340.96289" />
    <radialGradient
       inkscape:collect="always"
       xlink:href="#linearGradient3528"
       id="radialGradient17052"
       gradientUnits="userSpaceOnUse"
       gradientTransform="matrix(1,0,0,1.112913,0,-39.61257)"
       cx="298.12531"
       cy="350.82419"
       fx="298.12531"
       fy="350.82419"
       r="340.96289" />
    <radialGradient
       inkscape:collect="always"
       xlink:href="#linearGradient3528"
       id="radialGradient17054"
       gradientUnits="userSpaceOnUse"
       gradientTransform="matrix(1,0,0,1.112913,0,-39.61257)"
       cx="298.12531"
       cy="350.82419"
       fx="298.12531"
       fy="350.82419"
       r="340.96289" />
    <linearGradient
       inkscape:collect="always"
       xlink:href="#back"
       id="linearGradient17067"
       gradientUnits="userSpaceOnUse"
       gradientTransform="matrix(0.627646,0,0,1.593255,57.96866,54.71846)"
       x1="0"
       y1="0"
       x2="82.849258"
       y2="186.41083" />
    <radialGradient
       inkscape:collect="always"
       xlink:href="#linearGradient3528"
       id="radialGradient17970"
       gradientUnits="userSpaceOnUse"
       gradientTransform="matrix(1,0,0,0.98913,0,1.336244)"
       cx="124.75272"
       cy="122.93433"
       fx="124.75272"
       fy="122.93433"
       r="36.904343" />
    <radialGradient
       inkscape:collect="always"
       xlink:href="#linearGradient3528"
       id="radialGradient17974"
       gradientUnits="userSpaceOnUse"
       gradientTransform="matrix(1,0,0,0.98913,0,1.336244)"
       cx="124.75272"
       cy="122.93433"
       fx="124.75272"
       fy="122.93433"
       r="36.904343" />
    <radialGradient
       inkscape:collect="always"
       xlink:href="#linearGradient3528"
       id="radialGradient2196"
       gradientUnits="userSpaceOnUse"
       gradientTransform="matrix(1,0,0,0.98913,0,1.336244)"
       cx="124.75272"
       cy="122.93433"
       fx="124.75272"
       fy="122.93433"
       r="36.904343" />
  </defs>
  <sodipodi:namedview
     id="base"
     pagecolor="#ffffff"
     bordercolor="#666666"
     borderopacity="1.0"
     gridtolerance="10000"
     guidetolerance="10"
     objecttolerance="10"
     inkscape:pageopacity="0.0"
     inkscape:pageshadow="2"
     inkscape:zoom="2.2596098"
     inkscape:cx="144.63024"
     inkscape:cy="165"
     inkscape:document-units="px"
     inkscape:current-layer="layer1"
     inkscape:window-width="1280"
     inkscape:window-height="962"
     inkscape:window-x="0"
     inkscape:window-y="24"
     showgrid="false"
     inkscape:window-maximized="0" />
  <metadata
     id="metadata14849">
    <rdf:RDF>
      <cc:Work
         rdf:about="">
        <dc:format>image/svg+xml</dc:format>
        <dc:type
           rdf:resource="http://purl.org/dc/dcmitype/StillImage" />
      </cc:Work>
    </rdf:RDF>
  </metadata>
  <g
     inkscape:label="Layer 1"
     inkscape:groupmode="layer"
     id="layer1"
     transform="translate(-57.96866,-54.71846)">
    <rect
       style="fill:url(#linearGradient17067);stroke:black;stroke-width:10"
       width="120"
       height="320"
       x="62.968658"
       y="59.71846"
       id="rect14894" />
    <circle
       sodipodi:ry="40"
       sodipodi:rx="40"
       sodipodi:cy="65"
       sodipodi:cx="65"
       style="fill:none;fill-opacity:1;stroke:black;stroke-width:8"
       cx="65"
       cy="65"
       r="40"
       id="cRed"
       transform="translate(57.96866,54.71846)"
       inkscape:label="#redlight"
       d="M 105,65 C 105,87.09139 87.09139,105 65,105 42.90861,105 25,87.09139 25,65 25,42.90861 42.90861,25 65,25 c 22.09139,0 40,17.90861 40,40 z" />
    <circle
       sodipodi:ry="40"
       sodipodi:rx="40"
       sodipodi:cy="165"
       sodipodi:cx="65"
       style="fill:none;fill-opacity:1;stroke:black;stroke-width:8"
       cx="65"
       cy="165"
       r="40"
       id="cYellow"
       transform="translate(57.96866,54.71846)"
       inkscape:label="#yellight"
       d="m 105,165 c 0,22.09139 -17.90861,40 -40,40 -22.09139,0 -40,-17.90861 -40,-40 0,-22.09139 17.90861,-40 40,-40 22.09139,0 40,17.90861 40,40 z" />
    <circle
       sodipodi:ry="40"
       sodipodi:rx="40"
       sodipodi:cy="265"
       sodipodi:cx="65"
       style="fill:none;stroke:#000000;stroke-width:8"
       cx="65"
       cy="265"
       r="40"
       id="cGreen"
       transform="translate(57.96866,54.71846)"
       inkscape:label="#grelight"
       d="m 105,265 c 0,22.09139 -17.90861,40 -40,40 -22.09139,0 -40,-17.90861 -40,-40 0,-22.09139 17.90861,-40 40,-40 22.09139,0 40,17.90861 40,40 z" />
    <rect
       style="fill:url(#linearGradient15110);stroke:black;stroke-width:8.41467476"
       width="121.58533"
       height="223.62724"
       x="223.25995"
       y="59.345512"
       id="rect14979" />
    <circle
       sodipodi:ry="40"
       sodipodi:rx="40"
       sodipodi:cy="265"
       sodipodi:cx="65"
       style="fill:url(#radialGradient15112);stroke:black;stroke-width:8"
       cx="65"
       cy="265"
       r="40"
       id="circle15026"
       transform="matrix(1.113959,0,0,1.113959,211.6453,-70.42859)"
       d="m 105,265 c 0,22.09139 -17.90861,40 -40,40 -22.09139,0 -40,-17.90861 -40,-40 0,-22.09139 17.90861,-40 40,-40 22.09139,0 40,17.90861 40,40 z" />
    <g
       id="pGreenRotate">
      <path
         style="fill:#626262;fill-opacity:1"
         id="pGreen"
         d="m 302.82904,260.1338 c -0.24619,-0.2462 -0.28113,-0.65888 -0.12537,-1.48078 0.20098,-1.06053 0.66204,-2.52784 1.39583,-4.44221 0.33923,-0.88502 0.68798,-1.89255 0.77499,-2.23896 l 0.15821,-0.62983 -0.72805,-0.6868 c -0.84557,-0.79767 -2.53489,-2.15904 -5.42878,-4.37489 -3.6561,-2.79948 -6.98811,-5.50938 -9.18973,-7.47395 -1.18006,-1.053 -1.55951,-1.30206 -1.79322,-1.17698 -0.3379,0.18084 -2.84792,2.78376 -6.58513,6.82886 -7.21014,7.80414 -11.59482,12.4358 -12.14052,12.82437 l -0.27073,0.19278 -0.35109,-0.23234 c -1.84323,-1.21979 -9.13518,-7.81571 -11.01423,-9.96291 -0.69483,-0.79398 -1.24995,-1.74238 -1.24995,-2.1355 0,-0.12036 0.0894,-0.30827 0.19874,-0.41758 0.17503,-0.17503 0.26705,-0.19171 0.77147,-0.13986 0.6604,0.0679 2.40921,0.5176 4.35996,1.12118 2.09972,0.64967 2.3367,0.66032 3.12178,0.1403 0.53432,-0.35392 1.30595,-1.24051 4.79117,-5.50496 6.12698,-7.49685 6.48786,-7.99771 6.48786,-9.0044 0,-0.69926 -0.17583,-1.02749 -0.68156,-1.27231 -0.53126,-0.25718 -0.85842,-0.24799 -1.6286,0.0458 -1.96804,0.75064 -2.41912,0.8874 -2.80209,0.8495 -0.56506,-0.0559 -1.33637,-0.44606 -3.68979,-1.8664 -1.15064,-0.69443 -3.18617,-1.88351 -4.52338,-2.64239 -3.42337,-1.94277 -3.79548,-2.2125 -3.92956,-2.84837 -0.13145,-0.62339 -0.68719,-1.24825 -2.66302,-2.99421 -2.18477,-1.93058 -3.38113,-3.18244 -3.70694,-3.8789 -0.40696,-0.86993 -0.24845,-1.50658 0.68334,-2.74458 1.05772,-1.40531 1.71595,-1.88426 2.58957,-1.88426 0.8829,0 1.69865,0.53564 3.56667,2.34192 2.0703,2.00187 2.83492,2.55728 4.30154,3.1245 0.51432,0.19892 1.94505,0.79173 3.1794,1.31735 2.33761,0.99543 4.08084,1.60943 4.81694,1.69661 0.78448,0.0929 1.61572,-0.54835 2.77601,-2.14153 1.36952,-1.88046 1.84756,-2.49371 2.79752,-3.58878 1.22639,-1.41371 2.09335,-2.61167 2.09335,-2.89258 0,-0.56297 -1.08428,-1.40718 -2.32731,-1.81203 -1.41777,-0.46176 -2.7743,-1.53248 -3.30353,-2.6075 -0.28831,-0.58565 -0.30714,-0.68429 -0.30681,-1.60776 2.8e-4,-0.69926 0.0796,-1.39761 0.2745,-2.41428 l 0.27416,-1.43043 -0.97267,-0.97599 c -0.58515,-0.58714 -0.93668,-1.00748 -0.88233,-1.05503 0.70917,-0.62047 1.28343,-0.92901 2.02065,-1.08564 0.3996,-0.0849 1.10433,-0.96106 1.88029,-2.33771 0.3986,-0.70714 0.72472,-1.3204 0.72472,-1.36278 0,-0.0424 -0.30508,-0.24542 -0.67796,-0.4512 -1.20831,-0.66683 -3.14628,-2.03237 -4.06581,-2.86487 -0.41006,-0.37126 -0.43333,-0.41622 -0.33128,-0.64019 0.34668,-0.76089 2.70571,-0.54545 6.48987,0.59268 l 0.71349,0.21459 0.59129,-0.64664 c 1.53461,-1.67823 2.18165,-2.18957 2.7706,-2.18957 0.14354,0 1.46023,0.56035 2.92597,1.24522 1.46573,0.68488 4.62171,2.14392 7.01327,3.24232 2.39156,1.0984 4.36473,2.00976 4.38482,2.02524 0.0201,0.0155 -0.0375,0.86115 -0.1279,1.87926 -0.0904,1.01811 -0.14895,1.92048 -0.13004,2.00527 0.0213,0.0955 1.10128,0.68805 2.83974,1.55803 1.54295,0.77213 3.09896,1.60668 3.4578,1.85454 0.71664,0.49501 0.94326,0.85878 0.69169,1.11035 -0.38522,0.38522 -3.0971,0.40687 -5.49045,0.0438 -1.47174,-0.22324 -2.26429,-0.23976 -2.62221,-0.0547 -0.74208,0.38375 -4.59315,6.09087 -4.59315,6.80686 0,0.29565 0.4285,1.29046 1.66231,3.85921 2.19779,4.57573 2.93131,6.28169 3.83986,8.93037 1.07089,3.12197 1.16856,3.32809 2.29294,4.83889 1.65393,2.22236 3.6102,4.37151 10.5338,11.57243 5.80189,6.03426 6.65227,6.96855 6.97933,7.66796 0.2344,0.50126 0.28158,1.08949 0.12121,1.51129 -0.1827,0.48056 -1.52121,2.02223 -3.31392,3.81692 -3.21337,3.21692 -6.58152,6.07565 -7.99251,6.78366 -0.55156,0.27677 -1.49738,0.36015 -1.70704,0.15049 z" />
    </g>
    <circle
       sodipodi:ry="40"
       sodipodi:rx="40"
       sodipodi:cy="265"
       sodipodi:cx="65"
       style="fill:url(#radialGradient15190);stroke:black;stroke-width:8"
       cx="65"
       cy="265"
       r="40"
       id="circle15166"
       transform="matrix(1.113959,0,0,1.113959,211.6453,-177.0169)"
       d="m 105,265 c 0,22.09139 -17.90861,40 -40,40 -22.09139,0 -40,-17.90861 -40,-40 0,-22.09139 17.90861,-40 40,-40 22.09139,0 40,17.90861 40,40 z" />
    <g
       id="pRedRotate">
      <path
         d="m 280.95094,160.95872 c -2.41137,-0.20803 -5.09021,-0.73245 -5.88203,-1.15147 l -0.35969,-0.19035 0.25501,-0.26634 c 0.14025,-0.14648 0.57012,-0.43047 0.95526,-0.63108 1.01091,-0.52657 1.13583,-0.68026 1.14272,-1.4059 0.003,-0.33698 -0.31252,-2.62808 -0.70158,-5.09133 -0.89784,-5.6845 -1.44448,-9.80493 -1.98685,-14.9764 -1.20523,-11.49184 -1.35688,-12.37464 -2.51845,-14.65998 -0.93227,-1.8342 -2.40048,-3.05958 -4.58011,-3.82258 -2.29432,-0.80315 -5.35794,-1.27745 -9.45013,-1.46302 -1.11016,-0.0503 -2.23866,-0.14862 -2.50777,-0.21838 -0.50559,-0.13106 -0.93852,-0.54227 -1.30974,-1.24404 -0.18488,-0.34949 -0.22389,-0.36534 -0.91526,-0.3719 -0.39718,-0.004 -1.40227,0.0981 -2.23353,0.22646 -1.44785,0.2235 -1.52898,0.22475 -1.93,0.0298 -0.25124,-0.12216 -0.57802,-0.44342 -0.81725,-0.80349 -1.46524,-2.20528 -0.72498,-5.715 1.32496,-6.28194 0.38694,-0.10701 1.02134,0.0499 2.0617,0.50994 0.52935,0.23407 0.88547,0.30737 1.53352,0.31561 0.89027,0.0113 1.10155,-0.0574 1.75755,-0.5717 0.9576,-0.75077 3.04821,-1.13841 9.42093,-1.74683 5.01684,-0.47897 4.59849,-0.36886 10.98954,-2.89236 1.27406,-0.50306 2.43434,-1.02331 2.57842,-1.15611 0.20372,-0.18779 0.26316,-0.36931 0.2674,-0.8167 0.005,-0.54902 -0.0246,-0.60496 -0.65378,-1.22654 -0.36258,-0.35821 -0.98737,-0.93638 -1.38843,-1.284819 -0.90006,-0.78198 -1.50446,-1.749704 -3.01962,-4.693428 -1.51516,-2.943723 -1.22715,-2.598973 -3.92173,-3.703902 -1.6988,-0.696602 -2.21219,-0.965851 -2.21035,-1.159233 0.003,-0.313104 1.56336,-0.793268 4.14361,-1.275074 2.32254,-0.433687 2.46112,-0.504094 4.37078,-2.220569 3.64416,-3.275532 6.3844,-4.498507 9.52344,-4.250337 2.97345,0.235078 5.92761,1.758048 8.65113,4.199608 2.72352,2.441558 2.69389,2.354871 5.17791,2.974126 1.77981,0.4437 2.93556,0.834475 3.19088,1.07886 0.1288,0.123297 0.0689,0.198167 -0.35033,0.438178 -0.27812,0.159217 -1.14455,0.554176 -1.92541,0.877694 -0.78086,0.32352 -1.62011,0.756455 -1.865,0.962078 -0.30734,0.258071 -0.68679,0.832428 -1.22513,1.854451 -1.43334,2.721131 -2.57179,4.039466 -4.68912,5.430087 -1.70782,1.12166 -1.9174,1.3473 -1.92427,2.07175 -0.005,0.53738 0.35364,0.93108 1.21,1.32791 2.0956,0.9711 7.13774,3.11769 7.80411,3.32244 1.07801,0.33123 1.744,0.4294 5.53104,0.81527 5.60045,0.57066 7.54375,0.91599 8.40938,1.49435 0.58774,0.39269 1.39042,0.47109 2.49858,0.24405 1.92968,-0.39536 2.44639,-0.34161 3.0978,0.32228 1.07971,1.10038 1.36455,2.94479 0.73707,4.77267 -0.29964,0.87287 -0.68529,1.37237 -1.29357,1.67546 -0.63289,0.31535 -1.18494,0.24029 -2.7872,-0.37894 -0.68536,-0.26487 -1.3559,-0.48158 -1.49009,-0.48157 -0.16398,9e-5 -0.51186,0.31732 -1.06089,0.96767 -0.95447,1.1306 -0.66648,1.04758 -3.8762,1.11739 -3.97618,0.0865 -6.96783,0.39032 -8.38301,0.85142 -1.62634,0.52988 -2.77825,1.41495 -3.3312,2.55952 -0.714,1.47789 -1.24237,4.43944 -1.79791,10.07763 -0.69729,7.07655 -1.6102,12.81159 -3.38322,21.25374 -0.4984,2.37311 -0.94169,4.69216 -0.98508,5.15344 l -0.0789,0.83871 0.5052,0.2193 c 0.27785,0.12062 0.7501,0.31124 1.04946,0.42361 0.29935,0.11236 0.65846,0.29857 0.79802,0.41378 l 0.25374,0.20948 -0.3569,0.1803 c -0.83744,0.42304 -3.79558,0.97438 -5.87539,1.16562 -2.07982,0.19123 -4.68733,0.18993 -6.17401,0.0617 z"
         id="pRed"
         sodipodi:nodetypes="ccccssssssssssssssssssssssszssssszsssssssssssssssssssssssscccsccccc"
         style="fill:#626262" />
    </g>
    <path
       sodipodi:type="arc"
       style="opacity:1;fill:url(#radialGradient2196);fill-opacity:1;stroke:none;stroke-width:1;stroke-linecap:butt;stroke-linejoin:miter;stroke-miterlimit:4;stroke-dasharray:none;stroke-opacity:1"
       id="path17956"
       sodipodi:cx="124.75272"
       sodipodi:cy="122.93433"
       sodipodi:rx="36.904343"
       sodipodi:ry="36.503208"
       d="m 161.65707,122.93433 c 0,20.16017 -16.52264,36.50321 -36.90435,36.50321 -20.3817,0 -36.904339,-16.34304 -36.904339,-36.50321 0,-20.16016 16.522639,-36.503204 36.904339,-36.503204 20.38171,0 36.90435,16.343044 36.90435,36.503204 z"
       transform="matrix(1.046757,0,0,1.028362,-7.0257343,-5.574839)" />
    <path
       sodipodi:type="arc"
       style="opacity:1;fill:url(#radialGradient17970);fill-opacity:1;stroke:none;stroke-width:1;stroke-linecap:butt;stroke-linejoin:miter;stroke-miterlimit:4;stroke-dasharray:none;stroke-opacity:1"
       id="path17968"
       sodipodi:cx="124.75272"
       sodipodi:cy="122.93433"
       sodipodi:rx="36.904343"
       sodipodi:ry="36.503208"
       d="m 161.65707,122.93433 c 0,20.16017 -16.52264,36.50321 -36.90435,36.50321 -20.3817,0 -36.904339,-16.34304 -36.904339,-36.50321 0,-20.16016 16.522639,-36.503204 36.904339,-36.503204 20.38171,0 36.90435,16.343044 36.90435,36.503204 z"
       transform="translate(-1.5864088,96.630566)" />
    <path
       sodipodi:type="arc"
       style="opacity:1;fill:url(#radialGradient17974);fill-opacity:1;stroke:none;stroke-width:1;stroke-linecap:butt;stroke-linejoin:miter;stroke-miterlimit:4;stroke-dasharray:none;stroke-opacity:1"
       id="path17972"
       sodipodi:cx="124.75272"
       sodipodi:cy="122.93433"
       sodipodi:rx="36.904343"
       sodipodi:ry="36.503208"
       d="m 161.65707,122.93433 c 0,20.16017 -16.52264,36.50321 -36.90435,36.50321 -20.3817,0 -36.904339,-16.34304 -36.904339,-36.50321 0,-20.16016 16.522639,-36.503204 36.904339,-36.503204 20.38171,0 36.90435,16.343044 36.90435,36.503204 z"
       transform="translate(-1.093814,196.6678)" />
  </g>
</svg>
