<?xml version="1.0" encoding="UTF-8" standalone="no"?>
<!-- Created with Inkscape (http://www.inkscape.org/) -->
<svg
   xmlns:dc="http://purl.org/dc/elements/1.1/"
   xmlns:cc="http://creativecommons.org/ns#"
   xmlns:rdf="http://www.w3.org/1999/02/22-rdf-syntax-ns#"
   xmlns:svg="http://www.w3.org/2000/svg"
   xmlns="http://www.w3.org/2000/svg"
   xmlns:xlink="http://www.w3.org/1999/xlink"
   xmlns:sodipodi="http://sodipodi.sourceforge.net/DTD/sodipodi-0.dtd"
   xmlns:inkscape="http://www.inkscape.org/namespaces/inkscape"
   width="744.12708"
   height="672.11041"
   id="svg2"
   sodipodi:version="0.32"
   inkscape:version="0.46"
   sodipodi:docname="backhoe.svg"
   inkscape:output_extension="org.inkscape.output.svg.inkscape"
   version="1.0">
  <sodipodi:namedview
     id="base"
     pagecolor="#ffffff"
     bordercolor="#666666"
     borderopacity="1.0"
     gridtolerance="10000"
     guidetolerance="10"
     objecttolerance="10"
     inkscape:pageopacity="0.0"
     inkscape:pageshadow="2"
     inkscape:zoom="1.0174481"
     inkscape:cx="335.80448"
     inkscape:cy="365.52682"
     inkscape:document-units="px"
     inkscape:current-layer="layer1"
     showgrid="false"
     inkscape:window-width="1280"
     inkscape:window-height="977"
     inkscape:window-x="0"
     inkscape:window-y="20" />
  <defs
     id="defs4">
    <inkscape:perspective
       sodipodi:type="inkscape:persp3d"
       inkscape:vp_x="0 : 526.18109 : 1"
       inkscape:vp_y="0 : 1000 : 0"
       inkscape:vp_z="744.09448 : 526.18109 : 1"
       inkscape:persp3d-origin="372.04724 : 350.78739 : 1"
       id="perspective10" />
    <inkscape:perspective
       id="perspective2447"
       inkscape:persp3d-origin="372.04724 : 350.78739 : 1"
       inkscape:vp_z="744.09448 : 526.18109 : 1"
       inkscape:vp_y="0 : 1000 : 0"
       inkscape:vp_x="0 : 526.18109 : 1"
       sodipodi:type="inkscape:persp3d" />
    <inkscape:perspective
       id="perspective2497"
       inkscape:persp3d-origin="372.04724 : 350.78739 : 1"
       inkscape:vp_z="744.09448 : 526.18109 : 1"
       inkscape:vp_y="0 : 1000 : 0"
       inkscape:vp_x="0 : 526.18109 : 1"
       sodipodi:type="inkscape:persp3d" />
    <inkscape:perspective
       id="perspective2623"
       inkscape:persp3d-origin="372.04724 : 350.78739 : 1"
       inkscape:vp_z="744.09448 : 526.18109 : 1"
       inkscape:vp_y="0 : 1000 : 0"
       inkscape:vp_x="0 : 526.18109 : 1"
       sodipodi:type="inkscape:persp3d" />
    <inkscape:perspective
       id="perspective2777"
       inkscape:persp3d-origin="372.04724 : 350.78739 : 1"
       inkscape:vp_z="744.09448 : 526.18109 : 1"
       inkscape:vp_y="0 : 1000 : 0"
       inkscape:vp_x="0 : 526.18109 : 1"
       sodipodi:type="inkscape:persp3d" />
    <inkscape:perspective
       id="perspective2827"
       inkscape:persp3d-origin="372.04724 : 350.78739 : 1"
       inkscape:vp_z="744.09448 : 526.18109 : 1"
       inkscape:vp_y="0 : 1000 : 0"
       inkscape:vp_x="0 : 526.18109 : 1"
       sodipodi:type="inkscape:persp3d" />
    <inkscape:perspective
       id="perspective2877"
       inkscape:persp3d-origin="372.04724 : 350.78739 : 1"
       inkscape:vp_z="744.09448 : 526.18109 : 1"
       inkscape:vp_y="0 : 1000 : 0"
       inkscape:vp_x="0 : 526.18109 : 1"
       sodipodi:type="inkscape:persp3d" />
    <inkscape:perspective
       id="perspective2927"
       inkscape:persp3d-origin="372.04724 : 350.78739 : 1"
       inkscape:vp_z="744.09448 : 526.18109 : 1"
       inkscape:vp_y="0 : 1000 : 0"
       inkscape:vp_x="0 : 526.18109 : 1"
       sodipodi:type="inkscape:persp3d" />
    <inkscape:perspective
       id="perspective2977"
       inkscape:persp3d-origin="372.04724 : 350.78739 : 1"
       inkscape:vp_z="744.09448 : 526.18109 : 1"
       inkscape:vp_y="0 : 1000 : 0"
       inkscape:vp_x="0 : 526.18109 : 1"
       sodipodi:type="inkscape:persp3d" />
    <inkscape:perspective
       id="perspective3192"
       inkscape:persp3d-origin="372.04724 : 350.78739 : 1"
       inkscape:vp_z="744.09448 : 526.18109 : 1"
       inkscape:vp_y="0 : 1000 : 0"
       inkscape:vp_x="0 : 526.18109 : 1"
       sodipodi:type="inkscape:persp3d" />
    <inkscape:perspective
       id="perspective3291"
       inkscape:persp3d-origin="372.04724 : 350.78739 : 1"
       inkscape:vp_z="744.09448 : 526.18109 : 1"
       inkscape:vp_y="0 : 1000 : 0"
       inkscape:vp_x="0 : 526.18109 : 1"
       sodipodi:type="inkscape:persp3d" />
    <radialGradient
       r="36.904343"
       fy="122.93433"
       fx="124.75272"
       cy="122.93433"
       cx="124.75272"
       gradientTransform="matrix(1,0,0,0.98913,0,1.336244)"
       gradientUnits="userSpaceOnUse"
       id="radialGradient2196"
       xlink:href="#linearGradient3528"
       inkscape:collect="always" />
    <radialGradient
       r="36.904343"
       fy="122.93433"
       fx="124.75272"
       cy="122.93433"
       cx="124.75272"
       gradientTransform="matrix(1,0,0,0.98913,0,1.336244)"
       gradientUnits="userSpaceOnUse"
       id="radialGradient17974"
       xlink:href="#linearGradient3528"
       inkscape:collect="always" />
    <linearGradient
       y2="186.41083"
       x2="82.849258"
       y1="0"
       x1="0"
       gradientTransform="matrix(0.627646,0,0,1.593255,57.96866,54.71846)"
       gradientUnits="userSpaceOnUse"
       id="linearGradient17067"
       xlink:href="#back"
       inkscape:collect="always" />
    <radialGradient
       r="340.96289"
       fy="350.82419"
       fx="298.12531"
       cy="350.82419"
       cx="298.12531"
       gradientTransform="matrix(1,0,0,1.112913,0,-39.61257)"
       gradientUnits="userSpaceOnUse"
       id="radialGradient17054"
       xlink:href="#linearGradient3528"
       inkscape:collect="always" />
    <radialGradient
       r="340.96289"
       fy="350.82419"
       fx="298.12531"
       cy="350.82419"
       cx="298.12531"
       gradientTransform="matrix(1,0,0,1.112913,0,-39.61257)"
       gradientUnits="userSpaceOnUse"
       id="radialGradient17052"
       xlink:href="#linearGradient3528"
       inkscape:collect="always" />
    <radialGradient
       r="340.96289"
       fy="350.82419"
       fx="298.12531"
       cy="350.82419"
       cx="298.12531"
       gradientTransform="matrix(1,0,0,1.112913,0,-39.61257)"
       gradientUnits="userSpaceOnUse"
       id="radialGradient17050"
       xlink:href="#linearGradient3528"
       inkscape:collect="always" />
    <radialGradient
       r="340.96289"
       fy="350.82419"
       fx="298.12531"
       cy="350.82419"
       cx="298.12531"
       gradientTransform="matrix(1,0,0,1.112913,0,-39.61257)"
       gradientUnits="userSpaceOnUse"
       id="radialGradient17048"
       xlink:href="#linearGradient3528"
       inkscape:collect="always" />
    <radialGradient
       r="340.96289"
       fy="350.82419"
       fx="298.12531"
       cy="350.82419"
       cx="298.12531"
       gradientTransform="matrix(1,0,0,1.112913,0,-39.61257)"
       gradientUnits="userSpaceOnUse"
       id="radialGradient17046"
       xlink:href="#linearGradient3528"
       inkscape:collect="always" />
    <radialGradient
       r="340.96289"
       fy="350.82419"
       fx="298.12531"
       cy="350.82419"
       cx="298.12531"
       gradientTransform="matrix(1,0,0,1.112913,0,-39.61257)"
       gradientUnits="userSpaceOnUse"
       id="radialGradient17044"
       xlink:href="#linearGradient3528"
       inkscape:collect="always" />
    <radialGradient
       r="340.96289"
       fy="350.82419"
       fx="298.12531"
       cy="350.82419"
       cx="298.12531"
       gradientTransform="matrix(1,0,0,1.112913,0,-39.61257)"
       gradientUnits="userSpaceOnUse"
       id="radialGradient17042"
       xlink:href="#linearGradient3528"
       inkscape:collect="always" />
    <radialGradient
       r="340.96289"
       fy="350.82419"
       fx="298.12531"
       cy="350.82419"
       cx="298.12531"
       gradientTransform="matrix(1,0,0,1.112913,0,-39.61257)"
       gradientUnits="userSpaceOnUse"
       id="radialGradient17040"
       xlink:href="#linearGradient3528"
       inkscape:collect="always" />
    <radialGradient
       r="312.88068"
       fy="420.37048"
       fx="356.63849"
       cy="420.37048"
       cx="356.63849"
       gradientTransform="matrix(0.420135,0,0,0.457467,505.0828,124.9475)"
       gradientUnits="userSpaceOnUse"
       id="radialGradient17020"
       xlink:href="#linearGradient3528"
       inkscape:collect="always" />
    <radialGradient
       r="44"
       fy="265"
       fx="65"
       cy="265"
       cx="65"
       gradientUnits="userSpaceOnUse"
       id="radialGradient15190"
       xlink:href="#b"
       inkscape:collect="always" />
    <radialGradient
       r="44"
       fy="265"
       fx="65"
       cy="265"
       cx="65"
       gradientUnits="userSpaceOnUse"
       id="radialGradient15112"
       xlink:href="#b"
       inkscape:collect="always" />
    <linearGradient
       y2="186.41083"
       x2="82.849258"
       y1="0"
       x1="0"
       gradientTransform="matrix(0.635938,0,0,1.113422,218.1939,55.85133)"
       gradientUnits="userSpaceOnUse"
       id="linearGradient15110"
       xlink:href="#back"
       inkscape:collect="always" />
    <linearGradient
       id="linearGradient3528">
      <stop
         id="stop3530"
         offset="0"
         style="stop-color:white;stop-opacity:0;" />
      <stop
         id="stop3532"
         offset="1"
         style="stop-color:black;stop-opacity:0.39175257;" />
    </linearGradient>
    <linearGradient
       id="linearGradient2070">
      <stop
         id="stop2072"
         offset="0.0000000"
         style="stop-color:#ff0000;stop-opacity:1.0000000;" />
      <stop
         id="stop2074"
         offset="1.0000000"
         style="stop-color:#9a1a00;stop-opacity:1.0000000;" />
    </linearGradient>
    <linearGradient
       id="linearGradient14993"
       x1="0"
       y1="0"
       x2="0.40000001"
       y2="0.89999998">
      <stop
         stop-color="#5c656c"
         offset="0"
         id="stop14946" />
      <stop
         stop-color="#aab2b7"
         offset="1"
         id="stop14948" />
    </linearGradient>
    <radialGradient
       cx="0.5"
       cy="0.5"
       r="0.5"
       fx="0.5"
       fy="0.5"
       id="radialGradient14997">
      <stop
         stop-color="#fc7474"
         offset="0"
         id="stop14951" />
      <stop
         stop-color="#d53a3a"
         offset="0.7"
         id="stop14953" />
      <stop
         stop-color="#af0000"
         offset="1"
         id="stop14955" />
    </radialGradient>
    <radialGradient
       cx="0.5"
       cy="0.5"
       r="0.5"
       fx="0.5"
       fy="0.5"
       id="radialGradient15002">
      <stop
         stop-color="#fcfc74"
         offset="0"
         id="stop14958" />
      <stop
         stop-color="#d4d53a"
         offset="0.7"
         id="stop14960" />
      <stop
         stop-color="#afa500"
         offset="1"
         id="stop14962" />
    </radialGradient>
    <radialGradient
       cx="0.5"
       cy="0.5"
       r="0.5"
       fx="0.5"
       fy="0.5"
       id="radialGradient15007">
      <stop
         stop-color="#4d4d4d"
         offset="0"
         id="stop14965" />
      <stop
         stop-color="#1a1a1a"
         offset="0.7"
         id="stop14967" />
      <stop
         stop-color="#000000"
         offset="1"
         id="stop14969" />
    </radialGradient>
    <linearGradient
       x1="0"
       y1="0"
       x2="0"
       y2="1.05"
       id="linearGradient15012">
      <stop
         stop-color="#fff"
         stop-opacity="0.9;"
         offset="0"
         id="stop14972" />
      <stop
         stop-color="#fff"
         stop-opacity="0.2;"
         offset="0.7"
         id="stop14974" />
      <stop
         stop-color="#fff"
         stop-opacity="0.3;"
         offset="1"
         id="stop14976" />
    </linearGradient>
    <path
       d="M 35,50 C 40.908991,38.920641 52.443394,32 65,32 C 77.556606,32 89.091009,38.920641 95,50 C 97,53.333333 97,56.666667 95,60 C 75,72 55,72 35,60 C 33,56.666667 33,53.333333 35,50 z "
       id="path15017" />
    <linearGradient
       gradientUnits="userSpaceOnUse"
       gradientTransform="scale(0.627646,1.593255)"
       id="back"
       x1="0"
       y1="0"
       x2="82.849258"
       y2="186.41083">
      <stop
         stop-color="#5c656c"
         offset="0"
         id="stop14861" />
      <stop
         stop-color="#aab2b7"
         offset="1"
         id="stop14863" />
    </linearGradient>
    <radialGradient
       gradientUnits="userSpaceOnUse"
       cx="65"
       cy="65"
       r="44"
       fx="65"
       fy="65"
       id="r">
      <stop
         stop-color="#fc7474"
         offset="0"
         id="stop14866" />
      <stop
         stop-color="#d53a3a"
         offset="0.7"
         id="stop14868" />
      <stop
         stop-color="#af0000"
         offset="1"
         id="stop14870" />
    </radialGradient>
    <radialGradient
       gradientUnits="userSpaceOnUse"
       cx="65"
       cy="165"
       r="44"
       fx="65"
       fy="165"
       id="y">
      <stop
         stop-color="#fcfc74"
         offset="0"
         id="stop14873" />
      <stop
         stop-color="#d4d53a"
         offset="0.7"
         id="stop14875" />
      <stop
         stop-color="#afa500"
         offset="1"
         id="stop14877" />
    </radialGradient>
    <radialGradient
       gradientUnits="userSpaceOnUse"
       cx="65"
       cy="265"
       r="44"
       fx="65"
       fy="265"
       id="b">
      <stop
         stop-color="#4d4d4d"
         offset="0"
         id="stop14880" />
      <stop
         stop-color="#1a1a1a"
         offset="0.7"
         id="stop14882" />
      <stop
         stop-color="#000000"
         offset="1"
         id="stop14884" />
    </radialGradient>
    <linearGradient
       x1="0"
       y1="0"
       x2="0"
       y2="1.05"
       id="rg">
      <stop
         style="stop-color:white;stop-opacity:0.77319586;"
         stop-color="#fff"
         stop-opacity="0.9;"
         offset="0"
         id="stop14887" />
      <stop
         style="stop-color:white;stop-opacity:0.05154639;"
         stop-color="#fff"
         stop-opacity="0.2;"
         offset="0.69999999"
         id="stop14889" />
      <stop
         style="stop-color:white;stop-opacity:0.21649484;"
         stop-color="#fff"
         stop-opacity="0.3;"
         offset="1"
         id="stop14891" />
    </linearGradient>
    <path
       d="M 35,50 C 40.908991,38.920641 52.443394,32 65,32 C 77.556606,32 89.091009,38.920641 95,50 C 97,53.333333 97,56.666667 95,60 C 75,72 55,72 35,60 C 33,56.666667 33,53.333333 35,50 z "
       id="reflex" />
    <linearGradient
       id="linearGradient2876"
       y2="1.05"
       x2="0"
       y1="0"
       x1="0">
      <stop
         style="stop-color:white;stop-opacity:0.90196079;"
         id="stop2878"
         offset="0"
         stop-opacity="0.9;"
         stop-color="#fff" />
      <stop
         id="stop2880"
         offset="0.7"
         stop-opacity="0.2;"
         stop-color="#fff" />
      <stop
         id="stop2882"
         offset="1"
         stop-opacity="0.3;"
         stop-color="#fff" />
    </linearGradient>
    <inkscape:perspective
       id="perspective104"
       inkscape:persp3d-origin="145.54198 : 110 : 1"
       inkscape:vp_z="291.08395 : 165 : 1"
       inkscape:vp_y="0 : 1000 : 0"
       inkscape:vp_x="0 : 165 : 1"
       sodipodi:type="inkscape:persp3d" />
    <radialGradient
       inkscape:collect="always"
       xlink:href="#linearGradient3528"
       id="radialGradient2685"
       gradientUnits="userSpaceOnUse"
       gradientTransform="matrix(1,0,0,0.98913,0,1.336244)"
       cx="124.75272"
       cy="122.93433"
       fx="124.75272"
       fy="122.93433"
       r="36.904343" />
    <radialGradient
       inkscape:collect="always"
       xlink:href="#linearGradient3528"
       id="radialGradient3479"
       gradientUnits="userSpaceOnUse"
       gradientTransform="matrix(1,0,0,0.98913,0,1.336244)"
       cx="124.75272"
       cy="122.93433"
       fx="124.75272"
       fy="122.93433"
       r="36.904343" />
    <radialGradient
       inkscape:collect="always"
       xlink:href="#linearGradient3528"
       id="radialGradient3483"
       gradientUnits="userSpaceOnUse"
       gradientTransform="matrix(1,0,0,0.98913,0,1.336244)"
       cx="124.75272"
       cy="122.93433"
       fx="124.75272"
       fy="122.93433"
       r="36.904343" />
  </defs>
  <metadata
     id="metadata7">
    <rdf:RDF>
      <cc:Work
         rdf:about="">
        <dc:format>image/svg+xml</dc:format>
        <dc:type
           rdf:resource="http://purl.org/dc/dcmitype/StillImage" />
      </cc:Work>
    </rdf:RDF>
  </metadata>
  <g
     inkscape:label="Layer 1"
     inkscape:groupmode="layer"
     id="layer1"
     transform="translate(-37.048233,-443.56576)">
    <path
       id="path3299"
       d="M 39.013934,970.24561 L 39.013934,824.81499 L 409.6032,824.81499 L 780.19247,824.81499 L 780.19247,970.24561 L 780.19247,1115.6762 L 409.6032,1115.6762 L 39.013934,1115.6762 L 39.013934,970.24561 z"
       style="fill:#cd843f" />
    <path
       id="path3301"
       d="M 37.048233,638.58184 L 37.048233,443.56576 L 409.1118,443.56576 L 781.17532,443.56576 L 781.17532,638.58184 L 781.17532,833.59795 L 409.1118,833.59795 L 37.048233,833.59795 L 37.048233,638.58184 z"
       style="fill:#acd7e5" />
    <g
       id="bucket"
       inkscape:label="#g3190">
      <rect
         y="749.56421"
         x="663.61584"
         height="103.19936"
         width="70.765289"
         id="rect2406"
         style="fill:none;fill-opacity:0.8745098;stroke:none;stroke-width:3;stroke-miterlimit:4;stroke-dasharray:none;stroke-opacity:1" />
      <path
         inkscape:label="#path3091"
         style="fill:#000000"
         d="M 727.87704,808.58422 C 722.21032,805.9843 713.00897,801.96013 706.26601,799.13268 C 703.77961,798.0901 700.27726,796.56155 698.48302,795.73592 C 696.30513,794.73376 694.3072,794.50443 692.47249,795.04603 C 690.96095,795.49221 689.50001,795.92321 689.22593,796.0038 C 688.95186,796.08438 686.87635,796.513 684.61366,796.95627 C 680.64154,797.73445 680.48019,797.91823 679.9339,802.28625 C 678.91093,810.46576 670.7665,813.82838 666.41526,807.86771 C 664.62578,805.41636 664.38737,804.09506 664.88468,799.38518 C 665.20865,796.31679 665.86174,793.80171 666.33598,793.79611 C 666.81023,793.79053 667.1832,792.51083 667.16481,790.95235 C 667.12935,787.94802 667.59956,787.55354 684.71012,776.2323 C 691.57969,771.68701 692.17339,771.48976 699.23468,771.40646 L 706.5969,771.3196 L 710.0646,776.02901 C 713.00842,780.02698 717.63308,786.8704 721.69958,793.24607 C 724.01176,796.87122 728.93046,803.80137 731.65774,807.27646 C 735.03625,811.58134 734.67895,811.70494 727.87704,808.58422 z"
         id="bucketInner" />
    </g>
    <g
       id="stick"
       inkscape:label="#g3184">
      <rect
         y="748.94025"
         x="536.34021"
         height="103.19936"
         width="136.61632"
         id="rect2405"
         style="fill:none;fill-opacity:0.8745098;stroke:none;stroke-width:3;stroke-miterlimit:4;stroke-dasharray:none;stroke-opacity:1" />
      <path
         inkscape:label="#path3125"
         style="fill:#fda605"
         d="M 541.8566,810.13825 C 540.64808,807.93574 539.66914,805.16666 539.68117,803.98475 C 539.69322,802.80284 539.04907,800.81517 538.24974,799.56772 C 537.45042,798.32026 536.91299,795.85637 537.05546,794.09243 C 537.28439,791.25796 537.66314,790.88309 540.31483,790.86651 C 543.93866,790.84385 552.0267,790.23232 556.82777,789.61802 C 558.75573,789.37133 563.93569,788.94015 568.33878,788.65987 C 572.74185,788.37962 577.57708,787.96151 579.08369,787.7308 C 581.52229,787.35737 582.15336,787.91086 584.83223,792.77257 C 586.48726,795.77623 588.37716,798.67214 589.03197,799.20788 C 589.68679,799.74364 593.36959,800.48804 597.21597,800.86212 C 601.06236,801.23619 606.45717,801.77298 609.20444,802.055 C 611.95171,802.33701 617.34693,802.83397 621.19382,803.15938 C 639.29692,804.69069 643.08571,805.0952 643.8498,805.57824 C 644.30188,805.86406 646.10873,803.83798 647.86502,801.07588 C 650.65014,796.6957 651.39045,796.12548 653.65743,796.61431 C 655.08697,796.9226 658.61623,797.1975 661.50023,797.22526 C 666.30153,797.27148 666.87051,797.52691 668.24541,800.25338 C 669.07125,801.8911 669.45866,803.2281 669.10629,803.2245 C 668.75394,803.22091 669.12296,804.24384 669.92637,805.49766 C 672.11743,808.91713 672.95133,813.8828 671.37742,814.13831 C 670.66513,814.25394 641.72598,814.30229 607.06816,814.2457 L 544.05394,814.14285 L 541.8566,810.13825 z"
         id="stickInner" />
    </g>
    <g
       id="boom"
       inkscape:label="#g3178">
      <rect
         y="749.56421"
         x="361.88052"
         height="103.19936"
         width="177.89606"
         id="rect2404"
         style="fill:none;fill-opacity:0.8745098;stroke:none;stroke-width:3;stroke-miterlimit:4;stroke-dasharray:none;stroke-opacity:1" />
      <path
         inkscape:label="#path3117"
         style="fill:#fdfd02;stroke:none;stroke-opacity:1"
         d="M 530.78794,809.80525 C 527.48918,809.04282 523.27947,808.1911 521.43304,807.91256 C 519.58663,807.63402 517.68541,807.16389 517.20814,806.86786 C 516.73086,806.57181 515.0926,806.16099 513.56754,805.9549 C 512.04251,805.74881 507.42093,804.83538 503.29739,803.92506 C 499.17385,803.01475 494.9003,802.11184 493.80061,801.91861 C 492.70093,801.72538 489.55196,801.07999 486.80291,800.48442 C 465.94419,795.96549 464.6621,795.77359 460.30928,796.51883 C 457.8336,796.94269 451.98197,797.95034 447.30565,798.75805 C 435.72831,800.75776 433.86323,801.06616 425.79989,802.31417 C 421.94893,802.91021 417.22244,803.83333 415.29656,804.36553 C 413.37071,804.89774 408.86933,805.74654 405.29351,806.25174 C 401.7177,806.75697 394.37745,807.84956 388.98188,808.67975 C 379.97784,810.06514 378.90963,810.0531 375.9821,808.53322 C 374.2278,807.62244 372.56736,806.9409 372.29222,807.01865 C 371.61737,807.20938 362.96056,803.99182 362.16558,803.25477 C 361.81812,802.9326 361.32786,800.32699 361.07615,797.46452 C 360.53019,791.25601 360.09936,791.44148 376.65276,790.75876 C 386.93832,790.33455 394.52617,788.58961 398.32653,785.77456 C 399.15251,785.16272 408.40718,780.42954 418.89246,775.25635 C 436.47173,766.58322 438.26194,765.45139 441.87641,760.72532 C 444.44785,757.36309 447.40774,754.86387 450.48097,753.46 C 453.05759,752.28297 455.47156,751.32045 455.84538,751.32105 C 456.21917,751.32166 457.19777,750.65158 458.02001,749.83199 C 459.34558,748.51069 459.84743,748.5144 462.44853,749.86481 C 464.06197,750.70245 465.38246,751.13969 465.38296,750.83644 C 465.38345,750.53318 466.73273,750.98537 468.38134,751.84128 C 470.76651,753.07958 471.38003,754.05614 471.38464,756.62181 C 471.39657,763.2459 472.6002,767.48705 474.74826,768.4739 C 477.64133,769.80304 480.87049,771.71918 482.49048,773.06806 C 483.23565,773.68852 484.29514,774.2985 484.84494,774.42358 C 485.39475,774.54865 486.74368,775.21408 487.84255,775.90232 C 490.0308,777.2728 495.57422,780.44712 504.82689,785.62798 C 508.12394,787.4741 512.62035,789.69993 514.81894,790.57428 C 518.48882,792.03373 521.06618,792.86929 532.94868,796.45179 C 536.60781,797.55499 537.15451,798.11828 537.67981,801.32659 C 538.50552,806.36953 538.43174,811.47974 537.5355,811.3228 C 537.12313,811.25059 534.08672,810.5677 530.78794,809.80525 z"
         id="boomInner" />
    </g>
    <g
       id="g3241"
       transform="translate(-3.4399789,18.182746)">
      <path
         style="fill:#fdfd00"
         d="M 161.06939,820.78929 C 148.1557,816.5545 140.53582,803.52289 143.88366,791.39803 L 144.91465,787.66412 L 139.49525,787.66412 L 134.07585,787.66412 L 134.07585,780.42284 L 134.07585,773.18156 L 112.79834,794.44182 L 91.520818,815.70207 L 68.346866,815.4331 L 45.172914,815.16412 L 56.217092,797.66412 C 62.29139,788.03912 67.61891,779.78726 68.056026,779.32666 C 68.493143,778.86605 73.241832,785.84105 78.608669,794.82666 C 87.799659,810.21498 92.16364,816.79927 88.830284,810.24884 L 87.346768,807.33356 L 110.71131,781.77269 C 130.37095,760.26499 134.07729,755.73232 134.08496,753.18797 L 134.09405,750.16412 L 174.33495,738.16412 C 196.46744,731.56412 213.56336,726.02032 212.32585,725.84457 C 211.08835,725.66882 210.07585,725.28856 210.07585,724.99955 C 210.07585,724.5008 225.85913,673.54735 226.8293,670.91412 C 227.15051,670.04227 226.04738,669.66412 223.18284,669.66412 C 219.5897,669.66412 219.07615,669.38261 219.07823,667.41412 C 219.08266,663.21897 227.39977,660.13203 245.6807,657.54049 L 261.78555,655.25743 L 296.9307,657.65422 L 332.07585,660.05101 L 332.07585,664.85757 L 332.07585,669.66412 L 320.57585,669.66412 L 309.07585,669.66412 L 309.07585,705.50913 C 309.07585,740.08415 309.14671,741.41827 311.07585,743.16412 C 312.17586,744.15961 313.07585,746.13296 313.07585,747.54936 C 313.07585,749.83395 314.14364,749.06128 322.53627,740.70355 C 333.61377,729.67209 330.77303,728.91313 346.07585,746.99261 C 356.18471,758.9357 356.92042,759.57016 365.82585,764.0244 L 375.07585,768.65098 L 375.07585,780.49335 L 375.07585,792.33572 L 360.82585,796.04898 C 352.98836,798.09128 346.42586,800.19017 346.24253,800.71319 C 345.82509,801.90402 332.07585,801.98253 332.07585,800.79408 C 332.07585,799.91359 323.2511,797.05973 322.7437,797.77613 C 322.59254,797.98952 321.64112,800.06774 320.62939,802.39438 C 318.099,808.21351 310.66909,815.47727 304.07585,818.57774 C 296.1737,822.29373 283.9633,822.29027 276.07585,818.56979 C 269.06205,815.26141 262.47857,808.67793 259.17019,801.66412 C 254.27969,791.29622 256.36772,773.2349 263.16832,767.08044 C 265.5471,764.92767 265.60694,763.64903 263.32585,763.71383 C 262.21425,763.7454 257.45081,769.7645 250.26796,780.21383 L 238.96004,796.66412 L 229.01796,796.66412 C 219.07971,796.66412 219.07585,796.66315 219.07585,794.16412 C 219.07585,791.80927 218.76552,791.66412 213.73084,791.66412 C 209.65582,791.66412 207.95577,791.18891 206.57585,789.66412 C 205.0823,788.01377 203.49588,787.66412 197.50147,787.66412 L 190.23707,787.66412 L 191.26806,791.39803 C 194.14995,801.83543 188.41747,813.97966 178.1637,819.15949 C 174.29067,821.116 164.81933,822.01902 161.06939,820.78929 z M 243.09658,761.41412 C 245.4883,755.20191 248.6706,748.82071 250.20305,747.16412 C 252.21239,744.99198 253.60034,741.61156 255.23268,734.91412 L 257.48714,725.66412 L 273.83691,725.66412 L 290.18669,725.66412 L 292.26459,730.66412 C 293.92951,734.67035 294.81289,735.66412 296.70918,735.66412 L 299.07585,735.66412 L 299.07585,702.66412 L 299.07585,669.66412 L 266.31171,669.66412 L 233.54757,669.66412 L 224.66806,696.41412 C 219.78432,711.12662 215.57178,723.74818 215.30683,724.46204 C 214.99731,725.29596 216.4844,724.9538 219.46666,723.50491 L 224.10822,721.24987 L 231.09203,728.18017 C 237.9055,734.94144 238.07585,735.23401 238.07585,740.17489 C 238.07585,744.90718 237.75816,745.55222 233.2315,750.01081 L 228.38716,754.78231 L 230.91318,763.72322 C 233.28184,772.10712 233.6051,772.66412 236.10224,772.66412 C 238.57182,772.66412 239.07994,771.84683 243.09658,761.41412 z M 235.34184,731.00717 C 234.54913,730.68658 235.16766,729.6163 237.07136,728.01445 C 240.80739,724.87078 243.15602,725.88543 239.97674,729.26962 C 237.64777,731.7487 237.40264,731.84059 235.34184,731.00717 z M 242.53161,725.6192 C 239.66118,722.70496 238.27056,720.66412 239.15523,720.66412 C 241.10703,720.66412 249.55159,729.25207 248.33756,730.00237 C 247.82861,730.31693 245.21594,728.3445 242.53161,725.6192 z"
         id="path3232" />
      <path
         style="fill:#fda400"
         d="M 161.06939,820.78929 C 148.1557,816.5545 140.53582,803.52289 143.88366,791.39803 L 144.91465,787.66412 L 139.49525,787.66412 L 134.07585,787.66412 L 134.07585,780.42284 L 134.07585,773.18156 L 112.79834,794.44182 L 91.520818,815.70207 L 68.346866,815.4331 L 45.172914,815.16412 L 56.217092,797.66412 C 62.29139,788.03912 67.61891,779.78726 68.056026,779.32666 C 68.493143,778.86605 73.241832,785.84105 78.608669,794.82666 C 87.801122,810.21743 92.16382,816.79951 88.828683,810.24579 L 87.343567,807.32745 L 113.45971,778.72009 L 139.57585,750.11273 L 170.57585,741.24277 C 187.62586,736.3643 202.36335,732.16088 203.32585,731.90184 C 204.64843,731.54589 205.07585,732.0361 205.07585,733.90887 C 205.07585,736.16378 203.60583,737.00706 188.74764,743.2755 L 172.41942,750.16412 L 167.69105,756.91412 L 162.96266,763.66412 L 153.20636,763.66412 C 143.67137,763.66412 143.38484,763.73218 140.57585,766.66412 L 137.70167,769.66412 L 147.38877,769.66412 L 157.07585,769.66412 L 157.07585,772.27111 C 157.07585,774.34557 157.43332,774.7396 158.82585,774.2001 C 163.18455,772.51141 170.06742,772.47532 175.2767,774.11384 C 179.95179,775.58434 182.00904,775.6699 190.34403,774.74049 C 206.23412,772.96864 205.07585,772.50291 205.07585,780.66412 L 205.07585,787.66412 L 209.57585,787.66412 L 214.07585,787.66412 L 214.07585,782.66412 L 214.07585,777.66412 L 228.92744,777.66412 L 243.77901,777.66412 L 245.59416,770.95846 C 248.16302,761.46827 255.92509,750.62863 262.33681,747.57754 L 267.09776,745.31198 L 290.13513,747.67019 L 313.17248,750.02839 L 322.58457,740.65544 C 333.60643,729.67941 330.77513,728.91562 346.07585,746.99261 C 356.18471,758.9357 356.92042,759.57016 365.82585,764.0244 L 375.07585,768.65098 L 375.07585,780.49335 L 375.07585,792.33572 L 360.82585,796.04898 C 352.98836,798.09128 346.42586,800.19017 346.24253,800.71319 C 345.82509,801.90402 332.07585,801.98253 332.07585,800.79408 C 332.07585,799.91359 323.2511,797.05973 322.7437,797.77613 C 322.59254,797.98952 321.64112,800.06774 320.62939,802.39438 C 318.099,808.21351 310.66909,815.47727 304.07585,818.57774 C 296.1737,822.29373 283.9633,822.29027 276.07585,818.56979 C 269.06205,815.26141 262.47857,808.67793 259.17019,801.66412 C 254.27969,791.29622 256.36772,773.2349 263.16832,767.08044 C 265.5471,764.92767 265.60694,763.64903 263.32585,763.71383 C 262.21425,763.7454 257.45081,769.7645 250.26796,780.21383 L 238.96004,796.66412 L 229.01796,796.66412 C 219.07971,796.66412 219.07585,796.66315 219.07585,794.16412 C 219.07585,791.80927 218.76552,791.66412 213.73084,791.66412 C 209.65582,791.66412 207.95577,791.18891 206.57585,789.66412 C 205.0823,788.01377 203.49588,787.66412 197.50147,787.66412 L 190.23707,787.66412 L 191.26806,791.39803 C 194.14995,801.83543 188.41747,813.97966 178.1637,819.15949 C 174.29067,821.116 164.81933,822.01902 161.06939,820.78929 z M 173.10858,807.14719 C 176.43663,805.4262 179.07585,801.01085 179.07585,797.16412 C 179.07585,785.62418 162.85897,781.4477 157.59278,791.63139 C 152.2726,801.91947 162.8205,812.46737 173.10858,807.14719 z M 296.82137,803.12598 C 301.57167,801.14118 303.84333,799.03669 306.18226,794.45396 C 312.48819,782.09859 300.76272,767.43667 286.68761,770.07718 C 281.84458,770.98574 276.9615,774.59614 274.35753,779.19369 C 266.40888,793.22779 281.64985,809.46505 296.82137,803.12598 z M 214.07585,770.83843 C 214.07585,769.83431 212.95085,767.95587 211.57585,766.66412 C 209.8893,765.07968 209.07585,763.24239 209.07585,761.01745 C 209.07585,759.20353 210.20085,751.30584 211.57585,743.46703 C 214.61517,726.14002 214.62853,725.66412 212.07585,725.66412 C 210.97585,725.66412 210.07585,725.37479 210.07585,725.02116 C 210.07585,724.46339 221.37183,687.89549 225.70858,674.41412 C 227.07032,670.18097 227.55427,669.66412 230.15622,669.66412 C 231.76202,669.66412 233.07585,670.01099 233.07585,670.43495 C 233.07585,670.85891 229.02585,683.33703 224.07585,698.16412 C 219.12586,712.99121 215.07585,725.23849 215.07585,725.38029 C 215.07585,725.5221 217.10813,724.65077 219.59203,723.444 L 224.10822,721.24987 L 231.09203,728.18017 C 237.9055,734.94144 238.07585,735.23401 238.07585,740.17489 C 238.07585,744.90964 237.75939,745.551 233.21436,750.02769 L 228.35287,754.81608 L 230.71436,762.93874 C 232.01318,767.4062 233.07585,771.42201 233.07585,771.86276 C 233.07585,772.30351 228.80085,772.66412 223.57585,772.66412 C 215.04487,772.66412 214.07585,772.4779 214.07585,770.83843 z M 303.78826,740.87977 L 299.07585,736.09542 L 299.07585,702.87977 L 299.07585,669.66412 L 304.07585,669.66412 L 309.07585,669.66412 L 309.07585,707.66412 C 309.07585,728.56412 308.94644,745.66412 308.78826,745.66412 C 308.63009,745.66412 306.38009,743.51116 303.78826,740.87977 z M 253.43193,742.41412 C 253.75607,741.17662 254.79083,736.90162 255.7314,732.91412 L 257.44155,725.66412 L 273.79424,725.66412 L 290.14693,725.66412 L 292.1114,730.24703 C 293.19185,732.76762 294.07585,735.15792 294.07585,735.5588 C 294.07585,736.16942 256.34015,744.68647 253.70923,744.66966 C 253.23257,744.66661 253.10779,743.65162 253.43193,742.41412 z M 235.34184,731.00717 C 234.54913,730.68658 235.16766,729.6163 237.07136,728.01445 C 240.80739,724.87078 243.15602,725.88543 239.97674,729.26962 C 237.64777,731.7487 237.40264,731.84059 235.34184,731.00717 z M 242.53161,725.6192 C 239.66118,722.70496 238.27056,720.66412 239.15523,720.66412 C 241.10703,720.66412 249.55159,729.25207 248.33756,730.00237 C 247.82861,730.31693 245.21594,728.3445 242.53161,725.6192 z"
         id="path3230" />
      <path
         style="fill:#686767"
         d="M 161.06939,820.78929 C 148.1557,816.5545 140.53582,803.52289 143.88366,791.39803 L 144.91465,787.66412 L 139.49525,787.66412 L 134.07585,787.66412 L 134.07585,780.31911 C 134.07585,770.26527 134.82785,769.66412 147.4046,769.66412 L 157.07585,769.66412 L 157.07585,772.27111 C 157.07585,774.34557 157.43332,774.7396 158.82585,774.2001 C 163.18455,772.51141 170.06742,772.47532 175.2767,774.11384 C 179.95179,775.58434 182.00904,775.6699 190.34403,774.74049 C 206.23412,772.96864 205.07585,772.50291 205.07585,780.66412 L 205.07585,787.66412 L 209.57585,787.66412 L 214.07585,787.66412 L 214.07585,782.66412 L 214.07585,777.66412 L 228.92744,777.66412 L 243.77901,777.66412 L 245.59416,770.95846 C 248.16302,761.46827 255.92509,750.62863 262.33681,747.57754 L 267.09776,745.31198 L 290.13513,747.67019 L 313.17248,750.02839 L 322.58457,740.65544 C 333.60643,729.67941 330.77513,728.91562 346.07585,746.99261 C 356.18471,758.9357 356.92042,759.57016 365.82585,764.0244 L 375.07585,768.65098 L 375.07585,780.49335 L 375.07585,792.33572 L 360.82585,796.04898 C 352.98836,798.09128 346.42586,800.19017 346.24253,800.71319 C 345.82509,801.90402 332.07585,801.98253 332.07585,800.79408 C 332.07585,799.91359 323.2511,797.05973 322.7437,797.77613 C 322.59254,797.98952 321.64112,800.06774 320.62939,802.39438 C 318.099,808.21351 310.66909,815.47727 304.07585,818.57774 C 296.1737,822.29373 283.9633,822.29027 276.07585,818.56979 C 269.06205,815.26141 262.47857,808.67793 259.17019,801.66412 C 254.27969,791.29622 256.36772,773.2349 263.16832,767.08044 C 265.5471,764.92767 265.60694,763.64903 263.32585,763.71383 C 262.21425,763.7454 257.45081,769.7645 250.26796,780.21383 L 238.96004,796.66412 L 229.01796,796.66412 C 219.07971,796.66412 219.07585,796.66315 219.07585,794.16412 C 219.07585,791.80927 218.76552,791.66412 213.73084,791.66412 C 209.65582,791.66412 207.95577,791.18891 206.57585,789.66412 C 205.0823,788.01377 203.49588,787.66412 197.50147,787.66412 L 190.23707,787.66412 L 191.26806,791.39803 C 194.14995,801.83543 188.41747,813.97966 178.1637,819.15949 C 174.29067,821.116 164.81933,822.01902 161.06939,820.78929 z M 173.10858,807.14719 C 176.43663,805.4262 179.07585,801.01085 179.07585,797.16412 C 179.07585,785.62418 162.85897,781.4477 157.59278,791.63139 C 152.2726,801.91947 162.8205,812.46737 173.10858,807.14719 z M 296.82137,803.12598 C 301.57167,801.14118 303.84333,799.03669 306.18226,794.45396 C 312.48819,782.09859 300.76272,767.43667 286.68761,770.07718 C 281.84458,770.98574 276.9615,774.59614 274.35753,779.19369 C 266.40888,793.22779 281.64985,809.46505 296.82137,803.12598 z M 46.298261,813.41412 C 47.097096,812.17662 52.363236,803.85162 58.000796,794.91412 C 63.638356,785.97662 68.409541,778.66412 68.603431,778.66412 C 68.797321,778.66412 73.337293,785.97662 78.692257,794.91412 C 84.047222,803.85162 89.075953,812.17662 89.867216,813.41412 L 91.305875,815.66412 L 68.075855,815.66412 L 44.845835,815.66412 L 46.298261,813.41412 z M 214.07585,770.83843 C 214.07585,769.83431 212.95085,767.95587 211.57585,766.66412 C 209.8893,765.07968 209.07585,763.24239 209.07585,761.01745 C 209.07585,759.20353 210.20085,751.30584 211.57585,743.46703 C 214.61517,726.14002 214.62853,725.66412 212.07585,725.66412 C 210.97585,725.66412 210.07585,725.37479 210.07585,725.02116 C 210.07585,724.46339 221.37183,687.89549 225.70858,674.41412 C 227.07032,670.18097 227.55427,669.66412 230.15622,669.66412 C 231.76202,669.66412 233.07585,670.01099 233.07585,670.43495 C 233.07585,670.85891 229.02585,683.33703 224.07585,698.16412 C 219.12586,712.99121 215.07585,725.23849 215.07585,725.38029 C 215.07585,725.5221 217.10813,724.65077 219.59203,723.444 L 224.10822,721.24987 L 231.09203,728.18017 C 237.9055,734.94144 238.07585,735.23401 238.07585,740.17489 C 238.07585,744.90964 237.75939,745.551 233.21436,750.02769 L 228.35287,754.81608 L 230.71436,762.93874 C 232.01318,767.4062 233.07585,771.42201 233.07585,771.86276 C 233.07585,772.30351 228.80085,772.66412 223.57585,772.66412 C 215.04487,772.66412 214.07585,772.4779 214.07585,770.83843 z M 303.78826,740.87977 L 299.07585,736.09542 L 299.07585,702.87977 L 299.07585,669.66412 L 304.07585,669.66412 L 309.07585,669.66412 L 309.07585,707.66412 C 309.07585,728.56412 308.94644,745.66412 308.78826,745.66412 C 308.63009,745.66412 306.38009,743.51116 303.78826,740.87977 z M 253.43193,742.41412 C 253.75607,741.17662 254.79083,736.90162 255.7314,732.91412 L 257.44155,725.66412 L 273.79424,725.66412 L 290.14693,725.66412 L 292.1114,730.24703 C 293.19185,732.76762 294.07585,735.15792 294.07585,735.5588 C 294.07585,736.16942 256.34015,744.68647 253.70923,744.66966 C 253.23257,744.66661 253.10779,743.65162 253.43193,742.41412 z M 235.34184,731.00717 C 234.54913,730.68658 235.16766,729.6163 237.07136,728.01445 C 240.80739,724.87078 243.15602,725.88543 239.97674,729.26962 C 237.64777,731.7487 237.40264,731.84059 235.34184,731.00717 z M 242.53161,725.6192 C 239.66118,722.70496 238.27056,720.66412 239.15523,720.66412 C 241.10703,720.66412 249.55159,729.25207 248.33756,730.00237 C 247.82861,730.31693 245.21594,728.3445 242.53161,725.6192 z"
         id="path3228" />
      <path
         style="fill:#000000"
         d="M 161.06939,820.78929 C 153.99101,818.46808 148.88326,814.17146 145.46641,807.66412 C 142.79172,802.57023 142.94548,791.46025 145.76397,786.16412 C 150.41654,777.42165 157.50018,773.2169 167.57585,773.2169 C 177.65152,773.2169 184.73517,777.42165 189.38773,786.16412 C 192.20622,791.46025 192.35999,802.57023 189.6853,807.66412 C 187.1034,812.5813 183.2336,816.50911 178.64825,818.86664 C 174.35823,821.07231 165.04022,822.09146 161.06939,820.78929 z M 173.10858,807.14719 C 176.43663,805.4262 179.07585,801.01085 179.07585,797.16412 C 179.07585,785.62418 162.85897,781.4477 157.59278,791.63139 C 152.2726,801.91947 162.8205,812.46737 173.10858,807.14719 z M 280.57585,820.32518 C 270.8533,817.10479 263.38058,810.59022 259.17019,801.66412 C 257.01259,797.09001 256.57585,794.73319 256.57585,787.66412 C 256.57585,777.39512 259.28584,770.64279 266.17019,763.75845 C 273.05453,756.87411 279.80685,754.16412 290.07585,754.16412 C 300.34485,754.16412 307.09718,756.87411 313.98152,763.75845 C 320.86586,770.64279 323.57585,777.39512 323.57585,787.66412 C 323.57585,794.73319 323.13912,797.09001 320.98152,801.66412 C 317.6629,808.69964 311.05557,815.2942 304.13056,818.48251 C 297.60746,821.48578 286.66433,822.34185 280.57585,820.32518 z M 296.82137,803.12598 C 301.57167,801.14118 303.84333,799.03669 306.18226,794.45396 C 312.48819,782.09859 300.76272,767.43667 286.68761,770.07718 C 281.84458,770.98574 276.9615,774.59614 274.35753,779.19369 C 266.40888,793.22779 281.64985,809.46505 296.82137,803.12598 z M 46.298261,813.41412 C 47.097096,812.17662 52.363236,803.85162 58.000796,794.91412 C 63.638356,785.97662 68.409541,778.66412 68.603431,778.66412 C 68.797321,778.66412 73.337293,785.97662 78.692257,794.91412 C 84.047222,803.85162 89.075953,812.17662 89.867216,813.41412 L 91.305875,815.66412 L 68.075855,815.66412 L 44.845835,815.66412 L 46.298261,813.41412 z M 214.07585,770.83843 C 214.07585,769.83431 212.95085,767.95587 211.57585,766.66412 C 209.8893,765.07968 209.07585,763.24239 209.07585,761.01745 C 209.07585,759.20353 210.20085,751.30584 211.57585,743.46703 C 214.61517,726.14002 214.62853,725.66412 212.07585,725.66412 C 210.97585,725.66412 210.07585,725.37479 210.07585,725.02116 C 210.07585,724.46339 221.37183,687.89549 225.70858,674.41412 C 227.07032,670.18097 227.55427,669.66412 230.15622,669.66412 C 231.76202,669.66412 233.07585,670.01099 233.07585,670.43495 C 233.07585,670.85891 229.02585,683.33703 224.07585,698.16412 C 219.12586,712.99121 215.07585,725.23849 215.07585,725.38029 C 215.07585,725.5221 217.10813,724.65077 219.59203,723.444 L 224.10822,721.24987 L 231.09203,728.18017 C 237.9055,734.94144 238.07585,735.23401 238.07585,740.17489 C 238.07585,744.90964 237.75939,745.551 233.21436,750.02769 L 228.35287,754.81608 L 230.71436,762.93874 C 232.01318,767.4062 233.07585,771.42201 233.07585,771.86276 C 233.07585,772.30351 228.80085,772.66412 223.57585,772.66412 C 215.04487,772.66412 214.07585,772.4779 214.07585,770.83843 z M 303.78826,740.87977 L 299.07585,736.09542 L 299.07585,702.87977 L 299.07585,669.66412 L 304.07585,669.66412 L 309.07585,669.66412 L 309.07585,707.66412 C 309.07585,728.56412 308.94644,745.66412 308.78826,745.66412 C 308.63009,745.66412 306.38009,743.51116 303.78826,740.87977 z M 253.43193,742.41412 C 253.75607,741.17662 254.79083,736.90162 255.7314,732.91412 L 257.44155,725.66412 L 273.79424,725.66412 L 290.14693,725.66412 L 292.1114,730.24703 C 293.19185,732.76762 294.07585,735.15792 294.07585,735.5588 C 294.07585,736.16942 256.34015,744.68647 253.70923,744.66966 C 253.23257,744.66661 253.10779,743.65162 253.43193,742.41412 z M 235.34184,731.00717 C 234.54913,730.68658 235.16766,729.6163 237.07136,728.01445 C 240.80739,724.87078 243.15602,725.88543 239.97674,729.26962 C 237.64777,731.7487 237.40264,731.84059 235.34184,731.00717 z M 242.53161,725.6192 C 239.66118,722.70496 238.27056,720.66412 239.15523,720.66412 C 241.10703,720.66412 249.55159,729.25207 248.33756,730.00237 C 247.82861,730.31693 245.21594,728.3445 242.53161,725.6192 z"
         id="path3226" />
    </g>
    <path
       id="legs"
       d="M 329.39813,796.4963 C 329.39813,782.4713 329.73563,770.99621 330.14813,770.99609 C 330.56063,770.99598 333.71063,772.00446 337.14813,773.23715 L 343.39814,775.4784 L 343.39814,798.73735 L 343.39814,821.9963 L 336.39813,821.9963 L 329.39813,821.9963 L 329.39813,796.4963 z"
       style="fill:#ff0000"
       inkscape:label="#path2991" />
    <circle
       sodipodi:ry="40"
       sodipodi:rx="40"
       sodipodi:cy="165"
       sodipodi:cx="65"
       style="fill:none;fill-opacity:1;stroke:#000000;stroke-width:4.9012928;stroke-miterlimit:4;stroke-dasharray:none"
       cx="65"
       cy="165"
       r="40"
       id="alarm"
       transform="matrix(0.3733264,0,0,0.3733264,66.7228,433.71175)"
       inkscape:label="#yellight" />
    <circle
       sodipodi:ry="40"
       sodipodi:rx="40"
       sodipodi:cy="165"
       sodipodi:cx="65"
       style="fill:none;fill-opacity:1;stroke:#000000;stroke-width:4.9012928;stroke-miterlimit:4;stroke-dasharray:none"
       cx="65"
       cy="165"
       r="40"
       id="cancelled"
       transform="matrix(0.3733264,0,0,0.3733264,65.855977,576.91541)"
       inkscape:label="#yellight" />
    <circle
       sodipodi:ry="40"
       sodipodi:rx="40"
       sodipodi:cy="165"
       sodipodi:cx="65"
       style="fill:none;fill-opacity:1;stroke:#000000;stroke-width:4.9012928;stroke-miterlimit:4;stroke-dasharray:none"
       cx="65"
       cy="165"
       r="40"
       id="done"
       transform="matrix(0.3733264,0,0,0.3733264,65.855977,505.89826)"
       inkscape:label="#yellight" />
    <text
       xml:space="preserve"
       style="font-size:16px;font-style:normal;font-variant:normal;font-weight:normal;font-stretch:normal;text-align:center;line-height:125%;writing-mode:lr-tb;text-anchor:middle;fill:#000000;fill-opacity:1;stroke:none;stroke-width:1px;stroke-linecap:butt;stroke-linejoin:miter;stroke-opacity:1;font-family:Verdana;-inkscape-font-specification:Verdana"
       x="91.516617"
       y="528.91406"
       id="text3461"
       sodipodi:linespacing="125%"><tspan
         sodipodi:role="line"
         id="tspan3463"
         x="91.516617"
         y="528.91406">Alarm</tspan></text>
    <text
       xml:space="preserve"
       style="font-size:16px;font-style:normal;font-variant:normal;font-weight:normal;font-stretch:normal;text-align:center;line-height:125%;writing-mode:lr-tb;text-anchor:middle;fill:#000000;fill-opacity:1;stroke:none;stroke-width:1px;stroke-linecap:butt;stroke-linejoin:miter;stroke-opacity:1;font-family:Verdana;-inkscape-font-specification:Verdana"
       x="88.075981"
       y="600.974"
       id="text3465"
       sodipodi:linespacing="125%"><tspan
         sodipodi:role="line"
         id="tspan3473"
         x="88.075981"
         y="600.974">Done</tspan></text>
    <text
       xml:space="preserve"
       style="font-size:16px;font-style:normal;font-variant:normal;font-weight:normal;font-stretch:normal;text-align:center;line-height:125%;writing-mode:lr-tb;text-anchor:middle;fill:#000000;fill-opacity:1;stroke:none;stroke-width:1px;stroke-linecap:butt;stroke-linejoin:miter;stroke-opacity:1;font-family:Verdana;-inkscape-font-specification:Verdana"
       x="91.058838"
       y="672.72211"
       id="text3469"
       sodipodi:linespacing="125%"><tspan
         sodipodi:role="line"
         id="tspan3475"
         x="91.058838"
         y="672.72211">Cancelled</tspan></text>
    <path
       sodipodi:type="arc"
       style="fill:url(#radialGradient2685);fill-opacity:1;stroke:none;stroke-width:1;stroke-linecap:butt;stroke-linejoin:miter;stroke-miterlimit:4;stroke-dasharray:none;stroke-opacity:1"
       id="path17968"
       sodipodi:cx="124.75272"
       sodipodi:cy="122.93433"
       sodipodi:rx="36.904343"
       sodipodi:ry="36.503208"
       d="M 161.65707,122.93433 A 36.904343,36.503208 0 1 1 87.848381,122.93433 A 36.904343,36.503208 0 1 1 161.65707,122.93433 z"
       transform="matrix(0.4080556,0,0,0.4080556,38.689346,589.07158)" />
    <path
       sodipodi:type="arc"
       style="fill:url(#radialGradient3483);fill-opacity:1;stroke:none;stroke-width:1;stroke-linecap:butt;stroke-linejoin:miter;stroke-miterlimit:4;stroke-dasharray:none;stroke-opacity:1"
       id="path3481"
       sodipodi:cx="124.75272"
       sodipodi:cy="122.93433"
       sodipodi:rx="36.904343"
       sodipodi:ry="36.503208"
       d="M 161.65707,122.93433 A 36.904343,36.503208 0 1 1 87.848381,122.93433 A 36.904343,36.503208 0 1 1 161.65707,122.93433 z"
       transform="matrix(0.4080556,0,0,0.4080556,39.216146,518.06405)" />
    <path
       sodipodi:type="arc"
       style="fill:url(#radialGradient3479);fill-opacity:1;stroke:none;stroke-width:1;stroke-linecap:butt;stroke-linejoin:miter;stroke-miterlimit:4;stroke-dasharray:none;stroke-opacity:1"
       id="path3477"
       sodipodi:cx="124.75272"
       sodipodi:cy="122.93433"
       sodipodi:rx="36.904343"
       sodipodi:ry="36.503208"
       d="M 161.65707,122.93433 A 36.904343,36.503208 0 1 1 87.848381,122.93433 A 36.904343,36.503208 0 1 1 161.65707,122.93433 z"
       transform="matrix(0.4080556,0,0,0.4080556,39.216146,444.35022)" />
  </g>
</svg>
