<?xml version="1.0" encoding="UTF-8" standalone="no"?>
<!DOCTYPE svg PUBLIC "-//W3C//DTD SVG 1.0//EN"
"http://www.w3.org/TR/2001/REC-SVG-20010904/DTD/svg10.dtd">
<!-- Created with Inkscape (http://www.inkscape.org/) -->
<svg
   id="svg1"
   sodipodi:version="0.32"
   inkscape:version="0.39"
   xmlns="http://www.w3.org/2000/svg"
   xmlns:sodipodi="http://sodipodi.sourceforge.net/DTD/sodipodi-0.dtd"
   xmlns:inkscape="http://www.inkscape.org/namespaces/inkscape"
   xmlns:xlink="http://www.w3.org/1999/xlink"
   xmlns:rdf="http://www.w3.org/1999/02/22-rdf-syntax-ns#"
   xmlns:cc="http://web.resource.org/cc/"
   xmlns:dc="http://purl.org/dc/elements/1.1/"
   width="300.00000pt"
   height="450.00000pt"
   sodipodi:docbase="/home/haf/shared/modelgui/trunk/examples"
   sodipodi:docname="elevator.svg">
  <defs
     id="defs3">
    <linearGradient
       id="linearGradient6676">
      <stop
         style="stop-color:#000;stop-opacity:1;"
         offset="0"
         id="stop6677" />
      <stop
         style="stop-color:#fff;stop-opacity:1;"
         offset="1"
         id="stop6678" />
    </linearGradient>
  </defs>
  <sodipodi:namedview
     id="base"
     pagecolor="#ffffff"
     bordercolor="#666666"
     borderopacity="1.0"
     inkscape:pageopacity="0.0"
     inkscape:pageshadow="2"
     inkscape:zoom="0.94549198"
     inkscape:cx="297.63780"
     inkscape:cy="124.80275"
     inkscape:window-width="1276"
     inkscape:window-height="964"
     inkscape:window-x="0"
     inkscape:window-y="0" />
  <metadata
     id="metadata4">
    <rdf:RDF
       id="RDF5">
      <cc:Work
         rdf:about=""
         id="Work6">
        <dc:format
           id="format7">image/svg+xml</dc:format>
        <dc:type
           id="type9"
           rdf:resource="http://purl.org/dc/dcmitype/StillImage" />
      </cc:Work>
    </rdf:RDF>
  </metadata>
  <rect
     style="fill:#0000ff;fill-opacity:1.0000000;fill-rule:evenodd;stroke:#000000;stroke-width:0.74034133pt;stroke-linecap:butt;stroke-linejoin:miter;stroke-opacity:1.0000000;"
     id="rect2859"
     width="186.04034"
     height="5.6159782"
     x="23.095669"
     y="540.51337" />
  <rect
     style="fill:#0000ff;fill-opacity:1.0000000;fill-rule:evenodd;stroke:#000000;stroke-width:0.74034133pt;stroke-linecap:butt;stroke-linejoin:miter;stroke-opacity:1.0000000;"
     id="rect2860"
     width="186.04034"
     height="5.6159782"
     x="23.112530"
     y="298.30411" />
  <g
     id="elevator"
     transform="matrix(0.999958,0.000000,0.000000,1.000000,2.281483e-3,0.000000)">
    <rect
       style="fill:#646464;fill-opacity:1.0000000;fill-rule:evenodd;stroke:#000000;stroke-width:0.95271883pt;stroke-linecap:butt;stroke-linejoin:miter;stroke-opacity:1.0000000;"
       id="rect2862"
       width="2.6843195"
       height="258.78976"
       x="115.35419"
       y="92.870758" />
    <rect
       style="fill:none;fill-opacity:0.75000000;fill-rule:evenodd;stroke:#000000;stroke-width:3.7500788;stroke-linecap:butt;stroke-linejoin:miter;stroke-opacity:1.0000000;stroke-miterlimit:4.0000000;stroke-dasharray:none;"
       id="rect908"
       width="123.79700"
       height="186.29625"
       x="54.374405"
       y="352.83032" />
    <rect
       style="fill:#353535;fill-opacity:1.0000000;fill-rule:evenodd;stroke:none;stroke-width:0.97568541pt;stroke-linecap:butt;stroke-linejoin:miter;stroke-opacity:1.0000000;"
       id="door_left"
       width="61.347897"
       height="186.16652"
       x="54.382706"
       y="352.95239" />
    <rect
       style="fill:#353535;fill-opacity:1.0000000;fill-rule:evenodd;stroke:none;stroke-width:0.97568541pt;stroke-linecap:butt;stroke-linejoin:miter;stroke-opacity:1.0000000;"
       id="door_right"
       width="61.347897"
       height="186.16652"
       x="116.88269"
       y="352.95239" />
  </g>
  <g
     id="button_up">
    <rect
       style="fill:#7c86ff;fill-opacity:0.76878613;fill-rule:evenodd;stroke:#000000;stroke-width:0.97480001pt;stroke-linecap:butt;stroke-linejoin:miter;stroke-opacity:1.0000000;"
       id="rect1559"
       width="48.756096"
       height="48.809299"
       x="235.60925"
       y="470.44360" />
    <path
       style="fill:#000000;fill-opacity:1.0000000;fill-rule:nonzero;stroke:none;stroke-width:1.0000000pt;stroke-linecap:butt;stroke-linejoin:miter;stroke-opacity:1.0000000;"
       id="path1552"
       d="M 258.68834,512.86063 C 258.72358,512.67689 258.51479,509.61883 258.43435,508.70504 C 257.83351,501.89199 257.29883,495.07934 257.18910,488.23815 C 257.17475,485.67291 256.60333,481.73764 258.07770,479.41563 C 259.05838,478.32856 260.43458,478.09258 261.83552,478.35882 L 259.97220,481.97809 C 261.06026,482.17293 262.35021,482.05278 263.08169,481.12894 C 263.18355,480.87815 262.79920,481.77307 262.77153,481.88190 C 262.24805,483.94063 262.19838,486.14005 262.10581,488.24914 C 261.92863,494.99111 262.41247,501.74197 263.51576,508.39452 C 263.78201,509.88447 264.07348,511.37752 264.35795,512.86063 L 258.68834,512.86063 z " />
    <path
       style="fill:#000000;fill-opacity:1.0000000;fill-rule:nonzero;stroke:none;stroke-width:1.0000000pt;stroke-linecap:butt;stroke-linejoin:miter;stroke-opacity:1.0000000;"
       id="path1553"
       d="M 263.65129,477.77169 C 263.22138,480.12558 260.42967,482.67134 259.07124,484.52277 C 256.51899,487.98497 253.88111,491.39269 251.05011,494.63278 C 250.45382,495.31248 249.83861,495.97324 249.22853,496.64028 L 244.58773,494.54762 C 245.22547,493.93644 245.86911,493.33475 246.48688,492.70279 C 249.41395,489.69614 252.01661,486.38945 254.48143,482.99920 C 255.21230,481.97193 258.08956,477.14893 257.98167,477.77169 L 263.65129,477.77169 z " />
    <path
       style="fill:#000000;fill-opacity:1.0000000;fill-rule:nonzero;stroke:none;stroke-width:1.0000000pt;stroke-linecap:butt;stroke-linejoin:miter;stroke-opacity:1.0000000;"
       id="path1554"
       d="M 261.52737,477.02369 C 264.16744,477.46551 264.94825,479.15745 266.57552,481.14201 C 268.54112,483.51741 270.54356,485.90908 272.70656,488.10911 C 273.51008,488.89702 274.35760,489.53006 275.30176,490.13192 C 275.66363,490.37302 276.02148,490.61945 276.37070,490.87861 L 272.23160,493.43083 C 271.97415,493.23761 271.70705,493.05748 271.44247,492.87424 C 270.21463,492.06982 269.13774,491.16310 268.12859,490.09310 C 266.01254,487.76732 264.03895,485.30640 261.98237,482.92779 C 260.11905,480.79457 258.25933,480.33107 261.52737,480.86677 L 261.52737,477.02369 z " />
  </g>
  <g
     id="button_down">
    <rect
       style="fill:#7c86ff;fill-opacity:0.76878613;fill-rule:evenodd;stroke:#000000;stroke-width:0.97480001pt;stroke-linecap:butt;stroke-linejoin:miter;stroke-opacity:1.0000000;"
       id="rect1560"
       width="48.756096"
       height="48.809299"
       x="296.86713"
       y="470.44360" />
    <path
       style="fill:#000000;fill-opacity:1.0000000;fill-rule:nonzero;stroke:none;stroke-width:1.0000000pt;stroke-linecap:butt;stroke-linejoin:miter;stroke-opacity:1.0000000;"
       id="path1556"
       d="M 324.78665,473.88830 C 324.53666,475.70619 324.62251,477.69930 324.58369,479.53660 C 324.47708,485.78137 324.64646,491.95703 325.03080,498.18035 C 325.30557,502.23700 325.73064,506.27254 325.97567,510.33240 C 326.02360,511.22238 326.06116,512.10529 326.04078,512.99795 L 320.51446,512.80877 C 320.55906,512.05505 320.54932,511.30539 320.53399,510.54994 C 320.41992,506.50372 320.11984,502.46618 319.91853,498.42739 C 319.62614,492.13163 319.42766,485.84338 319.31999,479.53660 C 319.28116,477.69930 319.36701,475.70619 319.11703,473.88830 L 324.78665,473.88830 z " />
    <path
       style="fill:#000000;fill-opacity:1.0000000;fill-rule:nonzero;stroke:none;stroke-width:1.0000000pt;stroke-linecap:butt;stroke-linejoin:miter;stroke-opacity:1.0000000;"
       id="path1557"
       d="M 310.17841,493.39785 C 313.81213,494.26360 314.15625,497.51506 315.58114,500.71453 C 317.63626,505.03383 320.23885,511.19228 324.28176,514.06673 C 324.46550,514.03261 322.97129,513.75496 322.60882,513.75580 C 321.80107,513.75770 323.69273,512.55311 324.16124,511.89510 C 325.91165,509.43667 327.28053,506.70845 328.65337,504.02973 C 329.99745,501.33495 331.27899,498.61853 332.45207,495.84473 L 337.17121,496.81194 C 335.86859,499.58823 334.50872,502.33541 333.13348,505.07633 C 330.86382,509.57305 326.98236,520.87786 320.07018,516.30863 C 316.00111,512.43477 313.40296,506.66111 310.83115,501.75663 C 308.76517,497.70516 305.74348,496.19621 310.17841,497.24093 L 310.17841,493.39785 z " />
  </g>
  <path
     sodipodi:type="arc"
     style="fill:#510000;fill-opacity:1.0000000;fill-rule:evenodd;stroke:#000000;stroke-width:1.0000000pt;stroke-linecap:butt;stroke-linejoin:miter;stroke-opacity:1.0000000;"
     id="signal_alarm"
     sodipodi:cx="512.68115"
     sodipodi:cy="323.32559"
     sodipodi:rx="23.908630"
     sodipodi:ry="23.084196"
     d="M 536.58978 323.32559 A 23.908630 23.084196 0 1 0 488.77252,323.32559 A 23.908630 23.084196 0 1 0 536.58978 323.32559 z"
     transform="matrix(0.763955,0.000000,0.000000,0.795812,-130.4129,118.6978)" />
  <g
     id="button_alarm">
    <rect
       style="fill:#ffff00;fill-opacity:1.0000000;fill-rule:evenodd;stroke:#000000;stroke-width:0.97480001pt;stroke-linecap:butt;stroke-linejoin:miter;stroke-opacity:1.0000000;"
       id="rect1561"
       width="48.756096"
       height="48.809299"
       x="235.60925"
       y="408.69641" />
    <path
       style="fill:#000000;fill-opacity:1.0000000;fill-rule:nonzero;stroke:none;stroke-width:1.0000000pt;stroke-linecap:butt;stroke-linejoin:miter;stroke-opacity:1.0000000;"
       id="path2847"
       d="M 251.66644,437.85005 C 252.58308,437.93081 253.50408,437.96887 254.42145,438.05463 C 256.72091,438.27324 259.01276,438.51388 261.32523,438.50026 C 262.60870,438.47764 263.93814,438.46921 265.20455,438.23092 C 265.68643,438.13222 266.16338,438.03677 266.65097,437.96870 C 267.46730,437.86107 268.28744,437.90085 269.10397,437.98868 C 269.52015,438.03723 269.93571,438.10160 270.35383,438.13055 L 269.93261,440.63851 C 269.46318,440.60038 268.99684,440.53687 268.52890,440.48450 C 268.16610,440.44707 267.78803,440.40662 267.42502,440.45752 C 266.96979,440.52444 266.52062,440.61293 266.06661,440.68760 C 264.50581,440.91687 262.90476,440.92938 261.33063,440.93863 C 258.86811,440.93052 256.43408,440.67571 253.98208,440.48279 C 253.21676,440.42771 252.43439,440.35088 251.66644,440.41854 L 251.66644,437.85005 z " />
    <path
       style="fill:#000000;fill-opacity:1.0000000;fill-rule:nonzero;stroke:none;stroke-width:1.0000000pt;stroke-linecap:butt;stroke-linejoin:miter;stroke-opacity:1.0000000;"
       id="path2848"
       d="M 250.39871,438.50175 C 250.49065,438.02240 250.60900,437.59783 250.81434,437.14839 C 251.13279,436.49017 251.48508,435.85074 251.79453,435.18766 C 252.14577,434.45166 252.51176,433.72507 252.83999,432.97806 C 253.19964,432.16526 253.51976,431.34119 253.81281,430.50205 C 254.10300,429.67726 254.37841,428.84971 254.70909,428.03977 C 255.03446,427.27952 255.34334,426.52203 255.81077,425.83519 C 256.48441,424.91648 257.31503,424.21585 258.26510,423.59503 C 259.34126,422.90540 260.44882,422.34193 261.71929,422.12445 C 263.53797,421.92408 265.24026,422.53898 266.81401,423.40856 C 268.07403,424.16861 269.20414,425.13513 269.87797,426.46469 C 270.24942,427.30872 270.36464,428.16114 270.39316,429.07474 C 270.40608,429.63001 270.42552,430.15765 270.59498,430.69007 C 270.82734,431.37769 271.12560,432.03888 271.35618,432.72705 C 271.58470,433.44644 271.72686,434.19273 271.90408,434.92609 C 272.06524,435.62194 272.20166,436.31969 272.28059,437.02980 C 272.33702,437.53738 272.41284,438.04363 272.50375,438.54622 L 268.82205,438.84585 C 268.72832,438.30693 268.64849,437.76568 268.58540,437.22236 C 268.51163,436.58461 268.39318,435.95574 268.24938,435.33003 C 268.08608,434.64827 267.96087,433.95154 267.74853,433.28301 C 267.51526,432.58873 267.21347,431.92085 266.97096,431.22960 C 266.74213,430.53198 266.69998,429.84748 266.68933,429.11917 C 266.67607,428.47457 266.62794,427.86046 266.38487,427.25634 C 265.98887,426.41427 265.28128,425.80060 264.49951,425.32197 C 263.95729,425.01799 263.20304,424.57210 262.55614,424.57755 C 261.97941,424.56369 261.27778,425.10304 260.82267,425.39438 C 260.18440,425.81059 259.62585,426.26964 259.16864,426.88220 C 258.78509,427.44939 258.54235,428.09488 258.26713,428.71862 C 257.93968,429.49256 257.66846,430.28786 257.38625,431.07899 C 257.07465,431.96015 256.75600,432.83699 256.37843,433.69235 C 256.04527,434.45029 255.67355,435.18835 255.32197,435.93748 C 255.01994,436.59572 254.67137,437.22993 254.36605,437.88583 C 254.28165,438.07595 254.17150,438.41596 254.18795,438.50175 L 250.39871,438.50175 z " />
    <path
       style="fill:#000000;fill-opacity:1.0000000;fill-rule:nonzero;stroke:none;stroke-width:1.0000000pt;stroke-linecap:butt;stroke-linejoin:miter;stroke-opacity:1.0000000;"
       id="path2849"
       d="M 259.54057,440.23914 C 259.51380,440.37868 259.67356,440.49078 259.75190,440.60931 C 260.12985,441.14207 260.64390,441.51419 261.20855,441.83179 C 261.55709,442.01433 262.69865,442.33653 262.33206,442.19364 C 261.83792,442.19498 262.17109,442.10290 262.48955,441.78921 C 262.89479,441.40535 263.35042,441.07752 263.73013,440.66665 C 263.84122,440.53510 263.93520,440.39817 264.02294,440.24998 L 267.47439,441.19052 C 267.29952,441.48494 267.10648,441.75645 266.88183,442.01502 C 266.46893,442.45641 265.99256,442.81793 265.55475,443.23103 C 264.71826,444.03693 263.93297,444.55229 262.74093,444.70505 C 261.34806,444.78354 260.05431,444.40796 258.83538,443.75167 C 257.87781,443.20459 257.02100,442.54786 256.36774,441.65130 C 256.06120,441.19745 255.85346,440.77162 255.75133,440.23914 L 259.54057,440.23914 z " />
    <path
       style="fill:#000000;fill-opacity:1.0000000;fill-rule:nonzero;stroke:none;stroke-width:1.0000000pt;stroke-linecap:butt;stroke-linejoin:miter;stroke-opacity:1.0000000;"
       id="path2850"
       d="M 251.66078,426.24985 C 250.20233,426.12136 249.11843,424.98045 248.00433,424.12216 C 246.52858,422.99503 244.99126,421.90358 243.72186,420.53830 C 243.11478,419.85633 242.64705,419.09280 242.11949,418.35276 C 241.80984,417.94476 241.46388,417.57040 241.10401,417.20664 L 244.19063,415.79737 C 244.65635,416.26330 245.10060,416.74018 245.48286,417.27810 C 245.93016,417.93603 246.31964,418.62836 246.83239,419.23976 C 247.94149,420.49901 249.33167,421.50080 250.67114,422.49735 C 251.22477,422.90552 251.78068,423.31249 252.35675,423.68879 C 252.50944,423.78852 252.97615,424.07399 252.82387,423.97364 C 252.49007,423.75369 251.26258,423.71645 251.66078,423.68136 L 251.66078,426.24985 z " />
    <path
       style="fill:#000000;fill-opacity:1.0000000;fill-rule:nonzero;stroke:none;stroke-width:1.0000000pt;stroke-linecap:butt;stroke-linejoin:miter;stroke-opacity:1.0000000;"
       id="path2851"
       d="M 257.32562,419.76759 C 257.39311,419.41574 257.15147,418.78758 257.04110,418.40838 C 256.64319,417.08238 256.11295,415.80482 255.66761,414.49507 C 255.36421,413.57978 255.13963,412.66528 255.02334,411.70795 C 255.00591,411.58383 254.98771,411.45985 254.96914,411.33590 L 258.66758,411.09682 C 258.68602,411.23626 258.70328,411.37572 258.71916,411.51548 C 258.80654,412.35240 258.97071,413.15399 259.21651,413.95961 C 259.63677,415.28738 260.16540,416.57734 260.60877,417.89750 C 260.81385,418.51837 260.99220,419.12805 261.11487,419.76759 L 257.32562,419.76759 z " />
    <path
       style="fill:#000000;fill-opacity:1.0000000;fill-rule:nonzero;stroke:none;stroke-width:1.0000000pt;stroke-linecap:butt;stroke-linejoin:miter;stroke-opacity:1.0000000;"
       id="path2852"
       d="M 270.08574,418.95847 C 268.16720,419.41041 268.51594,419.62200 269.64775,418.28323 C 270.63582,417.09552 271.55837,415.86029 272.49525,414.63256 C 273.16223,413.77730 273.86567,412.95709 274.83574,412.44042 C 275.35260,412.19900 275.88640,412.06622 276.44143,411.94753 L 277.57127,414.36308 C 277.44774,414.38976 277.16891,414.47082 277.09134,414.45983 C 276.53033,414.67897 276.08379,415.34478 275.71887,415.78726 C 274.74878,417.00386 273.79012,418.23093 272.83956,419.46282 C 271.91292,420.67235 271.62168,421.16101 270.08574,421.52696 L 270.08574,418.95847 z " />
    <path
       style="fill:#000000;fill-opacity:1.0000000;fill-rule:nonzero;stroke:none;stroke-width:1.0000000pt;stroke-linecap:butt;stroke-linejoin:miter;stroke-opacity:1.0000000;"
       id="path2853"
       d="M 275.28092,428.40426 C 275.84627,428.45407 276.37137,428.08806 276.90989,427.90891 C 278.22740,427.45872 279.55727,426.97162 280.78031,426.29897 C 281.04952,426.14448 281.37367,425.97884 281.58469,425.74506 L 284.53725,427.28948 C 284.08038,427.67261 283.57475,427.98150 283.05130,428.26498 C 281.60733,429.01297 280.07061,429.57824 278.53766,430.11314 C 277.46789,430.48227 276.41267,430.87304 275.28092,430.97275 L 275.28092,428.40426 z " />
    <path
       style="fill:#000000;fill-opacity:1.0000000;fill-rule:nonzero;stroke:none;stroke-width:1.0000000pt;stroke-linecap:butt;stroke-linejoin:miter;stroke-opacity:1.0000000;"
       id="path2854"
       d="M 277.33015,441.02629 C 277.29153,441.22762 278.26098,443.45581 278.62990,444.20258 C 279.90818,446.67130 281.37161,449.01092 283.07382,451.20946 C 283.58109,451.85513 284.11236,452.48122 284.62477,453.12280 L 281.27117,454.21600 C 280.86290,453.54446 280.35839,452.92901 279.90124,452.29092 C 278.23114,449.94491 276.74096,447.50142 275.37305,444.96782 C 274.73440,443.75971 273.80255,442.39037 273.54090,441.02629 L 277.33015,441.02629 z " />
    <path
       style="fill:#000000;fill-opacity:1.0000000;fill-rule:nonzero;stroke:none;stroke-width:1.0000000pt;stroke-linecap:butt;stroke-linejoin:miter;stroke-opacity:1.0000000;"
       id="path2855"
       d="M 266.31005,447.95320 C 266.24062,447.55244 267.78664,450.35743 268.20950,450.99104 C 269.23219,452.49973 270.33582,453.93486 271.46788,455.36137 C 271.62652,455.57422 271.54994,455.46304 271.69672,455.69552 L 268.18568,456.55742 C 268.23219,456.54799 268.20363,456.55896 268.15742,456.47011 C 267.16044,454.94293 266.05013,453.48418 265.02778,451.97282 C 264.25223,450.82567 262.77762,449.35929 262.52081,447.95320 L 266.31005,447.95320 z " />
    <path
       style="fill:#000000;fill-opacity:1.0000000;fill-rule:nonzero;stroke:none;stroke-width:1.0000000pt;stroke-linecap:butt;stroke-linejoin:miter;stroke-opacity:1.0000000;"
       id="path2856"
       d="M 260.32772,446.69376 C 260.18009,447.46341 259.70519,448.22107 259.34694,448.91205 C 258.74740,450.05004 258.08337,451.13929 257.34497,452.19211 C 256.89566,452.79764 256.44654,453.40073 256.00933,454.01502 L 252.70336,452.89783 C 253.15780,452.30596 253.59522,451.69743 254.03872,451.09698 C 254.74078,450.14977 255.37396,449.16513 255.90882,448.11310 C 256.13724,447.64865 256.63597,447.20207 256.53847,446.69376 L 260.32772,446.69376 z " />
    <path
       style="fill:#000000;fill-opacity:1.0000000;fill-rule:nonzero;stroke:none;stroke-width:1.0000000pt;stroke-linecap:butt;stroke-linejoin:miter;stroke-opacity:1.0000000;"
       id="path2857"
       d="M 251.50335,446.08602 C 250.18489,445.96986 248.98675,446.90789 247.73904,447.34954 C 245.70151,448.08514 243.54903,448.83370 241.79107,450.13672 C 241.66449,450.23733 241.54246,450.33598 241.42875,450.45081 L 238.53191,448.88147 C 238.74158,448.71811 238.95527,448.56329 239.17296,448.41074 C 241.29319,446.99528 243.71902,446.10463 246.10264,445.24364 C 247.81079,444.62908 249.67569,443.67856 251.50335,443.51753 L 251.50335,446.08602 z " />
    <path
       style="fill:#000000;fill-opacity:1.0000000;fill-rule:nonzero;stroke:none;stroke-width:1.0000000pt;stroke-linecap:butt;stroke-linejoin:miter;stroke-opacity:1.0000000;"
       id="path2858"
       d="M 248.03989,435.85308 C 246.71046,435.73595 245.38588,435.34720 244.07735,435.09012 C 242.28131,434.73406 240.45923,434.41967 238.70207,433.89631 C 238.29055,433.75792 237.89501,433.59954 237.51312,433.39268 L 239.92812,431.45194 C 239.92537,431.45434 240.23645,431.61044 240.26277,431.62142 C 241.81166,432.15373 243.46138,432.43377 245.06400,432.74814 C 246.05413,432.93687 247.03583,433.37305 248.03989,433.28459 L 248.03989,435.85308 z " />
  </g>
  <path
     sodipodi:type="arc"
     style="fill:#000000;fill-opacity:1.0000000;fill-rule:evenodd;stroke:#000000;stroke-width:1.0000000pt;stroke-linecap:butt;stroke-linejoin:miter;stroke-opacity:1.0000000;"
     id="path3484"
     sodipodi:cx="343.51205"
     sodipodi:cy="-7.7707839"
     sodipodi:rx="37.468315"
     sodipodi:ry="37.468315"
     d="M 380.98037 -7.7707839 A 37.468315 37.468315 0 1 0 306.04374,-7.7707839 A 37.468315 37.468315 0 1 0 380.98037 -7.7707839 z"
     transform="translate(-227.0645,62.71310)" />
  <g
     id="signal_down"
     style="fill:#009e00;fill-opacity:1.0000000;">
    <path
       id="path4119"
       d="M 188.52402,20.516330 C 194.69428,22.857570 193.07109,31.101450 193.76339,37.104400 C 194.88861,46.921720 195.90247,56.754210 196.36031,66.628160 C 196.49681,70.127710 197.28686,74.702440 196.05317,78.076440 L 188.91271,76.550300 C 190.23949,79.537900 189.32636,70.018200 189.26605,66.749800 C 188.99048,56.958060 188.05151,47.211050 186.83691,37.494880 C 185.97765,30.893570 181.36984,23.004590 188.52402,25.653310 L 188.52402,20.516330 z " />
    <path
       id="path4120"
       d="M 181.59671,60.249590 C 181.52752,59.838040 187.27357,68.180550 188.68082,70.102100 C 192.08433,74.729500 195.41141,79.529080 199.29419,83.774840 C 199.66923,84.184950 201.57832,85.818570 201.43085,85.668200 C 194.87812,83.657600 196.32281,89.345760 196.96166,77.287370 C 197.43585,71.313500 199.13811,65.911800 201.99858,60.659470 L 208.84406,62.408540 C 206.15000,67.140020 204.58982,72.011870 204.17856,77.450750 C 203.93019,82.927840 206.15313,91.898920 197.31080,89.895770 C 190.97516,86.522610 186.55123,77.803660 182.40455,72.236960 C 179.99082,69.012980 174.79721,64.415940 174.01823,60.249590 L 181.59671,60.249590 z " />
  </g>
  <g
     id="signal_up"
     style="fill:#008800;fill-opacity:1.0000000;">
    <path
       id="path4747"
       d="M 37.202020,88.339590 C 42.925998,86.046170 41.420210,77.970680 42.062437,72.090350 C 43.106273,62.473560 44.046802,52.841910 44.471528,43.169650 C 44.598155,39.741580 45.331062,35.260290 44.186603,31.955210 L 37.562597,33.450180 C 38.793414,30.523600 37.946328,39.848850 37.890381,43.050490 C 37.634742,52.642220 36.763686,62.190140 35.636935,71.707850 C 34.839824,78.174320 30.565287,85.902160 37.202020,83.307540 L 37.202020,88.339590 z " />
    <path
       id="path4748"
       d="M 30.775748,49.417930 C 30.711562,49.821070 36.042012,41.648960 37.347479,39.766660 C 40.504820,35.233780 43.591260,30.532240 47.193206,26.373210 C 47.541121,25.971470 49.312130,24.371220 49.175326,24.518520 C 43.096541,26.488050 44.436740,20.916080 45.029383,32.728160 C 45.469276,38.580010 47.048415,43.871370 49.701994,49.016420 L 56.052355,47.303070 C 53.553150,42.668240 52.105815,37.895900 51.724300,32.568120 C 51.493894,27.202910 53.556054,18.415070 45.353271,20.377300 C 39.475874,23.681560 35.371918,32.222420 31.525158,37.675410 C 29.286008,40.833540 24.468041,45.336680 23.745403,49.417930 L 30.775748,49.417930 z " />
  </g>
  <rect
     style="fill:#ffffff;fill-opacity:1.0000000;fill-rule:evenodd;stroke:#ffffff;stroke-width:1.0000000pt;stroke-linecap:butt;stroke-linejoin:miter;stroke-opacity:1.0000000;"
     id="rect5372"
     width="56.848709"
     height="111.05330"
     x="89.900284"
     y="-93.243271" />
</svg>
