<?xml version="1.0" encoding="UTF-8" standalone="no"?>
<!-- Created with Inkscape (http://www.inkscape.org/) -->
<svg
   xmlns:dc="http://purl.org/dc/elements/1.1/"
   xmlns:cc="http://creativecommons.org/ns#"
   xmlns:rdf="http://www.w3.org/1999/02/22-rdf-syntax-ns#"
   xmlns:svg="http://www.w3.org/2000/svg"
   xmlns="http://www.w3.org/2000/svg"
   xmlns:sodipodi="http://sodipodi.sourceforge.net/DTD/sodipodi-0.dtd"
   xmlns:inkscape="http://www.inkscape.org/namespaces/inkscape"
   width="100"
   height="100"
   id="svg2"
   viewBox="0 0 50 50"
   sodipodi:version="0.32"
   inkscape:version="0.46"
   version="1.0"
   sodipodi:docname="Pfad.svg"
   inkscape:output_extension="org.inkscape.output.svg.inkscape">
  <defs
     id="defs4">
    <inkscape:perspective
       sodipodi:type="inkscape:persp3d"
       inkscape:vp_x="0 : 526.18109 : 1"
       inkscape:vp_y="0 : 1000 : 0"
       inkscape:vp_z="744.09448 : 526.18109 : 1"
       inkscape:persp3d-origin="372.04724 : 350.78739 : 1"
       id="perspective10" />
  </defs>
  <sodipodi:namedview
     id="base"
     pagecolor="#ffffff"
     bordercolor="#666666"
     borderopacity="1.0"
     inkscape:pageopacity="0.0"
     inkscape:pageshadow="2"
     inkscape:zoom="4"
     inkscape:cx="73.049269"
     inkscape:cy="42.449869"
     inkscape:document-units="px"
     inkscape:current-layer="layer1"
     showgrid="false"
     inkscape:window-width="1012"
     inkscape:window-height="669"
     inkscape:window-x="37"
     inkscape:window-y="78" />
  <metadata
     id="metadata7">
    <rdf:RDF>
      <cc:Work
         rdf:about="">
        <dc:format>image/svg+xml</dc:format>
        <dc:type
           rdf:resource="http://purl.org/dc/dcmitype/StillImage" />
      </cc:Work>
    </rdf:RDF>
  </metadata>
  <g
     inkscape:label="Ebene 1"
     inkscape:groupmode="layer"
     id="layer1">
    <rect
       style="fill:#b3b3b3;fill-opacity:1;stroke:#ff0000;stroke-width:0.375;stroke-opacity:1"
       id="rect2"
       width="4"
       height="4"
       x="1.375"
       y="42.290192"
       inkscape:label="#rect2382" />
    <path
       inkscape:label="#path2409"
       id="spirale_bottom"
       d="M 10.888895,30.473463 C 10.3698,30.51937 9.856602,30.627878 9.33849,30.79871 C 5.6896654,32.001794 3.3758805,36.239901 4.5463302,40.230863 C 5.5604612,43.688816 9.051519,45.89588 12.318489,44.740951 C 15.091976,43.760477 16.837753,40.47868 15.862271,37.433742 C 15.056336,34.918042 12.471052,33.320314 10.08349,34.268008 C 8.1844337,35.021799 6.9807149,37.35415 7.7679504,39.450271 C 8.3594828,41.025306 10.090657,42.024942 11.593624,41.271653 C 12.107198,41.014249 12.524697,40.52641 12.741327,39.970666 C 12.957957,39.414923 12.972441,38.781056 12.660786,38.214333 C 12.485009,37.894697 12.160568,37.616275 11.81511,37.498791 C 11.469654,37.381308 11.093739,37.425017 10.808354,37.737306 C 10.694875,37.861482 10.615201,38.107849 10.627138,38.322749 C 10.633106,38.430199 10.663126,38.537424 10.727814,38.60463 C 10.792502,38.671835 10.901498,38.70153 11.029841,38.66968 L 11.009705,38.60463 C 10.896057,38.632834 10.815364,38.610383 10.768085,38.561264 C 10.720804,38.512144 10.69289,38.419007 10.687544,38.322749 C 10.67685,38.130234 10.758355,37.901134 10.848625,37.802354 C 11.115387,37.510444 11.46687,37.473941 11.794976,37.585524 C 12.123081,37.697106 12.434147,37.955416 12.600381,38.2577 C 12.900502,38.80345 12.890816,39.410516 12.680921,39.948983 C 12.471026,40.48745 12.050829,40.957267 11.553354,41.206603 C 10.08881,41.940635 8.4065824,40.968194 7.8283556,39.428588 C 7.056488,37.373385 8.2380371,35.073563 10.103625,34.333056 C 12.453482,33.40033 15.007624,34.976226 15.801865,37.455425 C 16.764411,40.45998 15.03762,43.685842 12.298354,44.654219 C 9.068735,45.795944 5.6099794,43.63001 4.6067354,40.20918 C 3.4480459,36.258317 5.7444769,32.055409 9.358626,30.863759 C 13.466377,29.509358 17.814042,32.289829 19.023486,36.65315 C 20.380598,41.549221 17.532939,46.710684 13.043354,48.123516 C 8.0581538,49.692313 2.7993522,46.317702 1.3851152,41.011456 L 1.32471,41.033138 C 2.74902,46.377178 8.0412717,49.76901 13.063488,48.188566 C 17.588054,46.764726 20.45207,41.567464 19.083892,36.631467 C 18.016529,32.78073 14.52256,30.152108 10.888895,30.473463 z"
       style="fill:#000000;fill-opacity:1;fill-rule:evenodd;stroke:none;stroke-width:0.10416667;stroke-linecap:butt;stroke-linejoin:miter;stroke-opacity:1" />
    <rect
       style="fill:#b3b3b3;fill-opacity:1;stroke:#ff0000;stroke-width:0.375;stroke-opacity:1"
       id="rect4"
       width="4"
       height="4"
       x="38.75"
       y="44.665192"
       inkscape:label="#rect2382" />
    <path
       style="fill:#000000;fill-opacity:1;fill-rule:evenodd;stroke:none;stroke-width:0.10416667;stroke-linecap:butt;stroke-linejoin:miter;stroke-opacity:1"
       d="M 26.444907,32.52151 C 26.402805,32.529058 26.372617,32.548163 26.341384,32.570009 C 26.31015,32.591857 26.267639,32.624498 26.258564,32.667008 C 26.223433,32.8316 26.297365,33.001029 26.382794,33.176255 C 26.468222,33.351482 26.581119,33.518299 26.672658,33.661252 C 26.717302,33.730968 26.757738,33.810723 26.796886,33.879501 C 26.85403,33.979892 26.912572,34.071191 26.983229,34.170499 C 27.356266,34.694789 27.648559,35.244002 27.894236,35.819489 C 27.99513,36.055829 28.136902,36.397294 28.246215,36.740981 C 28.355526,37.084668 28.426542,37.423909 28.370443,37.686725 C 28.325694,37.896366 28.216244,38.049424 28.080577,38.171722 C 27.94491,38.294019 27.789191,38.386189 27.645778,38.48697 C 27.484878,38.60004 27.395517,38.692455 27.355913,38.826467 C 27.31631,38.96048 27.317125,39.132805 27.355913,39.359965 C 27.424635,39.762411 27.587963,40.059095 27.666483,40.426958 C 27.730507,40.726897 27.871214,41.093389 27.997759,41.445451 C 28.124304,41.797513 28.246215,42.153311 28.246215,42.439694 C 28.246215,42.542474 28.246215,42.627912 28.246215,42.730692 C 28.246215,43.445193 28.213337,43.889447 27.852826,44.45243 C 27.806997,44.524 27.775708,44.615505 27.728598,44.670678 C 27.516105,44.919557 27.08119,44.961666 26.651955,44.864678 C 26.222718,44.767689 25.788612,44.526862 25.61672,44.258432 C 25.437489,43.978539 25.315582,43.464925 25.244036,43.045939 C 25.146501,42.474766 24.973777,42.195911 24.664304,41.833448 C 24.536656,41.683943 24.331804,41.447601 24.105278,41.251451 C 23.878752,41.055302 23.621468,40.887705 23.401318,40.887705 C 23.164989,40.887705 23.033045,40.889368 22.904407,40.936204 C 22.775768,40.983039 22.668799,41.090906 22.511018,41.275702 C 22.177797,41.665978 21.931286,42.42608 21.931286,42.99744 C 21.931286,43.281189 21.923176,43.594938 21.951991,43.894684 C 21.980807,44.194431 22.02661,44.485946 22.138334,44.670678 L 22.200447,44.622179 C 22.101601,44.458736 22.042341,44.188387 22.014106,43.894684 C 21.985872,43.60098 21.993401,43.280698 21.993401,42.99744 C 21.993401,42.454083 22.239428,41.690793 22.552428,41.324201 C 22.707676,41.142372 22.811468,41.050329 22.925112,41.008952 C 23.038755,40.967577 23.164703,40.984704 23.401318,40.984704 C 23.591447,40.984704 23.842276,41.132323 24.06387,41.324201 C 24.285462,41.516078 24.475453,41.733509 24.602191,41.881948 C 24.908863,42.241131 25.065881,42.487633 25.161218,43.045939 C 25.233912,43.471649 25.382093,44.005195 25.57531,44.306932 C 25.767084,44.606409 26.190042,44.837734 26.63125,44.937428 C 27.072456,45.03712 27.527946,45.002688 27.770006,44.719179 C 27.826319,44.653227 27.873014,44.566402 27.914939,44.500929 C 28.285085,43.922901 28.308328,43.447801 28.308328,42.730692 C 28.308328,42.627912 28.308328,42.542474 28.308328,42.439694 C 28.308328,42.129753 28.187228,41.751265 28.059872,41.396951 C 27.932518,41.042636 27.789791,40.71364 27.728598,40.426958 C 27.647005,40.044708 27.504701,39.722038 27.438732,39.335714 C 27.400494,39.111789 27.385901,38.98368 27.418028,38.874967 C 27.450154,38.766256 27.531452,38.669161 27.687188,38.55972 C 27.827252,38.461291 27.979086,38.37329 28.121987,38.244471 C 28.264886,38.115653 28.383213,37.942152 28.432558,37.710975 C 28.495144,37.417757 28.419706,37.066911 28.308328,36.716732 C 28.196952,36.366552 28.056692,36.006038 27.956349,35.770987 C 27.708354,35.190071 27.400926,34.650859 27.024639,34.122 C 26.960257,34.031511 26.918865,33.93617 26.859001,33.831001 C 26.81702,33.757247 26.757181,33.680078 26.714068,33.612753 C 26.62178,33.468633 26.526664,33.295448 26.444907,33.127755 C 26.363152,32.960063 26.313743,32.796502 26.341384,32.667008 C 26.345629,32.647117 26.342306,32.632346 26.362089,32.618508 C 26.381872,32.60467 26.40837,32.60081 26.444907,32.59426 C 26.517981,32.581157 26.632687,32.580785 26.734773,32.59426 C 26.938941,32.621207 27.14216,32.699387 27.210982,32.715509 C 27.796854,32.852747 28.393126,33.096194 28.970879,33.321755 C 29.483313,33.521812 29.907131,33.616742 30.316683,33.9765 C 30.736919,34.345643 31.081872,34.774673 31.310507,35.310242 C 31.649481,36.104272 31.770327,36.868313 31.890238,37.710975 C 31.97333,38.294882 31.973057,38.954137 31.973057,39.553962 C 31.973057,39.955681 32.062413,40.33633 32.138694,40.693705 C 32.292343,41.413535 32.957823,42.003197 33.588023,42.003197 C 34.392567,42.003197 35.122247,42.415443 35.948356,42.415443 C 36.518254,42.415443 37.006051,42.080599 37.29416,41.518199 C 37.451774,41.21053 37.467868,40.787633 37.418388,40.354208 C 37.368909,39.920782 37.256309,39.493714 37.169932,39.190216 C 37.086002,38.895313 37.052686,38.705782 37.087114,38.608219 C 37.104327,38.559438 37.132435,38.519957 37.190637,38.48697 C 37.248839,38.453982 37.348795,38.440222 37.459798,38.41422 C 38.177694,38.246056 38.97245,38.36572 39.716607,38.36572 C 40.186513,38.365722 40.648145,38.41422 41.124526,38.41422 C 41.958284,38.41422 42.797018,38.55972 43.629793,38.55972 C 43.773263,38.55972 43.978028,38.729625 44.14741,38.923466 C 44.31679,39.117309 44.451641,39.347592 44.520094,39.481214 C 44.788338,40.004837 45.141233,40.614217 45.141233,41.202952 C 45.141233,41.439322 45.08125,41.595977 45.017006,41.760698 C 44.952761,41.925419 44.878903,42.092447 44.830664,42.318444 C 44.769374,42.605582 44.878186,42.909035 45.03771,43.167189 C 45.197236,43.425342 45.40339,43.64398 45.534624,43.797685 C 45.662217,43.947125 45.888068,44.032668 46.114354,44.088683 C 46.340642,44.144698 46.580259,44.161433 46.7562,44.161433 C 46.905423,44.161431 47.00389,44.229982 47.087474,44.33118 C 47.171058,44.432381 47.236179,44.582516 47.294522,44.719179 C 47.407556,44.983959 47.450048,45.084057 47.501568,45.325425 C 47.517869,45.401792 47.579944,45.465845 47.646501,45.519423 C 47.713057,45.573002 47.788001,45.600461 47.874252,45.640672 C 48.046756,45.721094 48.223415,45.785347 48.30905,45.810421 C 48.36177,45.82586 48.430867,45.81381 48.495393,45.810421 C 48.559919,45.807032 48.632916,45.810421 48.681734,45.810421 L 48.681734,45.737673 C 48.627815,45.737673 48.557908,45.734388 48.495393,45.737673 C 48.432876,45.740956 48.368166,45.74892 48.329755,45.737673 C 48.244547,45.712723 48.061706,45.645663 47.894956,45.567924 C 47.811582,45.529052 47.72689,45.49472 47.667206,45.446674 C 47.607519,45.398627 47.573246,45.345982 47.563683,45.301174 C 47.510587,45.052424 47.469053,44.934016 47.356635,44.670678 C 47.297852,44.532981 47.222097,44.395539 47.128884,44.282681 C 47.035671,44.169824 46.923479,44.088681 46.7562,44.088683 C 46.584906,44.088683 46.334359,44.070393 46.114354,44.015933 C 45.89435,43.961473 45.70613,43.877309 45.596737,43.749185 C 45.46404,43.593765 45.25404,43.36825 45.099825,43.118689 C 44.945609,42.869129 44.839255,42.593444 44.892778,42.342695 C 44.93865,42.127787 45.013322,41.953655 45.07912,41.784949 C 45.144918,41.616242 45.203348,41.453139 45.203348,41.202952 C 45.203348,40.578162 44.849282,39.954051 44.582209,39.432713 C 44.509267,39.290332 44.363292,39.050387 44.188818,38.850718 C 44.014346,38.651047 43.812362,38.48697 43.629793,38.48697 C 42.804323,38.48697 41.965518,38.341471 41.124526,38.341471 C 40.652403,38.341471 40.190791,38.268723 39.716607,38.268721 C 38.97874,38.268721 38.172785,38.169607 37.439093,38.341471 C 37.325653,38.368043 37.237757,38.37578 37.169932,38.41422 C 37.102107,38.452661 37.049544,38.514413 37.024999,38.583969 C 36.97591,38.723082 37.023082,38.916728 37.107819,39.214465 C 37.19345,39.515347 37.307756,39.929207 37.356275,40.354208 C 37.404791,40.779208 37.375167,41.214572 37.232047,41.49395 C 36.955412,42.033953 36.495576,42.342693 35.948356,42.342695 C 35.142035,42.342695 34.412395,41.930449 33.588023,41.930447 C 32.995497,41.930447 32.366031,41.346503 32.221514,40.669455 C 32.144606,40.309151 32.035171,39.939828 32.035171,39.553962 C 32.035171,38.953716 32.036763,38.279908 31.952353,37.686725 C 31.832452,36.844139 31.716918,36.068238 31.372622,35.261741 C 31.137788,34.711655 30.783579,34.301757 30.358092,33.928 C 29.93512,33.556452 29.499674,33.447367 28.991583,33.249005 C 28.415198,33.023978 27.824812,32.757446 27.231685,32.618508 C 27.169396,32.603919 26.945218,32.549285 26.734773,32.52151 C 26.62955,32.507621 26.52911,32.506412 26.444907,32.52151 z"
       id="path_bottom"
       inkscape:label="#path2381" />
    <rect
       inkscape:label="#rect2382"
       y="1.1651917"
       x="44.5"
       height="4"
       width="4"
       id="rect3"
       style="fill:#b3b3b3;fill-opacity:1;stroke:#ff0000;stroke-width:0.375;stroke-opacity:1" />
    <path
       inkscape:label="#path2381"
       id="path_top"
       d="M 26.444907,4.52151 C 26.402805,4.529058 26.372617,4.548163 26.341384,4.570009 C 26.31015,4.591857 26.267639,4.624498 26.258564,4.667008 C 26.223433,4.8316 26.297365,5.001029 26.382794,5.176255 C 26.468222,5.351482 26.581119,5.518299 26.672658,5.661252 C 26.717302,5.730968 26.757738,5.810723 26.796886,5.879501 C 26.85403,5.979892 26.912572,6.071191 26.983229,6.170499 C 27.356266,6.694789 27.648559,7.244002 27.894236,7.819489 C 27.99513,8.055829 28.136902,8.397294 28.246215,8.740981 C 28.355526,9.084668 28.426542,9.423909 28.370443,9.686725 C 28.325694,9.896366 28.216244,10.049424 28.080577,10.171722 C 27.94491,10.294019 27.789191,10.386189 27.645778,10.48697 C 27.484878,10.60004 27.395517,10.692455 27.355913,10.826467 C 27.31631,10.96048 27.317125,11.132805 27.355913,11.359965 C 27.424635,11.762411 27.587963,12.059095 27.666483,12.426958 C 27.730507,12.726897 27.871214,13.093389 27.997759,13.445451 C 28.124304,13.797513 28.246215,14.153311 28.246215,14.439694 C 28.246215,14.542474 28.246215,14.627912 28.246215,14.730692 C 28.246215,15.445193 28.213337,15.889447 27.852826,16.45243 C 27.806997,16.524 27.775708,16.615505 27.728598,16.670678 C 27.516105,16.919557 27.08119,16.961666 26.651955,16.864678 C 26.222718,16.767689 25.788612,16.526862 25.61672,16.258432 C 25.437489,15.978539 25.315582,15.464925 25.244036,15.045939 C 25.146501,14.474766 24.973777,14.195911 24.664304,13.833448 C 24.536656,13.683943 24.331804,13.447601 24.105278,13.251451 C 23.878752,13.055302 23.621468,12.887705 23.401318,12.887705 C 23.164989,12.887705 23.033045,12.889368 22.904407,12.936204 C 22.775768,12.983039 22.668799,13.090906 22.511018,13.275702 C 22.177797,13.665978 21.931286,14.42608 21.931286,14.99744 C 21.931286,15.281189 21.923176,15.594938 21.951991,15.894684 C 21.980807,16.194431 22.02661,16.485946 22.138334,16.670678 L 22.200447,16.622179 C 22.101601,16.458736 22.042341,16.188387 22.014106,15.894684 C 21.985872,15.60098 21.993401,15.280698 21.993401,14.99744 C 21.993401,14.454083 22.239428,13.690793 22.552428,13.324201 C 22.707676,13.142372 22.811468,13.050329 22.925112,13.008952 C 23.038755,12.967577 23.164703,12.984704 23.401318,12.984704 C 23.591447,12.984704 23.842276,13.132323 24.06387,13.324201 C 24.285462,13.516078 24.475453,13.733509 24.602191,13.881948 C 24.908863,14.241131 25.065881,14.487633 25.161218,15.045939 C 25.233912,15.471649 25.382093,16.005195 25.57531,16.306932 C 25.767084,16.606409 26.190042,16.837734 26.63125,16.937428 C 27.072456,17.03712 27.527946,17.002688 27.770006,16.719179 C 27.826319,16.653227 27.873014,16.566402 27.914939,16.500929 C 28.285085,15.922901 28.308328,15.447801 28.308328,14.730692 C 28.308328,14.627912 28.308328,14.542474 28.308328,14.439694 C 28.308328,14.129753 28.187228,13.751265 28.059872,13.396951 C 27.932518,13.042636 27.789791,12.71364 27.728598,12.426958 C 27.647005,12.044708 27.504701,11.722038 27.438732,11.335714 C 27.400494,11.111789 27.385901,10.98368 27.418028,10.874967 C 27.450154,10.766256 27.531452,10.669161 27.687188,10.55972 C 27.827252,10.461291 27.979086,10.37329 28.121987,10.244471 C 28.264886,10.115653 28.383213,9.942152 28.432558,9.710975 C 28.495144,9.417757 28.419706,9.066911 28.308328,8.716732 C 28.196952,8.366552 28.056692,8.006038 27.956349,7.770987 C 27.708354,7.190071 27.400926,6.650859 27.024639,6.122 C 26.960257,6.031511 26.918865,5.93617 26.859001,5.831001 C 26.81702,5.757247 26.757181,5.680078 26.714068,5.612753 C 26.62178,5.468633 26.526664,5.295448 26.444907,5.127755 C 26.363152,4.960063 26.313743,4.796502 26.341384,4.667008 C 26.345629,4.647117 26.342306,4.632346 26.362089,4.618508 C 26.381872,4.60467 26.40837,4.60081 26.444907,4.59426 C 26.517981,4.581157 26.632687,4.580785 26.734773,4.59426 C 26.938941,4.621207 27.14216,4.699387 27.210982,4.715509 C 27.796854,4.852747 28.393126,5.096194 28.970879,5.321755 C 29.483313,5.521812 29.907131,5.616742 30.316683,5.9765 C 30.736919,6.345643 31.081872,6.774673 31.310507,7.310242 C 31.649481,8.104272 31.770327,8.868313 31.890238,9.710975 C 31.97333,10.294882 31.973057,10.954137 31.973057,11.553962 C 31.973057,11.955681 32.062413,12.33633 32.138694,12.693705 C 32.292343,13.413535 32.957823,14.003197 33.588023,14.003197 C 34.392567,14.003197 35.122247,14.415443 35.948356,14.415443 C 36.518254,14.415443 37.006051,14.080599 37.29416,13.518199 C 37.451774,13.21053 37.467868,12.787633 37.418388,12.354208 C 37.368909,11.920782 37.256309,11.493714 37.169932,11.190216 C 37.086002,10.895313 37.052686,10.705782 37.087114,10.608219 C 37.104327,10.559438 37.132435,10.519957 37.190637,10.48697 C 37.248839,10.453982 37.348795,10.440222 37.459798,10.41422 C 38.177694,10.246056 38.97245,10.36572 39.716607,10.36572 C 40.186513,10.365722 40.648145,10.41422 41.124526,10.41422 C 41.958284,10.41422 42.797018,10.55972 43.629793,10.55972 C 43.773263,10.55972 43.978028,10.729625 44.14741,10.923466 C 44.31679,11.117309 44.451641,11.347592 44.520094,11.481214 C 44.788338,12.004837 45.141233,12.614217 45.141233,13.202952 C 45.141233,13.439322 45.08125,13.595977 45.017006,13.760698 C 44.952761,13.925419 44.878903,14.092447 44.830664,14.318444 C 44.769374,14.605582 44.878186,14.909035 45.03771,15.167189 C 45.197236,15.425342 45.40339,15.64398 45.534624,15.797685 C 45.662217,15.947125 45.888068,16.032668 46.114354,16.088683 C 46.340642,16.144698 46.580259,16.161433 46.7562,16.161433 C 46.905423,16.161431 47.00389,16.229982 47.087474,16.33118 C 47.171058,16.432381 47.236179,16.582516 47.294522,16.719179 C 47.407556,16.983959 47.450048,17.084057 47.501568,17.325425 C 47.517869,17.401792 47.579944,17.465845 47.646501,17.519423 C 47.713057,17.573002 47.788001,17.600461 47.874252,17.640672 C 48.046756,17.721094 48.223415,17.785347 48.30905,17.810421 C 48.36177,17.82586 48.430867,17.81381 48.495393,17.810421 C 48.559919,17.807032 48.632916,17.810421 48.681734,17.810421 L 48.681734,17.737673 C 48.627815,17.737673 48.557908,17.734388 48.495393,17.737673 C 48.432876,17.740956 48.368166,17.74892 48.329755,17.737673 C 48.244547,17.712723 48.061706,17.645663 47.894956,17.567924 C 47.811582,17.529052 47.72689,17.49472 47.667206,17.446674 C 47.607519,17.398627 47.573246,17.345982 47.563683,17.301174 C 47.510587,17.052424 47.469053,16.934016 47.356635,16.670678 C 47.297852,16.532981 47.222097,16.395539 47.128884,16.282681 C 47.035671,16.169824 46.923479,16.088681 46.7562,16.088683 C 46.584906,16.088683 46.334359,16.070393 46.114354,16.015933 C 45.89435,15.961473 45.70613,15.877309 45.596737,15.749185 C 45.46404,15.593765 45.25404,15.36825 45.099825,15.118689 C 44.945609,14.869129 44.839255,14.593444 44.892778,14.342695 C 44.93865,14.127787 45.013322,13.953655 45.07912,13.784949 C 45.144918,13.616242 45.203348,13.453139 45.203348,13.202952 C 45.203348,12.578162 44.849282,11.954051 44.582209,11.432713 C 44.509267,11.290332 44.363292,11.050387 44.188818,10.850718 C 44.014346,10.651047 43.812362,10.48697 43.629793,10.48697 C 42.804323,10.48697 41.965518,10.341471 41.124526,10.341471 C 40.652403,10.341471 40.190791,10.268723 39.716607,10.268721 C 38.97874,10.268721 38.172785,10.169607 37.439093,10.341471 C 37.325653,10.368043 37.237757,10.37578 37.169932,10.41422 C 37.102107,10.452661 37.049544,10.514413 37.024999,10.583969 C 36.97591,10.723082 37.023082,10.916728 37.107819,11.214465 C 37.19345,11.515347 37.307756,11.929207 37.356275,12.354208 C 37.404791,12.779208 37.375167,13.214572 37.232047,13.49395 C 36.955412,14.033953 36.495576,14.342693 35.948356,14.342695 C 35.142035,14.342695 34.412395,13.930449 33.588023,13.930447 C 32.995497,13.930447 32.366031,13.346503 32.221514,12.669455 C 32.144606,12.309151 32.035171,11.939828 32.035171,11.553962 C 32.035171,10.953716 32.036763,10.279908 31.952353,9.686725 C 31.832452,8.844139 31.716918,8.068238 31.372622,7.261741 C 31.137788,6.711655 30.783579,6.301757 30.358092,5.928 C 29.93512,5.556452 29.499674,5.447367 28.991583,5.249005 C 28.415198,5.023978 27.824812,4.757446 27.231685,4.618508 C 27.169396,4.603919 26.945218,4.549285 26.734773,4.52151 C 26.62955,4.507621 26.52911,4.506412 26.444907,4.52151 z"
       style="fill:#000000;fill-opacity:1;fill-rule:evenodd;stroke:none;stroke-width:0.10416667;stroke-linecap:butt;stroke-linejoin:miter;stroke-opacity:1" />
    <rect
       inkscape:label="#rect2382"
       y="4.7901917"
       x="3.375"
       height="4"
       width="4"
       id="rect1"
       style="fill:#b3b3b3;fill-opacity:1;stroke:#ff0000;stroke-width:0.375;stroke-opacity:1" />
    <path
       style="fill:#000000;fill-opacity:1;fill-rule:evenodd;stroke:none;stroke-width:0.10416667;stroke-linecap:butt;stroke-linejoin:miter;stroke-opacity:1"
       d="M 10.888895,2.473463 C 10.3698,2.51937 9.856602,2.627878 9.33849,2.79871 C 5.6896654,4.001794 3.3758805,8.239901 4.5463302,12.230863 C 5.5604612,15.688816 9.051519,17.89588 12.318489,16.740951 C 15.091976,15.760477 16.837753,12.47868 15.862271,9.433742 C 15.056336,6.918042 12.471052,5.320314 10.08349,6.268008 C 8.1844337,7.021799 6.9807149,9.35415 7.7679504,11.450271 C 8.3594828,13.025306 10.090657,14.024942 11.593624,13.271653 C 12.107198,13.014249 12.524697,12.52641 12.741327,11.970666 C 12.957957,11.414923 12.972441,10.781056 12.660786,10.214333 C 12.485009,9.894697 12.160568,9.616275 11.81511,9.498791 C 11.469654,9.381308 11.093739,9.425017 10.808354,9.737306 C 10.694875,9.861482 10.615201,10.107849 10.627138,10.322749 C 10.633106,10.430199 10.663126,10.537424 10.727814,10.60463 C 10.792502,10.671835 10.901498,10.70153 11.029841,10.66968 L 11.009705,10.60463 C 10.896057,10.632834 10.815364,10.610383 10.768085,10.561264 C 10.720804,10.512144 10.69289,10.419007 10.687544,10.322749 C 10.67685,10.130234 10.758355,9.901134 10.848625,9.802354 C 11.115387,9.510444 11.46687,9.473941 11.794976,9.585524 C 12.123081,9.697106 12.434147,9.955416 12.600381,10.2577 C 12.900502,10.80345 12.890816,11.410516 12.680921,11.948983 C 12.471026,12.48745 12.050829,12.957267 11.553354,13.206603 C 10.08881,13.940635 8.4065824,12.968194 7.8283556,11.428588 C 7.056488,9.373385 8.2380371,7.073563 10.103625,6.333056 C 12.453482,5.40033 15.007624,6.976226 15.801865,9.455425 C 16.764411,12.45998 15.03762,15.685842 12.298354,16.654219 C 9.068735,17.795944 5.6099794,15.63001 4.6067354,12.20918 C 3.4480459,8.258317 5.7444769,4.055409 9.358626,2.863759 C 13.466377,1.509358 17.814042,4.289829 19.023486,8.65315 C 20.380598,13.549221 17.532939,18.710684 13.043354,20.123516 C 8.0581538,21.692313 2.7993522,18.317702 1.3851152,13.011456 L 1.32471,13.033138 C 2.74902,18.377178 8.0412717,21.76901 13.063488,20.188566 C 17.588054,18.764726 20.45207,13.567464 19.083892,8.631467 C 18.016529,4.78073 14.52256,2.152108 10.888895,2.473463 z"
       id="spirale_top"
       inkscape:label="#path2409" />
  </g>
</svg>
