<?xml version="1.0" encoding="UTF-8" standalone="no"?>
<!-- Created with Inkscape (http://www.inkscape.org/) -->

<svg
   xmlns:dc="http://purl.org/dc/elements/1.1/"
   xmlns:cc="http://creativecommons.org/ns#"
   xmlns:rdf="http://www.w3.org/1999/02/22-rdf-syntax-ns#"
   xmlns:svg="http://www.w3.org/2000/svg"
   xmlns="http://www.w3.org/2000/svg"
   xmlns:sodipodi="http://sodipodi.sourceforge.net/DTD/sodipodi-0.dtd"
   xmlns:inkscape="http://www.inkscape.org/namespaces/inkscape"
   width="100"
   height="100"
   id="svg2"
   sodipodi:version="0.32"
   inkscape:version="0.47 r22583"
   version="1.0"
   sodipodi:docname="MovePathExample.svg"
   inkscape:output_extension="org.inkscape.output.svg.inkscape"
   viewBox="0 0 100 100">
  <defs
     id="defs4">
    <inkscape:perspective
       sodipodi:type="inkscape:persp3d"
       inkscape:vp_x="0 : 526.18109 : 1"
       inkscape:vp_y="0 : 1000 : 0"
       inkscape:vp_z="744.09448 : 526.18109 : 1"
       inkscape:persp3d-origin="372.04724 : 350.78739 : 1"
       id="perspective10" />
    <inkscape:perspective
       id="perspective7"
       inkscape:persp3d-origin="372.04724 : 350.78739 : 1"
       inkscape:vp_z="744.09448 : 526.18109 : 1"
       inkscape:vp_y="0 : 1000 : 0"
       inkscape:vp_x="0 : 526.18109 : 1"
       sodipodi:type="inkscape:persp3d" />
  </defs>
  <sodipodi:namedview
     id="base"
     pagecolor="#ffffff"
     bordercolor="#666666"
     borderopacity="1.0"
     inkscape:pageopacity="0.0"
     inkscape:pageshadow="2"
     inkscape:zoom="5.734636"
     inkscape:cx="56.438727"
     inkscape:cy="58.374013"
     inkscape:document-units="px"
     inkscape:current-layer="layer1"
     showgrid="false"
     inkscape:window-width="1012"
     inkscape:window-height="671"
     inkscape:window-x="467"
     inkscape:window-y="127"
     inkscape:window-maximized="0" />
  <metadata
     id="metadata7">
    <rdf:RDF>
      <cc:Work
         rdf:about="">
        <dc:format>image/svg+xml</dc:format>
        <dc:type
           rdf:resource="http://purl.org/dc/dcmitype/StillImage" />
      </cc:Work>
    </rdf:RDF>
  </metadata>
  <g
     inkscape:label="Ebene 1"
     inkscape:groupmode="layer"
     id="layer1">
    <path
       inkscape:label="#path2409"
       id="spirale_bottom"
       d="M 20.582935,59.528282 C 19.537697,59.620959 18.504333,59.840014 17.461075,60.184888 C 10.113885,62.613664 5.4549002,71.169519 7.811691,79.22644 C 9.8537221,86.207327 16.883236,90.662929 23.461533,88.331368 C 29.046163,86.351995 32.56142,79.726731 30.597211,73.579635 C 28.974399,68.500961 23.76873,65.275481 18.96119,67.188678 C 15.137293,68.710425 12.713513,73.418956 14.298672,77.650587 C 15.489768,80.830255 18.975621,82.848312 22.001961,81.327578 C 23.036082,80.807933 23.876749,79.823088 24.31295,78.701156 C 24.749151,77.579227 24.778316,76.299582 24.150774,75.155486 C 23.796834,74.510207 23.143547,73.948131 22.44794,73.710956 C 21.752338,73.473782 20.995404,73.562021 20.420759,74.192468 C 20.192261,74.443153 20.031831,74.940517 20.055867,75.374355 C 20.067884,75.591274 20.128332,75.807739 20.258586,75.943414 C 20.38884,76.079087 20.608312,76.139035 20.866741,76.074737 L 20.826195,75.943414 C 20.597356,76.000352 20.434875,75.955028 20.339675,75.855867 C 20.244471,75.756704 20.188264,75.56868 20.177499,75.374355 C 20.155966,74.985707 20.320083,74.523202 20.501848,74.323786 C 21.038994,73.734481 21.746732,73.660789 22.407399,73.886051 C 23.068064,74.111312 23.694419,74.632786 24.029144,75.243035 C 24.633461,76.34479 24.613957,77.57033 24.191318,78.657383 C 23.768678,79.744436 22.922579,80.692898 21.920874,81.196256 C 18.971902,82.678113 15.584607,80.714958 14.420303,77.606814 C 12.866088,73.457787 15.245228,68.814925 19.001733,67.319996 C 23.733352,65.437017 28.876314,68.618422 30.475579,73.623409 C 32.41374,79.688979 28.936713,86.201323 23.420989,88.156274 C 16.917902,90.461179 9.9534308,86.08861 7.9333215,79.182666 C 5.6002108,71.206697 10.224252,62.721901 17.50162,60.316208 C 25.772894,57.581955 34.527253,63.195146 36.962562,72.003783 C 39.695212,81.88793 33.96123,92.307849 24.921104,95.160062 C 14.883019,98.327136 4.2940159,91.5145 1.4463405,80.802294 L 1.32471,80.846066 C 4.1926681,91.634569 14.849026,98.481972 24.961646,95.291384 C 34.072209,92.416948 39.839126,81.924759 37.084194,71.960009 C 34.934976,64.186173 27.8996,58.879533 20.582935,59.528282 z"
       style="fill:#000000;fill-opacity:1;fill-rule:evenodd;stroke:none;stroke-width:0.10416667;stroke-linecap:butt;stroke-linejoin:miter;stroke-opacity:1" />
    <path
       style="fill:#000000;fill-opacity:1;fill-rule:evenodd;stroke:none;stroke-width:0.10416667;stroke-linecap:butt;stroke-linejoin:miter;stroke-opacity:1"
       d="M 51.906166,63.662862 C 51.82139,63.6781 51.760605,63.716669 51.697714,63.760771 C 51.634822,63.804878 51.549223,63.870773 51.53095,63.956592 C 51.460211,64.288869 51.609079,64.630911 51.781097,64.984656 C 51.953113,65.338403 52.180439,65.675171 52.36476,65.963764 C 52.454654,66.104506 52.536075,66.265515 52.614903,66.404363 C 52.729967,66.607032 52.847846,66.791345 52.990119,66.991827 C 53.741258,68.05026 54.329812,69.159006 54.824502,70.320795 C 55.02766,70.797916 55.313129,71.487263 55.533239,72.181095 C 55.753345,72.874928 55.896341,73.559784 55.783381,74.090355 C 55.693276,74.513577 55.47289,74.822569 55.199714,75.069463 C 54.926538,75.316355 54.612986,75.502427 54.324213,75.705883 C 54.000228,75.934148 53.820293,76.120715 53.740547,76.391257 C 53.660803,76.661801 53.662444,77.009689 53.740547,77.468278 C 53.878924,78.280733 54.207798,78.879676 54.365904,79.622315 C 54.494821,80.227829 54.778145,80.9677 55.032953,81.67844 C 55.287762,82.38918 55.533239,83.107462 55.533239,83.685609 C 55.533239,83.893101 55.533239,84.065582 55.533239,84.273074 C 55.533239,85.715503 55.467036,86.612359 54.74112,87.748904 C 54.648839,87.893389 54.585837,88.078119 54.490977,88.189501 C 54.063106,88.691936 53.187371,88.776946 52.323073,88.581147 C 51.458771,88.385346 50.584665,87.899167 50.238548,87.357263 C 49.877652,86.792217 49.632183,85.755337 49.48812,84.909492 C 49.291725,83.756413 48.943932,83.193462 48.320784,82.461725 C 48.063755,82.159906 47.65127,81.68278 47.195142,81.286794 C 46.739015,80.89081 46.220954,80.552467 45.777665,80.552467 C 45.301798,80.552467 45.036119,80.555824 44.777096,80.650376 C 44.518071,80.744926 44.302681,80.962687 43.984977,81.335752 C 43.314011,82.123638 42.817642,83.658126 42.817642,84.811582 C 42.817642,85.384413 42.801312,86.017806 42.859333,86.622931 C 42.917356,87.228058 43.009584,87.816566 43.234549,88.189501 L 43.359618,88.091592 C 43.160584,87.761635 43.04126,87.215856 42.984406,86.622931 C 42.927555,86.030004 42.942715,85.383421 42.942715,84.811582 C 42.942715,83.714658 43.438109,82.173734 44.068359,81.433661 C 44.380963,81.066587 44.589956,80.880771 44.818787,80.797239 C 45.047616,80.713712 45.301222,80.748288 45.777665,80.748288 C 46.160504,80.748288 46.665568,81.0463 47.111764,81.433661 C 47.557957,81.821021 47.940518,82.259969 48.195715,82.559637 C 48.813223,83.284752 49.129391,83.782388 49.321359,84.909492 C 49.467734,85.768912 49.766108,86.84603 50.155165,87.455174 C 50.541317,88.059756 51.392976,88.526753 52.281382,88.728014 C 53.169784,88.929272 54.086949,88.85976 54.574355,88.287415 C 54.687746,88.154272 54.78177,87.97899 54.866189,87.846814 C 55.611507,86.679895 55.658308,85.720768 55.658308,84.273074 C 55.658308,84.065582 55.658308,83.893101 55.658308,83.685609 C 55.658308,83.059903 55.414464,82.295815 55.158023,81.580529 C 54.901586,80.86524 54.614194,80.201066 54.490977,79.622315 C 54.326683,78.850632 54.040143,78.199228 53.907309,77.41932 C 53.830314,76.967263 53.80093,76.708637 53.86562,76.489168 C 53.930308,76.269703 54.094008,76.073689 54.407595,75.85275 C 54.689624,75.654043 54.995354,75.476387 55.283096,75.216328 C 55.570834,74.956271 55.809095,74.606009 55.908455,74.139311 C 56.034477,73.547365 55.882576,72.83908 55.658308,72.132141 C 55.434044,71.425201 55.15162,70.697398 54.949571,70.222879 C 54.450214,69.050131 53.831184,67.961574 53.073501,66.893918 C 52.943863,66.71124 52.860517,66.518766 52.739976,66.306452 C 52.655444,66.157558 52.534954,66.00177 52.448143,65.865854 C 52.262313,65.574906 52.07079,65.225282 51.906166,64.886744 C 51.741546,64.548209 51.642057,64.218014 51.697714,63.956592 C 51.706262,63.916436 51.699571,63.886617 51.739406,63.858681 C 51.77924,63.830745 51.832596,63.822952 51.906166,63.809729 C 52.053306,63.783277 52.284276,63.782526 52.489834,63.809729 C 52.900942,63.86413 53.310139,64.021959 53.448717,64.054506 C 54.628416,64.331561 55.829055,64.823029 56.992406,65.27839 C 58.024231,65.682263 58.877621,65.873907 59.702286,66.600184 C 60.548464,67.345407 61.243053,68.211529 61.703427,69.292731 C 62.385978,70.895712 62.62931,72.438152 62.87076,74.139311 C 63.038073,75.318097 63.037523,76.648996 63.037523,77.859918 C 63.037523,78.670905 63.217448,79.439356 63.371046,80.160821 C 63.68043,81.614008 65.020425,82.804413 66.289382,82.804413 C 67.909393,82.804413 69.37866,83.636652 71.042094,83.636652 C 72.189628,83.636652 73.171845,82.960671 73.751975,81.825303 C 74.069343,81.204183 74.101749,80.350442 74.002117,79.475448 C 73.902487,78.600451 73.675759,77.73829 73.501832,77.12559 C 73.332832,76.530243 73.265748,76.147619 73.335071,75.95066 C 73.369731,75.852181 73.426329,75.772477 73.543523,75.705883 C 73.660717,75.639287 73.861986,75.611509 74.085499,75.559016 C 75.531039,75.219528 77.131341,75.461105 78.629759,75.461105 C 79.575951,75.461109 80.505482,75.559016 81.464712,75.559016 C 83.143548,75.559016 84.832404,75.85275 86.509261,75.85275 C 86.798149,75.85275 87.210459,76.195753 87.551523,76.587078 C 87.892582,76.978406 88.164115,77.4433 88.301951,77.713055 C 88.842081,78.77014 89.552662,80.000352 89.552662,81.188885 C 89.552662,81.666067 89.431881,81.982321 89.302521,82.314858 C 89.173159,82.647395 89.02444,82.98459 88.927307,83.440831 C 88.803895,84.020503 89.022996,84.633111 89.34421,85.15427 C 89.665428,85.675427 90.080535,86.116812 90.344785,86.42711 C 90.601703,86.728799 91.056472,86.901492 91.512116,87.014575 C 91.967765,87.127657 92.450252,87.161442 92.804523,87.161442 C 93.104995,87.161438 93.303266,87.299828 93.471568,87.504126 C 93.639871,87.708429 93.770997,88.011521 93.888476,88.287415 C 94.116078,88.821951 94.201639,89.024028 94.305379,89.511299 C 94.338202,89.665468 94.463195,89.794778 94.597212,89.902941 C 94.731228,90.011106 94.882134,90.06654 95.055807,90.147717 C 95.403157,90.310073 95.758873,90.439786 95.931306,90.490405 C 96.037462,90.521573 96.176594,90.497247 96.306522,90.490405 C 96.43645,90.483563 96.583435,90.490405 96.681734,90.490405 L 96.681734,90.343542 C 96.573164,90.343542 96.432401,90.33691 96.306522,90.343542 C 96.180639,90.35017 96.050341,90.366247 95.972997,90.343542 C 95.801424,90.293173 95.43326,90.157793 95.097496,90.000854 C 94.929616,89.92238 94.759082,89.853071 94.638904,89.756076 C 94.518719,89.659079 94.449708,89.5528 94.430452,89.462342 C 94.323539,88.960167 94.239907,88.721126 94.013545,88.189501 C 93.895181,87.91152 93.742642,87.634053 93.554951,87.406216 C 93.367259,87.178382 93.141352,87.014571 92.804523,87.014575 C 92.459609,87.014575 91.955113,86.977651 91.512116,86.867708 C 91.069121,86.757764 90.690126,86.587855 90.469854,86.329199 C 90.202659,86.015438 89.779807,85.560171 89.469284,85.056359 C 89.158758,84.552549 88.944606,83.995999 89.052379,83.489789 C 89.144745,83.055934 89.295103,82.704398 89.427593,82.363816 C 89.560082,82.023231 89.677735,81.69396 89.677735,81.188885 C 89.677735,79.927564 88.964796,78.667614 88.427024,77.615141 C 88.28015,77.327704 87.986218,76.843305 87.634901,76.440215 C 87.283588,76.03712 86.876878,75.705883 86.509261,75.705883 C 84.847113,75.705883 83.158115,75.412151 81.464712,75.412151 C 80.514056,75.412151 79.584565,75.265288 78.629759,75.265284 C 77.144006,75.265284 75.521154,75.065193 74.043808,75.412151 C 73.815388,75.465794 73.638403,75.481414 73.501832,75.559016 C 73.365261,75.63662 73.259421,75.761285 73.209998,75.901704 C 73.111154,76.182544 73.206138,76.573475 73.376763,77.174544 C 73.549187,77.781962 73.779351,78.617459 73.877048,79.475448 C 73.974739,80.333434 73.915088,81.212343 73.626905,81.776349 C 73.069879,82.866503 72.143964,83.489785 71.042094,83.489789 C 69.418505,83.489789 67.949318,82.65755 66.289382,82.657546 C 65.096285,82.657546 63.828806,81.478685 63.53781,80.111866 C 63.38295,79.384487 63.162594,78.638901 63.162594,77.859918 C 63.162594,76.648146 63.1658,75.287868 62.995834,74.090355 C 62.754404,72.38935 62.521767,70.822967 61.828501,69.194818 C 61.355644,68.084309 60.642417,67.25681 59.785666,66.502272 C 58.933979,65.752194 58.057175,65.531975 57.034095,65.131523 C 55.873499,64.67724 54.684711,64.139168 53.490404,63.858681 C 53.364981,63.829229 52.913581,63.718934 52.489834,63.662862 C 52.277959,63.634823 52.075715,63.632382 51.906166,63.662862 z"
       id="path_bottom"
       inkscape:label="#path2381" />
    <path
       inkscape:label="#path2381"
       id="path_top"
       d="M 51.906166,7.1366949 C 51.82139,7.1519328 51.760605,7.1905018 51.697714,7.2346043 C 51.634822,7.2787109 51.549223,7.3446062 51.53095,7.4304251 C 51.460211,7.762702 51.609079,8.1047439 51.781097,8.4584887 C 51.953113,8.8122355 52.180439,9.1490043 52.36476,9.4375966 C 52.454654,9.5783387 52.536075,9.7393474 52.614903,9.8781959 C 52.729967,10.080864 52.847846,10.265178 52.990119,10.46566 C 53.741258,11.524092 54.329812,12.632839 54.824502,13.794628 C 55.02766,14.271749 55.313129,14.961095 55.533239,15.654928 C 55.753345,16.34876 55.896341,17.033617 55.783381,17.564188 C 55.693276,17.98741 55.47289,18.296402 55.199714,18.543296 C 54.926538,18.790188 54.612986,18.97626 54.324213,19.179716 C 54.000228,19.407981 53.820293,19.594547 53.740547,19.86509 C 53.660803,20.135634 53.662444,20.483522 53.740547,20.942111 C 53.878924,21.754566 54.207798,22.353509 54.365904,23.096148 C 54.494821,23.701662 54.778145,24.441533 55.032953,25.152273 C 55.287762,25.863013 55.533239,26.581295 55.533239,27.159442 C 55.533239,27.366934 55.533239,27.539415 55.533239,27.746907 C 55.533239,29.189335 55.467036,30.086192 54.74112,31.222737 C 54.648839,31.367222 54.585837,31.551951 54.490977,31.663334 C 54.063106,32.165769 53.187371,32.250778 52.323073,32.05498 C 51.458771,31.859179 50.584665,31.373 50.238548,30.831095 C 49.877652,30.26605 49.632183,29.22917 49.48812,28.383325 C 49.291725,27.230245 48.943932,26.667295 48.320784,25.935558 C 48.063755,25.633738 47.65127,25.156613 47.195142,24.760627 C 46.739015,24.364643 46.220954,24.0263 45.777665,24.0263 C 45.301798,24.0263 45.036119,24.029657 44.777096,24.124209 C 44.518071,24.218759 44.302681,24.43652 43.984977,24.809585 C 43.314011,25.597471 42.817642,27.131958 42.817642,28.285415 C 42.817642,28.858245 42.801312,29.491639 42.859333,30.096764 C 42.917356,30.701891 43.009584,31.290399 43.234549,31.663334 L 43.359618,31.565425 C 43.160584,31.235468 43.04126,30.689689 42.984406,30.096764 C 42.927555,29.503837 42.942715,28.857254 42.942715,28.285415 C 42.942715,27.188491 43.438109,25.647567 44.068359,24.907494 C 44.380963,24.540419 44.589956,24.354604 44.818787,24.271072 C 45.047616,24.187545 45.301222,24.222121 45.777665,24.222121 C 46.160504,24.222121 46.665568,24.520133 47.111764,24.907494 C 47.557957,25.294854 47.940518,25.733802 48.195715,26.033469 C 48.813223,26.758585 49.129391,27.256221 49.321359,28.383325 C 49.467734,29.242744 49.766108,30.319863 50.155165,30.929007 C 50.541317,31.533589 51.392976,32.000586 52.281382,32.201847 C 53.169784,32.403104 54.086949,32.333593 54.574355,31.761248 C 54.687746,31.628104 54.78177,31.452823 54.866189,31.320646 C 55.611507,30.153728 55.658308,29.1946 55.658308,27.746907 C 55.658308,27.539415 55.658308,27.366934 55.658308,27.159442 C 55.658308,26.533736 55.414464,25.769648 55.158023,25.054361 C 54.901586,24.339073 54.614194,23.674899 54.490977,23.096148 C 54.326683,22.324464 54.040143,21.673061 53.907309,20.893153 C 53.830314,20.441095 53.80093,20.18247 53.86562,19.963001 C 53.930308,19.743536 54.094008,19.547522 54.407595,19.326583 C 54.689624,19.127875 54.995354,18.95022 55.283096,18.690161 C 55.570834,18.430104 55.809095,18.079842 55.908455,17.613144 C 56.034477,17.021198 55.882576,16.312913 55.658308,15.605974 C 55.434044,14.899034 55.15162,14.171231 54.949571,13.696712 C 54.450214,12.523964 53.831184,11.435407 53.073501,10.367751 C 52.943863,10.185072 52.860517,9.9925988 52.739976,9.7802845 C 52.655444,9.6313905 52.534954,9.4756024 52.448143,9.3396872 C 52.262313,9.048739 52.07079,8.6991145 51.906166,8.3605773 C 51.741546,8.0220421 51.642057,7.6918465 51.697714,7.4304251 C 51.706262,7.3902693 51.699571,7.3604497 51.739406,7.3325137 C 51.77924,7.3045776 51.832596,7.2967851 51.906166,7.283562 C 52.053306,7.2571098 52.284276,7.2563588 52.489834,7.283562 C 52.900942,7.3379624 53.310139,7.4957915 53.448717,7.5283385 C 54.628416,7.8053934 55.829055,8.2968622 56.992406,8.7522229 C 58.024231,9.1560963 58.877621,9.3477402 59.702286,10.074017 C 60.548464,10.819239 61.243053,11.685362 61.703427,12.766564 C 62.385978,14.369545 62.62931,15.911985 62.87076,17.613144 C 63.038073,18.79193 63.037523,20.122829 63.037523,21.333751 C 63.037523,22.144738 63.217448,22.913189 63.371046,23.634654 C 63.68043,25.087841 65.020425,26.278246 66.289382,26.278246 C 67.909393,26.278246 69.37866,27.110485 71.042094,27.110485 C 72.189628,27.110485 73.171845,26.434504 73.751975,25.299136 C 74.069343,24.678016 74.101749,23.824275 74.002117,22.949281 C 73.902487,22.074284 73.675759,21.212122 73.501832,20.599423 C 73.332832,20.004075 73.265748,19.621452 73.335071,19.424492 C 73.369731,19.326014 73.426329,19.24631 73.543523,19.179716 C 73.660717,19.11312 73.861986,19.085341 74.085499,19.032849 C 75.531039,18.693361 77.131341,18.934937 78.629759,18.934937 C 79.575951,18.934942 80.505482,19.032849 81.464712,19.032849 C 83.143548,19.032849 84.832404,19.326583 86.509261,19.326583 C 86.798149,19.326583 87.210459,19.669586 87.551523,20.06091 C 87.892582,20.452239 88.164115,20.917133 88.301951,21.186887 C 88.842081,22.243973 89.552662,23.474185 89.552662,24.662718 C 89.552662,25.1399 89.431881,25.456153 89.302521,25.788691 C 89.173159,26.121228 89.02444,26.458423 88.927307,26.914664 C 88.803895,27.494336 89.022996,28.106944 89.34421,28.628103 C 89.665428,29.14926 90.080535,29.590645 90.344785,29.900943 C 90.601703,30.202631 91.056472,30.375325 91.512116,30.488408 C 91.967765,30.60149 92.450252,30.635275 92.804523,30.635275 C 93.104995,30.635271 93.303266,30.773661 93.471568,30.977959 C 93.639871,31.182262 93.770997,31.485354 93.888476,31.761248 C 94.116078,32.295783 94.201639,32.49786 94.305379,32.985132 C 94.338202,33.139301 94.463195,33.268611 94.597212,33.376774 C 94.731228,33.484938 94.882134,33.540372 95.055807,33.62155 C 95.403157,33.783905 95.758873,33.913619 95.931306,33.964238 C 96.037462,33.995406 96.176594,33.97108 96.306522,33.964238 C 96.43645,33.957396 96.583435,33.964238 96.681734,33.964238 L 96.681734,33.817375 C 96.573164,33.817375 96.432401,33.810743 96.306522,33.817375 C 96.180639,33.824003 96.050341,33.84008 95.972997,33.817375 C 95.801424,33.767006 95.43326,33.631626 95.097496,33.474687 C 94.929616,33.396213 94.759082,33.326903 94.638904,33.229909 C 94.518719,33.132912 94.449708,33.026632 94.430452,32.936174 C 94.323539,32.434 94.239907,32.194959 94.013545,31.663334 C 93.895181,31.385353 93.742642,31.107886 93.554951,30.880049 C 93.367259,30.652214 93.141352,30.488404 92.804523,30.488408 C 92.459609,30.488408 91.955113,30.451484 91.512116,30.34154 C 91.069121,30.231597 90.690126,30.061688 90.469854,29.803032 C 90.202659,29.489271 89.779807,29.034003 89.469284,28.530192 C 89.158758,28.026382 88.944606,27.469832 89.052379,26.963622 C 89.144745,26.529767 89.295103,26.178231 89.427593,25.837649 C 89.560082,25.497064 89.677735,25.167793 89.677735,24.662718 C 89.677735,23.401397 88.964796,22.141447 88.427024,21.088974 C 88.28015,20.801536 87.986218,20.317138 87.634901,19.914047 C 87.283588,19.510953 86.876878,19.179716 86.509261,19.179716 C 84.847113,19.179716 83.158115,18.885984 81.464712,18.885984 C 80.514056,18.885984 79.584565,18.739121 78.629759,18.739117 C 77.144006,18.739117 75.521154,18.539026 74.043808,18.885984 C 73.815388,18.939627 73.638403,18.955247 73.501832,19.032849 C 73.365261,19.110453 73.259421,19.235118 73.209998,19.375537 C 73.111154,19.656377 73.206138,20.047308 73.376763,20.648377 C 73.549187,21.255795 73.779351,22.091292 73.877048,22.949281 C 73.974739,23.807267 73.915088,24.686176 73.626905,25.250182 C 73.069879,26.340336 72.143964,26.963617 71.042094,26.963622 C 69.418505,26.963622 67.949318,26.131383 66.289382,26.131379 C 65.096285,26.131379 63.828806,24.952517 63.53781,23.585699 C 63.38295,22.85832 63.162594,22.112734 63.162594,21.333751 C 63.162594,20.121979 63.1658,18.761701 62.995834,17.564188 C 62.754404,15.863182 62.521767,14.2968 61.828501,12.66865 C 61.355644,11.558141 60.642417,10.730643 59.785666,9.9761052 C 58.933979,9.2260272 58.057175,9.0058073 57.034095,8.6053558 C 55.873499,8.1510731 54.684711,7.6130006 53.490404,7.3325137 C 53.364981,7.3030615 52.913581,7.1927669 52.489834,7.1366949 C 52.277959,7.1086559 52.075715,7.1062152 51.906166,7.1366949 z"
       style="fill:#000000;fill-opacity:1;fill-rule:evenodd;stroke:none;stroke-width:0.10416667;stroke-linecap:butt;stroke-linejoin:miter;stroke-opacity:1" />
    <path
       style="fill:#000000;fill-opacity:1;fill-rule:evenodd;stroke:none;stroke-width:0.10416667;stroke-linecap:butt;stroke-linejoin:miter;stroke-opacity:1"
       d="M 20.582935,3.0021147 C 19.537697,3.0947913 18.504333,3.3138464 17.461075,3.6587206 C 10.113885,6.0874966 5.4549002,14.643352 7.811691,22.700273 C 9.8537221,29.681159 16.883236,34.136762 23.461533,31.805201 C 29.046163,29.825828 32.56142,23.200564 30.597211,17.053468 C 28.974399,11.974794 23.76873,8.7493138 18.96119,10.662511 C 15.137293,12.184258 12.713513,16.892788 14.298672,21.12442 C 15.489768,24.304088 18.975621,26.322144 22.001961,24.801411 C 23.036082,24.281766 23.876749,23.29692 24.31295,22.174989 C 24.749151,21.05306 24.778316,19.773414 24.150774,18.629319 C 23.796834,17.98404 23.143547,17.421964 22.44794,17.184788 C 21.752338,16.947615 20.995404,17.035854 20.420759,17.666301 C 20.192261,17.916986 20.031831,18.41435 20.055867,18.848188 C 20.067884,19.065107 20.128332,19.281572 20.258586,19.417247 C 20.38884,19.55292 20.608312,19.612868 20.866741,19.548569 L 20.826195,19.417247 C 20.597356,19.474185 20.434875,19.428861 20.339675,19.3297 C 20.244471,19.230537 20.188264,19.042513 20.177499,18.848188 C 20.155966,18.45954 20.320083,17.997035 20.501848,17.797619 C 21.038994,17.208313 21.746732,17.134621 22.407399,17.359884 C 23.068064,17.585145 23.694419,18.106619 24.029144,18.716868 C 24.633461,19.818623 24.613957,21.044163 24.191318,22.131216 C 23.768678,23.218268 22.922579,24.166731 21.920874,24.670088 C 18.971902,26.151946 15.584607,24.18879 14.420303,21.080647 C 12.866088,16.93162 15.245228,12.288758 19.001733,10.793829 C 23.733352,8.9108494 28.876314,12.092255 30.475579,17.097241 C 32.41374,23.162812 28.936713,29.675156 23.420989,31.630107 C 16.917902,33.935012 9.9534308,29.562442 7.9333215,22.656499 C 5.6002108,14.68053 10.224252,6.1957341 17.50162,3.790041 C 25.772894,1.0557875 34.527253,6.6689792 36.962562,15.477615 C 39.695212,25.361763 33.96123,35.781681 24.921104,38.633895 C 14.883019,41.800969 4.2940159,34.988333 1.4463405,24.276127 L 1.32471,24.319899 C 4.1926681,35.108402 14.849026,41.955805 24.961646,38.765217 C 34.072209,35.890781 39.839126,25.398592 37.084194,15.433842 C 34.934976,7.6600061 27.8996,2.3533659 20.582935,3.0021147 z"
       id="spirale_top"
       inkscape:label="#path2409" />
    <g
       id="rocket1">
      <g
         transform="matrix(0,-1,1,0,-3.7610625,28.295039)"
         inkscape:label="#g2644"
         id="g3097">
        <g
           transform="matrix(0.0234341,0,0,0.0234341,20.842652,13.581397)"
           id="g2454"
           inkscape:label="Taso 1">
          <g
             id="g3243">
            <path
               sodipodi:nodetypes="cccccc"
               id="path3217"
               d="m -367.54018,-263.72321 c -30.79051,24.50568 -267.45712,229.895855 -88.1875,623.21875 l 178.59375,0 0.65625,0 c 179.268784,-393.321053 -57.39622,-598.68073 -88.1875,-623.1875 l -2.875,-0.0312 z"
               style="fill:#ececec;fill-rule:evenodd;stroke:#000000;stroke-width:10;stroke-linecap:butt;stroke-linejoin:miter;stroke-opacity:1" />
            <path
               style="fill:#cccccc;fill-opacity:1;fill-rule:nonzero;stroke:none"
               d="m -360.11794,-9.07503 c -37.29332,0 -67.62499,30.362935 -67.625,67.65625 0,37.29332 30.33168,67.62501 67.625,67.625 37.29332,0 67.65624,-30.33168 67.65625,-67.625 0,-37.293316 -30.36293,-67.65625 -67.65625,-67.65625 z m 0,8 c 32.96481,0 59.65625,26.691436 59.65625,59.65625 -1e-5,32.96481 -26.69144,59.625 -59.65625,59.625 -32.96481,1e-5 -59.625,-26.66019 -59.625,-59.625 10e-6,-32.964815 26.66019,-59.65625 59.625,-59.65625 z"
               id="path3219" />
            <path
               style="fill:#ff0000;fill-rule:evenodd;stroke:#000000;stroke-width:1px;stroke-linecap:butt;stroke-linejoin:miter;stroke-opacity:1"
               d="m -486.89353,-102.24218 43.43656,-79.80205 60.60916,-68.69037 17.17259,-13.13198 64.64976,67.68022 50.50763,81.82235 4.04061,17.172596 -241.42646,-1.010153"
               id="path2419"
               sodipodi:nodetypes="cccccccc" />
            <path
               style="fill:#ff0000;fill-rule:evenodd;stroke:#000000;stroke-width:10;stroke-linecap:butt;stroke-linejoin:miter;stroke-opacity:1"
               d="m -511.13719,201.81368 c 0,0 -107.07617,-1.3336 -42.4264,270.72095 0,0 6.06092,-227.15998 62.62946,-199.15436"
               id="path2408"
               sodipodi:nodetypes="css" />
            <path
               sodipodi:nodetypes="css"
               id="path2410"
               d="m -220.75895,201.81368 c 0,0 107.07617,-1.3336 42.4264,270.72095 0,0 -6.06092,-227.15998 -62.62946,-199.15436"
               style="fill:#ff0000;fill-rule:evenodd;stroke:#000000;stroke-width:10;stroke-linecap:butt;stroke-linejoin:miter;stroke-opacity:1" />
            <path
               style="fill:#b3b3b3;fill-rule:evenodd;stroke:#000000;stroke-width:1px;stroke-linecap:butt;stroke-linejoin:miter;stroke-opacity:1"
               d="m -481.84276,303.83915 26.26396,55.55839 179.80716,-1.01016 21.2132,-54.54823 -227.28432,0 z"
               id="path2423" />
            <path
               style="fill:#d20000;fill-opacity:1;fill-rule:evenodd;stroke:none"
               d="m -195.96959,229.08786 -20.20305,50.50763 -12.12184,-10.10153 -14.14213,6.06092 19.1929,-75.76145 34.34518,17.1726 c 0,0 59.59901,41.41625 13.13199,247.48737 27.27412,-213.14219 -21.21321,-235.36554 -20.20305,-235.36554 z"
               id="path3209"
               sodipodi:nodetypes="cccccccc" />
            <path
               style="fill:#d20000;fill-opacity:1;fill-rule:evenodd;stroke:none"
               d="m -556.59405,469.50416 c 0,0 -10.06091,-220.36876 58.58885,-221.2234 7.57556,-0.0943 7.07106,24.24366 7.07106,24.24366 l -27.27412,6.06091 -21.2132,66.67007 -17.17259,124.24876 z"
               id="path3213"
               sodipodi:nodetypes="cscccc" />
            <path
               style="fill:#999999;fill-opacity:1;fill-rule:evenodd;stroke:none"
               d="m -320.4375,303.84375 c 4.05292,12.21022 6.44802,29.24768 5.28125,53.53125 0.8622,0.30381 1.77545,0.73001 2.71875,1.21875 l 36.65625,-0.21875 17.09375,-43.9375 c -0.68954,-3.75421 -1.48627,-7.10475 -2.25,-10.59375 l -59.5,0 z"
               id="path3232" />
            <path
               style="fill:#cccccc;fill-opacity:1;fill-rule:evenodd;stroke:none"
               d="m -346.46717,197.19765 c -6.81853,-0.50507 -11.125,0.5625 -11.125,0.5625 l -5.0625,77.78125 c 0,0 24.33536,-4.80543 35.8125,28.3125 l 59.625,0 c -19.36577,-90.30874 -59.66683,-105.20565 -79.25,-106.65625 z"
               id="path3227" />
            <path
               style="fill:#cccccc;fill-rule:evenodd;stroke:none"
               d="m -479,308.36218 20,50 28,2 -8,-57 -40,5 z"
               id="path3241" />
            <path
               style="fill:none;stroke:#000000;stroke-width:10;stroke-linecap:butt;stroke-linejoin:miter;stroke-opacity:1"
               d="m -367.54018,-263.72321 c -30.79051,24.50568 -267.45712,229.895855 -88.1875,623.21875 l 178.59375,0 0.65625,0 c 179.268784,-393.321053 -57.39622,-598.68073 -88.1875,-623.1875 l -2.875,-0.0312 z"
               id="path2382"
               sodipodi:nodetypes="cccccc" />
            <path
               style="fill:none;stroke:#000000;stroke-width:10;stroke-linecap:butt;stroke-linejoin:miter;stroke-opacity:1"
               d="m -486.89353,-100.22187 237.38585,0"
               id="path2394" />
            <path
               sodipodi:type="arc"
               style="fill:#b3b3b3;fill-opacity:1;fill-rule:nonzero;stroke:#000000;stroke-width:8;stroke-linecap:round;stroke-linejoin:miter;stroke-miterlimit:4;stroke-opacity:1;stroke-dasharray:none"
               id="path2400"
               sodipodi:cx="-296.98486"
               sodipodi:cy="70.493912"
               sodipodi:rx="63.63961"
               sodipodi:ry="63.63961"
               d="m -233.34525,70.493912 a 63.63961,63.63961 0 1 1 -127.27922,0 63.63961,63.63961 0 1 1 127.27922,0 z"
               transform="translate(-69.117936,-17.91878)" />
            <path
               transform="matrix(0.6507937,0,0,0.6507937,-172.82694,6.698142)"
               d="m -233.34525,70.493912 a 63.63961,63.63961 0 1 1 -127.27922,0 63.63961,63.63961 0 1 1 127.27922,0 z"
               sodipodi:ry="63.63961"
               sodipodi:rx="63.63961"
               sodipodi:cy="70.493912"
               sodipodi:cx="-296.98486"
               id="path2402"
               style="fill:#80e5ff;fill-opacity:1;fill-rule:nonzero;stroke:#000000;stroke-width:12.29268265;stroke-linecap:round;stroke-linejoin:miter;stroke-miterlimit:4;stroke-opacity:1;stroke-dasharray:none"
               sodipodi:type="arc" />
            <path
               style="fill:none;stroke:#000000;stroke-width:10;stroke-linecap:butt;stroke-linejoin:miter;stroke-opacity:1"
               d="m -478.81231,304.8493 224.25387,0"
               id="path2417" />
            <path
               style="fill:#ff0000;fill-opacity:1;fill-rule:nonzero;stroke:#000000;stroke-width:10;stroke-linecap:round;stroke-linejoin:miter;stroke-miterlimit:4;stroke-opacity:1"
               d="m -375.19417,199.79343 18.18275,0 0,272.74117 -18.18275,0 0,-272.74117 z"
               id="rect2414" />
            <path
               style="fill:#cccccc;fill-rule:evenodd;stroke:none"
               d="m -264.65997,291.71732 c 0,0 80.8122,-185.86807 16.16244,-364.665073 3.03046,317.187903 -83.84266,364.665073 -83.84266,364.665073 l 67.68022,0 z"
               id="path2425"
               sodipodi:nodetypes="cccc" />
            <rect
               style="fill:#ffffff;fill-opacity:1;fill-rule:nonzero;stroke:none"
               id="rect2429"
               width="34.470276"
               height="83.713531"
               x="-240.60968"
               y="254.63054"
               transform="matrix(0.7038943,0.7103048,-0.7038943,0.7103048,0,0)" />
            <path
               sodipodi:type="arc"
               style="fill:none;stroke:#000000;stroke-width:12.29268265;stroke-linecap:round;stroke-linejoin:miter;stroke-miterlimit:4;stroke-opacity:1;stroke-dasharray:none"
               id="path2431"
               sodipodi:cx="-296.98486"
               sodipodi:cy="70.493912"
               sodipodi:rx="63.63961"
               sodipodi:ry="63.63961"
               d="m -233.34525,70.493912 a 63.63961,63.63961 0 1 1 -127.27922,0 63.63961,63.63961 0 1 1 127.27922,0 z"
               transform="matrix(0.6507937,0,0,0.6507937,-172.82694,6.698142)" />
            <path
               style="fill:#d20000;fill-opacity:1;fill-rule:evenodd;stroke:none"
               d="m -273.75134,-115.37416 c 0,0 -31.31473,-81.82237 -90.91373,-125.25892 54.54824,105.05587 26.26397,125.25893 26.26397,125.25893 l 64.64976,-1e-5 z"
               id="path2437"
               sodipodi:nodetypes="cccc" />
            <path
               style="fill:none;stroke:#000000;stroke-width:10;stroke-linecap:butt;stroke-linejoin:miter;stroke-opacity:1"
               d="m -220.75895,201.81368 c 0,0 107.07617,-1.3336 42.4264,270.72095 0,0 -6.06092,-227.15998 -62.62946,-199.15436"
               id="path3211"
               sodipodi:nodetypes="css" />
            <path
               sodipodi:nodetypes="css"
               id="path3215"
               d="m -511.13719,201.81368 c 0,0 -107.07617,-1.3336 -42.4264,270.72095 0,0 6.06092,-227.15998 62.62946,-199.15436"
               style="fill:none;stroke:#000000;stroke-width:10;stroke-linecap:butt;stroke-linejoin:miter;stroke-opacity:1" />
            <path
               style="fill:#ffffff;fill-rule:evenodd;stroke:none"
               d="m -472.75139,-118.40461 c 0,0 53.53808,-104.04571 97.98479,-131.31983 44.44671,-27.27412 -96.97464,133.34013 -97.98479,131.31983 z"
               id="path3237" />
            <path
               style="fill:#ffffff;fill-rule:evenodd;stroke:none"
               d="m -504.28571,158.07647 c -3.16384,-1.7567 -22.7241,-145.960818 25.71428,-235.714288 29.86695,-24.039182 70.50234,-11.396786 68.57143,-1.428572 -16.72675,86.3507405 -75.46947,247.59042 -94.28571,237.14286 z"
               id="path3239"
               sodipodi:nodetypes="ccss" />
          </g>
        </g>
      </g>
    </g>
    <g
       id="rocket3">
      <g
         transform="matrix(0,-1,1,0,76.633511,101.29134)"
         inkscape:label="#g2673"
         id="g3129">
        <g
           inkscape:label="Taso 1"
           id="g2482"
           transform="matrix(0.0234341,0,0,0.0234341,97.53809,9.882261)">
          <g
             id="g2484">
            <path
               style="fill:#ececec;fill-rule:evenodd;stroke:#000000;stroke-width:10;stroke-linecap:butt;stroke-linejoin:miter;stroke-opacity:1"
               d="m -367.54018,-263.72321 c -30.79051,24.50568 -267.45712,229.895855 -88.1875,623.21875 l 178.59375,0 0.65625,0 c 179.268784,-393.321053 -57.39622,-598.68073 -88.1875,-623.1875 l -2.875,-0.0312 z"
               id="path2486"
               sodipodi:nodetypes="cccccc" />
            <path
               id="path2488"
               d="m -360.11794,-9.07503 c -37.29332,0 -67.62499,30.362935 -67.625,67.65625 0,37.29332 30.33168,67.62501 67.625,67.625 37.29332,0 67.65624,-30.33168 67.65625,-67.625 0,-37.293316 -30.36293,-67.65625 -67.65625,-67.65625 z m 0,8 c 32.96481,0 59.65625,26.691436 59.65625,59.65625 -1e-5,32.96481 -26.69144,59.625 -59.65625,59.625 -32.96481,1e-5 -59.625,-26.66019 -59.625,-59.625 10e-6,-32.964815 26.66019,-59.65625 59.625,-59.65625 z"
               style="fill:#cccccc;fill-opacity:1;fill-rule:nonzero;stroke:none" />
            <path
               sodipodi:nodetypes="cccccccc"
               id="path2490"
               d="m -486.89353,-102.24218 43.43656,-79.80205 60.60916,-68.69037 17.17259,-13.13198 64.64976,67.68022 50.50763,81.82235 4.04061,17.172596 -241.42646,-1.010153"
               style="fill:#ff0000;fill-rule:evenodd;stroke:#000000;stroke-width:1px;stroke-linecap:butt;stroke-linejoin:miter;stroke-opacity:1" />
            <path
               sodipodi:nodetypes="css"
               id="path2492"
               d="m -511.13719,201.81368 c 0,0 -107.07617,-1.3336 -42.4264,270.72095 0,0 6.06092,-227.15998 62.62946,-199.15436"
               style="fill:#ff0000;fill-rule:evenodd;stroke:#000000;stroke-width:10;stroke-linecap:butt;stroke-linejoin:miter;stroke-opacity:1" />
            <path
               style="fill:#ff0000;fill-rule:evenodd;stroke:#000000;stroke-width:10;stroke-linecap:butt;stroke-linejoin:miter;stroke-opacity:1"
               d="m -220.75895,201.81368 c 0,0 107.07617,-1.3336 42.4264,270.72095 0,0 -6.06092,-227.15998 -62.62946,-199.15436"
               id="path2494"
               sodipodi:nodetypes="css" />
            <path
               id="path2496"
               d="m -481.84276,303.83915 26.26396,55.55839 179.80716,-1.01016 21.2132,-54.54823 -227.28432,0 z"
               style="fill:#b3b3b3;fill-rule:evenodd;stroke:#000000;stroke-width:1px;stroke-linecap:butt;stroke-linejoin:miter;stroke-opacity:1" />
            <path
               sodipodi:nodetypes="cccccccc"
               id="path2498"
               d="m -195.96959,229.08786 -20.20305,50.50763 -12.12184,-10.10153 -14.14213,6.06092 19.1929,-75.76145 34.34518,17.1726 c 0,0 59.59901,41.41625 13.13199,247.48737 27.27412,-213.14219 -21.21321,-235.36554 -20.20305,-235.36554 z"
               style="fill:#d20000;fill-opacity:1;fill-rule:evenodd;stroke:none" />
            <path
               sodipodi:nodetypes="cscccc"
               id="path2500"
               d="m -556.59405,469.50416 c 0,0 -10.06091,-220.36876 58.58885,-221.2234 7.57556,-0.0943 7.07106,24.24366 7.07106,24.24366 l -27.27412,6.06091 -21.2132,66.67007 -17.17259,124.24876 z"
               style="fill:#d20000;fill-opacity:1;fill-rule:evenodd;stroke:none" />
            <path
               id="path2502"
               d="m -320.4375,303.84375 c 4.05292,12.21022 6.44802,29.24768 5.28125,53.53125 0.8622,0.30381 1.77545,0.73001 2.71875,1.21875 l 36.65625,-0.21875 17.09375,-43.9375 c -0.68954,-3.75421 -1.48627,-7.10475 -2.25,-10.59375 l -59.5,0 z"
               style="fill:#999999;fill-opacity:1;fill-rule:evenodd;stroke:none" />
            <path
               id="path2504"
               d="m -346.46717,197.19765 c -6.81853,-0.50507 -11.125,0.5625 -11.125,0.5625 l -5.0625,77.78125 c 0,0 24.33536,-4.80543 35.8125,28.3125 l 59.625,0 c -19.36577,-90.30874 -59.66683,-105.20565 -79.25,-106.65625 z"
               style="fill:#cccccc;fill-opacity:1;fill-rule:evenodd;stroke:none" />
            <path
               id="path2506"
               d="m -479,308.36218 20,50 28,2 -8,-57 -40,5 z"
               style="fill:#cccccc;fill-rule:evenodd;stroke:none" />
            <path
               sodipodi:nodetypes="cccccc"
               id="path2508"
               d="m -367.54018,-263.72321 c -30.79051,24.50568 -267.45712,229.895855 -88.1875,623.21875 l 178.59375,0 0.65625,0 c 179.268784,-393.321053 -57.39622,-598.68073 -88.1875,-623.1875 l -2.875,-0.0312 z"
               style="fill:none;stroke:#000000;stroke-width:10;stroke-linecap:butt;stroke-linejoin:miter;stroke-opacity:1" />
            <path
               id="path2510"
               d="m -486.89353,-100.22187 237.38585,0"
               style="fill:none;stroke:#000000;stroke-width:10;stroke-linecap:butt;stroke-linejoin:miter;stroke-opacity:1" />
            <path
               transform="translate(-69.117936,-17.91878)"
               d="m -233.34525,70.493912 a 63.63961,63.63961 0 1 1 -127.27922,0 63.63961,63.63961 0 1 1 127.27922,0 z"
               sodipodi:ry="63.63961"
               sodipodi:rx="63.63961"
               sodipodi:cy="70.493912"
               sodipodi:cx="-296.98486"
               id="path2512"
               style="fill:#b3b3b3;fill-opacity:1;fill-rule:nonzero;stroke:#000000;stroke-width:8;stroke-linecap:round;stroke-linejoin:miter;stroke-miterlimit:4;stroke-opacity:1;stroke-dasharray:none"
               sodipodi:type="arc" />
            <path
               sodipodi:type="arc"
               style="fill:#80e5ff;fill-opacity:1;fill-rule:nonzero;stroke:#000000;stroke-width:12.29268265;stroke-linecap:round;stroke-linejoin:miter;stroke-miterlimit:4;stroke-opacity:1;stroke-dasharray:none"
               id="path2514"
               sodipodi:cx="-296.98486"
               sodipodi:cy="70.493912"
               sodipodi:rx="63.63961"
               sodipodi:ry="63.63961"
               d="m -233.34525,70.493912 a 63.63961,63.63961 0 1 1 -127.27922,0 63.63961,63.63961 0 1 1 127.27922,0 z"
               transform="matrix(0.6507937,0,0,0.6507937,-172.82694,6.698142)" />
            <path
               id="path2516"
               d="m -478.81231,304.8493 224.25387,0"
               style="fill:none;stroke:#000000;stroke-width:10;stroke-linecap:butt;stroke-linejoin:miter;stroke-opacity:1" />
            <path
               id="path2518"
               d="m -375.19417,199.79343 18.18275,0 0,272.74117 -18.18275,0 0,-272.74117 z"
               style="fill:#ff0000;fill-opacity:1;fill-rule:nonzero;stroke:#000000;stroke-width:10;stroke-linecap:round;stroke-linejoin:miter;stroke-miterlimit:4;stroke-opacity:1" />
            <path
               sodipodi:nodetypes="cccc"
               id="path2520"
               d="m -264.65997,291.71732 c 0,0 80.8122,-185.86807 16.16244,-364.665073 3.03046,317.187903 -83.84266,364.665073 -83.84266,364.665073 l 67.68022,0 z"
               style="fill:#cccccc;fill-rule:evenodd;stroke:none" />
            <rect
               transform="matrix(0.7038943,0.7103048,-0.7038943,0.7103048,0,0)"
               y="254.63054"
               x="-240.60968"
               height="83.713531"
               width="34.470276"
               id="rect2522"
               style="fill:#ffffff;fill-opacity:1;fill-rule:nonzero;stroke:none" />
            <path
               transform="matrix(0.6507937,0,0,0.6507937,-172.82694,6.698142)"
               d="m -233.34525,70.493912 a 63.63961,63.63961 0 1 1 -127.27922,0 63.63961,63.63961 0 1 1 127.27922,0 z"
               sodipodi:ry="63.63961"
               sodipodi:rx="63.63961"
               sodipodi:cy="70.493912"
               sodipodi:cx="-296.98486"
               id="path2524"
               style="fill:none;stroke:#000000;stroke-width:12.29268265;stroke-linecap:round;stroke-linejoin:miter;stroke-miterlimit:4;stroke-opacity:1;stroke-dasharray:none"
               sodipodi:type="arc" />
            <path
               sodipodi:nodetypes="cccc"
               id="path2526"
               d="m -273.75134,-115.37416 c 0,0 -31.31473,-81.82237 -90.91373,-125.25892 54.54824,105.05587 26.26397,125.25893 26.26397,125.25893 l 64.64976,-1e-5 z"
               style="fill:#d20000;fill-opacity:1;fill-rule:evenodd;stroke:none" />
            <path
               sodipodi:nodetypes="css"
               id="path2528"
               d="m -220.75895,201.81368 c 0,0 107.07617,-1.3336 42.4264,270.72095 0,0 -6.06092,-227.15998 -62.62946,-199.15436"
               style="fill:none;stroke:#000000;stroke-width:10;stroke-linecap:butt;stroke-linejoin:miter;stroke-opacity:1" />
            <path
               style="fill:none;stroke:#000000;stroke-width:10;stroke-linecap:butt;stroke-linejoin:miter;stroke-opacity:1"
               d="m -511.13719,201.81368 c 0,0 -107.07617,-1.3336 -42.4264,270.72095 0,0 6.06092,-227.15998 62.62946,-199.15436"
               id="path2530"
               sodipodi:nodetypes="css" />
            <path
               id="path2532"
               d="m -472.75139,-118.40461 c 0,0 53.53808,-104.04571 97.98479,-131.31983 44.44671,-27.27412 -96.97464,133.34013 -97.98479,131.31983 z"
               style="fill:#ffffff;fill-rule:evenodd;stroke:none" />
            <path
               sodipodi:nodetypes="ccss"
               id="path2534"
               d="m -504.28571,158.07647 c -3.16384,-1.7567 -22.7241,-145.960818 25.71428,-235.714288 29.86695,-24.039182 70.50234,-11.396786 68.57143,-1.428572 -16.72675,86.3507405 -75.46947,247.59042 -94.28571,237.14286 z"
               style="fill:#ffffff;fill-rule:evenodd;stroke:none" />
          </g>
        </g>
      </g>
    </g>
    <g
       id="rocket4"
       inkscape:label="#g2702">
      <g
         inkscape:label="Taso 1"
         id="g2536"
         style="opacity:1"
         transform="matrix(0,-2.34341e-2,2.34341e-2,0,83.433158,54.80134)">
        <g
           id="g2538">
          <path
             style="fill:#ececec;fill-rule:evenodd;stroke:#000000;stroke-width:10;stroke-linecap:butt;stroke-linejoin:miter;stroke-opacity:1"
             d="M -367.54018,-263.72321 C -398.33069,-239.21753 -634.9973,-33.827355 -455.72768,359.49554 L -277.13393,359.49554 L -276.47768,359.49554 C -97.208896,-33.825513 -333.8739,-239.18519 -364.66518,-263.69196 L -367.54018,-263.72321 z"
             id="path2540"
             sodipodi:nodetypes="cccccc" />
          <path
             id="path2542"
             d="M -360.11794,-9.07503 C -397.41126,-9.07503 -427.74293,21.287905 -427.74294,58.58122 C -427.74294,95.87454 -397.41126,126.20623 -360.11794,126.20622 C -322.82462,126.20622 -292.4617,95.87454 -292.46169,58.58122 C -292.46169,21.287904 -322.82462,-9.07503 -360.11794,-9.07503 z M -360.11794,-1.07503 C -327.15313,-1.07503 -300.46169,25.616406 -300.46169,58.58122 C -300.4617,91.54603 -327.15313,118.20622 -360.11794,118.20622 C -393.08275,118.20623 -419.74294,91.54603 -419.74294,58.58122 C -419.74293,25.616405 -393.08275,-1.07503 -360.11794,-1.07503 z"
             style="opacity:1;fill:#cccccc;fill-opacity:1;fill-rule:nonzero;stroke:none;stroke-width:8;stroke-linecap:round;stroke-linejoin:miter;stroke-miterlimit:4;stroke-dasharray:none;stroke-opacity:1" />
          <path
             sodipodi:nodetypes="cccccccc"
             id="path2544"
             d="M -486.89353,-102.24218 L -443.45697,-182.04423 L -382.84781,-250.7346 L -365.67522,-263.86658 L -301.02546,-196.18636 L -250.51783,-114.36401 L -246.47722,-97.191414 L -487.90368,-98.201567"
             style="fill:#ff0000;fill-rule:evenodd;stroke:#000000;stroke-width:1px;stroke-linecap:butt;stroke-linejoin:miter;stroke-opacity:1" />
          <path
             sodipodi:nodetypes="css"
             id="path2546"
             d="M -511.13719,201.81368 C -511.13719,201.81368 -618.21336,200.48008 -553.56359,472.53463 C -553.56359,472.53463 -547.50267,245.37465 -490.93413,273.38027"
             style="fill:#ff0000;fill-rule:evenodd;stroke:#000000;stroke-width:10;stroke-linecap:butt;stroke-linejoin:miter;stroke-opacity:1" />
          <path
             style="fill:#ff0000;fill-rule:evenodd;stroke:#000000;stroke-width:10;stroke-linecap:butt;stroke-linejoin:miter;stroke-opacity:1"
             d="M -220.75895,201.81368 C -220.75895,201.81368 -113.68278,200.48008 -178.33255,472.53463 C -178.33255,472.53463 -184.39347,245.37465 -240.96201,273.38027"
             id="path2548"
             sodipodi:nodetypes="css" />
          <path
             id="path2550"
             d="M -481.84276,303.83915 L -455.5788,359.39754 L -275.77164,358.38738 L -254.55844,303.83915 L -481.84276,303.83915 z"
             style="fill:#b3b3b3;fill-rule:evenodd;stroke:#000000;stroke-width:1px;stroke-linecap:butt;stroke-linejoin:miter;stroke-opacity:1" />
          <path
             sodipodi:nodetypes="cccccccc"
             id="path2552"
             d="M -195.96959,229.08786 L -216.17264,279.59549 L -228.29448,269.49396 L -242.43661,275.55488 L -223.24371,199.79343 L -188.89853,216.96603 C -188.89853,216.96603 -129.29952,258.38228 -175.76654,464.4534 C -148.49242,251.31121 -196.97975,229.08786 -195.96959,229.08786 z"
             style="fill:#d20000;fill-opacity:1;fill-rule:evenodd;stroke:none;stroke-width:1px;stroke-linecap:butt;stroke-linejoin:miter;stroke-opacity:1" />
          <path
             sodipodi:nodetypes="cscccc"
             id="path2554"
             d="M -556.59405,469.50416 C -556.59405,469.50416 -566.65496,249.1354 -498.0052,248.28076 C -490.42964,248.18645 -490.93414,272.52442 -490.93414,272.52442 L -518.20826,278.58533 L -539.42146,345.2554 L -556.59405,469.50416 z"
             style="fill:#d20000;fill-opacity:1;fill-rule:evenodd;stroke:none;stroke-width:1px;stroke-linecap:butt;stroke-linejoin:miter;stroke-opacity:1" />
          <path
             id="path2556"
             d="M -320.4375,303.84375 C -316.38458,316.05397 -313.98948,333.09143 -315.15625,357.375 C -314.29405,357.67881 -313.3808,358.10501 -312.4375,358.59375 L -275.78125,358.375 L -258.6875,314.4375 C -259.37704,310.68329 -260.17377,307.33275 -260.9375,303.84375 L -320.4375,303.84375 z"
             style="fill:#999999;fill-opacity:1;fill-rule:evenodd;stroke:none;stroke-width:1px;stroke-linecap:butt;stroke-linejoin:miter;stroke-opacity:1" />
          <path
             id="path2558"
             d="M -346.46717,197.19765 C -353.2857,196.69258 -357.59217,197.76015 -357.59217,197.76015 L -362.65467,275.5414 C -362.65467,275.5414 -338.31931,270.73597 -326.84217,303.8539 L -267.21717,303.8539 C -286.58294,213.54516 -326.884,198.64825 -346.46717,197.19765 z"
             style="fill:#cccccc;fill-opacity:1;fill-rule:evenodd;stroke:none;stroke-width:1px;stroke-linecap:butt;stroke-linejoin:miter;stroke-opacity:1" />
          <path
             id="path2560"
             d="M -479,308.36218 L -459,358.36218 L -431,360.36218 L -439,303.36218 L -479,308.36218 z"
             style="fill:#cccccc;fill-rule:evenodd;stroke:none;stroke-width:1px;stroke-linecap:butt;stroke-linejoin:miter;stroke-opacity:1" />
          <path
             sodipodi:nodetypes="cccccc"
             id="path2562"
             d="M -367.54018,-263.72321 C -398.33069,-239.21753 -634.9973,-33.827355 -455.72768,359.49554 L -277.13393,359.49554 L -276.47768,359.49554 C -97.208896,-33.825513 -333.8739,-239.18519 -364.66518,-263.69196 L -367.54018,-263.72321 z"
             style="fill:none;fill-rule:evenodd;stroke:#000000;stroke-width:10;stroke-linecap:butt;stroke-linejoin:miter;stroke-opacity:1" />
          <path
             id="path2564"
             d="M -486.89353,-100.22187 L -249.50768,-100.22187"
             style="fill:none;fill-rule:evenodd;stroke:#000000;stroke-width:10;stroke-linecap:butt;stroke-linejoin:miter;stroke-opacity:1" />
          <path
             transform="translate(-69.117936,-17.91878)"
             d="M -233.34525,70.493912 A 63.63961,63.63961 0 1 1 -360.62447,70.493912 A 63.63961,63.63961 0 1 1 -233.34525,70.493912 z"
             sodipodi:ry="63.63961"
             sodipodi:rx="63.63961"
             sodipodi:cy="70.493912"
             sodipodi:cx="-296.98486"
             id="path2566"
             style="opacity:1;fill:#b3b3b3;fill-opacity:1;fill-rule:nonzero;stroke:#000000;stroke-width:8;stroke-linecap:round;stroke-linejoin:miter;stroke-miterlimit:4;stroke-dasharray:none;stroke-opacity:1"
             sodipodi:type="arc" />
          <path
             sodipodi:type="arc"
             style="opacity:1;fill:#80e5ff;fill-opacity:1;fill-rule:nonzero;stroke:#000000;stroke-width:12.29268265;stroke-linecap:round;stroke-linejoin:miter;stroke-miterlimit:4;stroke-dasharray:none;stroke-opacity:1"
             id="path2568"
             sodipodi:cx="-296.98486"
             sodipodi:cy="70.493912"
             sodipodi:rx="63.63961"
             sodipodi:ry="63.63961"
             d="M -233.34525,70.493912 A 63.63961,63.63961 0 1 1 -360.62447,70.493912 A 63.63961,63.63961 0 1 1 -233.34525,70.493912 z"
             transform="matrix(0.6507937,0,0,0.6507937,-172.82694,6.698142)" />
          <path
             id="path2570"
             d="M -478.81231,304.8493 L -254.55844,304.8493"
             style="fill:none;fill-rule:evenodd;stroke:#000000;stroke-width:10;stroke-linecap:butt;stroke-linejoin:miter;stroke-opacity:1" />
          <path
             id="path2572"
             d="M -375.19417,199.79343 L -357.01142,199.79343 L -357.01142,472.5346 L -375.19417,472.5346 L -375.19417,199.79343 z"
             style="fill:#ff0000;fill-opacity:1;fill-rule:nonzero;stroke:#000000;stroke-width:10;stroke-linecap:round;stroke-linejoin:miter;stroke-miterlimit:4;stroke-opacity:1" />
          <path
             sodipodi:nodetypes="cccc"
             id="path2574"
             d="M -264.65997,291.71732 C -264.65997,291.71732 -183.84777,105.84925 -248.49753,-72.947753 C -245.46707,244.24015 -332.34019,291.71732 -332.34019,291.71732 L -264.65997,291.71732 z"
             style="fill:#cccccc;fill-rule:evenodd;stroke:none;stroke-width:1px;stroke-linecap:butt;stroke-linejoin:miter;stroke-opacity:1" />
          <rect
             transform="matrix(0.7038943,0.7103048,-0.7038943,0.7103048,0,0)"
             y="254.63054"
             x="-240.60968"
             height="83.713531"
             width="34.470276"
             id="rect2576"
             style="opacity:1;fill:#ffffff;fill-opacity:1;fill-rule:nonzero;stroke:none;stroke-width:10;stroke-linecap:round;stroke-linejoin:miter;stroke-miterlimit:4;stroke-dasharray:none;stroke-opacity:1" />
          <path
             transform="matrix(0.6507937,0,0,0.6507937,-172.82694,6.698142)"
             d="M -233.34525,70.493912 A 63.63961,63.63961 0 1 1 -360.62447,70.493912 A 63.63961,63.63961 0 1 1 -233.34525,70.493912 z"
             sodipodi:ry="63.63961"
             sodipodi:rx="63.63961"
             sodipodi:cy="70.493912"
             sodipodi:cx="-296.98486"
             id="path2578"
             style="opacity:1;fill:none;fill-opacity:1;fill-rule:nonzero;stroke:#000000;stroke-width:12.29268265;stroke-linecap:round;stroke-linejoin:miter;stroke-miterlimit:4;stroke-dasharray:none;stroke-opacity:1"
             sodipodi:type="arc" />
          <path
             sodipodi:nodetypes="cccc"
             id="path2580"
             d="M -273.75134,-115.37416 C -273.75134,-115.37416 -305.06607,-197.19653 -364.66507,-240.63308 C -310.11683,-135.57721 -338.4011,-115.37415 -338.4011,-115.37415 L -273.75134,-115.37416 z"
             style="fill:#d20000;fill-opacity:1;fill-rule:evenodd;stroke:none;stroke-width:1px;stroke-linecap:butt;stroke-linejoin:miter;stroke-opacity:1" />
          <path
             sodipodi:nodetypes="css"
             id="path2582"
             d="M -220.75895,201.81368 C -220.75895,201.81368 -113.68278,200.48008 -178.33255,472.53463 C -178.33255,472.53463 -184.39347,245.37465 -240.96201,273.38027"
             style="fill:none;fill-rule:evenodd;stroke:#000000;stroke-width:10;stroke-linecap:butt;stroke-linejoin:miter;stroke-opacity:1" />
          <path
             style="fill:none;fill-rule:evenodd;stroke:#000000;stroke-width:10;stroke-linecap:butt;stroke-linejoin:miter;stroke-opacity:1"
             d="M -511.13719,201.81368 C -511.13719,201.81368 -618.21336,200.48008 -553.56359,472.53463 C -553.56359,472.53463 -547.50267,245.37465 -490.93413,273.38027"
             id="path2584"
             sodipodi:nodetypes="css" />
          <path
             id="path2586"
             d="M -472.75139,-118.40461 C -472.75139,-118.40461 -419.21331,-222.45032 -374.7666,-249.72444 C -330.31989,-276.99856 -471.74124,-116.38431 -472.75139,-118.40461 z"
             style="fill:#ffffff;fill-rule:evenodd;stroke:none;stroke-width:1px;stroke-linecap:butt;stroke-linejoin:miter;stroke-opacity:1" />
          <path
             sodipodi:nodetypes="ccss"
             id="path2588"
             d="M -504.28571,158.07647 C -507.44955,156.31977 -527.00981,12.115652 -478.57143,-77.637818 C -448.70448,-101.677 -408.06909,-89.034604 -410,-79.06639 C -426.72675,7.2843505 -485.46947,168.52403 -504.28571,158.07647 z"
             style="fill:#ffffff;fill-rule:evenodd;stroke:none;stroke-width:1px;stroke-linecap:butt;stroke-linejoin:miter;stroke-opacity:1" />
        </g>
      </g>
    </g>
    <g
       id="rocket2"
       inkscape:label="#g2731">
      <g
         transform="matrix(0,-2.34341e-2,2.34341e-2,0,6.7377215,60.596654)"
         style="opacity:1"
         id="g2590"
         inkscape:label="Taso 1">
        <g
           id="g2592">
          <path
             sodipodi:nodetypes="cccccc"
             id="path2594"
             d="M -367.54018,-263.72321 C -398.33069,-239.21753 -634.9973,-33.827355 -455.72768,359.49554 L -277.13393,359.49554 L -276.47768,359.49554 C -97.208896,-33.825513 -333.8739,-239.18519 -364.66518,-263.69196 L -367.54018,-263.72321 z"
             style="fill:#ececec;fill-rule:evenodd;stroke:#000000;stroke-width:10;stroke-linecap:butt;stroke-linejoin:miter;stroke-opacity:1" />
          <path
             style="opacity:1;fill:#cccccc;fill-opacity:1;fill-rule:nonzero;stroke:none;stroke-width:8;stroke-linecap:round;stroke-linejoin:miter;stroke-miterlimit:4;stroke-dasharray:none;stroke-opacity:1"
             d="M -360.11794,-9.07503 C -397.41126,-9.07503 -427.74293,21.287905 -427.74294,58.58122 C -427.74294,95.87454 -397.41126,126.20623 -360.11794,126.20622 C -322.82462,126.20622 -292.4617,95.87454 -292.46169,58.58122 C -292.46169,21.287904 -322.82462,-9.07503 -360.11794,-9.07503 z M -360.11794,-1.07503 C -327.15313,-1.07503 -300.46169,25.616406 -300.46169,58.58122 C -300.4617,91.54603 -327.15313,118.20622 -360.11794,118.20622 C -393.08275,118.20623 -419.74294,91.54603 -419.74294,58.58122 C -419.74293,25.616405 -393.08275,-1.07503 -360.11794,-1.07503 z"
             id="path2596" />
          <path
             style="fill:#ff0000;fill-rule:evenodd;stroke:#000000;stroke-width:1px;stroke-linecap:butt;stroke-linejoin:miter;stroke-opacity:1"
             d="M -486.89353,-102.24218 L -443.45697,-182.04423 L -382.84781,-250.7346 L -365.67522,-263.86658 L -301.02546,-196.18636 L -250.51783,-114.36401 L -246.47722,-97.191414 L -487.90368,-98.201567"
             id="path2598"
             sodipodi:nodetypes="cccccccc" />
          <path
             style="fill:#ff0000;fill-rule:evenodd;stroke:#000000;stroke-width:10;stroke-linecap:butt;stroke-linejoin:miter;stroke-opacity:1"
             d="M -511.13719,201.81368 C -511.13719,201.81368 -618.21336,200.48008 -553.56359,472.53463 C -553.56359,472.53463 -547.50267,245.37465 -490.93413,273.38027"
             id="path2600"
             sodipodi:nodetypes="css" />
          <path
             sodipodi:nodetypes="css"
             id="path2602"
             d="M -220.75895,201.81368 C -220.75895,201.81368 -113.68278,200.48008 -178.33255,472.53463 C -178.33255,472.53463 -184.39347,245.37465 -240.96201,273.38027"
             style="fill:#ff0000;fill-rule:evenodd;stroke:#000000;stroke-width:10;stroke-linecap:butt;stroke-linejoin:miter;stroke-opacity:1" />
          <path
             style="fill:#b3b3b3;fill-rule:evenodd;stroke:#000000;stroke-width:1px;stroke-linecap:butt;stroke-linejoin:miter;stroke-opacity:1"
             d="M -481.84276,303.83915 L -455.5788,359.39754 L -275.77164,358.38738 L -254.55844,303.83915 L -481.84276,303.83915 z"
             id="path2604" />
          <path
             style="fill:#d20000;fill-opacity:1;fill-rule:evenodd;stroke:none;stroke-width:1px;stroke-linecap:butt;stroke-linejoin:miter;stroke-opacity:1"
             d="M -195.96959,229.08786 L -216.17264,279.59549 L -228.29448,269.49396 L -242.43661,275.55488 L -223.24371,199.79343 L -188.89853,216.96603 C -188.89853,216.96603 -129.29952,258.38228 -175.76654,464.4534 C -148.49242,251.31121 -196.97975,229.08786 -195.96959,229.08786 z"
             id="path2606"
             sodipodi:nodetypes="cccccccc" />
          <path
             style="fill:#d20000;fill-opacity:1;fill-rule:evenodd;stroke:none;stroke-width:1px;stroke-linecap:butt;stroke-linejoin:miter;stroke-opacity:1"
             d="M -556.59405,469.50416 C -556.59405,469.50416 -566.65496,249.1354 -498.0052,248.28076 C -490.42964,248.18645 -490.93414,272.52442 -490.93414,272.52442 L -518.20826,278.58533 L -539.42146,345.2554 L -556.59405,469.50416 z"
             id="path2608"
             sodipodi:nodetypes="cscccc" />
          <path
             style="fill:#999999;fill-opacity:1;fill-rule:evenodd;stroke:none;stroke-width:1px;stroke-linecap:butt;stroke-linejoin:miter;stroke-opacity:1"
             d="M -320.4375,303.84375 C -316.38458,316.05397 -313.98948,333.09143 -315.15625,357.375 C -314.29405,357.67881 -313.3808,358.10501 -312.4375,358.59375 L -275.78125,358.375 L -258.6875,314.4375 C -259.37704,310.68329 -260.17377,307.33275 -260.9375,303.84375 L -320.4375,303.84375 z"
             id="path2610" />
          <path
             style="fill:#cccccc;fill-opacity:1;fill-rule:evenodd;stroke:none;stroke-width:1px;stroke-linecap:butt;stroke-linejoin:miter;stroke-opacity:1"
             d="M -346.46717,197.19765 C -353.2857,196.69258 -357.59217,197.76015 -357.59217,197.76015 L -362.65467,275.5414 C -362.65467,275.5414 -338.31931,270.73597 -326.84217,303.8539 L -267.21717,303.8539 C -286.58294,213.54516 -326.884,198.64825 -346.46717,197.19765 z"
             id="path2612" />
          <path
             style="fill:#cccccc;fill-rule:evenodd;stroke:none;stroke-width:1px;stroke-linecap:butt;stroke-linejoin:miter;stroke-opacity:1"
             d="M -479,308.36218 L -459,358.36218 L -431,360.36218 L -439,303.36218 L -479,308.36218 z"
             id="path2614" />
          <path
             style="fill:none;fill-rule:evenodd;stroke:#000000;stroke-width:10;stroke-linecap:butt;stroke-linejoin:miter;stroke-opacity:1"
             d="M -367.54018,-263.72321 C -398.33069,-239.21753 -634.9973,-33.827355 -455.72768,359.49554 L -277.13393,359.49554 L -276.47768,359.49554 C -97.208896,-33.825513 -333.8739,-239.18519 -364.66518,-263.69196 L -367.54018,-263.72321 z"
             id="path2616"
             sodipodi:nodetypes="cccccc" />
          <path
             style="fill:none;fill-rule:evenodd;stroke:#000000;stroke-width:10;stroke-linecap:butt;stroke-linejoin:miter;stroke-opacity:1"
             d="M -486.89353,-100.22187 L -249.50768,-100.22187"
             id="path2618" />
          <path
             sodipodi:type="arc"
             style="opacity:1;fill:#b3b3b3;fill-opacity:1;fill-rule:nonzero;stroke:#000000;stroke-width:8;stroke-linecap:round;stroke-linejoin:miter;stroke-miterlimit:4;stroke-dasharray:none;stroke-opacity:1"
             id="path2620"
             sodipodi:cx="-296.98486"
             sodipodi:cy="70.493912"
             sodipodi:rx="63.63961"
             sodipodi:ry="63.63961"
             d="M -233.34525,70.493912 A 63.63961,63.63961 0 1 1 -360.62447,70.493912 A 63.63961,63.63961 0 1 1 -233.34525,70.493912 z"
             transform="translate(-69.117936,-17.91878)" />
          <path
             transform="matrix(0.6507937,0,0,0.6507937,-172.82694,6.698142)"
             d="M -233.34525,70.493912 A 63.63961,63.63961 0 1 1 -360.62447,70.493912 A 63.63961,63.63961 0 1 1 -233.34525,70.493912 z"
             sodipodi:ry="63.63961"
             sodipodi:rx="63.63961"
             sodipodi:cy="70.493912"
             sodipodi:cx="-296.98486"
             id="path2622"
             style="opacity:1;fill:#80e5ff;fill-opacity:1;fill-rule:nonzero;stroke:#000000;stroke-width:12.29268265;stroke-linecap:round;stroke-linejoin:miter;stroke-miterlimit:4;stroke-dasharray:none;stroke-opacity:1"
             sodipodi:type="arc" />
          <path
             style="fill:none;fill-rule:evenodd;stroke:#000000;stroke-width:10;stroke-linecap:butt;stroke-linejoin:miter;stroke-opacity:1"
             d="M -478.81231,304.8493 L -254.55844,304.8493"
             id="path2624" />
          <path
             style="fill:#ff0000;fill-opacity:1;fill-rule:nonzero;stroke:#000000;stroke-width:10;stroke-linecap:round;stroke-linejoin:miter;stroke-miterlimit:4;stroke-opacity:1"
             d="M -375.19417,199.79343 L -357.01142,199.79343 L -357.01142,472.5346 L -375.19417,472.5346 L -375.19417,199.79343 z"
             id="path2626" />
          <path
             style="fill:#cccccc;fill-rule:evenodd;stroke:none;stroke-width:1px;stroke-linecap:butt;stroke-linejoin:miter;stroke-opacity:1"
             d="M -264.65997,291.71732 C -264.65997,291.71732 -183.84777,105.84925 -248.49753,-72.947753 C -245.46707,244.24015 -332.34019,291.71732 -332.34019,291.71732 L -264.65997,291.71732 z"
             id="path2628"
             sodipodi:nodetypes="cccc" />
          <rect
             style="opacity:1;fill:#ffffff;fill-opacity:1;fill-rule:nonzero;stroke:none;stroke-width:10;stroke-linecap:round;stroke-linejoin:miter;stroke-miterlimit:4;stroke-dasharray:none;stroke-opacity:1"
             id="rect2630"
             width="34.470276"
             height="83.713531"
             x="-240.60968"
             y="254.63054"
             transform="matrix(0.7038943,0.7103048,-0.7038943,0.7103048,0,0)" />
          <path
             sodipodi:type="arc"
             style="opacity:1;fill:none;fill-opacity:1;fill-rule:nonzero;stroke:#000000;stroke-width:12.29268265;stroke-linecap:round;stroke-linejoin:miter;stroke-miterlimit:4;stroke-dasharray:none;stroke-opacity:1"
             id="path2632"
             sodipodi:cx="-296.98486"
             sodipodi:cy="70.493912"
             sodipodi:rx="63.63961"
             sodipodi:ry="63.63961"
             d="M -233.34525,70.493912 A 63.63961,63.63961 0 1 1 -360.62447,70.493912 A 63.63961,63.63961 0 1 1 -233.34525,70.493912 z"
             transform="matrix(0.6507937,0,0,0.6507937,-172.82694,6.698142)" />
          <path
             style="fill:#d20000;fill-opacity:1;fill-rule:evenodd;stroke:none;stroke-width:1px;stroke-linecap:butt;stroke-linejoin:miter;stroke-opacity:1"
             d="M -273.75134,-115.37416 C -273.75134,-115.37416 -305.06607,-197.19653 -364.66507,-240.63308 C -310.11683,-135.57721 -338.4011,-115.37415 -338.4011,-115.37415 L -273.75134,-115.37416 z"
             id="path2634"
             sodipodi:nodetypes="cccc" />
          <path
             style="fill:none;fill-rule:evenodd;stroke:#000000;stroke-width:10;stroke-linecap:butt;stroke-linejoin:miter;stroke-opacity:1"
             d="M -220.75895,201.81368 C -220.75895,201.81368 -113.68278,200.48008 -178.33255,472.53463 C -178.33255,472.53463 -184.39347,245.37465 -240.96201,273.38027"
             id="path2636"
             sodipodi:nodetypes="css" />
          <path
             sodipodi:nodetypes="css"
             id="path2638"
             d="M -511.13719,201.81368 C -511.13719,201.81368 -618.21336,200.48008 -553.56359,472.53463 C -553.56359,472.53463 -547.50267,245.37465 -490.93413,273.38027"
             style="fill:none;fill-rule:evenodd;stroke:#000000;stroke-width:10;stroke-linecap:butt;stroke-linejoin:miter;stroke-opacity:1" />
          <path
             style="fill:#ffffff;fill-rule:evenodd;stroke:none;stroke-width:1px;stroke-linecap:butt;stroke-linejoin:miter;stroke-opacity:1"
             d="M -472.75139,-118.40461 C -472.75139,-118.40461 -419.21331,-222.45032 -374.7666,-249.72444 C -330.31989,-276.99856 -471.74124,-116.38431 -472.75139,-118.40461 z"
             id="path2640" />
          <path
             style="fill:#ffffff;fill-rule:evenodd;stroke:none;stroke-width:1px;stroke-linecap:butt;stroke-linejoin:miter;stroke-opacity:1"
             d="M -504.28571,158.07647 C -507.44955,156.31977 -527.00981,12.115652 -478.57143,-77.637818 C -448.70448,-101.677 -408.06909,-89.034604 -410,-79.06639 C -426.72675,7.2843505 -485.46947,168.52403 -504.28571,158.07647 z"
             id="path2642"
             sodipodi:nodetypes="ccss" />
        </g>
      </g>
    </g>
  </g>
</svg>
