<?xml version="1.0" encoding="UTF-8" standalone="no"?>
<!-- Created with Inkscape (http://www.inkscape.org/) -->
<svg
   xmlns:dc="http://purl.org/dc/elements/1.1/"
   xmlns:cc="http://web.resource.org/cc/"
   xmlns:rdf="http://www.w3.org/1999/02/22-rdf-syntax-ns#"
   xmlns:svg="http://www.w3.org/2000/svg"
   xmlns="http://www.w3.org/2000/svg"
   xmlns:xlink="http://www.w3.org/1999/xlink"
   xmlns:sodipodi="http://sodipodi.sourceforge.net/DTD/sodipodi-0.dtd"
   xmlns:inkscape="http://www.inkscape.org/namespaces/inkscape"
   width="291.08395"
   height="330"
   id="svg14844"
   viewBox="0 0 292 330"
   sodipodi:version="0.32"
   inkscape:version="0.44.1"
   sodipodi:docbase="/home/haf/shared/kieler/trunk/kev/de.cau.cs.kieler.kev/examples"
   sodipodi:docname="trafficlight.svg"
   version="1.0">
  <defs
     id="defs14846">
    <linearGradient
       x1="0"
       y1="0"
       x2="0"
       y2="1.05"
       id="linearGradient2876">
      <stop
         stop-color="#fff"
         stop-opacity="0.9;"
         offset="0"
         id="stop2878"
         style="stop-color:white;stop-opacity:0.90196079;" />
      <stop
         stop-color="#fff"
         stop-opacity="0.2;"
         offset="0.7"
         id="stop2880" />
      <stop
         stop-color="#fff"
         stop-opacity="0.3;"
         offset="1"
         id="stop2882" />
    </linearGradient>
    <path
       id="reflex"
       d="M 35,50 C 40.908991,38.920641 52.443394,32 65,32 C 77.556606,32 89.091009,38.920641 95,50 C 97,53.333333 97,56.666667 95,60 C 75,72 55,72 35,60 C 33,56.666667 33,53.333333 35,50 z " />
    <linearGradient
       id="rg"
       y2="1.05"
       x2="0"
       y1="0"
       x1="0">
      <stop
         id="stop14887"
         offset="0"
         stop-opacity="0.9;"
         stop-color="#fff"
         style="stop-color:white;stop-opacity:0.77319586;" />
      <stop
         id="stop14889"
         offset="0.69999999"
         stop-opacity="0.2;"
         stop-color="#fff"
         style="stop-color:white;stop-opacity:0.05154639;" />
      <stop
         id="stop14891"
         offset="1"
         stop-opacity="0.3;"
         stop-color="#fff"
         style="stop-color:white;stop-opacity:0.21649484;" />
    </linearGradient>
    <radialGradient
       id="b"
       fy="265"
       fx="65"
       r="44"
       cy="265"
       cx="65"
       gradientUnits="userSpaceOnUse">
      <stop
         id="stop14880"
         offset="0"
         stop-color="#4d4d4d" />
      <stop
         id="stop14882"
         offset="0.7"
         stop-color="#1a1a1a" />
      <stop
         id="stop14884"
         offset="1"
         stop-color="#000000" />
    </radialGradient>
    <radialGradient
       id="y"
       fy="165"
       fx="65"
       r="44"
       cy="165"
       cx="65"
       gradientUnits="userSpaceOnUse">
      <stop
         id="stop14873"
         offset="0"
         stop-color="#fcfc74" />
      <stop
         id="stop14875"
         offset="0.7"
         stop-color="#d4d53a" />
      <stop
         id="stop14877"
         offset="1"
         stop-color="#afa500" />
    </radialGradient>
    <radialGradient
       id="r"
       fy="65"
       fx="65"
       r="44"
       cy="65"
       cx="65"
       gradientUnits="userSpaceOnUse">
      <stop
         id="stop14866"
         offset="0"
         stop-color="#fc7474" />
      <stop
         id="stop14868"
         offset="0.7"
         stop-color="#d53a3a" />
      <stop
         id="stop14870"
         offset="1"
         stop-color="#af0000" />
    </radialGradient>
    <linearGradient
       y2="186.41083"
       x2="82.849258"
       y1="0"
       x1="0"
       id="back"
       gradientTransform="scale(0.627646,1.593255)"
       gradientUnits="userSpaceOnUse">
      <stop
         id="stop14861"
         offset="0"
         stop-color="#5c656c" />
      <stop
         id="stop14863"
         offset="1"
         stop-color="#aab2b7" />
    </linearGradient>
    <path
       id="path15017"
       d="M 35,50 C 40.908991,38.920641 52.443394,32 65,32 C 77.556606,32 89.091009,38.920641 95,50 C 97,53.333333 97,56.666667 95,60 C 75,72 55,72 35,60 C 33,56.666667 33,53.333333 35,50 z " />
    <linearGradient
       id="linearGradient15012"
       y2="1.05"
       x2="0"
       y1="0"
       x1="0">
      <stop
         id="stop14972"
         offset="0"
         stop-opacity="0.9;"
         stop-color="#fff" />
      <stop
         id="stop14974"
         offset="0.7"
         stop-opacity="0.2;"
         stop-color="#fff" />
      <stop
         id="stop14976"
         offset="1"
         stop-opacity="0.3;"
         stop-color="#fff" />
    </linearGradient>
    <radialGradient
       id="radialGradient15007"
       fy="0.5"
       fx="0.5"
       r="0.5"
       cy="0.5"
       cx="0.5">
      <stop
         id="stop14965"
         offset="0"
         stop-color="#4d4d4d" />
      <stop
         id="stop14967"
         offset="0.7"
         stop-color="#1a1a1a" />
      <stop
         id="stop14969"
         offset="1"
         stop-color="#000000" />
    </radialGradient>
    <radialGradient
       id="radialGradient15002"
       fy="0.5"
       fx="0.5"
       r="0.5"
       cy="0.5"
       cx="0.5">
      <stop
         id="stop14958"
         offset="0"
         stop-color="#fcfc74" />
      <stop
         id="stop14960"
         offset="0.7"
         stop-color="#d4d53a" />
      <stop
         id="stop14962"
         offset="1"
         stop-color="#afa500" />
    </radialGradient>
    <radialGradient
       id="radialGradient14997"
       fy="0.5"
       fx="0.5"
       r="0.5"
       cy="0.5"
       cx="0.5">
      <stop
         id="stop14951"
         offset="0"
         stop-color="#fc7474" />
      <stop
         id="stop14953"
         offset="0.7"
         stop-color="#d53a3a" />
      <stop
         id="stop14955"
         offset="1"
         stop-color="#af0000" />
    </radialGradient>
    <linearGradient
       y2="0.89999998"
       x2="0.40000001"
       y1="0"
       x1="0"
       id="linearGradient14993">
      <stop
         id="stop14946"
         offset="0"
         stop-color="#5c656c" />
      <stop
         id="stop14948"
         offset="1"
         stop-color="#aab2b7" />
    </linearGradient>
    <linearGradient
       id="linearGradient2070">
      <stop
         style="stop-color:#ff0000;stop-opacity:1.0000000;"
         offset="0.0000000"
         id="stop2072" />
      <stop
         style="stop-color:#9a1a00;stop-opacity:1.0000000;"
         offset="1.0000000"
         id="stop2074" />
    </linearGradient>
    <linearGradient
       id="linearGradient3528">
      <stop
         style="stop-color:white;stop-opacity:0;"
         offset="0"
         id="stop3530" />
      <stop
         style="stop-color:black;stop-opacity:0.39175257;"
         offset="1"
         id="stop3532" />
    </linearGradient>
    <linearGradient
       inkscape:collect="always"
       xlink:href="#back"
       id="linearGradient15110"
       gradientUnits="userSpaceOnUse"
       gradientTransform="matrix(0.635938,0,0,1.113422,218.1939,55.85133)"
       x1="0"
       y1="0"
       x2="82.849258"
       y2="186.41083" />
    <radialGradient
       inkscape:collect="always"
       xlink:href="#b"
       id="radialGradient15112"
       gradientUnits="userSpaceOnUse"
       cx="65"
       cy="265"
       fx="65"
       fy="265"
       r="44" />
    <radialGradient
       inkscape:collect="always"
       xlink:href="#b"
       id="radialGradient15190"
       gradientUnits="userSpaceOnUse"
       cx="65"
       cy="265"
       fx="65"
       fy="265"
       r="44" />
    <radialGradient
       inkscape:collect="always"
       xlink:href="#linearGradient3528"
       id="radialGradient17020"
       gradientUnits="userSpaceOnUse"
       gradientTransform="matrix(0.420135,0,0,0.457467,505.0828,124.9475)"
       cx="356.63849"
       cy="420.37048"
       fx="356.63849"
       fy="420.37048"
       r="312.88068" />
    <radialGradient
       inkscape:collect="always"
       xlink:href="#linearGradient3528"
       id="radialGradient17040"
       gradientUnits="userSpaceOnUse"
       gradientTransform="matrix(1,0,0,1.112913,0,-39.61257)"
       cx="298.12531"
       cy="350.82419"
       fx="298.12531"
       fy="350.82419"
       r="340.96289" />
    <radialGradient
       inkscape:collect="always"
       xlink:href="#linearGradient3528"
       id="radialGradient17042"
       gradientUnits="userSpaceOnUse"
       gradientTransform="matrix(1,0,0,1.112913,0,-39.61257)"
       cx="298.12531"
       cy="350.82419"
       fx="298.12531"
       fy="350.82419"
       r="340.96289" />
    <radialGradient
       inkscape:collect="always"
       xlink:href="#linearGradient3528"
       id="radialGradient17044"
       gradientUnits="userSpaceOnUse"
       gradientTransform="matrix(1,0,0,1.112913,0,-39.61257)"
       cx="298.12531"
       cy="350.82419"
       fx="298.12531"
       fy="350.82419"
       r="340.96289" />
    <radialGradient
       inkscape:collect="always"
       xlink:href="#linearGradient3528"
       id="radialGradient17046"
       gradientUnits="userSpaceOnUse"
       gradientTransform="matrix(1,0,0,1.112913,0,-39.61257)"
       cx="298.12531"
       cy="350.82419"
       fx="298.12531"
       fy="350.82419"
       r="340.96289" />
    <radialGradient
       inkscape:collect="always"
       xlink:href="#linearGradient3528"
       id="radialGradient17048"
       gradientUnits="userSpaceOnUse"
       gradientTransform="matrix(1,0,0,1.112913,0,-39.61257)"
       cx="298.12531"
       cy="350.82419"
       fx="298.12531"
       fy="350.82419"
       r="340.96289" />
    <radialGradient
       inkscape:collect="always"
       xlink:href="#linearGradient3528"
       id="radialGradient17050"
       gradientUnits="userSpaceOnUse"
       gradientTransform="matrix(1,0,0,1.112913,0,-39.61257)"
       cx="298.12531"
       cy="350.82419"
       fx="298.12531"
       fy="350.82419"
       r="340.96289" />
    <radialGradient
       inkscape:collect="always"
       xlink:href="#linearGradient3528"
       id="radialGradient17052"
       gradientUnits="userSpaceOnUse"
       gradientTransform="matrix(1,0,0,1.112913,0,-39.61257)"
       cx="298.12531"
       cy="350.82419"
       fx="298.12531"
       fy="350.82419"
       r="340.96289" />
    <radialGradient
       inkscape:collect="always"
       xlink:href="#linearGradient3528"
       id="radialGradient17054"
       gradientUnits="userSpaceOnUse"
       gradientTransform="matrix(1,0,0,1.112913,0,-39.61257)"
       cx="298.12531"
       cy="350.82419"
       fx="298.12531"
       fy="350.82419"
       r="340.96289" />
    <linearGradient
       inkscape:collect="always"
       xlink:href="#back"
       id="linearGradient17067"
       gradientUnits="userSpaceOnUse"
       gradientTransform="matrix(0.627646,0,0,1.593255,57.96866,54.71846)"
       x1="0"
       y1="0"
       x2="82.849258"
       y2="186.41083" />
    <radialGradient
       inkscape:collect="always"
       xlink:href="#linearGradient3528"
       id="radialGradient17970"
       gradientUnits="userSpaceOnUse"
       gradientTransform="matrix(1,0,0,0.98913,0,1.336244)"
       cx="124.75272"
       cy="122.93433"
       fx="124.75272"
       fy="122.93433"
       r="36.904343" />
    <radialGradient
       inkscape:collect="always"
       xlink:href="#linearGradient3528"
       id="radialGradient17974"
       gradientUnits="userSpaceOnUse"
       gradientTransform="matrix(1,0,0,0.98913,0,1.336244)"
       cx="124.75272"
       cy="122.93433"
       fx="124.75272"
       fy="122.93433"
       r="36.904343" />
    <radialGradient
       inkscape:collect="always"
       xlink:href="#linearGradient3528"
       id="radialGradient2196"
       gradientUnits="userSpaceOnUse"
       gradientTransform="matrix(1,0,0,0.98913,0,1.336244)"
       cx="124.75272"
       cy="122.93433"
       fx="124.75272"
       fy="122.93433"
       r="36.904343" />
    <radialGradient
       inkscape:collect="always"
       xlink:href="#linearGradient3528"
       id="radialGradient3087"
       gradientUnits="userSpaceOnUse"
       gradientTransform="matrix(1,0,0,0.98913,0,1.336244)"
       cx="124.75272"
       cy="122.93433"
       fx="124.75272"
       fy="122.93433"
       r="36.904343" />
    <radialGradient
       inkscape:collect="always"
       xlink:href="#linearGradient3528"
       id="radialGradient3091"
       gradientUnits="userSpaceOnUse"
       gradientTransform="matrix(1,0,0,0.98913,0,1.336244)"
       cx="124.75272"
       cy="122.93433"
       fx="124.75272"
       fy="122.93433"
       r="36.904343" />
  </defs>
  <sodipodi:namedview
     id="base"
     pagecolor="#ffffff"
     bordercolor="#666666"
     borderopacity="1.0"
     gridtolerance="10000"
     guidetolerance="10"
     objecttolerance="10"
     inkscape:pageopacity="0.0"
     inkscape:pageshadow="2"
     inkscape:zoom="1.4488243"
     inkscape:cx="211.59894"
     inkscape:cy="128.2074"
     inkscape:document-units="px"
     inkscape:current-layer="layer1"
     inkscape:window-width="1272"
     inkscape:window-height="948"
     inkscape:window-x="1280"
     inkscape:window-y="0" />
  <metadata
     id="metadata14849">
    <rdf:RDF>
      <cc:Work
         rdf:about="">
        <dc:format>image/svg+xml</dc:format>
        <dc:type
           rdf:resource="http://purl.org/dc/dcmitype/StillImage" />
      </cc:Work>
    </rdf:RDF>
  </metadata>
  <g
     inkscape:label="Layer 1"
     inkscape:groupmode="layer"
     id="layer1"
     transform="translate(-57.96866,-54.71846)">
    <rect
       style="fill:url(#linearGradient17067);stroke:black;stroke-width:10"
       width="120"
       height="320"
       x="62.968658"
       y="59.71846"
       id="rect14894" />
    <circle
       sodipodi:ry="40"
       sodipodi:rx="40"
       sodipodi:cy="65"
       sodipodi:cx="65"
       style="fill:red;fill-opacity:1;stroke:black;stroke-width:8"
       cx="65"
       cy="65"
       r="40"
       id="cRed"
       transform="translate(57.96866,54.71846)"
       inkscape:label="#redlight" />
    <circle
       sodipodi:ry="40"
       sodipodi:rx="40"
       sodipodi:cy="165"
       sodipodi:cx="65"
       style="fill:#ffe400;fill-opacity:1;stroke:black;stroke-width:8"
       cx="65"
       cy="165"
       r="40"
       id="cYellow"
       transform="translate(57.96866,54.71846)"
       inkscape:label="#yellight" />
    <circle
       sodipodi:ry="40"
       sodipodi:rx="40"
       sodipodi:cy="265"
       sodipodi:cx="65"
       style="fill:lime;fill-opacity:1;stroke:black;stroke-width:8"
       cx="65"
       cy="265"
       r="40"
       id="cGreen"
       transform="translate(57.96866,54.71846)"
       inkscape:label="#grelight" />
    <rect
       style="fill:url(#linearGradient15110);stroke:black;stroke-width:8.41467476"
       width="121.58533"
       height="223.62724"
       x="223.25995"
       y="59.345512"
       id="rect14979" />
    <circle
       sodipodi:ry="40"
       sodipodi:rx="40"
       sodipodi:cy="265"
       sodipodi:cx="65"
       style="fill:url(#radialGradient15112);stroke:black;stroke-width:8"
       cx="65"
       cy="265"
       r="40"
       id="circle15026"
       transform="matrix(1.113959,0,0,1.113959,211.6453,-70.42859)" />
    <g
       inkscape:label="Layer 1"
       transform="matrix(9.351175e-2,0,0,9.351175e-2,256.1744,191.9643)"
       style="fill:lime;fill-opacity:1"
       id="pGreen">
      <path
         style="fill:lime;fill-opacity:1"
         id="path1332"
         d="M 498.91743,728.9939 C 496.28466,726.36112 495.91101,721.94801 497.5767,713.15872 C 499.726,701.81758 504.65649,686.12637 512.50347,665.65445 C 516.13116,656.19019 519.86062,645.41581 520.79114,641.71138 L 522.483,634.97604 L 514.69735,627.63148 C 505.65495,619.10138 487.58964,604.54309 456.64286,580.84713 C 417.54508,550.90995 381.91305,521.93064 358.36933,500.92188 C 345.74994,489.66123 341.6921,486.99787 339.19285,488.33542 C 335.57944,490.26927 308.73766,518.10451 268.77249,561.36218 C 191.6684,644.81843 144.77937,694.34863 138.94368,698.50401 L 136.04854,700.56553 L 132.29403,698.08092 C 112.58285,685.03668 34.60392,614.50093 14.509629,591.53919 C 7.079171,583.0484 1.14286,572.90639 1.14286,568.70246 C 1.14286,567.4153 2.099228,565.40581 3.268121,564.23692 C 5.139888,562.36515 6.123924,562.18675 11.518121,562.74126 C 18.58038,563.46724 37.28187,568.27638 58.14286,574.73094 C 80.59692,581.67841 83.13114,581.79231 91.52666,576.23135 C 97.24061,572.44659 105.4923,562.96556 142.76274,517.36218 C 208.28369,437.192 212.14286,431.83592 212.14286,421.07048 C 212.14286,413.59269 210.26258,410.08264 204.85441,407.46459 C 199.17317,404.71435 195.67451,404.81268 187.43835,407.95409 C 166.39243,415.98135 161.56871,417.44375 157.47331,417.03854 C 151.43055,416.44065 143.18228,412.26845 118.01518,397.07955 C 105.71041,389.65334 83.94286,376.93757 69.64286,368.82226 C 33.03395,348.04658 29.0546,345.16211 27.62078,338.36218 C 26.21511,331.69577 20.27209,325.01364 -0.85714,306.34262 C -24.220664,285.69723 -37.014342,272.31003 -40.49854,264.86218 C -44.850549,255.55929 -43.155446,248.75104 -33.191011,235.51209 C -21.879937,220.48397 -14.840948,215.36218 -5.498524,215.36218 C 3.943037,215.36218 12.666556,221.09015 32.64286,240.40626 C 54.78226,261.81398 62.95907,267.75336 78.64286,273.8192 C 84.14286,275.94637 99.44286,282.28577 112.64286,287.90675 C 137.64088,298.55171 156.28275,305.11767 164.15443,306.04996 C 172.54351,307.04352 181.43275,300.18602 193.84071,283.14884 C 208.48614,263.03941 213.59816,256.48149 223.75696,244.77098 C 236.87171,229.65299 246.14286,216.84215 246.14286,213.8382 C 246.14286,207.81787 234.54777,198.78998 221.25496,194.46058 C 206.09358,189.5226 191.58707,178.0725 185.92756,166.57642 C 182.84438,160.31359 182.64309,159.25875 182.64656,149.38321 C 182.6492,141.9055 183.49832,134.43742 185.58205,123.56538 L 188.51384,108.26857 L 178.11226,97.83147 C 171.85477,91.55262 168.09557,87.0576 168.67677,86.5491 C 176.26048,79.91387 182.40155,76.61444 190.28524,74.93949 C 194.55857,74.03159 202.0948,64.66206 210.39286,49.9404 C 214.65536,42.37827 218.14286,35.82024 218.14286,35.36701 C 218.14286,34.91378 214.88036,32.74249 210.89286,30.54192 C 197.97139,23.41101 177.24703,8.8081 167.41375,-0.09454 C 163.02857,-4.0647 162.77977,-4.54551 163.87108,-6.94066 C 167.57844,-15.07744 192.80552,-12.7736 233.27274,-0.60261 L 240.90262,1.69217 L 247.22584,-5.22283 C 263.63674,-23.16958 270.55602,-28.63782 276.85418,-28.63782 C 278.38923,-28.63782 292.46966,-22.64551 308.14402,-15.32156 C 323.81838,-7.99762 357.56786,7.60514 383.14286,19.35125 C 408.71786,31.09735 429.81861,40.84329 430.03341,41.00888 C 430.24822,41.17447 429.63273,50.21791 428.66567,61.10541 C 427.6986,71.99291 427.07286,81.64269 427.27512,82.54936 C 427.50301,83.57092 439.05194,89.90728 457.64286,99.21072 C 474.14286,107.4678 490.78256,116.39228 494.61998,119.04289 C 502.28367,124.33642 504.70702,128.22659 502.01676,130.91685 C 497.89731,135.0363 468.89694,135.26785 443.30281,131.38565 C 427.56426,128.99837 419.08883,128.82164 415.26131,130.80093 C 407.32564,134.90462 366.14286,195.93571 366.14286,203.59233 C 366.14286,206.75405 370.72517,217.39232 383.91935,244.86218 C 407.42217,293.79428 415.26637,312.03756 424.9822,340.36218 C 436.4341,373.74796 437.47859,375.9522 449.50251,392.10849 C 467.18945,415.87407 488.10944,438.85674 562.1494,515.86218 C 624.19384,580.39166 633.28769,590.38278 636.78522,597.86218 C 639.29186,603.22259 639.79639,609.51306 638.08147,614.02365 C 636.12761,619.16268 621.81381,635.64905 602.64286,654.84119 C 568.27955,689.24247 532.2611,719.81324 517.17227,727.38462 C 511.27393,730.34433 501.15952,731.23598 498.91743,728.9939 z " />
      <path
         style="fill:lime;fill-opacity:1"
         id="path1330"
         d="M 498.91743,728.9939 C 496.28466,726.36112 495.91101,721.94801 497.5767,713.15872 C 499.726,701.81758 504.65649,686.12637 512.50347,665.65445 C 516.13116,656.19019 519.86062,645.41581 520.79114,641.71138 L 522.483,634.97604 L 514.69735,627.63148 C 505.65495,619.10138 487.58964,604.54309 456.64286,580.84713 C 417.54508,550.90995 381.91305,521.93064 358.36933,500.92188 C 345.58431,489.51343 341.70586,486.9905 339.09824,488.38606 C 335.45513,490.3358 308.34642,518.46472 268.28705,561.86218 C 193.2304,643.1732 144.8071,694.32888 138.94368,698.50401 L 136.04854,700.56553 L 132.29403,698.08092 C 112.58285,685.03668 34.60392,614.50093 14.509629,591.53919 C 7.079171,583.0484 1.14286,572.90639 1.14286,568.70246 C 1.14286,567.4153 2.099228,565.40581 3.268121,564.23692 C 5.139888,562.36515 6.123924,562.18675 11.518121,562.74126 C 18.58038,563.46724 37.28187,568.27638 58.14286,574.73094 C 80.59692,581.67841 83.13114,581.79231 91.52666,576.23135 C 97.24061,572.44659 105.4923,562.96556 142.76274,517.36218 C 208.28369,437.192 212.14286,431.83592 212.14286,421.07048 C 212.14286,413.59269 210.26258,410.08264 204.85441,407.46459 C 199.17317,404.71435 195.67451,404.81268 187.43835,407.95409 C 166.39243,415.98135 161.56871,417.44375 157.47331,417.03854 C 151.4808,416.44562 143.42133,412.38405 119.12425,397.71251 C 107.30948,390.57828 85.49286,377.83593 70.64286,369.39615 C 32.50534,347.72127 28.76931,345.02961 27.65326,338.42374 C 26.77108,333.20215 21.34968,326.56734 8.14286,314.54656 C -29.824983,279.98841 -36.714328,272.95135 -40.49854,264.86218 C -44.989898,255.26141 -42.935014,247.8972 -31.848413,233.86218 C -20.513959,219.51339 -14.601307,215.36218 -5.498524,215.36218 C 3.943037,215.36218 12.666556,221.09015 32.64286,240.40626 C 54.78226,261.81398 62.95907,267.75336 78.64286,273.8192 C 84.14286,275.94637 99.44286,282.28577 112.64286,287.90675 C 137.64088,298.55171 156.28275,305.11767 164.15443,306.04996 C 172.54351,307.04352 181.43275,300.18602 193.84071,283.14884 C 208.43447,263.11037 213.59338,256.4837 223.75696,244.72116 C 242.4328,223.10718 246.90171,216.52183 245.81951,212.20998 C 244.37636,206.46 233.11589,198.32363 221.25496,194.46058 C 206.09358,189.5226 191.58707,178.0725 185.92756,166.57642 C 182.84438,160.31359 182.64309,159.25875 182.64656,149.38321 C 182.6492,141.9055 183.49832,134.43742 185.58205,123.56538 L 188.51384,108.26857 L 178.11226,97.83147 C 171.85477,91.55262 168.09557,87.0576 168.67677,86.5491 C 176.26048,79.91387 182.40155,76.61444 190.28524,74.93949 C 194.55857,74.03159 202.0948,64.66206 210.39286,49.9404 C 214.65536,42.37827 218.14286,35.82024 218.14286,35.36701 C 218.14286,34.91378 214.88036,32.74249 210.89286,30.54192 C 197.97139,23.41101 177.24703,8.8081 167.41375,-0.09454 C 163.02219,-4.07048 162.77849,-4.54271 163.87564,-6.95069 C 165.55275,-10.63154 171.44559,-11.98169 183.14286,-11.36515 C 194.77323,-10.75213 203.84221,-8.91786 224.78625,-2.94247 L 240.92964,1.66328 L 247.23935,-5.23727 C 263.63399,-23.1671 270.55752,-28.63782 276.85418,-28.63782 C 278.38923,-28.63782 292.46966,-22.64385 308.14402,-15.31788 C 323.81838,-7.99192 357.56786,7.61182 383.14286,19.35709 C 408.71786,31.10237 429.81861,40.84664 430.03341,41.01104 C 430.24822,41.17544 429.63273,50.21791 428.66567,61.10541 C 427.6986,71.99291 427.07286,81.64269 427.27512,82.54936 C 427.50301,83.57092 439.05194,89.90728 457.64286,99.21072 C 474.14286,107.4678 490.78256,116.39228 494.61998,119.04289 C 502.28367,124.33642 504.70702,128.22659 502.01676,130.91685 C 497.89731,135.0363 468.89694,135.26785 443.30281,131.38565 C 427.56426,128.99837 419.08883,128.82164 415.26131,130.80093 C 407.32564,134.90462 366.14286,195.93571 366.14286,203.59233 C 366.14286,206.74687 370.71345,217.36368 383.90973,244.86218 C 407.64922,294.33066 415.27347,312.05827 424.9822,340.36218 C 432.80967,363.18165 436.41912,372.45149 439.57142,377.83049 C 443.51358,384.55727 455.82108,400.77838 466.20084,412.92769 C 487.17711,437.48001 500.5641,451.84244 561.67837,515.36218 C 622.45874,578.53487 633.33288,590.47941 636.78522,597.86218 C 639.29186,603.22259 639.79639,609.51306 638.08147,614.02365 C 636.12761,619.16268 621.81381,635.64905 602.64286,654.84119 C 568.27955,689.24247 532.2611,719.81324 517.17227,727.38462 C 511.27393,730.34433 501.15952,731.23598 498.91743,728.9939 z " />
      <path
         style="fill:lime;fill-opacity:1"
         id="path1328"
         d="M 498.91743,728.9939 C 496.28466,726.36112 495.91101,721.94801 497.5767,713.15872 C 499.726,701.81758 504.65649,686.12637 512.50347,665.65445 C 516.13116,656.19019 519.85809,645.42587 520.78553,641.73372 L 522.47178,635.02073 L 515.05732,627.93041 C 506.55718,619.80187 488.17667,604.98922 456.64286,580.85488 C 418.56742,551.7139 381.80237,521.80722 358.36933,500.91388 C 345.58002,489.51067 341.70447,486.99125 339.09824,488.38606 C 335.45513,490.3358 308.34642,518.46472 268.28705,561.86218 C 193.71835,642.6446 144.75559,694.36557 138.90829,698.52921 L 136.04854,700.56553 L 132.29403,698.08092 C 112.58285,685.03668 34.60392,614.50093 14.509629,591.53919 C 7.079171,583.0484 1.14286,572.90639 1.14286,568.70246 C 1.14286,567.4153 2.099228,565.40581 3.268121,564.23692 C 5.139888,562.36515 6.123924,562.18675 11.518121,562.74126 C 18.67043,563.47649 37.49263,568.33274 58.50183,574.86337 C 77.50342,580.76994 81.35486,581.24669 87.63333,578.46942 C 94.60225,575.38674 101.42318,567.88138 138.6891,522.29062 C 210.01197,435.03492 212.14286,432.09853 212.14286,421.07048 C 212.14286,413.59269 210.26258,410.08264 204.85441,407.46459 C 199.17317,404.71435 195.67451,404.81268 187.43835,407.95409 C 166.39243,415.98135 161.56871,417.44375 157.47331,417.03854 C 151.4808,416.44562 143.42133,412.38405 119.12425,397.71251 C 107.30948,390.57828 85.49286,377.83593 70.64286,369.39615 C 32.50534,347.72127 28.76931,345.02961 27.65326,338.42374 C 26.74987,333.07663 21.25578,326.43758 7.14286,313.63903 C -28.365139,281.43796 -36.894778,272.69403 -40.589927,264.70707 C -44.963051,255.25469 -42.847169,247.74239 -31.957478,234.05812 C -20.255514,219.35313 -14.607429,215.36218 -5.498524,215.36218 C 3.943037,215.36218 12.666556,221.09015 32.64286,240.40626 C 54.84685,261.87644 63.18773,267.94027 78.64286,273.84832 C 84.14286,275.95081 99.44286,282.27356 112.64286,287.89887 C 137.62727,298.54623 156.27345,305.11657 164.15443,306.04996 C 170.07974,306.75172 175.17586,304.24795 182.06304,297.25128 C 187.01315,292.22247 188.81041,289.93391 206.32098,266.36218 C 211.01958,260.03718 219.31417,249.74869 224.75338,243.49888 C 242.174,223.48206 246.89043,216.47689 245.81951,212.20998 C 244.37636,206.46 233.11589,198.32363 221.25496,194.46058 C 206.09358,189.5226 191.58707,178.0725 185.92756,166.57642 C 182.84438,160.31359 182.64309,159.25875 182.64656,149.38321 C 182.6492,141.9055 183.49832,134.43742 185.58205,123.56538 L 188.51384,108.26857 L 178.11226,97.83147 C 171.85477,91.55262 168.09557,87.0576 168.67677,86.5491 C 176.26048,79.91387 182.40155,76.61444 190.28524,74.93949 C 194.55857,74.03159 202.0948,64.66206 210.39286,49.9404 C 214.65536,42.37827 218.14286,35.82024 218.14286,35.36701 C 218.14286,34.91378 214.88036,32.74249 210.89286,30.54192 C 197.97139,23.41101 177.24703,8.8081 167.41375,-0.09454 C 163.02219,-4.07048 162.77849,-4.54271 163.87564,-6.95069 C 165.55275,-10.63154 171.44559,-11.98169 183.14286,-11.36515 C 194.77323,-10.75213 203.84221,-8.91786 224.78625,-2.94247 L 240.92964,1.66328 L 247.23935,-5.23727 C 263.63399,-23.1671 270.55752,-28.63782 276.85418,-28.63782 C 278.38923,-28.63782 292.46966,-22.64385 308.14402,-15.31788 C 323.81838,-7.99192 357.56786,7.61182 383.14286,19.35709 C 408.71786,31.10237 429.81861,40.84664 430.03341,41.01104 C 430.24822,41.17544 429.63273,50.21791 428.66567,61.10541 C 427.6986,71.99291 427.07286,81.64269 427.27512,82.54936 C 427.50301,83.57092 439.05194,89.90728 457.64286,99.21072 C 474.14286,107.4678 490.78256,116.39228 494.61998,119.04289 C 502.28367,124.33642 504.70702,128.22659 502.01676,130.91685 C 497.89731,135.0363 468.89694,135.26785 443.30281,131.38565 C 427.56426,128.99837 419.08883,128.82164 415.26131,130.80093 C 407.28739,134.9244 366.14286,195.8988 366.14286,203.59233 C 366.14286,206.74687 370.71345,217.36368 383.90973,244.86218 C 407.72733,294.49343 415.5816,312.76731 425.05345,340.58783 C 432.52808,362.54216 436.33497,372.30791 439.57142,377.83049 C 443.51358,384.55727 455.82108,400.77838 466.20084,412.92769 C 487.17711,437.48001 500.5641,451.84244 561.67837,515.36218 C 622.45874,578.53487 633.33288,590.47941 636.78522,597.86218 C 639.29186,603.22259 639.79639,609.51306 638.08147,614.02365 C 636.12761,619.16268 621.81381,635.64905 602.64286,654.84119 C 568.27955,689.24247 532.2611,719.81324 517.17227,727.38462 C 511.27393,730.34433 501.15952,731.23598 498.91743,728.9939 z " />
      <path
         style="fill:lime;fill-opacity:1"
         id="path1326"
         d="M 499.45542,729.64406 C 493.33755,725.40596 497.18153,706.47726 512.40805,665.86218 C 516.53193,654.86218 520.47462,643.41452 521.16958,640.42293 L 522.43314,634.98369 L 515.038,627.9053 C 507.48849,620.67916 483.94745,601.62698 460.64286,583.88236 C 425.77222,557.3311 397.16252,534.30944 371.81522,512.4045 C 347.05397,491.00601 344.08189,488.5795 341.95102,488.02226 C 338.22276,487.0473 323.3149,502.05837 262.66005,567.86218 C 188.27012,648.56703 138.91321,700.38018 136.43568,700.36808 C 129.99952,700.33664 37.35219,617.64138 14.509629,591.53919 C 7.079171,583.0484 1.14286,572.90639 1.14286,568.70246 C 1.14286,567.4153 2.099228,565.40581 3.268121,564.23692 C 5.139888,562.36515 6.123924,562.18675 11.518121,562.74126 C 18.67043,563.47649 37.49263,568.33274 58.50183,574.86337 C 77.50342,580.76994 81.35486,581.24669 87.63333,578.46942 C 94.63094,575.37405 101.75207,567.53979 138.8279,522.14815 C 210.64023,434.22889 212.14286,432.15915 212.14286,421.16358 C 212.14286,413.59354 210.27919,410.09068 204.85441,407.46459 C 199.17317,404.71435 195.67451,404.81268 187.43835,407.95409 C 170.94651,414.24435 161.42865,417.34324 158.64286,417.3295 C 153.4972,417.30413 145.03395,413.10392 119.9283,398.11593 C 106.57131,390.14184 84.39286,377.20766 70.64286,369.37329 C 32.75861,347.7879 29.04363,345.11007 27.62078,338.36218 C 26.20886,331.6661 19.12784,323.74051 -1.85714,305.36837 C -32.120988,278.87267 -42.837602,265.92653 -42.837602,255.86218 C -42.837602,248.56462 -35.975523,237.37282 -23.637708,224.54784 C -17.047864,217.6978 -12.435656,215.36218 -5.498524,215.36218 C 4.118434,215.36218 12.094538,220.6921 34.14286,241.85197 C 55.78967,262.62651 63.17116,267.93394 78.64286,273.84832 C 84.14286,275.95081 99.44286,282.27932 112.64286,287.91168 C 145.68855,302.01207 162.30912,307.31625 169.27657,305.9854 C 176.01064,304.69912 186.26057,294.26387 200.35366,274.34641 C 208.48695,262.85182 216.90867,252.31695 229.11997,238.36218 C 239.38112,226.63598 246.14621,216.89896 246.13627,213.87052 C 246.11577,207.62078 235.72986,199.52622 221.21201,194.44508 C 205.24906,188.85816 191.58306,178.06436 185.92756,166.57642 C 182.84438,160.31359 182.64309,159.25875 182.64656,149.38321 C 182.6492,141.9055 183.49832,134.43742 185.58205,123.56538 L 188.51384,108.26857 L 178.11226,97.83147 C 171.85477,91.55262 168.09557,87.0576 168.67677,86.5491 C 176.26048,79.91387 182.40155,76.61444 190.28524,74.93949 C 194.55857,74.03159 202.0948,64.66206 210.39286,49.9404 C 214.65536,42.37827 218.14286,35.79113 218.14286,35.3023 C 218.14286,34.81348 216.68036,33.67232 214.89286,32.76639 C 204.68409,27.59243 185.20279,14.46687 172.60767,4.27665 C 163.15683,-3.36965 162.58621,-4.1207 163.95138,-7.11692 C 165.54618,-10.61713 171.65966,-11.97041 183.14286,-11.36515 C 194.77323,-10.75213 203.84221,-8.91786 224.78625,-2.94247 L 240.92964,1.66328 L 247.23935,-5.23727 C 263.63399,-23.1671 270.55752,-28.63782 276.85418,-28.63782 C 278.38923,-28.63782 292.69466,-22.5349 308.64402,-15.07576 C 324.59338,-7.61663 358.34286,7.98442 383.64286,19.59325 C 408.94286,31.20208 429.82138,40.84018 430.03958,41.01125 C 430.34744,41.25261 427.66596,75.60541 426.82013,82.25607 C 426.70662,83.14864 437.81654,89.26275 457.71077,99.25607 C 497.92222,119.45519 506.98093,125.95268 501.94784,130.98577 C 497.89601,135.0376 468.69178,135.23673 443.30281,131.38565 C 427.41266,128.97537 419.09298,128.81949 415.15061,130.85817 C 407.23422,134.9519 366.14286,195.93706 366.14286,203.59233 C 366.14286,206.74687 370.71345,217.36368 383.90973,244.86218 C 407.58322,294.19313 415.61192,312.84381 424.6562,339.5162 C 436.65986,374.91608 440.68543,382.38493 460.68493,406.36218 C 482.18043,432.13296 497.9564,449.16296 561.65854,515.36218 C 622.63015,578.72383 633.33055,590.47442 636.78522,597.86218 C 639.51283,603.69515 639.80955,610.15497 637.56694,614.88093 C 628.43663,634.12163 541.92278,714.96514 517.17227,727.38462 C 512.51797,729.72008 501.57898,731.11515 499.45542,729.64406 z " />
      <path
         style="fill:lime;fill-opacity:1"
         id="path1324"
         d="M 499.45542,729.64406 C 493.33755,725.40596 497.18153,706.47726 512.40805,665.86218 C 516.53193,654.86218 520.47678,643.40548 521.17439,640.40285 L 522.44277,634.94353 L 514.48865,627.40285 C 506.03715,619.39066 486.28781,603.57184 445.64286,572.25877 C 415.65328,549.15464 394.43529,531.95259 371.81522,512.4045 C 347.05397,491.00601 344.08189,488.5795 341.95102,488.02226 C 338.22276,487.0473 323.3149,502.05837 262.66005,567.86218 C 188.27012,648.56703 138.91321,700.38018 136.43568,700.36808 C 130.00701,700.33667 37.39494,617.66999 14.513909,591.53919 C 7.080926,583.05051 1.14286,572.90874 1.14286,568.70246 C 1.14286,567.4153 2.099228,565.40581 3.268121,564.23692 C 5.139888,562.36515 6.123924,562.18675 11.518121,562.74126 C 18.67043,563.47649 37.49263,568.33274 58.50183,574.86337 C 77.50342,580.76994 81.35486,581.24669 87.63333,578.46942 C 94.63029,575.37433 101.74983,567.54219 138.83018,522.14815 C 211.03572,433.75359 212.14286,432.22856 212.14286,421.16358 C 212.14286,413.47821 210.2965,410.09906 204.58701,407.33515 C 198.63,404.45141 193.44694,405.01419 182.41176,409.74297 C 172.32725,414.06437 161.82743,417.37021 158.28752,417.33844 C 153.4993,417.29547 144.5283,412.80193 119.9283,398.12446 C 106.57131,390.15508 84.39286,377.21228 70.64286,369.3627 C 32.51436,347.59593 29.03989,345.09233 27.62078,338.36218 C 26.20886,331.6661 19.12784,323.74051 -1.85714,305.36837 C -32.120988,278.87267 -42.837602,265.92653 -42.837602,255.86218 C -42.837602,248.56462 -35.975523,237.37282 -23.637708,224.54784 C -17.047864,217.6978 -12.435656,215.36218 -5.498524,215.36218 C 4.120097,215.36218 12.070909,220.70539 34.64286,242.3385 C 56.02281,262.82919 63.26871,267.99172 79.30096,274.15631 C 85.16291,276.41031 100.51994,282.75227 113.42768,288.24957 C 135.54696,297.66998 149.43101,302.74965 160.42215,305.44314 C 173.2192,308.5792 178.37486,304.21272 205.97608,266.86218 C 210.85333,260.26218 219.2986,249.74869 224.74334,243.49888 C 242.39868,223.23295 246.89693,216.50276 245.77483,212.03197 C 244.29654,206.14199 234.34782,199.04252 221.05057,194.38858 C 205.25361,188.85975 191.55964,178.01678 185.92882,166.57896 C 182.84847,160.32188 182.64529,159.25837 182.64411,149.38575 C 182.64322,141.88062 183.48484,134.47465 185.57835,123.56538 L 188.51384,108.26857 L 178.10526,97.82445 L 167.69668,87.38032 L 171.16977,84.39074 C 175.64603,80.53764 185.77829,75.36218 188.84542,75.36218 C 194.18764,75.36218 203.58495,63.1653 215.73301,40.46444 C 218.18516,35.88216 218.39654,34.93531 217.1322,34.19699 C 196.9031,22.38406 185.73271,14.87586 172.60767,4.26977 C 163.15961,-3.36503 162.58581,-4.11982 163.95138,-7.11692 C 165.54618,-10.61713 171.65966,-11.97041 183.14286,-11.36515 C 194.77323,-10.75213 203.84221,-8.91786 224.78625,-2.94247 L 240.92964,1.66328 L 247.23935,-5.23727 C 263.63399,-23.1671 270.55752,-28.63782 276.85418,-28.63782 C 278.38923,-28.63782 292.69466,-22.5349 308.64402,-15.07576 C 324.59338,-7.61663 358.34286,7.98442 383.64286,19.59325 C 408.94286,31.20208 429.82138,40.84018 430.03958,41.01125 C 430.34744,41.25261 427.66596,75.60541 426.82013,82.25607 C 426.70662,83.14864 437.81654,89.26275 457.71077,99.25607 C 497.92222,119.45519 506.98093,125.95268 501.94784,130.98577 C 497.89601,135.0376 468.69178,135.23673 443.30281,131.38565 C 428.74529,129.17751 419.67628,128.82868 415.7395,130.32544 C 408.62434,133.03062 366.14286,195.77809 366.14286,203.58239 C 366.14286,206.85854 370.78913,217.53284 387.1579,251.86218 C 410.37414,300.55237 415.53358,312.61277 424.65595,339.51548 C 436.4752,374.37151 440.02724,381.15506 457.82591,402.86218 C 478.92377,428.59296 491.28967,442.03829 552.0969,505.36218 C 625.00365,581.28635 633.24156,590.28413 636.78522,597.86218 C 639.51283,603.69515 639.80955,610.15497 637.56694,614.88093 C 628.44473,634.10456 541.90083,714.97615 517.17227,727.38462 C 512.51797,729.72008 501.57898,731.11515 499.45542,729.64406 z " />
      <path
         style="fill:lime;fill-opacity:1"
         id="path1322"
         d="M 499.45542,729.64406 C 493.33755,725.40596 497.18153,706.47726 512.40805,665.86218 C 516.53193,654.86218 520.46335,643.4615 521.14453,640.52733 L 522.38305,635.19248 L 518.51296,631.15028 C 516.3844,628.92707 509.46786,622.77715 503.14286,617.48378 C 492.43469,608.52215 484.1104,601.99074 438.14286,566.48341 C 414.82061,548.46829 392.2851,530.09441 371.81522,512.4045 C 347.05397,491.00601 344.08189,488.5795 341.95102,488.02226 C 338.22245,487.04722 323.30644,502.06674 262.66134,567.86218 C 195.78025,640.42319 144.54307,694.51689 138.86568,698.55955 L 136.00276,700.59813 L 130.4941,696.80417 C 120.39137,689.84615 88.48859,662.57261 65.14286,640.9357 C 25.07792,603.80335 9.217976,587.20247 4.184436,577.12947 C 0.591147,569.93866 0.390433,567.11461 3.268121,564.23692 C 5.139888,562.36515 6.123924,562.18675 11.518121,562.74126 C 18.67043,563.47649 37.49263,568.33274 58.50183,574.86337 C 76.44634,580.44135 81.30455,581.15712 86.49634,578.98785 C 95.31281,575.30409 98.41627,571.84001 153.80425,503.85874 C 208.3581,436.90125 212.14286,431.53634 212.14286,421.16358 C 212.14286,413.48435 210.29553,410.09859 204.6017,407.34225 C 198.44069,404.35976 194.21445,404.94359 179.83311,410.7639 C 173.48053,413.33487 165.84159,415.95047 162.85769,416.57635 C 157.98735,417.59792 156.80175,417.47846 151.26683,415.40854 C 147.87576,414.14037 135.32311,407.26413 123.37205,400.12802 C 111.421,392.99191 89.04286,379.93959 73.64286,371.12288 C 32.12365,347.35255 29.05603,345.16887 27.62078,338.36218 C 26.20426,331.64427 19.55322,324.21542 -2.35714,304.87845 C -33.109482,277.73799 -42.837602,265.95858 -42.837602,255.86218 C -42.837602,248.56462 -35.975523,237.37282 -23.637708,224.54784 C -17.047864,217.6978 -12.435656,215.36218 -5.498524,215.36218 C 4.135888,215.36218 12.281793,220.84053 34.64286,242.3584 C 55.66354,262.58642 63.23875,267.9802 79.30096,274.15631 C 85.16291,276.41031 100.51994,282.75227 113.42768,288.24957 C 135.54696,297.66998 149.43101,302.74965 160.42215,305.44314 C 173.2192,308.5792 178.37486,304.21272 205.97608,266.86218 C 210.85333,260.26218 219.2986,249.74869 224.74334,243.49888 C 242.39868,223.23295 246.89693,216.50276 245.77483,212.03197 C 244.29654,206.14199 234.34782,199.04252 221.05057,194.38858 C 205.25361,188.85975 191.55964,178.01678 185.92882,166.57896 C 182.84847,160.32188 182.64529,159.25837 182.64411,149.38575 C 182.64322,141.88062 183.48484,134.47465 185.57835,123.56538 L 188.51384,108.26857 L 178.10526,97.82445 L 167.69668,87.38032 L 171.16977,84.39074 C 175.64603,80.53764 185.77829,75.36218 188.84542,75.36218 C 194.18764,75.36218 203.58495,63.1653 215.73301,40.46444 C 218.18516,35.88216 218.39654,34.93531 217.1322,34.19699 C 190.43692,18.60809 164.18969,-0.44057 163.34236,-4.84043 C 162.85146,-7.38947 167.02151,-10.49708 171.91831,-11.2314 C 182.8211,-12.86637 198.76348,-10.36684 224.78625,-2.94247 L 240.92964,1.66328 L 247.23935,-5.23727 C 263.63578,-23.16906 270.56188,-28.64136 276.85302,-28.635 C 278.38743,-28.63345 292.46786,-22.63192 308.14286,-15.29827 C 323.81786,-7.96462 357.56786,7.63743 383.14286,19.37295 C 408.71786,31.10847 429.82138,40.84796 430.03958,41.01627 C 430.34746,41.25376 427.6654,75.60983 426.82013,82.25607 C 426.70662,83.14864 437.81654,89.26275 457.71077,99.25607 C 497.92222,119.45519 506.98093,125.95268 501.94784,130.98577 C 497.89601,135.0376 468.69178,135.23673 443.30281,131.38565 C 428.74529,129.17751 419.67628,128.82868 415.7395,130.32544 C 408.62434,133.03062 366.14286,195.77809 366.14286,203.58239 C 366.14286,206.85854 370.78913,217.53284 387.1579,251.86218 C 410.37414,300.55237 415.53358,312.61277 424.65595,339.51548 C 436.82775,375.41121 440.77611,382.64518 462.02021,407.97216 C 483.69649,433.8144 498.69665,449.9871 561.1605,514.86218 C 622.43032,578.49713 633.31707,590.44561 636.78522,597.86218 C 639.51283,603.69515 639.80955,610.15497 637.56694,614.88093 C 628.44473,634.10456 541.90083,714.97615 517.17227,727.38462 C 512.51797,729.72008 501.57898,731.11515 499.45542,729.64406 z " />
      <path
         style="fill:lime;fill-opacity:1"
         id="path1320"
         d="M 499.45542,729.64406 C 493.33755,725.40596 497.18153,706.47726 512.40805,665.86218 C 516.53193,654.86218 520.46377,643.45971 521.14548,640.52337 L 522.38495,635.18456 L 518.01391,630.67654 C 509.75794,622.16185 498.57063,613.16851 438.64286,566.87112 C 415.19223,548.75427 392.69593,530.41371 371.81522,512.38855 C 346.95307,490.92643 344.07521,488.57775 341.96272,488.02532 C 338.15432,487.0294 324.59178,500.68422 262.66539,567.86218 C 195.35911,640.87626 146.14531,692.83472 139.47665,697.92115 L 135.98395,700.58517 L 130.4847,696.79769 C 120.39087,689.84581 88.47912,662.56383 65.14286,640.9357 C 25.07792,603.80335 9.217976,587.20247 4.184436,577.12947 C 0.591147,569.93866 0.390433,567.11461 3.268121,564.23692 C 5.139888,562.36515 6.123924,562.18675 11.518121,562.74126 C 18.67043,563.47649 37.49263,568.33274 58.50183,574.86337 C 76.44634,580.44135 81.30455,581.15712 86.49634,578.98785 C 95.31798,575.30193 98.51299,571.73599 153.8073,503.86218 C 208.35686,436.90255 212.14286,431.53538 212.14286,421.16358 C 212.14286,413.48435 210.29553,410.09859 204.6017,407.34225 C 198.44069,404.35976 194.21445,404.94359 179.83311,410.7639 C 173.48053,413.33487 165.84159,415.95047 162.85769,416.57635 C 157.98735,417.59792 156.80175,417.47846 151.26683,415.40854 C 147.87576,414.14037 135.32311,407.26413 123.37205,400.12802 C 111.421,392.99191 89.04286,379.93959 73.64286,371.12288 C 32.12365,347.35255 29.05603,345.16887 27.62078,338.36218 C 26.20426,331.64427 19.55322,324.21542 -2.35714,304.87845 C -39.649085,271.96647 -46.993208,261.06911 -40.910758,247.67179 C -36.700993,238.39928 -21.448553,220.73761 -14.646978,217.25946 C -9.879739,214.82162 -1.644558,214.81461 3.64286,217.24389 C 9.896027,220.11688 19.49688,227.81365 33.11666,240.87233 C 56.136,262.94332 62.99508,267.8865 79.30096,274.15631 C 85.16291,276.41031 100.46291,282.71303 113.30096,288.16237 C 126.139,293.61171 138.66786,298.80404 141.14286,299.70087 C 149.31908,302.66359 163.31696,306.36218 166.3536,306.36218 C 174.42108,306.36218 182.90342,298.36865 200.63576,274.05561 C 207.53263,264.59923 217.67834,251.68718 223.18179,245.36218 C 242.17803,223.5302 246.9115,216.56081 245.78675,212.07948 C 244.29656,206.14207 234.3906,199.05749 221.05057,194.38858 C 205.25361,188.85975 191.55964,178.01678 185.92882,166.57896 C 182.84847,160.32188 182.64529,159.25837 182.64411,149.38575 C 182.64322,141.88062 183.48484,134.47465 185.57835,123.56538 L 188.51384,108.26857 L 178.19813,97.91764 L 167.88241,87.5667 L 171.26264,84.47041 C 175.33814,80.73725 185.60946,75.36218 188.66772,75.36218 C 193.39633,75.36218 198.83498,69.55544 206.93162,55.86218 C 217.50591,37.97864 218.82186,35.18368 217.1322,34.19699 C 190.43692,18.60809 164.18969,-0.44057 163.34236,-4.84043 C 162.85146,-7.38947 167.02151,-10.49708 171.91831,-11.2314 C 182.81905,-12.86606 198.76387,-10.3667 224.77231,-2.94649 L 240.90176,1.65524 L 247.73252,-5.74129 C 264.39025,-23.77873 270.56293,-28.63782 276.81879,-28.63782 C 278.33437,-28.63782 294.8898,-21.49429 313.60863,-12.76332 C 332.32746,-4.03234 366.09286,11.57768 388.64286,21.92562 C 411.19286,32.27355 429.82138,40.87105 430.03958,41.03116 C 430.34752,41.25714 427.66373,75.62294 426.82013,82.25607 C 426.70662,83.14864 437.81654,89.26275 457.71077,99.25607 C 497.92222,119.45519 506.98093,125.95268 501.94784,130.98577 C 497.89601,135.0376 468.69178,135.23673 443.30281,131.38565 C 428.74529,129.17751 419.67628,128.82868 415.7395,130.32544 C 408.62434,133.03062 366.14286,195.77809 366.14286,203.58239 C 366.14286,206.87432 370.81991,217.60038 387.19505,251.86218 C 406.99035,293.28003 416.23586,314.87362 424.47176,338.92483 C 434.3034,367.63606 436.86107,373.71608 443.084,383.16922 C 456.83727,404.06159 486.54468,437.51143 546.69539,499.83322 C 617.04199,572.71889 633.33943,590.45096 636.79321,597.86218 C 639.51209,603.6964 639.80605,610.16235 637.56694,614.88093 C 628.45641,634.07994 541.86915,714.99205 517.17227,727.38462 C 512.51797,729.72008 501.57898,731.11515 499.45542,729.64406 z " />
      <path
         style="fill:lime;fill-opacity:1"
         id="path1318"
         d="M 499.45542,729.64406 C 493.33755,725.40596 497.18153,706.47726 512.40805,665.86218 C 516.53193,654.86218 520.47462,643.41452 521.16958,640.42293 L 522.43314,634.98369 L 515.038,627.90471 C 506.06873,619.31891 491.11033,607.24773 456.14286,580.37734 C 415.36855,549.04473 376.46064,517.3463 355.66832,498.52031 C 345.5608,489.36865 341.65611,487.01713 338.96177,488.45909 C 335.29487,490.42156 309.02102,517.687 268.05569,562.0412 C 191.49899,644.93109 146.23906,692.76321 139.49855,697.90445 L 136.02774,700.55177 L 132.3353,698.09252 C 112.42987,684.83505 34.43399,614.30006 14.511198,591.53919 C 7.079815,583.04918 1.14286,572.90725 1.14286,568.70246 C 1.14286,567.4153 2.099228,565.40581 3.268121,564.23692 C 5.139888,562.36515 6.123924,562.18675 11.518121,562.74126 C 18.67043,563.47649 37.49263,568.33274 58.50183,574.86337 C 77.50342,580.76994 81.35486,581.24669 87.63333,578.46942 C 94.74638,575.32298 101.76008,567.54015 143.37561,516.61435 C 210.1601,434.88878 212.14286,432.13665 212.14286,421.16358 C 212.14286,413.48435 210.29553,410.09859 204.6017,407.34225 C 198.44069,404.35976 194.21445,404.94359 179.83311,410.7639 C 173.48053,413.33487 165.84159,415.95047 162.85769,416.57635 C 157.98735,417.59792 156.80175,417.47846 151.26683,415.40854 C 147.87576,414.14037 135.32311,407.26413 123.37205,400.12802 C 111.421,392.99191 89.04286,379.93959 73.64286,371.12288 C 32.12365,347.35255 29.05603,345.16887 27.62078,338.36218 C 26.20426,331.64427 19.55322,324.21542 -2.35714,304.87845 C -39.649085,271.96647 -46.993208,261.06911 -40.910758,247.67179 C -36.700993,238.39928 -21.448553,220.73761 -14.646978,217.25946 C -9.879739,214.82162 -1.644558,214.81461 3.64286,217.24389 C 9.896027,220.11688 19.49688,227.81365 33.11666,240.87233 C 56.20986,263.01413 62.91739,267.83593 79.64286,274.31828 C 85.69286,276.6631 100.99286,282.96654 113.64286,288.32593 C 126.29286,293.68531 138.66786,298.80404 141.14286,299.70087 C 149.31908,302.66359 163.31696,306.36218 166.3536,306.36218 C 174.42576,306.36218 182.83155,298.51927 199.77807,275.17593 C 211.46429,259.0785 216.2369,253.12616 230.31173,237.09466 C 239.04511,227.14717 246.14286,216.78775 246.14286,213.98856 C 246.14286,210.60613 242.18687,205.58587 236.59855,201.87655 C 231.37103,198.40672 227.56899,196.67262 216.7999,192.84643 C 210.13417,190.47814 198.47443,182.49314 192.75769,176.38149 C 190.1426,173.58574 186.8099,168.72518 185.35169,165.58025 C 181.53314,157.3447 181.60364,144.27756 185.57835,123.56538 L 188.51384,108.26857 L 178.19813,97.91764 L 167.88241,87.5667 L 171.26264,84.47041 C 175.33814,80.73725 185.60946,75.36218 188.66772,75.36218 C 193.39633,75.36218 198.83498,69.55544 206.93162,55.86218 C 217.50591,37.97864 218.82186,35.18368 217.1322,34.19699 C 190.43692,18.60809 164.18969,-0.44057 163.34236,-4.84043 C 162.85041,-7.39493 167.02536,-10.49765 171.94787,-11.23583 C 182.6744,-12.84437 199.13097,-10.26197 224.77231,-2.94649 L 240.90176,1.65524 L 247.72363,-5.74129 C 263.87462,-23.25284 270.71266,-28.63782 276.79846,-28.63782 C 278.30286,-28.63782 297.78329,-20.14101 320.0883,-9.75602 C 342.39331,0.62896 376.16786,16.23886 395.14286,24.93263 C 414.11786,33.6264 429.82138,40.87061 430.03958,41.03089 C 430.34679,41.25654 427.68442,75.368 426.82013,82.27987 C 426.70468,83.20319 437.47927,89.13146 457.7175,99.27987 C 497.41907,119.18814 506.49498,125.61819 502.19934,130.79412 C 498.70966,134.99894 469.08558,135.29647 443.30281,131.38565 C 428.05714,129.07313 418.75091,128.83169 415.14286,130.65508 C 407.75469,134.38881 368.00523,193.27314 366.46471,202.76625 C 365.85707,206.51071 370.73177,217.89933 390.90359,259.86218 C 407.38374,294.14534 416.21499,314.95219 424.43431,338.86218 C 428.02662,349.31218 432.40481,361.60035 434.16364,366.16922 C 442.54477,387.94079 468.48617,418.71072 548.14286,501.36368 C 619.99661,575.92019 633.33306,590.4373 636.79321,597.86218 C 639.51209,603.6964 639.80605,610.16235 637.56694,614.88093 C 628.55785,633.86617 542.2844,714.62873 517.71057,727.08124 C 512.52714,729.70788 501.73471,731.22302 499.45542,729.64406 z " />
    </g>
    <circle
       sodipodi:ry="40"
       sodipodi:rx="40"
       sodipodi:cy="265"
       sodipodi:cx="65"
       style="fill:url(#radialGradient15190);stroke:black;stroke-width:8"
       cx="65"
       cy="265"
       r="40"
       id="circle15166"
       transform="matrix(1.113959,0,0,1.113959,211.6453,-177.0169)" />
    <g
       id="pRed"
       inkscape:label="Layer 1"
       transform="matrix(0.27464,0,0,0.27464,216.9043,42.39529)">
      <path
         d="M 237.08507,413.39984 C 228.29817,412.72562 218.52647,410.90872 215.62905,409.4104 L 214.31284,408.72977 L 215.23212,407.75124 C 215.73772,407.21304 217.29306,406.16421 218.68842,405.42049 C 222.35094,403.46839 222.80048,402.90448 222.80048,400.26224 C 222.80048,399.03519 221.57191,390.70427 220.07032,381.74908 C 216.60508,361.08301 214.47255,346.09952 212.31928,327.28909 C 207.53438,285.4893 206.95173,282.28028 202.64362,273.99955 C 199.18594,267.35345 193.79792,262.94256 185.83564,260.23976 C 177.45437,257.39472 166.28344,255.77358 151.37754,255.23916 C 147.33374,255.09418 143.22152,254.77534 142.23926,254.53062 C 140.3939,254.07087 138.80344,252.58862 137.4276,250.04633 C 136.74241,248.78022 136.59983,248.72385 134.08235,248.72385 C 132.63609,248.72385 128.98012,249.12959 125.95796,249.62549 C 120.69411,250.48923 120.39876,250.49658 118.9319,249.80051 C 118.01293,249.36443 116.81206,248.20596 115.92859,246.90323 C 110.5176,238.92444 113.09169,226.12013 120.53588,223.98517 C 121.94102,223.58218 124.25628,224.13159 128.06005,225.77066 C 129.99548,226.60464 131.29463,226.85921 133.65446,226.86686 C 136.8963,226.87738 137.6632,226.61985 140.0339,224.72463 C 143.49457,221.95805 151.09302,220.4745 174.27489,218.03928 C 192.5245,216.12219 191.00511,216.53751 214.18761,207.12892 C 218.80903,205.25332 223.01563,203.31906 223.53561,202.83057 C 224.27089,202.13981 224.48102,201.47684 224.48102,199.84775 C 224.48102,197.84863 224.37051,197.64595 222.0583,195.40453 C 220.7258,194.11282 218.43099,192.0293 216.95872,190.77448 C 213.65463,187.95839 211.42064,184.4558 205.80237,173.79011 C 200.1841,163.12441 201.24463,164.3697 191.39561,160.4397 C 185.18631,157.96204 183.30779,156.99943 183.30779,156.29527 C 183.30779,155.15517 188.97256,153.35304 198.35051,151.50973 C 206.79185,149.85052 207.29399,149.58939 214.18771,143.27384 C 227.34294,131.22193 237.27783,126.67453 248.71554,127.46975 C 259.5499,128.22302 270.35844,133.66613 280.35897,142.46174 C 290.35951,151.25736 290.24865,150.94276 299.31424,153.1117 C 305.80978,154.66576 310.03134,156.04865 310.96937,156.92964 C 311.44261,157.37411 311.22725,157.64878 309.70897,158.53713 C 308.70182,159.12642 305.56081,160.59437 302.72889,161.79925 C 299.89697,163.00413 296.85624,164.6094 295.97173,165.36652 C 294.86161,166.31676 293.49987,168.42108 291.57506,172.1608 C 286.45026,182.11783 282.35071,186.95715 274.68959,192.09345 C 268.5102,196.23633 267.75492,197.0651 267.75492,199.70306 C 267.75492,201.65978 269.07465,203.08084 272.2063,204.49613 C 279.86985,207.95954 298.30222,215.60115 300.73552,216.32363 C 304.67193,217.49241 307.10018,217.82685 320.90199,219.10109 C 341.31274,220.98551 348.40012,222.17574 351.57184,224.25166 C 353.72533,225.66114 356.65056,225.9189 360.67751,225.05399 C 367.68977,223.54789 369.57295,223.72577 371.96763,226.12045 C 375.93681,230.08963 377.03757,236.79524 374.81602,243.47217 C 373.75518,246.66059 372.36827,248.49257 370.16399,249.61711 C 367.87056,250.78712 365.85799,250.5329 360.00282,248.33361 C 357.49831,247.39287 355.04943,246.62699 354.56085,246.63166 C 353.9638,246.63736 352.70814,247.8047 350.73157,250.19155 C 347.29542,254.34096 348.34109,254.02876 336.65705,254.39373 C 322.1829,254.84585 311.30086,256.05541 306.16416,257.78309 C 300.26102,259.76854 296.09752,263.03078 294.12373,267.21722 C 291.5751,272.62282 289.75357,283.42395 287.92548,303.9716 C 285.63095,329.76116 282.50506,350.67376 276.34097,381.47255 C 274.60825,390.13016 273.07429,398.58904 272.93221,400.27007 L 272.67382,403.32648 L 274.52078,404.10752 C 275.53658,404.53709 277.26262,405.21484 278.35644,405.61363 C 279.45026,406.01242 280.76419,406.67798 281.27629,407.09265 L 282.2074,407.8466 L 280.91414,408.51537 C 277.87967,410.08455 267.12823,412.1941 259.56229,412.96218 C 251.99636,413.73026 242.50246,413.81552 237.08507,413.39984 z "
         id="path1371"
         sodipodi:nodetypes="ccccssssssssssssssssssssssszssssszsssssssssssssssssssssssscccsccccc"
         style="fill:red;fill-opacity:1" />
    </g>
    <path
       sodipodi:type="arc"
       style="opacity:1;fill:url(#radialGradient2196);fill-opacity:1;stroke:none;stroke-width:1;stroke-linecap:butt;stroke-linejoin:miter;stroke-miterlimit:4;stroke-dasharray:none;stroke-opacity:1"
       id="path17956"
       sodipodi:cx="124.75272"
       sodipodi:cy="122.93433"
       sodipodi:rx="36.904343"
       sodipodi:ry="36.503208"
       d="M 161.65707 122.93433 A 36.904343 36.503208 0 1 1  87.848381,122.93433 A 36.904343 36.503208 0 1 1  161.65707 122.93433 z"
       transform="matrix(1.046757,0,0,1.028362,-6.581787,-6.462733)" />
    <path
       sodipodi:type="arc"
       style="opacity:1;fill:url(#radialGradient17970);fill-opacity:1;stroke:none;stroke-width:1;stroke-linecap:butt;stroke-linejoin:miter;stroke-miterlimit:4;stroke-dasharray:none;stroke-opacity:1"
       id="path17968"
       sodipodi:cx="124.75272"
       sodipodi:cy="122.93433"
       sodipodi:rx="36.904343"
       sodipodi:ry="36.503208"
       d="M 161.65707 122.93433 A 36.904343 36.503208 0 1 1  87.848381,122.93433 A 36.904343 36.503208 0 1 1  161.65707 122.93433 z"
       transform="translate(-2.474303,97.07451)" />
    <path
       sodipodi:type="arc"
       style="opacity:1;fill:url(#radialGradient17974);fill-opacity:1;stroke:none;stroke-width:1;stroke-linecap:butt;stroke-linejoin:miter;stroke-miterlimit:4;stroke-dasharray:none;stroke-opacity:1"
       id="path17972"
       sodipodi:cx="124.75272"
       sodipodi:cy="122.93433"
       sodipodi:rx="36.904343"
       sodipodi:ry="36.503208"
       d="M 161.65707 122.93433 A 36.904343 36.503208 0 1 1  87.848381,122.93433 A 36.904343 36.503208 0 1 1  161.65707 122.93433 z"
       transform="translate(-1.093814,196.6678)" />
    <g
       id="button"
       transform="translate(-2.077161,-1.384774)"
       inkscape:label="#g4648">
      <rect
         y="305.7446"
         x="254.4888"
         height="59.127613"
         width="59.127613"
         id="rect17978"
         style="opacity:1;fill:#f6ff00;fill-opacity:1;stroke:black;stroke-width:4.86999989;stroke-linecap:butt;stroke-linejoin:miter;stroke-miterlimit:4;stroke-dasharray:none;stroke-opacity:1" />
      <rect
         y="311.50992"
         x="260.25412"
         height="47.596958"
         width="47.596958"
         id="rect18865"
         style="opacity:1;fill:#fff800;fill-opacity:1;stroke:black;stroke-width:3.92028666;stroke-linecap:butt;stroke-linejoin:miter;stroke-miterlimit:4;stroke-dasharray:none;stroke-opacity:1" />
      <path
         transform="matrix(0.62004,-0.499291,0.499291,0.62004,269.6292,239.6778)"
         d="M -56.161647,137.32442 L -94.077663,107.02462 L -48.879258,89.338289 L -56.161647,137.32442 z "
         inkscape:randomized="0"
         inkscape:rounded="0"
         inkscape:flatsided="true"
         sodipodi:arg2="2.2450062"
         sodipodi:arg1="1.1978086"
         sodipodi:r2="14.011014"
         sodipodi:r1="28.022028"
         sodipodi:cy="111.22911"
         sodipodi:cx="-66.372856"
         sodipodi:sides="3"
         id="path18883"
         style="opacity:1;fill:#ffbc00;fill-opacity:1;stroke:black;stroke-width:4.86999989;stroke-linecap:butt;stroke-linejoin:miter;stroke-miterlimit:4;stroke-dasharray:none;stroke-opacity:1"
         sodipodi:type="star" />
      <text
         sodipodi:linespacing="125%"
         id="text18885"
         y="346.68317"
         x="280.04382"
         style="font-size:20px;font-style:normal;font-variant:normal;font-weight:normal;font-stretch:normal;text-align:start;line-height:125%;writing-mode:lr-tb;text-anchor:start;fill:black;fill-opacity:1;stroke:none;stroke-width:1pt;stroke-linecap:butt;stroke-linejoin:miter;stroke-opacity:1;font-family:Bitstream Vera Sans"
         xml:space="preserve"><tspan
           y="346.68317"
           x="280.04382"
           id="tspan18887"
           sodipodi:role="line">!</tspan></text>
    </g>
    <path
       sodipodi:type="arc"
       style="opacity:1;fill:url(#radialGradient3087);fill-opacity:1;stroke:none;stroke-width:1;stroke-linecap:butt;stroke-linejoin:miter;stroke-miterlimit:4;stroke-dasharray:none;stroke-opacity:1"
       id="path3085"
       sodipodi:cx="124.75272"
       sodipodi:cy="122.93433"
       sodipodi:rx="36.904343"
       sodipodi:ry="36.503208"
       d="M 161.65707 122.93433 A 36.904343 36.503208 0 1 1  87.848381,122.93433 A 36.904343 36.503208 0 1 1  161.65707 122.93433 z"
       transform="matrix(1.177677,0,0,1.132358,137.1342,87.09346)" />
    <path
       sodipodi:type="arc"
       style="opacity:1;fill:url(#radialGradient3091);fill-opacity:1;stroke:none;stroke-width:1;stroke-linecap:butt;stroke-linejoin:miter;stroke-miterlimit:4;stroke-dasharray:none;stroke-opacity:1"
       id="path3089"
       sodipodi:cx="124.75272"
       sodipodi:cy="122.93433"
       sodipodi:rx="36.904343"
       sodipodi:ry="36.503208"
       d="M 161.65707 122.93433 A 36.904343 36.503208 0 1 1  87.848381,122.93433 A 36.904343 36.503208 0 1 1  161.65707 122.93433 z"
       transform="matrix(1.224434,0,0,1.198537,131.3011,-30.81173)" />
  </g>
</svg>
