<?xml version="1.0" encoding="UTF-8" standalone="no"?>
<!-- Created with Inkscape (http://www.inkscape.org/) -->
<svg
   xmlns:dc="http://purl.org/dc/elements/1.1/"
   xmlns:cc="http://creativecommons.org/ns#"
   xmlns:rdf="http://www.w3.org/1999/02/22-rdf-syntax-ns#"
   xmlns:svg="http://www.w3.org/2000/svg"
   xmlns="http://www.w3.org/2000/svg"
   xmlns:xlink="http://www.w3.org/1999/xlink"
   xmlns:sodipodi="http://sodipodi.sourceforge.net/DTD/sodipodi-0.dtd"
   xmlns:inkscape="http://www.inkscape.org/namespaces/inkscape"
   width="291.08395"
   height="330"
   id="svg14844"
   viewBox="0 0 292 330"
   sodipodi:version="0.32"
   inkscape:version="0.46"
   sodipodi:docbase="/home/haf/shared/kieler/trunk/kev/de.cau.cs.kieler.kev/examples"
   sodipodi:docname="Trafficlight.svg"
   version="1.0"
   inkscape:output_extension="org.inkscape.output.svg.inkscape">
  <defs
     id="defs14846">
    <inkscape:perspective
       sodipodi:type="inkscape:persp3d"
       inkscape:vp_x="0 : 165 : 1"
       inkscape:vp_y="0 : 1000 : 0"
       inkscape:vp_z="291.08395 : 165 : 1"
       inkscape:persp3d-origin="145.54198 : 110 : 1"
       id="perspective104" />
    <linearGradient
       x1="0"
       y1="0"
       x2="0"
       y2="1.05"
       id="linearGradient2876">
      <stop
         stop-color="#fff"
         stop-opacity="0.9;"
         offset="0"
         id="stop2878"
         style="stop-color:white;stop-opacity:0.90196079;" />
      <stop
         stop-color="#fff"
         stop-opacity="0.2;"
         offset="0.7"
         id="stop2880" />
      <stop
         stop-color="#fff"
         stop-opacity="0.3;"
         offset="1"
         id="stop2882" />
    </linearGradient>
    <path
       id="reflex"
       d="M 35,50 C 40.908991,38.920641 52.443394,32 65,32 C 77.556606,32 89.091009,38.920641 95,50 C 97,53.333333 97,56.666667 95,60 C 75,72 55,72 35,60 C 33,56.666667 33,53.333333 35,50 z " />
    <linearGradient
       id="rg"
       y2="1.05"
       x2="0"
       y1="0"
       x1="0">
      <stop
         id="stop14887"
         offset="0"
         stop-opacity="0.9;"
         stop-color="#fff"
         style="stop-color:white;stop-opacity:0.77319586;" />
      <stop
         id="stop14889"
         offset="0.69999999"
         stop-opacity="0.2;"
         stop-color="#fff"
         style="stop-color:white;stop-opacity:0.05154639;" />
      <stop
         id="stop14891"
         offset="1"
         stop-opacity="0.3;"
         stop-color="#fff"
         style="stop-color:white;stop-opacity:0.21649484;" />
    </linearGradient>
    <radialGradient
       id="b"
       fy="265"
       fx="65"
       r="44"
       cy="265"
       cx="65"
       gradientUnits="userSpaceOnUse">
      <stop
         id="stop14880"
         offset="0"
         stop-color="#4d4d4d" />
      <stop
         id="stop14882"
         offset="0.7"
         stop-color="#1a1a1a" />
      <stop
         id="stop14884"
         offset="1"
         stop-color="#000000" />
    </radialGradient>
    <radialGradient
       id="y"
       fy="165"
       fx="65"
       r="44"
       cy="165"
       cx="65"
       gradientUnits="userSpaceOnUse">
      <stop
         id="stop14873"
         offset="0"
         stop-color="#fcfc74" />
      <stop
         id="stop14875"
         offset="0.7"
         stop-color="#d4d53a" />
      <stop
         id="stop14877"
         offset="1"
         stop-color="#afa500" />
    </radialGradient>
    <radialGradient
       id="r"
       fy="65"
       fx="65"
       r="44"
       cy="65"
       cx="65"
       gradientUnits="userSpaceOnUse">
      <stop
         id="stop14866"
         offset="0"
         stop-color="#fc7474" />
      <stop
         id="stop14868"
         offset="0.7"
         stop-color="#d53a3a" />
      <stop
         id="stop14870"
         offset="1"
         stop-color="#af0000" />
    </radialGradient>
    <linearGradient
       y2="186.41083"
       x2="82.849258"
       y1="0"
       x1="0"
       id="back"
       gradientTransform="scale(0.627646,1.593255)"
       gradientUnits="userSpaceOnUse">
      <stop
         id="stop14861"
         offset="0"
         stop-color="#5c656c" />
      <stop
         id="stop14863"
         offset="1"
         stop-color="#aab2b7" />
    </linearGradient>
    <path
       id="path15017"
       d="M 35,50 C 40.908991,38.920641 52.443394,32 65,32 C 77.556606,32 89.091009,38.920641 95,50 C 97,53.333333 97,56.666667 95,60 C 75,72 55,72 35,60 C 33,56.666667 33,53.333333 35,50 z " />
    <linearGradient
       id="linearGradient15012"
       y2="1.05"
       x2="0"
       y1="0"
       x1="0">
      <stop
         id="stop14972"
         offset="0"
         stop-opacity="0.9;"
         stop-color="#fff" />
      <stop
         id="stop14974"
         offset="0.7"
         stop-opacity="0.2;"
         stop-color="#fff" />
      <stop
         id="stop14976"
         offset="1"
         stop-opacity="0.3;"
         stop-color="#fff" />
    </linearGradient>
    <radialGradient
       id="radialGradient15007"
       fy="0.5"
       fx="0.5"
       r="0.5"
       cy="0.5"
       cx="0.5">
      <stop
         id="stop14965"
         offset="0"
         stop-color="#4d4d4d" />
      <stop
         id="stop14967"
         offset="0.7"
         stop-color="#1a1a1a" />
      <stop
         id="stop14969"
         offset="1"
         stop-color="#000000" />
    </radialGradient>
    <radialGradient
       id="radialGradient15002"
       fy="0.5"
       fx="0.5"
       r="0.5"
       cy="0.5"
       cx="0.5">
      <stop
         id="stop14958"
         offset="0"
         stop-color="#fcfc74" />
      <stop
         id="stop14960"
         offset="0.7"
         stop-color="#d4d53a" />
      <stop
         id="stop14962"
         offset="1"
         stop-color="#afa500" />
    </radialGradient>
    <radialGradient
       id="radialGradient14997"
       fy="0.5"
       fx="0.5"
       r="0.5"
       cy="0.5"
       cx="0.5">
      <stop
         id="stop14951"
         offset="0"
         stop-color="#fc7474" />
      <stop
         id="stop14953"
         offset="0.7"
         stop-color="#d53a3a" />
      <stop
         id="stop14955"
         offset="1"
         stop-color="#af0000" />
    </radialGradient>
    <linearGradient
       y2="0.89999998"
       x2="0.40000001"
       y1="0"
       x1="0"
       id="linearGradient14993">
      <stop
         id="stop14946"
         offset="0"
         stop-color="#5c656c" />
      <stop
         id="stop14948"
         offset="1"
         stop-color="#aab2b7" />
    </linearGradient>
    <linearGradient
       id="linearGradient2070">
      <stop
         style="stop-color:#ff0000;stop-opacity:1.0000000;"
         offset="0.0000000"
         id="stop2072" />
      <stop
         style="stop-color:#9a1a00;stop-opacity:1.0000000;"
         offset="1.0000000"
         id="stop2074" />
    </linearGradient>
    <linearGradient
       id="linearGradient3528">
      <stop
         style="stop-color:white;stop-opacity:0;"
         offset="0"
         id="stop3530" />
      <stop
         style="stop-color:black;stop-opacity:0.39175257;"
         offset="1"
         id="stop3532" />
    </linearGradient>
    <linearGradient
       inkscape:collect="always"
       xlink:href="#back"
       id="linearGradient15110"
       gradientUnits="userSpaceOnUse"
       gradientTransform="matrix(0.635938,0,0,1.113422,218.1939,55.85133)"
       x1="0"
       y1="0"
       x2="82.849258"
       y2="186.41083" />
    <radialGradient
       inkscape:collect="always"
       xlink:href="#b"
       id="radialGradient15112"
       gradientUnits="userSpaceOnUse"
       cx="65"
       cy="265"
       fx="65"
       fy="265"
       r="44" />
    <radialGradient
       inkscape:collect="always"
       xlink:href="#b"
       id="radialGradient15190"
       gradientUnits="userSpaceOnUse"
       cx="65"
       cy="265"
       fx="65"
       fy="265"
       r="44" />
    <radialGradient
       inkscape:collect="always"
       xlink:href="#linearGradient3528"
       id="radialGradient17020"
       gradientUnits="userSpaceOnUse"
       gradientTransform="matrix(0.420135,0,0,0.457467,505.0828,124.9475)"
       cx="356.63849"
       cy="420.37048"
       fx="356.63849"
       fy="420.37048"
       r="312.88068" />
    <radialGradient
       inkscape:collect="always"
       xlink:href="#linearGradient3528"
       id="radialGradient17040"
       gradientUnits="userSpaceOnUse"
       gradientTransform="matrix(1,0,0,1.112913,0,-39.61257)"
       cx="298.12531"
       cy="350.82419"
       fx="298.12531"
       fy="350.82419"
       r="340.96289" />
    <radialGradient
       inkscape:collect="always"
       xlink:href="#linearGradient3528"
       id="radialGradient17042"
       gradientUnits="userSpaceOnUse"
       gradientTransform="matrix(1,0,0,1.112913,0,-39.61257)"
       cx="298.12531"
       cy="350.82419"
       fx="298.12531"
       fy="350.82419"
       r="340.96289" />
    <radialGradient
       inkscape:collect="always"
       xlink:href="#linearGradient3528"
       id="radialGradient17044"
       gradientUnits="userSpaceOnUse"
       gradientTransform="matrix(1,0,0,1.112913,0,-39.61257)"
       cx="298.12531"
       cy="350.82419"
       fx="298.12531"
       fy="350.82419"
       r="340.96289" />
    <radialGradient
       inkscape:collect="always"
       xlink:href="#linearGradient3528"
       id="radialGradient17046"
       gradientUnits="userSpaceOnUse"
       gradientTransform="matrix(1,0,0,1.112913,0,-39.61257)"
       cx="298.12531"
       cy="350.82419"
       fx="298.12531"
       fy="350.82419"
       r="340.96289" />
    <radialGradient
       inkscape:collect="always"
       xlink:href="#linearGradient3528"
       id="radialGradient17048"
       gradientUnits="userSpaceOnUse"
       gradientTransform="matrix(1,0,0,1.112913,0,-39.61257)"
       cx="298.12531"
       cy="350.82419"
       fx="298.12531"
       fy="350.82419"
       r="340.96289" />
    <radialGradient
       inkscape:collect="always"
       xlink:href="#linearGradient3528"
       id="radialGradient17050"
       gradientUnits="userSpaceOnUse"
       gradientTransform="matrix(1,0,0,1.112913,0,-39.61257)"
       cx="298.12531"
       cy="350.82419"
       fx="298.12531"
       fy="350.82419"
       r="340.96289" />
    <radialGradient
       inkscape:collect="always"
       xlink:href="#linearGradient3528"
       id="radialGradient17052"
       gradientUnits="userSpaceOnUse"
       gradientTransform="matrix(1,0,0,1.112913,0,-39.61257)"
       cx="298.12531"
       cy="350.82419"
       fx="298.12531"
       fy="350.82419"
       r="340.96289" />
    <radialGradient
       inkscape:collect="always"
       xlink:href="#linearGradient3528"
       id="radialGradient17054"
       gradientUnits="userSpaceOnUse"
       gradientTransform="matrix(1,0,0,1.112913,0,-39.61257)"
       cx="298.12531"
       cy="350.82419"
       fx="298.12531"
       fy="350.82419"
       r="340.96289" />
    <linearGradient
       inkscape:collect="always"
       xlink:href="#back"
       id="linearGradient17067"
       gradientUnits="userSpaceOnUse"
       gradientTransform="matrix(0.627646,0,0,1.593255,57.96866,54.71846)"
       x1="0"
       y1="0"
       x2="82.849258"
       y2="186.41083" />
    <radialGradient
       inkscape:collect="always"
       xlink:href="#linearGradient3528"
       id="radialGradient17970"
       gradientUnits="userSpaceOnUse"
       gradientTransform="matrix(1,0,0,0.98913,0,1.336244)"
       cx="124.75272"
       cy="122.93433"
       fx="124.75272"
       fy="122.93433"
       r="36.904343" />
    <radialGradient
       inkscape:collect="always"
       xlink:href="#linearGradient3528"
       id="radialGradient17974"
       gradientUnits="userSpaceOnUse"
       gradientTransform="matrix(1,0,0,0.98913,0,1.336244)"
       cx="124.75272"
       cy="122.93433"
       fx="124.75272"
       fy="122.93433"
       r="36.904343" />
    <radialGradient
       inkscape:collect="always"
       xlink:href="#linearGradient3528"
       id="radialGradient2196"
       gradientUnits="userSpaceOnUse"
       gradientTransform="matrix(1,0,0,0.98913,0,1.336244)"
       cx="124.75272"
       cy="122.93433"
       fx="124.75272"
       fy="122.93433"
       r="36.904343" />
    <radialGradient
       inkscape:collect="always"
       xlink:href="#linearGradient3528"
       id="radialGradient3087"
       gradientUnits="userSpaceOnUse"
       gradientTransform="matrix(1,0,0,0.98913,0,1.336244)"
       cx="124.75272"
       cy="122.93433"
       fx="124.75272"
       fy="122.93433"
       r="36.904343" />
    <radialGradient
       inkscape:collect="always"
       xlink:href="#linearGradient3528"
       id="radialGradient3091"
       gradientUnits="userSpaceOnUse"
       gradientTransform="matrix(1,0,0,0.98913,0,1.336244)"
       cx="124.75272"
       cy="122.93433"
       fx="124.75272"
       fy="122.93433"
       r="36.904343" />
    <radialGradient
       inkscape:collect="always"
       xlink:href="#b"
       id="radialGradient2472"
       gradientUnits="userSpaceOnUse"
       cx="65"
       cy="265"
       fx="65"
       fy="265"
       r="44" />
    <radialGradient
       inkscape:collect="always"
       xlink:href="#linearGradient3528"
       id="radialGradient2466"
       gradientUnits="userSpaceOnUse"
       gradientTransform="matrix(1,0,0,0.98913,0,1.336244)"
       cx="124.75272"
       cy="122.93433"
       fx="124.75272"
       fy="122.93433"
       r="36.904343" />
  </defs>
  <sodipodi:namedview
     id="base"
     pagecolor="#ffffff"
     bordercolor="#666666"
     borderopacity="1.0"
     gridtolerance="10000"
     guidetolerance="10"
     objecttolerance="10"
     inkscape:pageopacity="0.0"
     inkscape:pageshadow="2"
     inkscape:zoom="1.4488243"
     inkscape:cx="211.59894"
     inkscape:cy="128.2074"
     inkscape:document-units="px"
     inkscape:current-layer="layer1"
     inkscape:window-width="1272"
     inkscape:window-height="948"
     inkscape:window-x="0"
     inkscape:window-y="22"
     showgrid="false" />
  <metadata
     id="metadata14849">
    <rdf:RDF>
      <cc:Work
         rdf:about="">
        <dc:format>image/svg+xml</dc:format>
        <dc:type
           rdf:resource="http://purl.org/dc/dcmitype/StillImage" />
      </cc:Work>
    </rdf:RDF>
  </metadata>
  <g
     inkscape:label="Layer 1"
     inkscape:groupmode="layer"
     id="layer1"
     transform="translate(-57.96866,-54.71846)">
    <rect
       style="fill:url(#linearGradient17067);stroke:black;stroke-width:10"
       width="120"
       height="320"
       x="62.968658"
       y="59.71846"
       id="rect14894" />
    <circle
       sodipodi:ry="40"
       sodipodi:rx="40"
       sodipodi:cy="65"
       sodipodi:cx="65"
       style="fill:#ff0000;fill-opacity:1;stroke:#000000;stroke-width:8"
       cx="65"
       cy="65"
       r="40"
       id="cRed"
       transform="translate(57.96866,54.71846)"
       inkscape:label="#redlight" />
    <circle
       sodipodi:ry="40"
       sodipodi:rx="40"
       sodipodi:cy="165"
       sodipodi:cx="65"
       style="fill:#ffe400;fill-opacity:1;stroke:black;stroke-width:8"
       cx="65"
       cy="165"
       r="40"
       id="cYellow"
       transform="translate(57.96866,54.71846)"
       inkscape:label="#yellight" />
    <circle
       sodipodi:ry="40"
       sodipodi:rx="40"
       sodipodi:cy="265"
       sodipodi:cx="65"
       style="fill:lime;fill-opacity:1;stroke:black;stroke-width:8"
       cx="65"
       cy="265"
       r="40"
       id="cGreen"
       transform="translate(57.96866,54.71846)"
       inkscape:label="#grelight" />
    <rect
       style="fill:url(#linearGradient15110);stroke:black;stroke-width:8.41467476"
       width="121.58533"
       height="223.62724"
       x="223.25995"
       y="59.345512"
       id="rect14979" />
    <circle
       sodipodi:ry="40"
       sodipodi:rx="40"
       sodipodi:cy="265"
       sodipodi:cx="65"
       style="fill:url(#radialGradient15112);stroke:black;stroke-width:8"
       cx="65"
       cy="265"
       r="40"
       id="circle15026"
       transform="matrix(1.113959,0,0,1.113959,211.6453,-70.42859)" />
    <circle
       sodipodi:ry="40"
       sodipodi:rx="40"
       sodipodi:cy="265"
       sodipodi:cx="65"
       style="fill:url(#radialGradient2472);stroke:#000000;stroke-width:8"
       cx="65"
       cy="265"
       r="40"
       id="circle2470"
       transform="matrix(1.1139589,0,0,1.1139589,211.97186,-70.59516)" />
    <g
       inkscape:label="Layer 1"
       transform="matrix(9.351175e-2,0,0,9.351175e-2,258.25156,190.57953)"
       style="fill:#00ff00;fill-opacity:1"
       id="pGreen2">
      <path
         style="fill:#00ff00;fill-opacity:1"
         id="pGreen"
         d="M 498.91743,728.9939 C 496.28466,726.36112 495.91101,721.94801 497.5767,713.15872 C 499.726,701.81758 504.65649,686.12637 512.50347,665.65445 C 516.13116,656.19019 519.86062,645.41581 520.79114,641.71138 L 522.483,634.97604 L 514.69735,627.63148 C 505.65495,619.10138 487.58964,604.54309 456.64286,580.84713 C 417.54508,550.90995 381.91305,521.93064 358.36933,500.92188 C 345.74994,489.66123 341.6921,486.99787 339.19285,488.33542 C 335.57944,490.26927 308.73766,518.10451 268.77249,561.36218 C 191.6684,644.81843 144.77937,694.34863 138.94368,698.50401 L 136.04854,700.56553 L 132.29403,698.08092 C 112.58285,685.03668 34.60392,614.50093 14.509629,591.53919 C 7.079171,583.0484 1.14286,572.90639 1.14286,568.70246 C 1.14286,567.4153 2.099228,565.40581 3.268121,564.23692 C 5.139888,562.36515 6.123924,562.18675 11.518121,562.74126 C 18.58038,563.46724 37.28187,568.27638 58.14286,574.73094 C 80.59692,581.67841 83.13114,581.79231 91.52666,576.23135 C 97.24061,572.44659 105.4923,562.96556 142.76274,517.36218 C 208.28369,437.192 212.14286,431.83592 212.14286,421.07048 C 212.14286,413.59269 210.26258,410.08264 204.85441,407.46459 C 199.17317,404.71435 195.67451,404.81268 187.43835,407.95409 C 166.39243,415.98135 161.56871,417.44375 157.47331,417.03854 C 151.43055,416.44065 143.18228,412.26845 118.01518,397.07955 C 105.71041,389.65334 83.94286,376.93757 69.64286,368.82226 C 33.03395,348.04658 29.0546,345.16211 27.62078,338.36218 C 26.21511,331.69577 20.27209,325.01364 -0.85714,306.34262 C -24.220664,285.69723 -37.014342,272.31003 -40.49854,264.86218 C -44.850549,255.55929 -43.155446,248.75104 -33.191011,235.51209 C -21.879937,220.48397 -14.840948,215.36218 -5.498524,215.36218 C 3.943037,215.36218 12.666556,221.09015 32.64286,240.40626 C 54.78226,261.81398 62.95907,267.75336 78.64286,273.8192 C 84.14286,275.94637 99.44286,282.28577 112.64286,287.90675 C 137.64088,298.55171 156.28275,305.11767 164.15443,306.04996 C 172.54351,307.04352 181.43275,300.18602 193.84071,283.14884 C 208.48614,263.03941 213.59816,256.48149 223.75696,244.77098 C 236.87171,229.65299 246.14286,216.84215 246.14286,213.8382 C 246.14286,207.81787 234.54777,198.78998 221.25496,194.46058 C 206.09358,189.5226 191.58707,178.0725 185.92756,166.57642 C 182.84438,160.31359 182.64309,159.25875 182.64656,149.38321 C 182.6492,141.9055 183.49832,134.43742 185.58205,123.56538 L 188.51384,108.26857 L 178.11226,97.83147 C 171.85477,91.55262 168.09557,87.0576 168.67677,86.5491 C 176.26048,79.91387 182.40155,76.61444 190.28524,74.93949 C 194.55857,74.03159 202.0948,64.66206 210.39286,49.9404 C 214.65536,42.37827 218.14286,35.82024 218.14286,35.36701 C 218.14286,34.91378 214.88036,32.74249 210.89286,30.54192 C 197.97139,23.41101 177.24703,8.8081 167.41375,-0.09454 C 163.02857,-4.0647 162.77977,-4.54551 163.87108,-6.94066 C 167.57844,-15.07744 192.80552,-12.7736 233.27274,-0.60261 L 240.90262,1.69217 L 247.22584,-5.22283 C 263.63674,-23.16958 270.55602,-28.63782 276.85418,-28.63782 C 278.38923,-28.63782 292.46966,-22.64551 308.14402,-15.32156 C 323.81838,-7.99762 357.56786,7.60514 383.14286,19.35125 C 408.71786,31.09735 429.81861,40.84329 430.03341,41.00888 C 430.24822,41.17447 429.63273,50.21791 428.66567,61.10541 C 427.6986,71.99291 427.07286,81.64269 427.27512,82.54936 C 427.50301,83.57092 439.05194,89.90728 457.64286,99.21072 C 474.14286,107.4678 490.78256,116.39228 494.61998,119.04289 C 502.28367,124.33642 504.70702,128.22659 502.01676,130.91685 C 497.89731,135.0363 468.89694,135.26785 443.30281,131.38565 C 427.56426,128.99837 419.08883,128.82164 415.26131,130.80093 C 407.32564,134.90462 366.14286,195.93571 366.14286,203.59233 C 366.14286,206.75405 370.72517,217.39232 383.91935,244.86218 C 407.42217,293.79428 415.26637,312.03756 424.9822,340.36218 C 436.4341,373.74796 437.47859,375.9522 449.50251,392.10849 C 467.18945,415.87407 488.10944,438.85674 562.1494,515.86218 C 624.19384,580.39166 633.28769,590.38278 636.78522,597.86218 C 639.29186,603.22259 639.79639,609.51306 638.08147,614.02365 C 636.12761,619.16268 621.81381,635.64905 602.64286,654.84119 C 568.27955,689.24247 532.2611,719.81324 517.17227,727.38462 C 511.27393,730.34433 501.15952,731.23598 498.91743,728.9939 z" />
    </g>
    <circle
       sodipodi:ry="40"
       sodipodi:rx="40"
       sodipodi:cy="265"
       sodipodi:cx="65"
       style="fill:url(#radialGradient15190);stroke:#000000;stroke-width:8"
       cx="65"
       cy="265"
       r="40"
       id="circle15166"
       transform="matrix(1.113959,0,0,1.113959,211.6453,-177.0169)" />
    <g
       id="pRed2 "
       inkscape:label="Layer 1"
       transform="matrix(0.27464,0,0,0.27464,216.9043,42.39529)">
      <path
         d="M 237.08507,413.39984 C 228.29817,412.72562 218.52647,410.90872 215.62905,409.4104 L 214.31284,408.72977 L 215.23212,407.75124 C 215.73772,407.21304 217.29306,406.16421 218.68842,405.42049 C 222.35094,403.46839 222.80048,402.90448 222.80048,400.26224 C 222.80048,399.03519 221.57191,390.70427 220.07032,381.74908 C 216.60508,361.08301 214.47255,346.09952 212.31928,327.28909 C 207.53438,285.4893 206.95173,282.28028 202.64362,273.99955 C 199.18594,267.35345 193.79792,262.94256 185.83564,260.23976 C 177.45437,257.39472 166.28344,255.77358 151.37754,255.23916 C 147.33374,255.09418 143.22152,254.77534 142.23926,254.53062 C 140.3939,254.07087 138.80344,252.58862 137.4276,250.04633 C 136.74241,248.78022 136.59983,248.72385 134.08235,248.72385 C 132.63609,248.72385 128.98012,249.12959 125.95796,249.62549 C 120.69411,250.48923 120.39876,250.49658 118.9319,249.80051 C 118.01293,249.36443 116.81206,248.20596 115.92859,246.90323 C 110.5176,238.92444 113.09169,226.12013 120.53588,223.98517 C 121.94102,223.58218 124.25628,224.13159 128.06005,225.77066 C 129.99548,226.60464 131.29463,226.85921 133.65446,226.86686 C 136.8963,226.87738 137.6632,226.61985 140.0339,224.72463 C 143.49457,221.95805 151.09302,220.4745 174.27489,218.03928 C 192.5245,216.12219 191.00511,216.53751 214.18761,207.12892 C 218.80903,205.25332 223.01563,203.31906 223.53561,202.83057 C 224.27089,202.13981 224.48102,201.47684 224.48102,199.84775 C 224.48102,197.84863 224.37051,197.64595 222.0583,195.40453 C 220.7258,194.11282 218.43099,192.0293 216.95872,190.77448 C 213.65463,187.95839 211.42064,184.4558 205.80237,173.79011 C 200.1841,163.12441 201.24463,164.3697 191.39561,160.4397 C 185.18631,157.96204 183.30779,156.99943 183.30779,156.29527 C 183.30779,155.15517 188.97256,153.35304 198.35051,151.50973 C 206.79185,149.85052 207.29399,149.58939 214.18771,143.27384 C 227.34294,131.22193 237.27783,126.67453 248.71554,127.46975 C 259.5499,128.22302 270.35844,133.66613 280.35897,142.46174 C 290.35951,151.25736 290.24865,150.94276 299.31424,153.1117 C 305.80978,154.66576 310.03134,156.04865 310.96937,156.92964 C 311.44261,157.37411 311.22725,157.64878 309.70897,158.53713 C 308.70182,159.12642 305.56081,160.59437 302.72889,161.79925 C 299.89697,163.00413 296.85624,164.6094 295.97173,165.36652 C 294.86161,166.31676 293.49987,168.42108 291.57506,172.1608 C 286.45026,182.11783 282.35071,186.95715 274.68959,192.09345 C 268.5102,196.23633 267.75492,197.0651 267.75492,199.70306 C 267.75492,201.65978 269.07465,203.08084 272.2063,204.49613 C 279.86985,207.95954 298.30222,215.60115 300.73552,216.32363 C 304.67193,217.49241 307.10018,217.82685 320.90199,219.10109 C 341.31274,220.98551 348.40012,222.17574 351.57184,224.25166 C 353.72533,225.66114 356.65056,225.9189 360.67751,225.05399 C 367.68977,223.54789 369.57295,223.72577 371.96763,226.12045 C 375.93681,230.08963 377.03757,236.79524 374.81602,243.47217 C 373.75518,246.66059 372.36827,248.49257 370.16399,249.61711 C 367.87056,250.78712 365.85799,250.5329 360.00282,248.33361 C 357.49831,247.39287 355.04943,246.62699 354.56085,246.63166 C 353.9638,246.63736 352.70814,247.8047 350.73157,250.19155 C 347.29542,254.34096 348.34109,254.02876 336.65705,254.39373 C 322.1829,254.84585 311.30086,256.05541 306.16416,257.78309 C 300.26102,259.76854 296.09752,263.03078 294.12373,267.21722 C 291.5751,272.62282 289.75357,283.42395 287.92548,303.9716 C 285.63095,329.76116 282.50506,350.67376 276.34097,381.47255 C 274.60825,390.13016 273.07429,398.58904 272.93221,400.27007 L 272.67382,403.32648 L 274.52078,404.10752 C 275.53658,404.53709 277.26262,405.21484 278.35644,405.61363 C 279.45026,406.01242 280.76419,406.67798 281.27629,407.09265 L 282.2074,407.8466 L 280.91414,408.51537 C 277.87967,410.08455 267.12823,412.1941 259.56229,412.96218 C 251.99636,413.73026 242.50246,413.81552 237.08507,413.39984 z"
         id="pRed"
         sodipodi:nodetypes="ccccssssssssssssssssssssssszssssszsssssssssssssssssssssssscccsccccc"
         style="fill:#ff0000;fill-opacity:1" />
    </g>
    <path
       sodipodi:type="arc"
       style="opacity:1;fill:url(#radialGradient2196);fill-opacity:1;stroke:none;stroke-width:1;stroke-linecap:butt;stroke-linejoin:miter;stroke-miterlimit:4;stroke-dasharray:none;stroke-opacity:1"
       id="path17956"
       sodipodi:cx="124.75272"
       sodipodi:cy="122.93433"
       sodipodi:rx="36.904343"
       sodipodi:ry="36.503208"
       d="M 161.65707 122.93433 A 36.904343 36.503208 0 1 1  87.848381,122.93433 A 36.904343 36.503208 0 1 1  161.65707 122.93433 z"
       transform="matrix(1.046757,0,0,1.028362,-6.581787,-6.462733)" />
    <path
       sodipodi:type="arc"
       style="opacity:1;fill:url(#radialGradient17970);fill-opacity:1;stroke:none;stroke-width:1;stroke-linecap:butt;stroke-linejoin:miter;stroke-miterlimit:4;stroke-dasharray:none;stroke-opacity:1"
       id="path17968"
       sodipodi:cx="124.75272"
       sodipodi:cy="122.93433"
       sodipodi:rx="36.904343"
       sodipodi:ry="36.503208"
       d="M 161.65707 122.93433 A 36.904343 36.503208 0 1 1  87.848381,122.93433 A 36.904343 36.503208 0 1 1  161.65707 122.93433 z"
       transform="translate(-2.474303,97.07451)" />
    <path
       sodipodi:type="arc"
       style="opacity:1;fill:url(#radialGradient17974);fill-opacity:1;stroke:none;stroke-width:1;stroke-linecap:butt;stroke-linejoin:miter;stroke-miterlimit:4;stroke-dasharray:none;stroke-opacity:1"
       id="path17972"
       sodipodi:cx="124.75272"
       sodipodi:cy="122.93433"
       sodipodi:rx="36.904343"
       sodipodi:ry="36.503208"
       d="M 161.65707 122.93433 A 36.904343 36.503208 0 1 1  87.848381,122.93433 A 36.904343 36.503208 0 1 1  161.65707 122.93433 z"
       transform="translate(-1.093814,196.6678)" />
    <path
       sodipodi:type="arc"
       style="opacity:1;fill:url(#radialGradient3091);fill-opacity:1;stroke:none;stroke-width:1;stroke-linecap:butt;stroke-linejoin:miter;stroke-miterlimit:4;stroke-dasharray:none;stroke-opacity:1"
       id="path3089"
       sodipodi:cx="124.75272"
       sodipodi:cy="122.93433"
       sodipodi:rx="36.904343"
       sodipodi:ry="36.503208"
       d="M 161.65707,122.93433 A 36.904343,36.503208 0 1 1 87.848381,122.93433 A 36.904343,36.503208 0 1 1 161.65707,122.93433 z"
       transform="matrix(1.224434,0,0,1.198537,131.3011,-30.81173)" />
    <path
       sodipodi:type="arc"
       style="opacity:1;fill:url(#radialGradient2466);fill-opacity:1;stroke:none;stroke-width:1;stroke-linecap:butt;stroke-linejoin:miter;stroke-miterlimit:4;stroke-dasharray:none;stroke-opacity:1"
       id="path2464"
       sodipodi:cx="124.75272"
       sodipodi:cy="122.93433"
       sodipodi:rx="36.904343"
       sodipodi:ry="36.503208"
       d="M 161.65707,122.93433 A 36.904343,36.503208 0 1 1 87.848381,122.93433 A 36.904343,36.503208 0 1 1 161.65707,122.93433 z"
       transform="matrix(1.224434,0,0,1.198537,130.93532,78.778571)" />
  </g>
</svg>
