<?xml version="1.0" encoding="UTF-8" standalone="no"?>
<!-- Created with Inkscape (http://www.inkscape.org/) -->
<svg
   xmlns:dc="http://purl.org/dc/elements/1.1/"
   xmlns:cc="http://creativecommons.org/ns#"
   xmlns:rdf="http://www.w3.org/1999/02/22-rdf-syntax-ns#"
   xmlns:svg="http://www.w3.org/2000/svg"
   xmlns="http://www.w3.org/2000/svg"
   xmlns:sodipodi="http://sodipodi.sourceforge.net/DTD/sodipodi-0.dtd"
   xmlns:inkscape="http://www.inkscape.org/namespaces/inkscape"
   width="677.29321"
   height="555.15118"
   id="svg2"
   sodipodi:version="0.32"
   inkscape:version="0.46"
   sodipodi:docname="backhoe.svg"
   inkscape:output_extension="org.inkscape.output.svg.inkscape"
   version="1.0"
   viewBox="0 0 700 600">
  <sodipodi:namedview
     id="base"
     pagecolor="#ffffff"
     bordercolor="#666666"
     borderopacity="1.0"
     gridtolerance="10000"
     guidetolerance="10"
     objecttolerance="10"
     inkscape:pageopacity="0.0"
     inkscape:pageshadow="2"
     inkscape:zoom="0.88268748"
     inkscape:cx="483.67427"
     inkscape:cy="446.82334"
     inkscape:document-units="px"
     inkscape:current-layer="layer1"
     showgrid="true"
     inkscape:window-width="1280"
     inkscape:window-height="900"
     inkscape:window-x="168"
     inkscape:window-y="40"
     showguides="true"
     inkscape:guide-bbox="true">
    <inkscape:grid
       type="xygrid"
       id="grid2435" />
  </sodipodi:namedview>
  <defs
     id="defs4">
    <inkscape:perspective
       sodipodi:type="inkscape:persp3d"
       inkscape:vp_x="0 : 526.18109 : 1"
       inkscape:vp_y="0 : 1000 : 0"
       inkscape:vp_z="744.09448 : 526.18109 : 1"
       inkscape:persp3d-origin="372.04724 : 350.78739 : 1"
       id="perspective10" />
    <inkscape:perspective
       id="perspective2447"
       inkscape:persp3d-origin="372.04724 : 350.78739 : 1"
       inkscape:vp_z="744.09448 : 526.18109 : 1"
       inkscape:vp_y="0 : 1000 : 0"
       inkscape:vp_x="0 : 526.18109 : 1"
       sodipodi:type="inkscape:persp3d" />
    <inkscape:perspective
       id="perspective2497"
       inkscape:persp3d-origin="372.04724 : 350.78739 : 1"
       inkscape:vp_z="744.09448 : 526.18109 : 1"
       inkscape:vp_y="0 : 1000 : 0"
       inkscape:vp_x="0 : 526.18109 : 1"
       sodipodi:type="inkscape:persp3d" />
    <inkscape:perspective
       id="perspective2623"
       inkscape:persp3d-origin="372.04724 : 350.78739 : 1"
       inkscape:vp_z="744.09448 : 526.18109 : 1"
       inkscape:vp_y="0 : 1000 : 0"
       inkscape:vp_x="0 : 526.18109 : 1"
       sodipodi:type="inkscape:persp3d" />
    <inkscape:perspective
       id="perspective2777"
       inkscape:persp3d-origin="372.04724 : 350.78739 : 1"
       inkscape:vp_z="744.09448 : 526.18109 : 1"
       inkscape:vp_y="0 : 1000 : 0"
       inkscape:vp_x="0 : 526.18109 : 1"
       sodipodi:type="inkscape:persp3d" />
    <inkscape:perspective
       id="perspective2827"
       inkscape:persp3d-origin="372.04724 : 350.78739 : 1"
       inkscape:vp_z="744.09448 : 526.18109 : 1"
       inkscape:vp_y="0 : 1000 : 0"
       inkscape:vp_x="0 : 526.18109 : 1"
       sodipodi:type="inkscape:persp3d" />
    <inkscape:perspective
       id="perspective2877"
       inkscape:persp3d-origin="372.04724 : 350.78739 : 1"
       inkscape:vp_z="744.09448 : 526.18109 : 1"
       inkscape:vp_y="0 : 1000 : 0"
       inkscape:vp_x="0 : 526.18109 : 1"
       sodipodi:type="inkscape:persp3d" />
    <inkscape:perspective
       id="perspective2927"
       inkscape:persp3d-origin="372.04724 : 350.78739 : 1"
       inkscape:vp_z="744.09448 : 526.18109 : 1"
       inkscape:vp_y="0 : 1000 : 0"
       inkscape:vp_x="0 : 526.18109 : 1"
       sodipodi:type="inkscape:persp3d" />
    <inkscape:perspective
       id="perspective2977"
       inkscape:persp3d-origin="372.04724 : 350.78739 : 1"
       inkscape:vp_z="744.09448 : 526.18109 : 1"
       inkscape:vp_y="0 : 1000 : 0"
       inkscape:vp_x="0 : 526.18109 : 1"
       sodipodi:type="inkscape:persp3d" />
    <inkscape:perspective
       id="perspective3192"
       inkscape:persp3d-origin="372.04724 : 350.78739 : 1"
       inkscape:vp_z="744.09448 : 526.18109 : 1"
       inkscape:vp_y="0 : 1000 : 0"
       inkscape:vp_x="0 : 526.18109 : 1"
       sodipodi:type="inkscape:persp3d" />
    <inkscape:perspective
       id="perspective3291"
       inkscape:persp3d-origin="372.04724 : 350.78739 : 1"
       inkscape:vp_z="744.09448 : 526.18109 : 1"
       inkscape:vp_y="0 : 1000 : 0"
       inkscape:vp_x="0 : 526.18109 : 1"
       sodipodi:type="inkscape:persp3d" />
  </defs>
  <metadata
     id="metadata7">
    <rdf:RDF>
      <cc:Work
         rdf:about="">
        <dc:format>image/svg+xml</dc:format>
        <dc:type
           rdf:resource="http://purl.org/dc/dcmitype/StillImage" />
      </cc:Work>
    </rdf:RDF>
  </metadata>
  <g
     inkscape:label="Layer 1"
     inkscape:groupmode="layer"
     id="layer1"
     transform="translate(-39.013934,-468.13704)">
    <path
       id="path3299"
       d="M 39.013934,923.56018 L 39.013934,823.83214 L 377.66054,823.83214 L 716.30715,823.83214 L 716.30715,923.56018 L 716.30715,1023.2882 L 377.66054,1023.2882 L 39.013934,1023.2882 L 39.013934,923.56018 z"
       style="fill:#cd843f" />
    <path
       id="path3301"
       d="M 38.50025,651.07174 L 38.50025,466.37559 L 377.14689,466.37559 L 715.79347,466.37559 L 715.79347,651.07174 L 715.79347,835.76791 L 377.14689,835.76791 L 38.50025,835.76791 L 38.50025,651.07174 z"
       style="fill:#acd7e5" />
    <g
       id="traktor"
       style="opacity:0.88999999;fill:#ff0000;stroke:#000000">
      <g
         transform="translate(0,4.3231466)"
         id="boom">
        <g
           id="stick">
          <g
             id="bucket">
            <path
               id="path2431"
               d="M 691.748,810.46476 C 686.11235,807.79819 676.95912,803.66575 670.24997,800.75895 C 667.77605,799.6871 664.29198,798.11734 662.5076,797.2706 C 660.34169,796.24281 658.3466,795.98993 656.50563,796.50985 C 654.98893,796.93818 653.523,797.35191 653.248,797.42926 C 652.973,797.5066 650.89257,797.9107 648.62481,798.32726 C 644.64378,799.05853 644.48028,799.24038 643.8825,803.60166 C 642.76311,811.76853 634.57957,815.03483 630.29895,809.02325 C 628.53852,806.55096 628.31571,805.22694 628.86854,800.52325 C 629.22869,797.4589 629.91141,794.9517 630.38568,794.9517 C 630.85996,794.9517 631.248,793.6765 631.248,792.11792 C 631.248,789.11337 631.72281,788.72447 648.96574,777.60586 C 655.88846,773.14193 656.48443,772.9517 663.54622,772.9517 L 670.90896,772.9517 L 674.32085,777.7017 C 677.21731,781.73412 681.76092,788.63162 685.75192,795.05481 C 688.02117,798.707 692.85778,805.69467 695.54387,809.2017 C 698.87136,813.54615 698.51262,813.66552 691.748,810.46476 z"
               style="fill:#000000"
               inkscape:label="#path3091" />
          </g>
          <path
             inkscape:label="#path3125"
             style="fill:#fda605"
             d="M 517.30781,811.66352 C 516.07691,809.47341 515.0698,806.71445 515.0698,805.53248 C 515.0698,804.35052 514.40544,802.36952 513.59345,801.13026 C 512.78146,799.89101 512.21896,797.43273 512.34345,795.66743 C 512.5435,792.83077 512.91841,792.45206 515.5698,792.40847 C 519.1932,792.34889 527.27459,791.65501 532.06915,790.99182 C 533.99451,790.7255 539.1698,790.24159 543.5698,789.91647 C 547.9698,789.59136 552.80051,789.12403 554.3047,788.87798 C 556.73937,788.47973 557.37604,789.02675 560.10428,793.86092 C 561.78985,796.84758 563.70914,799.72408 564.36938,800.25313 C 565.02961,800.78218 568.7198,801.48902 572.5698,801.8239 C 576.4198,802.15877 581.8198,802.64059 584.5698,802.89459 C 587.3198,803.1486 592.7198,803.59058 596.5698,803.87678 C 614.68757,805.22359 618.48029,805.58948 619.24926,806.06473 C 619.70423,806.34592 621.49034,804.30154 623.2184,801.52168 C 625.95875,797.11337 626.69323,796.53563 628.96506,797.00135 C 630.39767,797.29504 633.92954,797.534 636.81367,797.53237 C 641.6152,797.52967 642.18675,797.77929 643.58935,800.49162 C 644.43184,802.12083 644.83285,803.45382 644.48047,803.45382 C 644.12809,803.45382 644.50752,804.47292 645.32365,805.71849 C 647.54943,809.11546 648.43387,814.07238 646.86265,814.34392 C 646.15158,814.4668 617.21441,814.80994 582.55781,815.10643 L 519.54582,815.64552 L 517.30781,811.66352 z"
             id="path2433" />
        </g>
        <path
           id="path2404"
           d="M 534.43028,809.88974 C 531.13029,809.13262 526.91922,808.2877 525.07234,808.01213 C 523.22548,807.73656 521.32351,807.26951 520.84576,806.97424 C 520.368,806.67897 518.72908,806.27079 517.2037,806.06716 C 515.67833,805.86353 511.05528,804.95756 506.93028,804.05389 C 502.80528,803.15023 498.53028,802.25421 497.43028,802.06275 C 496.33029,801.87129 493.18028,801.23098 490.43028,800.63985 C 469.56429,796.15457 468.28189,795.96473 463.93028,796.71699 C 461.45529,797.14484 455.60529,798.16193 450.93028,798.97719 C 439.35618,800.99556 437.4916,801.30697 429.43028,802.56798 C 425.58029,803.17023 420.85529,804.10097 418.93028,804.63628 C 417.00528,805.1716 412.50528,806.02766 408.93028,806.53863 C 405.35529,807.04961 398.01682,808.15404 392.62259,808.99293 C 383.6208,810.39284 382.55257,810.38252 379.62259,808.86737 C 377.86682,807.95942 376.20528,807.28055 375.93028,807.35875 C 375.25573,807.55058 366.59374,804.34697 365.79757,803.6112 C 365.44959,803.2896 364.95514,800.68479 364.69881,797.82272 C 364.14284,791.6151 363.71231,791.80127 380.26459,791.09185 C 390.54945,790.65105 398.13447,788.89388 401.93028,786.07269 C 402.75528,785.45952 412.00231,780.71142 422.47924,775.52134 C 440.04449,766.81986 441.83288,765.68515 445.43972,760.95325 C 448.00572,757.58689 450.96158,755.0829 454.03255,753.67407 C 456.60726,752.49289 459.01968,751.52648 459.3935,751.52648 C 459.76729,751.52648 460.7448,750.85482 461.56572,750.0339 C 462.88916,748.71046 463.39101,748.71337 465.99429,750.05958 C 467.60908,750.89462 468.93028,751.32973 468.93028,751.02648 C 468.93028,750.72323 470.28028,751.17323 471.93028,752.02648 C 474.31744,753.26093 474.93254,754.2365 474.94129,756.80216 C 474.9639,763.42622 476.17437,767.66543 478.32402,768.64881 C 481.21923,769.97328 484.45147,771.88421 486.07363,773.23048 C 486.8198,773.84974 487.88028,774.45801 488.43028,774.5822 C 488.98029,774.70638 490.33029,775.36964 491.43028,776.0561 C 493.62072,777.42306 499.16926,780.58843 508.43028,785.75437 C 511.73029,787.59516 516.23029,789.81374 518.43028,790.68454 C 522.10251,792.13807 524.68122,792.96947 536.56948,796.5328 C 540.23039,797.6301 540.77799,798.19251 541.30847,801.39997 C 542.14231,806.44157 542.07678,811.55189 541.18028,811.3964 C 540.76779,811.32485 537.73028,810.64686 534.43028,809.88974 z"
           style="fill:#fdfd02;stroke:none;stroke-opacity:1"
           inkscape:label="#path3117" />
      </g>
      <g
         id="g2458">
        <g
           id="g2412"
           transform="translate(-0.2209059,23.796409)"
           inkscape:label="#g3241">
          <path
             style="fill:#fdfd00"
             d="M 161.06939,820.78929 C 148.1557,816.5545 140.53582,803.52289 143.88366,791.39803 L 144.91465,787.66412 L 139.49525,787.66412 L 134.07585,787.66412 L 134.07585,780.42284 L 134.07585,773.18156 L 112.79834,794.44182 L 91.520818,815.70207 L 68.346866,815.4331 L 45.172914,815.16412 L 56.217092,797.66412 C 62.29139,788.03912 67.61891,779.78726 68.056026,779.32666 C 68.493143,778.86605 73.241832,785.84105 78.608669,794.82666 C 87.799659,810.21498 92.16364,816.79927 88.830284,810.24884 L 87.346768,807.33356 L 110.71131,781.77269 C 130.37095,760.26499 134.07729,755.73232 134.08496,753.18797 L 134.09405,750.16412 L 174.33495,738.16412 C 196.46744,731.56412 213.56336,726.02032 212.32585,725.84457 C 211.08835,725.66882 210.07585,725.28856 210.07585,724.99955 C 210.07585,724.5008 225.85913,673.54735 226.8293,670.91412 C 227.15051,670.04227 226.04738,669.66412 223.18284,669.66412 C 219.5897,669.66412 219.07615,669.38261 219.07823,667.41412 C 219.08266,663.21897 227.39977,660.13203 245.6807,657.54049 L 261.78555,655.25743 L 296.9307,657.65422 L 332.07585,660.05101 L 332.07585,664.85757 L 332.07585,669.66412 L 320.57585,669.66412 L 309.07585,669.66412 L 309.07585,705.50913 C 309.07585,740.08415 309.14671,741.41827 311.07585,743.16412 C 312.17586,744.15961 313.07585,746.13296 313.07585,747.54936 C 313.07585,749.83395 314.14364,749.06128 322.53627,740.70355 C 333.61377,729.67209 330.77303,728.91313 346.07585,746.99261 C 356.18471,758.9357 356.92042,759.57016 365.82585,764.0244 L 375.07585,768.65098 L 375.07585,780.49335 L 375.07585,792.33572 L 360.82585,796.04898 C 352.98836,798.09128 346.42586,800.19017 346.24253,800.71319 C 345.82509,801.90402 332.07585,801.98253 332.07585,800.79408 C 332.07585,799.91359 323.2511,797.05973 322.7437,797.77613 C 322.59254,797.98952 321.64112,800.06774 320.62939,802.39438 C 318.099,808.21351 310.66909,815.47727 304.07585,818.57774 C 296.1737,822.29373 283.9633,822.29027 276.07585,818.56979 C 269.06205,815.26141 262.47857,808.67793 259.17019,801.66412 C 254.27969,791.29622 256.36772,773.2349 263.16832,767.08044 C 265.5471,764.92767 265.60694,763.64903 263.32585,763.71383 C 262.21425,763.7454 257.45081,769.7645 250.26796,780.21383 L 238.96004,796.66412 L 229.01796,796.66412 C 219.07971,796.66412 219.07585,796.66315 219.07585,794.16412 C 219.07585,791.80927 218.76552,791.66412 213.73084,791.66412 C 209.65582,791.66412 207.95577,791.18891 206.57585,789.66412 C 205.0823,788.01377 203.49588,787.66412 197.50147,787.66412 L 190.23707,787.66412 L 191.26806,791.39803 C 194.14995,801.83543 188.41747,813.97966 178.1637,819.15949 C 174.29067,821.116 164.81933,822.01902 161.06939,820.78929 z M 243.09658,761.41412 C 245.4883,755.20191 248.6706,748.82071 250.20305,747.16412 C 252.21239,744.99198 253.60034,741.61156 255.23268,734.91412 L 257.48714,725.66412 L 273.83691,725.66412 L 290.18669,725.66412 L 292.26459,730.66412 C 293.92951,734.67035 294.81289,735.66412 296.70918,735.66412 L 299.07585,735.66412 L 299.07585,702.66412 L 299.07585,669.66412 L 266.31171,669.66412 L 233.54757,669.66412 L 224.66806,696.41412 C 219.78432,711.12662 215.57178,723.74818 215.30683,724.46204 C 214.99731,725.29596 216.4844,724.9538 219.46666,723.50491 L 224.10822,721.24987 L 231.09203,728.18017 C 237.9055,734.94144 238.07585,735.23401 238.07585,740.17489 C 238.07585,744.90718 237.75816,745.55222 233.2315,750.01081 L 228.38716,754.78231 L 230.91318,763.72322 C 233.28184,772.10712 233.6051,772.66412 236.10224,772.66412 C 238.57182,772.66412 239.07994,771.84683 243.09658,761.41412 z M 235.34184,731.00717 C 234.54913,730.68658 235.16766,729.6163 237.07136,728.01445 C 240.80739,724.87078 243.15602,725.88543 239.97674,729.26962 C 237.64777,731.7487 237.40264,731.84059 235.34184,731.00717 z M 242.53161,725.6192 C 239.66118,722.70496 238.27056,720.66412 239.15523,720.66412 C 241.10703,720.66412 249.55159,729.25207 248.33756,730.00237 C 247.82861,730.31693 245.21594,728.3445 242.53161,725.6192 z"
             id="path3232" />
          <path
             style="fill:#fda400"
             d="M 161.06939,820.78929 C 148.1557,816.5545 140.53582,803.52289 143.88366,791.39803 L 144.91465,787.66412 L 139.49525,787.66412 L 134.07585,787.66412 L 134.07585,780.42284 L 134.07585,773.18156 L 112.79834,794.44182 L 91.520818,815.70207 L 68.346866,815.4331 L 45.172914,815.16412 L 56.217092,797.66412 C 62.29139,788.03912 67.61891,779.78726 68.056026,779.32666 C 68.493143,778.86605 73.241832,785.84105 78.608669,794.82666 C 87.801122,810.21743 92.16382,816.79951 88.828683,810.24579 L 87.343567,807.32745 L 113.45971,778.72009 L 139.57585,750.11273 L 170.57585,741.24277 C 187.62586,736.3643 202.36335,732.16088 203.32585,731.90184 C 204.64843,731.54589 205.07585,732.0361 205.07585,733.90887 C 205.07585,736.16378 203.60583,737.00706 188.74764,743.2755 L 172.41942,750.16412 L 167.69105,756.91412 L 162.96266,763.66412 L 153.20636,763.66412 C 143.67137,763.66412 143.38484,763.73218 140.57585,766.66412 L 137.70167,769.66412 L 147.38877,769.66412 L 157.07585,769.66412 L 157.07585,772.27111 C 157.07585,774.34557 157.43332,774.7396 158.82585,774.2001 C 163.18455,772.51141 170.06742,772.47532 175.2767,774.11384 C 179.95179,775.58434 182.00904,775.6699 190.34403,774.74049 C 206.23412,772.96864 205.07585,772.50291 205.07585,780.66412 L 205.07585,787.66412 L 209.57585,787.66412 L 214.07585,787.66412 L 214.07585,782.66412 L 214.07585,777.66412 L 228.92744,777.66412 L 243.77901,777.66412 L 245.59416,770.95846 C 248.16302,761.46827 255.92509,750.62863 262.33681,747.57754 L 267.09776,745.31198 L 290.13513,747.67019 L 313.17248,750.02839 L 322.58457,740.65544 C 333.60643,729.67941 330.77513,728.91562 346.07585,746.99261 C 356.18471,758.9357 356.92042,759.57016 365.82585,764.0244 L 375.07585,768.65098 L 375.07585,780.49335 L 375.07585,792.33572 L 360.82585,796.04898 C 352.98836,798.09128 346.42586,800.19017 346.24253,800.71319 C 345.82509,801.90402 332.07585,801.98253 332.07585,800.79408 C 332.07585,799.91359 323.2511,797.05973 322.7437,797.77613 C 322.59254,797.98952 321.64112,800.06774 320.62939,802.39438 C 318.099,808.21351 310.66909,815.47727 304.07585,818.57774 C 296.1737,822.29373 283.9633,822.29027 276.07585,818.56979 C 269.06205,815.26141 262.47857,808.67793 259.17019,801.66412 C 254.27969,791.29622 256.36772,773.2349 263.16832,767.08044 C 265.5471,764.92767 265.60694,763.64903 263.32585,763.71383 C 262.21425,763.7454 257.45081,769.7645 250.26796,780.21383 L 238.96004,796.66412 L 229.01796,796.66412 C 219.07971,796.66412 219.07585,796.66315 219.07585,794.16412 C 219.07585,791.80927 218.76552,791.66412 213.73084,791.66412 C 209.65582,791.66412 207.95577,791.18891 206.57585,789.66412 C 205.0823,788.01377 203.49588,787.66412 197.50147,787.66412 L 190.23707,787.66412 L 191.26806,791.39803 C 194.14995,801.83543 188.41747,813.97966 178.1637,819.15949 C 174.29067,821.116 164.81933,822.01902 161.06939,820.78929 z M 173.10858,807.14719 C 176.43663,805.4262 179.07585,801.01085 179.07585,797.16412 C 179.07585,785.62418 162.85897,781.4477 157.59278,791.63139 C 152.2726,801.91947 162.8205,812.46737 173.10858,807.14719 z M 296.82137,803.12598 C 301.57167,801.14118 303.84333,799.03669 306.18226,794.45396 C 312.48819,782.09859 300.76272,767.43667 286.68761,770.07718 C 281.84458,770.98574 276.9615,774.59614 274.35753,779.19369 C 266.40888,793.22779 281.64985,809.46505 296.82137,803.12598 z M 214.07585,770.83843 C 214.07585,769.83431 212.95085,767.95587 211.57585,766.66412 C 209.8893,765.07968 209.07585,763.24239 209.07585,761.01745 C 209.07585,759.20353 210.20085,751.30584 211.57585,743.46703 C 214.61517,726.14002 214.62853,725.66412 212.07585,725.66412 C 210.97585,725.66412 210.07585,725.37479 210.07585,725.02116 C 210.07585,724.46339 221.37183,687.89549 225.70858,674.41412 C 227.07032,670.18097 227.55427,669.66412 230.15622,669.66412 C 231.76202,669.66412 233.07585,670.01099 233.07585,670.43495 C 233.07585,670.85891 229.02585,683.33703 224.07585,698.16412 C 219.12586,712.99121 215.07585,725.23849 215.07585,725.38029 C 215.07585,725.5221 217.10813,724.65077 219.59203,723.444 L 224.10822,721.24987 L 231.09203,728.18017 C 237.9055,734.94144 238.07585,735.23401 238.07585,740.17489 C 238.07585,744.90964 237.75939,745.551 233.21436,750.02769 L 228.35287,754.81608 L 230.71436,762.93874 C 232.01318,767.4062 233.07585,771.42201 233.07585,771.86276 C 233.07585,772.30351 228.80085,772.66412 223.57585,772.66412 C 215.04487,772.66412 214.07585,772.4779 214.07585,770.83843 z M 303.78826,740.87977 L 299.07585,736.09542 L 299.07585,702.87977 L 299.07585,669.66412 L 304.07585,669.66412 L 309.07585,669.66412 L 309.07585,707.66412 C 309.07585,728.56412 308.94644,745.66412 308.78826,745.66412 C 308.63009,745.66412 306.38009,743.51116 303.78826,740.87977 z M 253.43193,742.41412 C 253.75607,741.17662 254.79083,736.90162 255.7314,732.91412 L 257.44155,725.66412 L 273.79424,725.66412 L 290.14693,725.66412 L 292.1114,730.24703 C 293.19185,732.76762 294.07585,735.15792 294.07585,735.5588 C 294.07585,736.16942 256.34015,744.68647 253.70923,744.66966 C 253.23257,744.66661 253.10779,743.65162 253.43193,742.41412 z M 235.34184,731.00717 C 234.54913,730.68658 235.16766,729.6163 237.07136,728.01445 C 240.80739,724.87078 243.15602,725.88543 239.97674,729.26962 C 237.64777,731.7487 237.40264,731.84059 235.34184,731.00717 z M 242.53161,725.6192 C 239.66118,722.70496 238.27056,720.66412 239.15523,720.66412 C 241.10703,720.66412 249.55159,729.25207 248.33756,730.00237 C 247.82861,730.31693 245.21594,728.3445 242.53161,725.6192 z"
             id="path3230" />
          <path
             style="fill:#686767"
             d="M 161.06939,820.78929 C 148.1557,816.5545 140.53582,803.52289 143.88366,791.39803 L 144.91465,787.66412 L 139.49525,787.66412 L 134.07585,787.66412 L 134.07585,780.31911 C 134.07585,770.26527 134.82785,769.66412 147.4046,769.66412 L 157.07585,769.66412 L 157.07585,772.27111 C 157.07585,774.34557 157.43332,774.7396 158.82585,774.2001 C 163.18455,772.51141 170.06742,772.47532 175.2767,774.11384 C 179.95179,775.58434 182.00904,775.6699 190.34403,774.74049 C 206.23412,772.96864 205.07585,772.50291 205.07585,780.66412 L 205.07585,787.66412 L 209.57585,787.66412 L 214.07585,787.66412 L 214.07585,782.66412 L 214.07585,777.66412 L 228.92744,777.66412 L 243.77901,777.66412 L 245.59416,770.95846 C 248.16302,761.46827 255.92509,750.62863 262.33681,747.57754 L 267.09776,745.31198 L 290.13513,747.67019 L 313.17248,750.02839 L 322.58457,740.65544 C 333.60643,729.67941 330.77513,728.91562 346.07585,746.99261 C 356.18471,758.9357 356.92042,759.57016 365.82585,764.0244 L 375.07585,768.65098 L 375.07585,780.49335 L 375.07585,792.33572 L 360.82585,796.04898 C 352.98836,798.09128 346.42586,800.19017 346.24253,800.71319 C 345.82509,801.90402 332.07585,801.98253 332.07585,800.79408 C 332.07585,799.91359 323.2511,797.05973 322.7437,797.77613 C 322.59254,797.98952 321.64112,800.06774 320.62939,802.39438 C 318.099,808.21351 310.66909,815.47727 304.07585,818.57774 C 296.1737,822.29373 283.9633,822.29027 276.07585,818.56979 C 269.06205,815.26141 262.47857,808.67793 259.17019,801.66412 C 254.27969,791.29622 256.36772,773.2349 263.16832,767.08044 C 265.5471,764.92767 265.60694,763.64903 263.32585,763.71383 C 262.21425,763.7454 257.45081,769.7645 250.26796,780.21383 L 238.96004,796.66412 L 229.01796,796.66412 C 219.07971,796.66412 219.07585,796.66315 219.07585,794.16412 C 219.07585,791.80927 218.76552,791.66412 213.73084,791.66412 C 209.65582,791.66412 207.95577,791.18891 206.57585,789.66412 C 205.0823,788.01377 203.49588,787.66412 197.50147,787.66412 L 190.23707,787.66412 L 191.26806,791.39803 C 194.14995,801.83543 188.41747,813.97966 178.1637,819.15949 C 174.29067,821.116 164.81933,822.01902 161.06939,820.78929 z M 173.10858,807.14719 C 176.43663,805.4262 179.07585,801.01085 179.07585,797.16412 C 179.07585,785.62418 162.85897,781.4477 157.59278,791.63139 C 152.2726,801.91947 162.8205,812.46737 173.10858,807.14719 z M 296.82137,803.12598 C 301.57167,801.14118 303.84333,799.03669 306.18226,794.45396 C 312.48819,782.09859 300.76272,767.43667 286.68761,770.07718 C 281.84458,770.98574 276.9615,774.59614 274.35753,779.19369 C 266.40888,793.22779 281.64985,809.46505 296.82137,803.12598 z M 46.298261,813.41412 C 47.097096,812.17662 52.363236,803.85162 58.000796,794.91412 C 63.638356,785.97662 68.409541,778.66412 68.603431,778.66412 C 68.797321,778.66412 73.337293,785.97662 78.692257,794.91412 C 84.047222,803.85162 89.075953,812.17662 89.867216,813.41412 L 91.305875,815.66412 L 68.075855,815.66412 L 44.845835,815.66412 L 46.298261,813.41412 z M 214.07585,770.83843 C 214.07585,769.83431 212.95085,767.95587 211.57585,766.66412 C 209.8893,765.07968 209.07585,763.24239 209.07585,761.01745 C 209.07585,759.20353 210.20085,751.30584 211.57585,743.46703 C 214.61517,726.14002 214.62853,725.66412 212.07585,725.66412 C 210.97585,725.66412 210.07585,725.37479 210.07585,725.02116 C 210.07585,724.46339 221.37183,687.89549 225.70858,674.41412 C 227.07032,670.18097 227.55427,669.66412 230.15622,669.66412 C 231.76202,669.66412 233.07585,670.01099 233.07585,670.43495 C 233.07585,670.85891 229.02585,683.33703 224.07585,698.16412 C 219.12586,712.99121 215.07585,725.23849 215.07585,725.38029 C 215.07585,725.5221 217.10813,724.65077 219.59203,723.444 L 224.10822,721.24987 L 231.09203,728.18017 C 237.9055,734.94144 238.07585,735.23401 238.07585,740.17489 C 238.07585,744.90964 237.75939,745.551 233.21436,750.02769 L 228.35287,754.81608 L 230.71436,762.93874 C 232.01318,767.4062 233.07585,771.42201 233.07585,771.86276 C 233.07585,772.30351 228.80085,772.66412 223.57585,772.66412 C 215.04487,772.66412 214.07585,772.4779 214.07585,770.83843 z M 303.78826,740.87977 L 299.07585,736.09542 L 299.07585,702.87977 L 299.07585,669.66412 L 304.07585,669.66412 L 309.07585,669.66412 L 309.07585,707.66412 C 309.07585,728.56412 308.94644,745.66412 308.78826,745.66412 C 308.63009,745.66412 306.38009,743.51116 303.78826,740.87977 z M 253.43193,742.41412 C 253.75607,741.17662 254.79083,736.90162 255.7314,732.91412 L 257.44155,725.66412 L 273.79424,725.66412 L 290.14693,725.66412 L 292.1114,730.24703 C 293.19185,732.76762 294.07585,735.15792 294.07585,735.5588 C 294.07585,736.16942 256.34015,744.68647 253.70923,744.66966 C 253.23257,744.66661 253.10779,743.65162 253.43193,742.41412 z M 235.34184,731.00717 C 234.54913,730.68658 235.16766,729.6163 237.07136,728.01445 C 240.80739,724.87078 243.15602,725.88543 239.97674,729.26962 C 237.64777,731.7487 237.40264,731.84059 235.34184,731.00717 z M 242.53161,725.6192 C 239.66118,722.70496 238.27056,720.66412 239.15523,720.66412 C 241.10703,720.66412 249.55159,729.25207 248.33756,730.00237 C 247.82861,730.31693 245.21594,728.3445 242.53161,725.6192 z"
             id="path3228" />
          <path
             style="fill:#000000"
             d="M 161.06939,820.78929 C 153.99101,818.46808 148.88326,814.17146 145.46641,807.66412 C 142.79172,802.57023 142.94548,791.46025 145.76397,786.16412 C 150.41654,777.42165 157.50018,773.2169 167.57585,773.2169 C 177.65152,773.2169 184.73517,777.42165 189.38773,786.16412 C 192.20622,791.46025 192.35999,802.57023 189.6853,807.66412 C 187.1034,812.5813 183.2336,816.50911 178.64825,818.86664 C 174.35823,821.07231 165.04022,822.09146 161.06939,820.78929 z M 173.10858,807.14719 C 176.43663,805.4262 179.07585,801.01085 179.07585,797.16412 C 179.07585,785.62418 162.85897,781.4477 157.59278,791.63139 C 152.2726,801.91947 162.8205,812.46737 173.10858,807.14719 z M 280.57585,820.32518 C 270.8533,817.10479 263.38058,810.59022 259.17019,801.66412 C 257.01259,797.09001 256.57585,794.73319 256.57585,787.66412 C 256.57585,777.39512 259.28584,770.64279 266.17019,763.75845 C 273.05453,756.87411 279.80685,754.16412 290.07585,754.16412 C 300.34485,754.16412 307.09718,756.87411 313.98152,763.75845 C 320.86586,770.64279 323.57585,777.39512 323.57585,787.66412 C 323.57585,794.73319 323.13912,797.09001 320.98152,801.66412 C 317.6629,808.69964 311.05557,815.2942 304.13056,818.48251 C 297.60746,821.48578 286.66433,822.34185 280.57585,820.32518 z M 296.82137,803.12598 C 301.57167,801.14118 303.84333,799.03669 306.18226,794.45396 C 312.48819,782.09859 300.76272,767.43667 286.68761,770.07718 C 281.84458,770.98574 276.9615,774.59614 274.35753,779.19369 C 266.40888,793.22779 281.64985,809.46505 296.82137,803.12598 z M 46.298261,813.41412 C 47.097096,812.17662 52.363236,803.85162 58.000796,794.91412 C 63.638356,785.97662 68.409541,778.66412 68.603431,778.66412 C 68.797321,778.66412 73.337293,785.97662 78.692257,794.91412 C 84.047222,803.85162 89.075953,812.17662 89.867216,813.41412 L 91.305875,815.66412 L 68.075855,815.66412 L 44.845835,815.66412 L 46.298261,813.41412 z M 214.07585,770.83843 C 214.07585,769.83431 212.95085,767.95587 211.57585,766.66412 C 209.8893,765.07968 209.07585,763.24239 209.07585,761.01745 C 209.07585,759.20353 210.20085,751.30584 211.57585,743.46703 C 214.61517,726.14002 214.62853,725.66412 212.07585,725.66412 C 210.97585,725.66412 210.07585,725.37479 210.07585,725.02116 C 210.07585,724.46339 221.37183,687.89549 225.70858,674.41412 C 227.07032,670.18097 227.55427,669.66412 230.15622,669.66412 C 231.76202,669.66412 233.07585,670.01099 233.07585,670.43495 C 233.07585,670.85891 229.02585,683.33703 224.07585,698.16412 C 219.12586,712.99121 215.07585,725.23849 215.07585,725.38029 C 215.07585,725.5221 217.10813,724.65077 219.59203,723.444 L 224.10822,721.24987 L 231.09203,728.18017 C 237.9055,734.94144 238.07585,735.23401 238.07585,740.17489 C 238.07585,744.90964 237.75939,745.551 233.21436,750.02769 L 228.35287,754.81608 L 230.71436,762.93874 C 232.01318,767.4062 233.07585,771.42201 233.07585,771.86276 C 233.07585,772.30351 228.80085,772.66412 223.57585,772.66412 C 215.04487,772.66412 214.07585,772.4779 214.07585,770.83843 z M 303.78826,740.87977 L 299.07585,736.09542 L 299.07585,702.87977 L 299.07585,669.66412 L 304.07585,669.66412 L 309.07585,669.66412 L 309.07585,707.66412 C 309.07585,728.56412 308.94644,745.66412 308.78826,745.66412 C 308.63009,745.66412 306.38009,743.51116 303.78826,740.87977 z M 253.43193,742.41412 C 253.75607,741.17662 254.79083,736.90162 255.7314,732.91412 L 257.44155,725.66412 L 273.79424,725.66412 L 290.14693,725.66412 L 292.1114,730.24703 C 293.19185,732.76762 294.07585,735.15792 294.07585,735.5588 C 294.07585,736.16942 256.34015,744.68647 253.70923,744.66966 C 253.23257,744.66661 253.10779,743.65162 253.43193,742.41412 z M 235.34184,731.00717 C 234.54913,730.68658 235.16766,729.6163 237.07136,728.01445 C 240.80739,724.87078 243.15602,725.88543 239.97674,729.26962 C 237.64777,731.7487 237.40264,731.84059 235.34184,731.00717 z M 242.53161,725.6192 C 239.66118,722.70496 238.27056,720.66412 239.15523,720.66412 C 241.10703,720.66412 249.55159,729.25207 248.33756,730.00237 C 247.82861,730.31693 245.21594,728.3445 242.53161,725.6192 z"
             id="path3226" />
        </g>
      </g>
    </g>
    <path
       id="legs"
       d="M 329.39813,796.4963 C 329.39813,782.4713 329.73563,770.99621 330.14813,770.99609 C 330.56063,770.99598 333.71063,772.00446 337.14813,773.23715 L 343.39814,775.4784 L 343.39814,798.73735 L 343.39814,821.9963 L 336.39813,821.9963 L 329.39813,821.9963 L 329.39813,796.4963 z"
       style="fill:#ff0000"
       inkscape:label="#path2991" />
    <path
       style="fill:none;fill-rule:evenodd;stroke:none;stroke-width:0.55612504px;stroke-linecap:butt;stroke-linejoin:miter;stroke-opacity:1"
       d="M 336.43733,817.39452 C 336.43733,818.07658 336.43733,820.65319 336.43733,822.25807 C 336.43733,823.77792 336.43733,825.29778 336.43733,826.81763 C 336.43733,828.33749 336.43733,829.85734 336.43733,831.3772 C 336.43733,832.89706 336.43733,834.41691 336.43733,835.93677 C 336.43733,836.24074 336.43733,836.54472 336.43733,836.84869"
       id="path_legs_down"
       inkscape:label="#path3186" />
    <path
       inkscape:label="#path3186"
       id="path_legs_up"
       d="M 336.43732,836.8487 C 336.43732,836.16665 336.43732,833.59002 336.43732,831.98515 C 336.43732,830.46529 336.43732,828.94544 336.43732,827.42558 C 336.43732,825.90573 336.43732,824.38587 336.43732,822.86603 C 336.43732,821.34615 336.43732,819.82632 336.43732,818.30644 C 336.43732,818.00248 336.43732,817.6985 336.43732,817.39454"
       style="fill:none;fill-rule:evenodd;stroke:none;stroke-width:0.55612504px;stroke-linecap:butt;stroke-linejoin:miter;stroke-opacity:1" />
  </g>
</svg>
