/* XPM */
static char * kieler_64_xpm[] = {
"64 64 256 2",
"  	c None",
". 	c #110E25",
"+ 	c #181028",
"@ 	c #1C152D",
"# 	c #231746",
"$ 	c #221B33",
"% 	c #271C4B",
"& 	c #261E3C",
"* 	c #231E4A",
"= 	c #6D0B31",
"- 	c #670E2E",
"; 	c #660F33",
"> 	c #2C1F4F",
", 	c #611331",
"' 	c #292156",
") 	c #2B243A",
"! 	c #701139",
"~ 	c #2D234D",
"{ 	c #292452",
"] 	c #2F2444",
"^ 	c #302354",
"/ 	c #322259",
"( 	c #5C1D33",
"_ 	c #74163C",
": 	c #30275D",
"< 	c #6D1A3C",
"[ 	c #352859",
"} 	c #37275F",
"| 	c #362A4A",
"1 	c #312B5A",
"2 	c #352B56",
"3 	c #65203A",
"4 	c #362D52",
"5 	c #392B5D",
"6 	c #791B40",
"7 	c #352C62",
"8 	c #5D2637",
"9 	c #3B2F4F",
"0 	c #413244",
"a 	c #402F68",
"b 	c #3F3063",
"c 	c #3B3168",
"d 	c #3D3353",
"e 	c #7F2145",
"f 	c #3D335E",
"g 	c #42325A",
"h 	c #792443",
"i 	c #762548",
"j 	c #3B3464",
"k 	c #3D355A",
"l 	c #832548",
"m 	c #483558",
"n 	c #45376A",
"o 	c #553552",
"p 	c #423870",
"q 	c #443A61",
"r 	c #423A6B",
"s 	c #852950",
"t 	c #5D345C",
"u 	c #7E2C4F",
"v 	c #643643",
"w 	c #733055",
"x 	c #55395E",
"y 	c #882C53",
"z 	c #653658",
"A 	c #493D6A",
"B 	c #773252",
"C 	c #6B3746",
"D 	c #443F6A",
"E 	c #444160",
"F 	c #723550",
"G 	c #4C4061",
"H 	c #4A3F73",
"I 	c #4A4168",
"J 	c #6F3959",
"K 	c #514175",
"L 	c #7D3858",
"M 	c #85375C",
"N 	c #853856",
"O 	c #4A486D",
"P 	c #813A56",
"Q 	c #67434C",
"R 	c #5B4469",
"S 	c #4F4770",
"T 	c #514676",
"U 	c #55485F",
"V 	c #584770",
"W 	c #7B4155",
"X 	c #754361",
"Y 	c #584B6E",
"Z 	c #80415E",
"` 	c #973A60",
" .	c #4F4F6B",
"..	c #544F64",
"+.	c #544E6F",
"@.	c #584C7B",
"#.	c #544E76",
"$.	c #57515B",
"%.	c #914060",
"&.	c #8E4164",
"*.	c #595369",
"=.	c #7E4968",
"-.	c #5E5180",
";.	c #774D68",
">.	c #57576B",
",.	c #705258",
"'.	c #5B5582",
").	c #A14368",
"!.	c #5D567D",
"~.	c #5C5777",
"{.	c #79525B",
"].	c #5F586E",
"^.	c #96486B",
"/.	c #605A65",
"(.	c #76546C",
"_.	c #82525E",
":.	c #954C68",
"<.	c #655887",
"[.	c #A6486D",
"}.	c #8E4F6F",
"|.	c #70577B",
"1.	c #725A5E",
"2.	c #88526F",
"3.	c #5D5F6F",
"4.	c #645D73",
"5.	c #A34C6D",
"6.	c #8C5469",
"7.	c #AA4C70",
"8.	c #655F8C",
"9.	c #A05074",
"0.	c #6C5E8E",
"a.	c #98556D",
"b.	c #9C5473",
"c.	c #66656E",
"d.	c #915967",
"e.	c #756076",
"f.	c #6B618A",
"g.	c #686381",
"h.	c #AE5074",
"i.	c #805E77",
"j.	c #726466",
"k.	c #676777",
"l.	c #6D667D",
"m.	c #716394",
"n.	c #B25377",
"o.	c #8D5F76",
"p.	c #A35A7B",
"q.	c #AE577D",
"r.	c #A9597C",
"s.	c #9F5D75",
"t.	c #B4567F",
"u.	c #B6567A",
"v.	c #B15879",
"w.	c #726B8E",
"x.	c #746A95",
"y.	c #796B84",
"z.	c #816A7F",
"A.	c #746E85",
"B.	c #886981",
"C.	c #88688C",
"D.	c #926877",
"E.	c #A36282",
"F.	c #7A6F81",
"G.	c #BC5C80",
"H.	c #BB5D86",
"I.	c #956985",
"J.	c #AC6383",
"K.	c #B86186",
"L.	c #A7677E",
"M.	c #7E7486",
"N.	c #847386",
"O.	c #7C758C",
"P.	c #C0618A",
"Q.	c #A06B88",
"R.	c #B56588",
"S.	c #BD668B",
"T.	c #83798B",
"U.	c #817A91",
"V.	c #91768C",
"W.	c #B76C8D",
"X.	c #807D8D",
"Y.	c #9D7590",
"Z.	c #C36A90",
"`.	c #847D94",
" +	c #877D8F",
".+	c #A97491",
"++	c #CA6B94",
"@+	c #878098",
"#+	c #B4758B",
"$+	c #C27094",
"%+	c #B07697",
"&+	c #8B8293",
"*+	c #C97096",
"=+	c #BF7495",
"-+	c #A87B97",
";+	c #BA7798",
">+	c #B27C9C",
",+	c #8F8899",
"'+	c #8F88A0",
")+	c #CA789B",
"!+	c #D2789E",
"~+	c #A5879D",
"{+	c #AE869F",
"]+	c #CB7FA0",
"^+	c #968FA6",
"/+	c #988FA1",
"(+	c #BE85A6",
"_+	c #9D9191",
":+	c #C784A7",
"<+	c #A194A1",
"[+	c #BA8CA8",
"}+	c #9D95AD",
"|+	c #9A97A8",
"1+	c #B68FA9",
"2+	c #A096A8",
"3+	c #A795AA",
"4+	c #B094AB",
"5+	c #9D9C9E",
"6+	c #9F9CAD",
"7+	c #AB99AE",
"8+	c #A49BB4",
"9+	c #A69CAE",
"0+	c #B39EB3",
"a+	c #ABA1B3",
"b+	c #ABA3BB",
"c+	c #CA9BB8",
"d+	c #ACA5B1",
"e+	c #C29EB8",
"f+	c #AAA6B7",
"g+	c #B0A5B8",
"h+	c #BDA5B5",
"i+	c #BCA6BC",
"j+	c #B4A9BC",
"k+	c #AEABBC",
"l+	c #B1AAC2",
"m+	c #D8A1C1",
"n+	c #D6A6C4",
"o+	c #B5B1C3",
"p+	c #BBB0C3",
"q+	c #B9B1CA",
"r+	c #C7AEC5",
"s+	c #C3B0C6",
"t+	c #CEADC6",
"u+	c #BDB5C1",
"v+	c #BFB7D0",
"w+	c #C2B7CA",
"x+	c #C4BCD5",
"y+	c #C8BDD1",
"z+	c #D4BAD2",
"A+	c #D0C4D8",
"B+	c #CDC6DF",
"C+	c #D6CBDF",
"D+	c #D4CBE5",
"E+	c #DDCAE0",
"F+	c #DCD0E4",
"G+	c #DAD2EB",
"                                                                                                                                ",
"                                                                                                    c.>. . .O O O *.k.          ",
"                                                                                              ].O D n b c c c c c c c r +.      ",
"                                                                                      c. .I n b 5 5 : : : : : : : 7 } 7 c r     ",
"  6.]+]+]+)+)+)+)+)+)+=+$+$+$+$+$+$+$+R.R.R.R.R.R.R.R.R.r.r.r.r.r.r.r.r.r.9.9.9.9.9.9.^.^.^.^.^.^.^.&.&.&.&.&.&.L / / } a c D   ",
"  d.!+!+!+!+!+!+!+!+*+*+++++*+Z.Z.Z.Z.Z.Z.S.S.S.P.K.H.H.H.K.u.t.u.u.n.v.n.n.h.7.7.7.7.[.[.[.[.).).).).).).` ` ` M : / / } a c >.",
"  d.!+!+m+n+n+n+m+m+n+m+:+*+Z.Z.Z.Z.Z.P.$+;+S.P.K.H.H.H.K.[+t.u.t.n.n.n.h.%+7.7.7.7.[.[.[.[..+.+.+.+.+Q.Q.Q.b.` L 7 } / / 7 a O ",
"  _.!+!+E+G+G+F+F+F+C+C+E+*+Z.Z.Z.Z.S.S.c+e+P.G.H.H.G.K.(+s+v.n.n.n.n.h.q.j+r.7.7.7.[.[.[.E.b+a+a+b+8+9+9+8+Q.` L D } : / } a D ",
"  _.!+!+E+G+F+G+G+C+C+C+D+:+Z.Z.Z.S.S.S.v+x+S.H.H.G.t.t.e+w+;+n.n.n.h.h.%+j+>+7.[.[.[.[.[.~+a+a+a+9+9+9+9+9+Q.` P   j } } } a r ",
"  {.!+!+E+F+G+G+C+D+D+D+C+t+Z.Z.S.S.S.:+y+x+(+H.H.t.t.R.w+q+1+n.n.h.h.7.4+l+0+7.[.[.[.5.9.a+a+a+a+a+9+9+9+9+Q.` P   j } } } a S ",
"  {.!+!+E+F+F+C+D+C+C+C+B+A+$+S.P.P.P.e+x+y+e+H.t.q.u.(+q+q+p+q.h.h.7.r.l+l+j+E.[.[.[.5..+a+a+a+a+a+9+9+9+9+Q.` P c.c } } 7 p +.",
"  {.!+!+E+F+C+D+C+C+C+B+A+A+[+S.S.P.S.y+y+x+w+R.v.u.u.i+p+q+q+%+7.7.7.>+j+l+g+{+[.[.5.5.7+g+g+a+a+a+a+9+9+9+Q.` P  .c 7 : c p >.",
"  ,.*+*+E+D+D+C+D+C+B+A+A+B+r+S.P.K.(+x+x+x+w+(+u.t.R.p+q+q+p+4+7.7.7.0+l+g+g+a+9.5.5.E.g+g+g+g+g+g+a+a+a+9+Q.%.J r c 7 7 c H k.",
"  1.*+*+E+C+D+D+B+A+A+B+B+A+y+=+K.H.r+x+x+v+v+i+t.n.[+q+q+q+l+l+r.7.J.l+g+g+g+g+Q.5.5.{+g+j+j+j+f+g+g+f+a+f+Y.%.R n c 7 c p S   ",
"  j.$+*+z+D+C+A+A+B+A+A+A+x+y+e+H.=+y+w+v+w+w+q+J.v.i+q+q+p+l+l+>+[.{+b+b+g+g+g+4+5.r.g+j+j+j+k+k+j+j+f+f+a+Q.X T n c c p H k.  ",
"    W.*+*+:+t+A+B+A+A+A+x+y+x+w+K.[+v+v+w+w+q+q+[+W.q+q+p+j+l+l+4+5.b+b+g+g+g+g+g+J..+k+o+o+o+o+o+o+o+j+~+L.}.@.@.H n p K #.    ",
"    J.Z.Z.++++)+c+y+A+x+y+x+x+x+(+s+v+v+w+q+q+q+i+1+q+p+j+l+l+j+g+-+b+g+g+b+g+g+j+{+7+o+o+o+u+o+o+h+{+#+L.L.|.'.@.K K K T k.    ",
"    s.Z.Z.Z.Z.S.S.S.(+r+y+y+x+x+w+w+v+v+p+p+q+q+q+p+l+l+l+l+l+g+b+b+g+a+a+g+g+g+j+j+o+p+o+u+u+h+{+I..+#+#+|.f.8.-.T T @.~.      ",
"    a.Z.Z.Z.S.S.S.P.K.G.=+e+w+w+w+v+v+p+p+q+q+p+p+l+j+j+j+l+g+g+b+b+a+a+b+g+f+f+j+o+o+o+u+4+C.|.-.@.S R G g.x.8.'.-.-.!.        ",
"    6.Z.Z.S.S.S.P.K.H.H.H.R.e+v+v+v+p+q+q+q+p+p+l+j+j+j+l+g+g+b+b+a+a+a+a+a+g+j+o+o+o+u+~+f.0.<.-.V I q k d E f.8.8.8.          ",
"    6.P.S.S.S.K.G.H.H.K.[+w+v+b+U.^+q+q+q+q+l+l+l+l+l+l+g+g+b+b+a+a+a+a+a+g+g+j+k+,+|+^+m.0.<.-.@.V I q d 9 | G x.x.            ",
"    _.S.S.P.P.H.H.K.(+w+v+w+w+b+A.O.p+q+q+p+j+l+l+j+g+b+b+a+a+a+a+b+9+9+a+a+g+j+6+,+/+x.m.0.<.-.V I q k 9 | ] & ~.              ",
"    {.S.P.P.H.K.(+s+v+v+w+w+q+l+A.A.'+q+p+}+^+l+j+g+b+b+a+a+b+a+9+9+9+2+@+9+g+f+,+,+y.m.0.<.-.V S I k d 9 | ] & )               ",
"    1.K.P.K.(+s+x+v+v+v+v+q+q+l+O.@+l.`.g+@+O.j+g+b+b+a+a+b+a+9+9+8+9+/+4.2+|+X.X.6+0.m.<.-.@.V I q k 9 | ] & & @               ",
"      p.;+r+x+x+w+w+v+v+p+p+q+q+A.a+'+l.A.A.O.g+g+b+a+a+a+9+9+9+8+9+9+^+4.M.A.X.f+/+m.0.<.-.V I q k 9 | | ] $ $ @ /.            ",
"      :.K.=+(+[+e+s+v+p+p+q+q+p+@+^+^+}+A.l.l.`.^+b+a+a+8+8+9+9+9+^+`.l.4.k.&+f+f+U.0.<.-.@.S I q k 9 | ] & $ @ + $.            ",
"      :.H.K.t.t.u.t.K.W.>+[+0+j+}+O.'+A.}+'+A.4.4.9+O.l.l.l.l.4.'+O.].4.A./+,+X.d+O.<.-.@.V I q k 9 | ] ] $ @ + . /.            ",
"      _.K.t.u.u.t.n.n.n.h.h.%+j+l+A.8+l.l.^+b+}+@+9+A.4.].].].].'+@+@+/+2+A.A.,+|+|+!.-.V I q k 9 9 | ] & $ @ + .               ",
"      j.r.u.u.n.n.n.n.h.q.1+j+l+l+'+U.^+l.@+'+4.A.O.@+^+2+2+2+'+U.l.4.4.2+4.X.6+X.@+!.V V I q k 9 | ] & $ @ + . +               ",
"        :.u.n.n.n.n.h.J.0+j+l+l+j+b+l.'+9+}+'+4.].].].].l.^+*.*.......4.2+,+9+M.g.w.g.T I q k 9 | ] & $ $ @ . . $.              ",
"        W n.t.n.n.h.%+j+l+l+l+j+g+b+^+l.}+@+'+}+'+O.l.4.l.'+*.4.l.O.@+'+O.,+A.~.f.f.w.Y q k 9 9 | ] & $ @ + . ) 5+              ",
"        ,.q.n.n.q.1+l+j+j+j+l+g+g+b+b+`.l.2+l.4.O.2+2+2+^+}+^+^+^+@+4...`.l.#.!.!.!.f.f.G k 9 | ] & $ @ + . )                   ",
"        >.}.n.J.0+l+j+j+j+l+g+g+b+b+a+a+U.4.'+`.].}+l.*.].].*...`.l.].`. .S @.@.#.@.'.f.x.+.d ] ] $ $ @ + 0 5+                  ",
"        f o q.[+1+4+4+4+4+4+4+7+7+7+a+8+8+`.].A.^+}+l.*.........`.@+g.O A A A A A A -.8.w.2+<+N.e.U U e.o._+                    ",
"      E 2 ~ 9.7.7.7.[.[.[.[.).).).p.7+8+9+9+^+l.].A.U.'+'+@+'+`.l.O A r r j j b r @.'.|.s.s.L.L.L.L.L.L.D.                      ",
"    >.2 ~ # z 7.7.[.[.[.[.).).).p.7+9+9+9+2+2+2+,+A.].....*. .E D r r b 5 5 : n T '.=.:.:.a.a.s.s.s.s.a.                        ",
"    k ~ % # | [.[.[.[.).).).).b.9+9+8+9+2+}+}+2+2+2+/+/+'+g.O A r j 5 [ : : j T !.@+V.%.%.:.:.:.:.:.:.6._+                      ",
"  >.2 { # # ~ Z [.[.).).).).b.7+9+8+9+2+}+}+2+2+^+^+/+`.#.A r j b [ : ' [ n T ~.&+&+,+V.N N %.%.%.%.P _.                        ",
"  k 1 % # * ~ o [.).).).).b.3+9+9+9+2+2+2+2+2+^+/+'+~.D A j j 5 [ ' ' 7 n S l.@+&+&+&+&+B.N N N N N F                           ",
"3.2 ~ # # ~ 4 j.%.).).).9.3+9+9+8+2+2+2+2+2+/+'+g.I A f j 5 [ ^ ' [ b H g.@+&+&+@+&+&+&+&+B.u u h u C                           ",
" .2 % # # * ..  W ).).9.3+9+9+8+}+2+2+~+Y.y.~.D f j j 5 [ ^ ' : b r !.U.@+i.B.N.`.`. + + + +i.h h 3                             ",
"E { % # % ~       P 9.~+~+Y.Q.E.b.%.M t q f f f j 1 [ ^ > ^ 5 n S A.@+@+`.i.6 6 6 u L Z ;.i.z.(.h v                             ",
"k > % # % 4       {.%.` ` ` ` ` J x f f f j 1 [ ^ ^ > > [ b D g.&+@+@+ + +`.=.6 6 6 _ _ _ _ _ _ 3                               ",
"4 ~ % # # ]         P ` M z t g f f 1 1 1 [ ^ > > > [ b r ~.`.@+@+@+ + + +U.T.B _ _ _ _ ! ! = ; ,.                              ",
"k ~ % # # * ~ d E E d g 2 2 2 2 1 1 ^ ^ ^ > % > [ b r #.O.&+@+@+@+ +`.`.U.T.O.y.i _ ! ! ! ! ! 3                                 ",
"E ~ % # # # % > { > ~ ~ ~ { ^ { > > > % % ^ [ b r #.A.&+&+@+@+@+ +`.`.U.T.O.O.O.(.! ! ! = = , j.                                ",
"3.~ > % # # # % * % > > > > > % % % > ^ 5 b D ~.i.2.M @+@+@+ +i.L =.z.T.T.M.M.O.M.X = = = - C                                   ",
"  E { ~ % # # # # # % # # # % > ^ [ 5 j I R L s l l 2.@+@+`.`.`.u 6 6 h B ;.z.M.F.F.i = - (                                     ",
"    E { { > % % % % > > ^ ^ [ 1 j I x w s s l l e u &+@+`.`.`.U.i._ _ _ _ ! ! < F ;.(.; ,                                       ",
"      >.E 4 1 1 1 [ 1 1 f q m t w y s s l l l e e i.@+ + + +U.T.T.B _ _ ! ! ! = ! = = , 1.                                      ",
"            k.>.>.>./.3.      F y s s l l l e e M @+ +`. +U.T.T.T.i._ ! ! ! = = = = ; Q                                         ",
"                                B s l l l e e e B. +`.`.U.T.O.O.O.O.F ! ! = = = = - v                                           ",
"                                j.h l l e e e Z  +`.T.U.T.O.O.M.O.O.y.< = = - = - 8                                             ",
"                                  {.i e e e e z.`.T.T.T.T.M.M.O.M.F.F.J = - - - (                                               ",
"                                    Q i e e L `.U.U.T.T.M.M.O.M.F.F.A.e.= - - (                                                 ",
"                                      ,.< 6 6 L N.U.T.O.O.O.M.A.F.A.(.; - - 8                                                   ",
"                                        j.3 6 6 i i.O.M.M.M.A.F.A.F = - - 8                                                     ",
"                                          j.3 _ _ _ X M.M.A.F.e.< = - ; v                                                       ",
"                                              8 < ! ! B z.F.(.; = - , Q                                                         ",
"                                                v , ! ! < F - = - ( j.                                                          ",
"                                                  j.( ; = - - , v                                                               ",
"                                                      Q , ; ( j.                                                                ",
"                                                        j.Q                                                                     ",
"                                                                                                                                "};
