<?xml version="1.0" encoding="UTF-8" standalone="no"?>
<!-- Generator: Adobe Illustrator 12.0.1, SVG Export Plug-In . SVG Version: 6.00 Build 51448)  -->

<svg
   xmlns:dc="http://purl.org/dc/elements/1.1/"
   xmlns:cc="http://creativecommons.org/ns#"
   xmlns:rdf="http://www.w3.org/1999/02/22-rdf-syntax-ns#"
   xmlns:svg="http://www.w3.org/2000/svg"
   xmlns="http://www.w3.org/2000/svg"
   xmlns:xlink="http://www.w3.org/1999/xlink"
   xmlns:sodipodi="http://sodipodi.sourceforge.net/DTD/sodipodi-0.dtd"
   xmlns:inkscape="http://www.inkscape.org/namespaces/inkscape"
   version="1.0"
   id="Layer_1"
   width="2188"
   height="2188"
   viewBox="0 0 2187.9999 2187.9999"
   overflow="visible"
   enable-background="new 0 0 355.553 374.859"
   xml:space="preserve"
   inkscape:version="0.47 r22583"
   sodipodi:docname="kieler-logo.svg"
   style="overflow:visible"
   inkscape:export-filename="/home/msp/lab/kieler-design/kieler-logo-16.png"
   inkscape:export-xdpi="0.66000003"
   inkscape:export-ydpi="0.66000003"><metadata
   id="metadata13"><rdf:RDF><cc:Work
       rdf:about=""><dc:format>image/svg+xml</dc:format><dc:type
         rdf:resource="http://purl.org/dc/dcmitype/StillImage" /><dc:title></dc:title></cc:Work></rdf:RDF></metadata><defs
   id="defs11"><linearGradient
     id="linearGradient3698"><stop
       id="stop3700"
       offset="0"
       style="stop-color:#221b37;stop-opacity:1;" /><stop
       id="stop3702"
       offset="1"
       style="stop-color:#635498;stop-opacity:1;" /></linearGradient><inkscape:perspective
     sodipodi:type="inkscape:persp3d"
     inkscape:vp_x="0 : 1094 : 1"
     inkscape:vp_y="0 : 1000 : 0"
     inkscape:vp_z="2188 : 1094 : 1"
     inkscape:persp3d-origin="1094 : 729.33333 : 1"
     id="perspective2920" /><linearGradient
     id="linearGradient5204"><stop
       id="stop5206"
       offset="0"
       style="stop-color:#140d23;stop-opacity:1;" /><stop
       style="stop-color:#453a5f;stop-opacity:1;"
       offset="0.56766707"
       id="stop5208" /><stop
       id="stop5210"
       offset="1"
       style="stop-color:#76689c;stop-opacity:1;" /></linearGradient><linearGradient
     id="linearGradient5194"><stop
       id="stop5196"
       offset="0"
       style="stop-color:#d9cbef;stop-opacity:1;" /><stop
       id="stop5198"
       offset="1"
       style="stop-color:#211232;stop-opacity:1;" /></linearGradient><linearGradient
     id="linearGradient3816"><stop
       style="stop-color:#ffffff;stop-opacity:1;"
       offset="0"
       id="stop3818" /><stop
       id="stop3710"
       offset="0.34015089"
       style="stop-color:#786f95;stop-opacity:1;" /><stop
       id="stop3708"
       offset="0.74554598"
       style="stop-color:#1f1346;stop-opacity:1;" /><stop
       style="stop-color:#8378a9;stop-opacity:1;"
       offset="1"
       id="stop3820" /></linearGradient><linearGradient
     inkscape:collect="always"
     xlink:href="#linearGradient5194"
     id="linearGradient5192"
     x1="56.522335"
     y1="85.176071"
     x2="1455.6339"
     y2="1693.3413"
     gradientUnits="userSpaceOnUse"
     gradientTransform="translate(-2.897114,51.99979)" /><linearGradient
     inkscape:collect="always"
     xlink:href="#linearGradient5204"
     id="linearGradient3641"
     gradientUnits="userSpaceOnUse"
     x1="-452.98831"
     y1="130.11092"
     x2="-457.3468"
     y2="126.38272" /><radialGradient
     inkscape:collect="always"
     xlink:href="#linearGradient3816"
     id="radialGradient5261"
     gradientUnits="userSpaceOnUse"
     gradientTransform="matrix(9.5886213,18.514983,-50.161328,34.217573,21502.053,-7420.6834)"
     cx="-224.17111"
     cy="364.00412"
     fx="-224.17111"
     fy="364.00412"
     r="25.905022" /><linearGradient
     inkscape:collect="always"
     xlink:href="#linearGradient3698"
     id="linearGradient3706"
     x1="561.92072"
     y1="630.80182"
     x2="1769.6796"
     y2="1140.4025"
     gradientUnits="userSpaceOnUse" /><filter
     inkscape:collect="always"
     id="filter3623"
     x="-0.35924039"
     width="1.7184808"
     y="-0.47898735"
     height="1.9579747"><feGaussianBlur
       inkscape:collect="always"
       stdDeviation="1.1144746"
       id="feGaussianBlur3625" /></filter><filter
     inkscape:collect="always"
     id="filter3768"><feGaussianBlur
       inkscape:collect="always"
       stdDeviation="6.1249719"
       id="feGaussianBlur3770" /></filter><filter
     inkscape:collect="always"
     id="filter3772"><feGaussianBlur
       inkscape:collect="always"
       stdDeviation="7.7259428"
       id="feGaussianBlur3774" /></filter><filter
     inkscape:collect="always"
     id="filter3814"
     x="-0.56024395"
     width="2.1204879"
     y="-0.74699218"
     height="2.4939844"><feGaussianBlur
       inkscape:collect="always"
       stdDeviation="1.7380496"
       id="feGaussianBlur3816" /></filter><filter
     inkscape:collect="always"
     id="filter3874"
     x="-0.34213371"
     width="1.6842674"
     y="-0.45617843"
     height="1.9123569"><feGaussianBlur
       inkscape:collect="always"
       stdDeviation="1.0614044"
       id="feGaussianBlur3876" /></filter><clipPath
     clipPathUnits="userSpaceOnUse"
     id="clipPath3892"><path
       style="font-size:medium;font-style:normal;font-variant:normal;font-weight:normal;font-stretch:normal;text-indent:0;text-align:start;text-decoration:none;line-height:normal;letter-spacing:normal;word-spacing:normal;text-transform:none;direction:ltr;block-progression:tb;writing-mode:lr-tb;text-anchor:start;color:#000000;fill:#808080;fill-opacity:1;stroke:none;stroke-width:12.55667019;marker:none;visibility:visible;display:inline;overflow:visible;enable-background:accumulate;font-family:Andale Mono;-inkscape-font-specification:Andale Mono"
       d="m -431.22654,125.10457 c -1.21353,6e-4 -2.55684,0.18247 -4.03368,0.50225 -0.73954,0.16014 -1.51166,0.35638 -2.31051,0.58664 l -7.50479,0 -14.72246,0 c 0,2.05475 0.21842,5.53479 0.65293,7.566 0.20122,0.94088 0.49625,2.17215 1.14019,3.64292 -0.96499,0.96143 -1.70206,1.88865 -2.15262,2.80095 -0.51779,1.04843 -0.66596,2.19251 0.0437,3.1202 0.70968,0.9277 2.03426,1.32174 3.41573,1.4023 1.12564,0.0657 2.37616,-0.0475 3.74754,-0.2966 3.68633,3.51051 7.87497,5.10476 7.87497,5.10476 0,0 4.99954,-1.90311 8.88255,-6.12973 3.6832,-4.00985 4.65348,-7.26126 5.11558,-9.31934 0.49579,-0.4075 0.95607,-0.81127 1.37824,-1.20907 1.18562,-1.11717 2.07545,-2.18208 2.59325,-3.23051 0.51779,-1.04844 0.67178,-2.1958 -0.0379,-3.1235 -0.70968,-0.92769 -2.04058,-1.31808 -3.42205,-1.39864 -0.21585,-0.0126 -0.43597,-0.0187 -0.6607,-0.0186 z m 0.8492,2.37576 c -9.2e-4,0.0283 -0.001,0.0555 -0.002,0.084 0.39599,0.0784 0.56083,0.19611 0.62961,0.28601 0.0968,0.12653 0.17047,0.41663 -0.14963,1.06479 -0.1356,0.27455 -0.33958,0.59243 -0.60775,0.94168 0.0625,-0.8201 0.10598,-1.63748 0.1302,-2.3765 z m -26.29688,12.41507 c 0.48369,0.76559 1.06489,1.57402 1.76592,2.4207 -0.52615,0.0476 -0.98528,0.0588 -1.36076,0.0369 -0.85404,-0.0498 -1.14785,-0.22779 -1.24464,-0.35432 -0.0968,-0.12653 -0.16368,-0.41992 0.15643,-1.06807 0.14784,-0.29936 0.37708,-0.64944 0.68305,-1.0352 z"
       id="path3894" /></clipPath><clipPath
     clipPathUnits="userSpaceOnUse"
     id="clipPath3896"><path
       style="font-size:medium;font-style:normal;font-variant:normal;font-weight:normal;font-stretch:normal;text-indent:0;text-align:start;text-decoration:none;line-height:normal;letter-spacing:normal;word-spacing:normal;text-transform:none;direction:ltr;block-progression:tb;writing-mode:lr-tb;text-anchor:start;color:#000000;fill:#808080;fill-opacity:1;stroke:none;stroke-width:12.55667019;marker:none;visibility:visible;display:inline;overflow:visible;enable-background:accumulate;font-family:Andale Mono;-inkscape-font-specification:Andale Mono"
       d="m -453.12496,122.4536 c -0.72811,3.6e-4 -1.5341,0.10949 -2.4202,0.30136 -0.44373,0.0961 -0.907,0.21382 -1.38631,0.35198 l -4.50287,0 -8.83348,0 c 0,1.23285 0.13105,3.32087 0.39176,4.5396 0.12073,0.56453 0.29775,1.30329 0.68411,2.18575 -0.57899,0.57686 -1.02124,1.13319 -1.29157,1.68057 -0.31068,0.62906 -0.39957,1.3155 0.0262,1.87212 0.42581,0.55662 1.22056,0.79305 2.04944,0.84138 0.67538,0.0394 1.42569,-0.0285 2.24852,-0.17796 2.2118,2.10631 4.72499,3.06286 4.72499,3.06286 0,0 2.99972,-1.14187 5.32952,-3.67784 2.20992,-2.40591 2.79209,-4.35676 3.06935,-5.5916 0.29748,-0.24451 0.57364,-0.48677 0.82694,-0.72544 0.71138,-0.67031 1.24528,-1.30925 1.55596,-1.93831 0.31067,-0.62907 0.40307,-1.31748 -0.0227,-1.8741 -0.42581,-0.55662 -1.22434,-0.79085 -2.05323,-0.83919 -0.12951,-0.008 -0.26158,-0.0112 -0.39642,-0.0112 z m 0.50952,1.42546 c -5.5e-4,0.017 -8.7e-4,0.0333 -0.001,0.0504 0.2376,0.047 0.33651,0.11767 0.37777,0.17161 0.0581,0.0759 0.10229,0.24998 -0.0898,0.63887 -0.0814,0.16474 -0.20375,0.35546 -0.36465,0.56501 0.0375,-0.49206 0.0636,-0.98249 0.0781,-1.4259 z m -15.77813,7.44904 c 0.29022,0.45936 0.63894,0.94442 1.05955,1.45242 -0.31568,0.0286 -0.59116,0.0353 -0.81645,0.0221 -0.51242,-0.0299 -0.68871,-0.13668 -0.74678,-0.21259 -0.0581,-0.0759 -0.0982,-0.25195 0.0938,-0.64085 0.0887,-0.17962 0.22625,-0.38966 0.40983,-0.62112 z"
       id="path3898" /></clipPath><clipPath
     clipPathUnits="userSpaceOnUse"
     id="clipPath3900"><path
       style="font-size:medium;font-style:normal;font-variant:normal;font-weight:normal;font-stretch:normal;text-indent:0;text-align:start;text-decoration:none;line-height:normal;letter-spacing:normal;word-spacing:normal;text-transform:none;direction:ltr;block-progression:tb;writing-mode:lr-tb;text-anchor:start;color:#000000;fill:#808080;fill-opacity:1;stroke:none;stroke-width:12.55667019;marker:none;visibility:visible;display:inline;overflow:visible;enable-background:accumulate;font-family:Andale Mono;-inkscape-font-specification:Andale Mono"
       d="m -445.79802,126.87687 c -0.48542,2.4e-4 -1.02274,0.073 -1.61348,0.2009 -0.29581,0.064 -0.60466,0.14255 -0.9242,0.23465 l -3.00192,0 -5.88898,0 c 0,0.8219 0.0874,2.21392 0.26117,3.0264 0.0805,0.37635 0.1985,0.86886 0.45608,1.45717 -0.386,0.38457 -0.68083,0.75546 -0.86105,1.12038 -0.20712,0.41938 -0.26638,0.877 0.0175,1.24808 0.28387,0.37108 0.8137,0.5287 1.36629,0.56092 0.45025,0.0263 0.95046,-0.019 1.49901,-0.11864 1.47454,1.40421 3.14999,2.04191 3.14999,2.04191 0,0 1.99982,-0.76125 3.55302,-2.4519 1.47328,-1.60393 1.8614,-2.9045 2.04623,-3.72773 0.19832,-0.163 0.38243,-0.32451 0.5513,-0.48363 0.47425,-0.44687 0.83018,-0.87283 1.0373,-1.29221 0.20712,-0.41937 0.26872,-0.87831 -0.0152,-1.24939 -0.28387,-0.37108 -0.81623,-0.52724 -1.36881,-0.55946 -0.0863,-0.005 -0.17439,-0.008 -0.26428,-0.007 z m 0.33967,0.9503 c -3.6e-4,0.0113 -5.8e-4,0.0222 -9.7e-4,0.0336 0.1584,0.0314 0.22434,0.0784 0.25185,0.1144 0.0387,0.0506 0.0682,0.16666 -0.0599,0.42592 -0.0542,0.10982 -0.13583,0.23697 -0.24309,0.37667 0.025,-0.32804 0.0424,-0.65499 0.0521,-0.9506 z m -10.51875,4.96603 c 0.19348,0.30624 0.42596,0.62961 0.70637,0.96828 -0.21046,0.019 -0.39411,0.0235 -0.5443,0.0148 -0.34162,-0.0199 -0.45914,-0.0911 -0.49786,-0.14173 -0.0387,-0.0506 -0.0655,-0.16797 0.0626,-0.42723 0.0591,-0.11975 0.15083,-0.25978 0.27322,-0.41408 z"
       id="path3902" /></clipPath></defs><sodipodi:namedview
   pagecolor="#ffffff"
   bordercolor="#666666"
   borderopacity="1"
   objecttolerance="10"
   gridtolerance="10"
   guidetolerance="10"
   inkscape:pageopacity="0"
   inkscape:pageshadow="2"
   inkscape:window-width="1920"
   inkscape:window-height="1125"
   id="namedview9"
   showgrid="false"
   inkscape:zoom="0.32"
   inkscape:cx="662.82639"
   inkscape:cy="1123.1624"
   inkscape:window-x="0"
   inkscape:window-y="24"
   inkscape:window-maximized="1"
   inkscape:current-layer="Layer_1"
   inkscape:snap-bbox="false"
   inkscape:bbox-paths="true"
   inkscape:bbox-nodes="true"
   inkscape:snap-bbox-edge-midpoints="true"
   inkscape:snap-bbox-midpoints="true" />

<path
   d="m 1000.6517,2133.9998 c 0,0 -321.66824,-162.8049 -571.38646,-524.3925 C 179.55769,1247.9286 123.57764,958.2751 95.62757,784.45941 67.6775,610.68649 53.62522,312.96237 53.62522,137.17586 h 947.02648 946.9574 c 0,175.78651 -13.9883,473.51063 -41.9278,647.28355 -28.0353,173.81569 -83.8611,463.46919 -333.6485,825.14219 -249.7768,361.5933 -571.3811,524.3982 -571.3811,524.3982"
   id="path3"
   style="fill:#df002a;fill-opacity:1;stroke:#290b0b;stroke-opacity:1;stroke-width:11.99999945;stroke-miterlimit:4;stroke-dasharray:none" /><polygon
   points="324.213,189.948 267.217,147.186 340.345,134.437 270.972,97.685 339.591,68.804 339.591,15.925 285.584,15.925 258.594,85.675 230.848,12.366 204.584,84.175 177.957,10.294 151.33,84.175 125.078,12.366 97.32,85.675 70.316,15.925 16.306,15.925 16.306,68.804 84.956,97.685 15.553,134.437 88.697,147.186 31.686,189.948 107.439,192.2 56.444,243.948 128.457,234.569 86.826,289.709 165.202,269.083 134.457,324.221 177.957,356.661 221.471,324.221 190.712,269.083 269.102,289.709 227.458,234.569 299.47,243.948 248.461,192.2 "
   id="polygon5"
   transform="matrix(5.3268673,0,0,5.3268673,53.62522,137.17586)"
   style="fill:#ffffff;fill-opacity:1" /><path
   d="m 858.36037,1082.343 c -53.07686,-14.3826 -111.50731,-29.0686 -154.61764,-56.8803 40.51083,46.136 98.79744,93.8701 154.55374,117.5749 l 0.0639,-60.6946 z m 245.85093,8.2886 c -32.1157,5.6518 -70.2507,8.6246 -104.38001,8.6246 0,0 -70.62355,-2.9781 -102.73927,-8.6246 l 0.0744,66.7564 c 31.81206,8.7044 69.95241,13.3384 104.30538,13.3384 29.8784,0 70.7728,-4.634 102.6594,-13.3384 l 0.08,-66.7564 z m -122.51261,-25.3449 c -70.6982,-2.5624 -147.86321,-18.7775 -207.48682,-40.6282 l 0.1493,-71.3319 c 59.1655,21.6322 135.81381,37.2026 207.25771,39.7327 l 0.0797,72.2274 z M 734.80904,939.68962 c -42.89193,-20.77472 -89.65649,-51.07383 -119.46035,-80.14814 9.73754,29.99566 26.91136,77.65497 42.14617,104.26822 22.15446,15.7567 51.29774,34.7152 77.31951,47.2066 v -71.32668 z m 368.73106,13.04018 c -31.6682,4.3839 -68.2478,6.7705 -102.2172,6.7705 -34.04937,0 -71.8861,-2.3866 -103.63425,-6.7705 v -62.00487 c 31.59898,4.20287 69.51027,6.39788 103.63425,6.39788 34.1239,0 70.6236,-2.19501 102.2172,-6.39788 v 62.00487 z m 39.4668,129.5387 c 52.9384,-14.3134 111.4434,-28.9941 154.4844,-56.8058 -40.3669,46.136 -98.8027,93.8701 -154.4844,117.4683 v -60.6625 z M 1019.61,1065.2867 c 70.6929,-2.5624 147.7833,-18.7775 207.4122,-40.6282 l -0.1493,-71.3319 c -59.0962,21.6322 -135.7392,37.2026 -207.1085,39.7327 l -0.1546,72.2274 z m 246.8896,-125.59708 c 42.8866,-20.77472 89.6512,-51.07383 119.3805,-80.14814 -9.7322,29.99566 -26.8368,77.65497 -42.1409,104.26822 -22.1544,15.7567 -51.1539,34.7152 -77.2396,47.2066 v -71.32668 z m -123.0399,6.53618 v -61.47727 c 26.091,-5.43382 55.5325,-14.53716 78.5819,-22.56501 v -93.8538 h 48.6876 v 73.99557 c 80.2918,-38.27895 130.7639,-93.3962 131.1421,-154.61759 h 61.7064 c 0.8843,12.93361 0.6659,22.86272 0.6659,36.09449 0,281.97271 -202.8737,514.21311 -463.5173,514.62891 -257.96424,-1.9444 -463.66655,-232.6562 -463.66655,-514.62891 0,-13.23177 -0.21845,-23.16088 0.67119,-36.09449 h 61.70109 c 0.36774,61.22667 50.84495,116.33864 131.14213,154.61759 v -73.99557 h 48.61302 v 93.8538 c 23.12393,8.03314 52.56017,17.13692 78.73106,22.56501 v 61.47727 c -37.24543,-8.13972 -76.72287,-21.53136 -108.31119,-35.16259 0,0 -13.69002,-5.84384 -20.3699,-9.29536 C 717.85894,896.2279 706.7844,890.28848 696.37568,884.0399 613.186,836.90249 575.71679,788.06551 572.07854,784.16654 598.6916,1018.7033 780.67868,1202.1763 1000.6517,1202.629 c 223.7604,-0.4527 401.8855,-183.9204 428.6477,-418.46246 -3.7129,3.89897 -41.1128,52.73595 -124.3771,99.87336 -10.4832,6.24858 -21.4087,12.188 -32.8614,17.72795 -6.6906,3.45152 -13.5995,6.87133 -20.7375,10.37129 0,0 -70.7674,25.94694 -107.8637,34.08666"
   id="path7"
   style="fill:#3c474c;fill-opacity:1" /><path
   style="opacity:0.62975775;fill:url(#linearGradient5192);fill-opacity:1"
   id="path5184"
   d="m 1000.6517,2133.9998 c 0,0 -321.66824,-162.8049 -571.38646,-524.3925 C 179.55769,1247.9286 123.57764,958.2751 95.62757,784.45941 67.6775,610.68649 53.62522,312.96237 53.62522,137.17586 h 947.02648 946.9574 c 0,175.78651 -13.9883,473.51063 -41.9278,647.28355 -28.0353,173.81569 -83.8611,463.46919 -333.6485,825.14219 -249.7768,361.5933 -571.3811,524.3982 -571.3811,524.3982" /><path
   sodipodi:type="arc"
   style="opacity:0.47698745;fill:#ffffff;fill-opacity:1;fill-rule:nonzero;stroke:none;filter:url(#filter3814)"
   id="path3776"
   sodipodi:cx="-454.92935"
   sodipodi:cy="128.31555"
   sodipodi:rx="3.7226877"
   sodipodi:ry="2.7920158"
   d="m -451.21118,128.17813 a 3.7226877,2.7920158 0 1 1 -0.002,-0.0333"
   sodipodi:start="6.2339447"
   sodipodi:end="12.50517"
   sodipodi:open="true"
   transform="matrix(160.81399,0,0,213.87825,73582.059,-27092.171)"
   clip-path="url(#clipPath3900)" /><path
   style="font-size:medium;font-style:normal;font-variant:normal;font-weight:normal;font-stretch:normal;text-indent:0;text-align:start;text-decoration:none;line-height:normal;letter-spacing:normal;word-spacing:normal;text-transform:none;direction:ltr;block-progression:tb;writing-mode:lr-tb;text-anchor:start;color:#000000;fill:url(#radialGradient5261);fill-opacity:1;stroke:none;stroke-width:12.55667019000000018;marker:none;visibility:visible;display:inline;overflow:visible;enable-background:accumulate;font-family:Andale Mono;-inkscape-font-specification:Andale Mono"
   d="M 1891.5 44.03125 C 1813.439 44.082787 1727.0297 59.642558 1632.0312 87 C 1584.4594 100.69964 1534.7926 117.48831 1483.4062 137.1875 L 1947.5938 137.1875 C 1947.5937 172.09869 1947.0627 211.86471 1945.9688 254.46875 C 1971.4414 261.17582 1982.045 271.2465 1986.4688 278.9375 C 1992.6949 289.7619 1997.4348 314.58076 1976.8438 370.03125 C 1956.2526 425.48174 1911.3014 501.58299 1844.8125 584.90625 C 1711.8346 751.55277 1495.2192 948.98729 1233.0312 1126.6875 C 970.84341 1304.3876 712.75134 1428.6848 516.4375 1485.2188 C 418.28058 1513.4857 335.56161 1523.9173 280.625 1519.6562 C 225.68839 1515.3953 206.78861 1500.1682 200.5625 1489.3438 C 194.33639 1478.5193 190.03396 1453.4193 210.625 1397.9688 C 220.13884 1372.3485 234.90089 1342.3919 254.59375 1309.375 C 218.36901 1233.119 190.60233 1161.8266 168.96875 1096.125 C 106.89518 1178.3767 59.482473 1257.7019 30.5 1335.75 C -2.8074346 1425.445 -12.338047 1523.3218 33.3125 1602.6875 C 78.963048 1682.0532 164.1675 1715.7639 253.03125 1722.6562 C 341.895 1729.5487 442.84672 1713.4237 555.4375 1681 C 780.61893 1616.1529 1052.8236 1483.2762 1330.0625 1295.375 C 1607.3014 1107.4739 1837.2179 900.02655 1989.75 708.875 C 2066.0161 613.29919 2123.2551 522.19498 2156.5625 432.5 C 2189.8699 342.80502 2199.7755 244.64693 2154.125 165.28125 C 2108.4744 85.915554 2022.8638 52.517368 1934 45.625 C 1920.115 44.548067 1905.9557 44.021706 1891.5 44.03125 z "
   id="path5047-2" /><path
   transform="matrix(107.20933,0,0,142.5855,50470.723,-17416.077)"
   sodipodi:open="true"
   sodipodi:end="12.50517"
   sodipodi:start="6.2339447"
   d="m -451.21118,128.17813 a 3.7226877,2.7920158 0 1 1 -0.002,-0.0333"
   sodipodi:ry="2.7920158"
   sodipodi:rx="3.7226877"
   sodipodi:cy="128.31555"
   sodipodi:cx="-454.92935"
   id="path3722"
   style="opacity:0.55230126;fill:#ffffff;fill-opacity:1;fill-rule:nonzero;stroke:none;filter:url(#filter3623)"
   sodipodi:type="arc"
   clip-path="url(#clipPath3896)" /><path
   id="path5312"
   d="M 168.96875,1096.125 C 106.89518,1178.3767 59.482473,1257.7019 30.5,1335.75 c -33.3074346,89.695 -42.838047,187.5718 2.8125,266.9375 45.650548,79.3657 130.855,113.0764 219.71875,119.9687 88.86375,6.8925 189.81547,-9.2325 302.40625,-41.6562 225.18143,-64.8471 497.3861,-197.7238 774.625,-385.625 277.2389,-187.9011 507.1554,-395.34845 659.6875,-586.5 76.2661,-95.57581 133.5051,-186.68002 166.8125,-276.375 33.3074,-89.69498 43.213,-187.85307 -2.4375,-267.21875 C 2108.4744,85.915554 2022.8638,52.517368 1934,45.625 c -13.885,-1.076933 -28.0443,-1.603294 -42.5,-1.59375 -78.061,0.05154 -164.4703,15.611308 -259.4688,42.96875 -47.5718,13.69964 -97.2386,30.48831 -148.625,50.1875"
   style="font-size:medium;font-style:normal;font-variant:normal;font-weight:normal;font-stretch:normal;text-indent:0;text-align:start;text-decoration:none;line-height:normal;letter-spacing:normal;word-spacing:normal;text-transform:none;direction:ltr;block-progression:tb;writing-mode:lr-tb;text-anchor:start;color:#000000;fill:none;fill-opacity:1;stroke:#2e416a;stroke-width:7.99999962999999870;marker:none;visibility:visible;display:inline;overflow:visible;enable-background:accumulate;font-family:Andale Mono;-inkscape-font-specification:Andale Mono;stroke-opacity:1;stroke-miterlimit:4;stroke-dasharray:none;filter:url(#filter3772)"
   sodipodi:nodetypes="csscccsssscsc" /><path
   id="path5310"
   d="m 1945.9688,254.46875 c 25.4726,6.70707 36.0762,16.77775 40.5,24.46875 6.2261,10.8244 10.966,35.64326 -9.625,91.09375 -20.5912,55.45049 -65.5424,131.55174 -132.0313,214.875 -132.9779,166.64652 -349.5933,364.08104 -611.7813,541.78125 -262.18779,177.7001 -520.27986,301.9973 -716.5937,358.5313 -98.15692,28.2669 -180.87589,38.6985 -235.8125,34.4374 -54.93661,-4.2609 -73.83639,-19.488 -80.0625,-30.3124 -6.22611,-10.8245 -10.52854,-35.9245 10.0625,-91.375 9.51384,-25.6203 24.27589,-55.5769 43.96875,-88.5938"
   style="font-size:medium;font-style:normal;font-variant:normal;font-weight:normal;font-stretch:normal;text-indent:0;text-align:start;text-decoration:none;line-height:normal;letter-spacing:normal;word-spacing:normal;text-transform:none;direction:ltr;block-progression:tb;writing-mode:lr-tb;text-anchor:start;color:#000000;fill:none;fill-opacity:1;stroke:#b5c2df;stroke-width:15.99999927000000000;marker:none;visibility:visible;display:inline;overflow:visible;enable-background:accumulate;font-family:Andale Mono;-inkscape-font-specification:Andale Mono;stroke-opacity:1;stroke-miterlimit:4;stroke-dasharray:none;filter:url(#filter3768)"
   sodipodi:nodetypes="cscssccssc" /><path
   id="path3696"
   d="M 1891.5 44.03125 C 1813.439 44.082787 1727.0297 59.642558 1632.0312 87 C 1584.4594 100.69964 1534.7926 117.48831 1483.4062 137.1875 L 1947.5938 137.1875 C 1947.5937 172.09869 1947.0627 211.86471 1945.9688 254.46875 C 1971.4414 261.17582 1982.045 271.2465 1986.4688 278.9375 C 1992.6949 289.7619 1997.4348 314.58076 1976.8438 370.03125 C 1956.2526 425.48174 1911.3014 501.58299 1844.8125 584.90625 C 1711.8346 751.55277 1495.2192 948.98729 1233.0312 1126.6875 C 970.84341 1304.3876 712.75134 1428.6848 516.4375 1485.2188 C 418.28058 1513.4857 335.56161 1523.9173 280.625 1519.6562 C 225.68839 1515.3953 206.78861 1500.1682 200.5625 1489.3438 C 194.33639 1478.5193 190.03396 1453.4193 210.625 1397.9688 C 220.13884 1372.3485 234.90089 1342.3919 254.59375 1309.375 C 218.36901 1233.119 190.60233 1161.8266 168.96875 1096.125 C 106.89518 1178.3767 59.482473 1257.7019 30.5 1335.75 C -2.8074346 1425.445 -12.338047 1523.3218 33.3125 1602.6875 C 78.963048 1682.0532 164.1675 1715.7639 253.03125 1722.6562 C 341.895 1729.5487 442.84672 1713.4237 555.4375 1681 C 780.61893 1616.1529 1052.8236 1483.2762 1330.0625 1295.375 C 1607.3014 1107.4739 1837.2179 900.02655 1989.75 708.875 C 2066.0161 613.29919 2123.2551 522.19498 2156.5625 432.5 C 2189.8699 342.80502 2199.7755 244.64693 2154.125 165.28125 C 2108.4744 85.915554 2022.8638 52.517368 1934 45.625 C 1920.115 44.548067 1905.9557 44.021706 1891.5 44.03125 z "
   style="font-size:medium;font-style:normal;font-variant:normal;font-weight:normal;font-stretch:normal;text-indent:0;text-align:start;text-decoration:none;line-height:normal;letter-spacing:normal;word-spacing:normal;text-transform:none;direction:ltr;block-progression:tb;writing-mode:lr-tb;text-anchor:start;color:#000000;fill:url(#linearGradient3706);fill-opacity:1;stroke:none;stroke-width:12.55667019000000018;marker:none;visibility:visible;display:inline;overflow:visible;enable-background:accumulate;font-family:Andale Mono;-inkscape-font-specification:Andale Mono;opacity:0.27196653" /><path
   sodipodi:type="arc"
   style="fill:none"
   id="path5041"
   sodipodi:cx="189.81209"
   sodipodi:cy="182.66435"
   sodipodi:rx="258.11267"
   sodipodi:ry="246.19977"
   d="m 447.92476,182.66435 a 258.11267,246.19977 0 1 1 -516.225343,0 258.11267,246.19977 0 1 1 516.225343,0 z"
   transform="matrix(5.3268673,0,0,5.3268673,79.3189,119.38801)" /><path
   sodipodi:type="arc"
   style="fill:url(#linearGradient3641);fill-opacity:1;fill-rule:nonzero;stroke:#140d23;stroke-width:0.01537384;stroke-miterlimit:4;stroke-opacity:1;stroke-dasharray:none"
   id="path2842"
   sodipodi:cx="-454.92935"
   sodipodi:cy="128.31555"
   sodipodi:rx="3.7226877"
   sodipodi:ry="2.7920158"
   d="m -451.21118,128.17813 a 3.7226877,2.7920158 0 1 1 -0.002,-0.0333"
   sodipodi:start="6.2339447"
   sodipodi:end="12.50517"
   sodipodi:open="true"
   transform="matrix(73.097273,0,0,97.217388,34952.146,-11594.642)" /><path
   sodipodi:type="arc"
   style="opacity:0.84100417999999999;fill:#ffffff;fill-opacity:1;fill-rule:nonzero;stroke:none;filter:url(#filter3874)"
   id="path3826"
   sodipodi:cx="-454.92935"
   sodipodi:cy="128.31555"
   sodipodi:rx="3.7226877"
   sodipodi:ry="2.7920158"
   d="m -451.21118,128.17813 a 3.7226877,2.7920158 0 1 1 -0.002,-0.0333"
   sodipodi:start="6.2339447"
   sodipodi:end="12.50517"
   sodipodi:open="true"
   transform="matrix(64.325598,0,0,85.5513,29630.405,-10658.827)"
   clip-path="url(#clipPath3892)" /></svg>