/* XPM */
static char * LinuxIcon_xpm[] = {
"32 32 5 1",
" 	c None",
".	c #000000",
"+	c #C0C0C0",
"@	c #FFFFFF",
"#	c #FFFF00",
"               ......           ",
"             ..+++++..          ",
"            ..+++++++..         ",
"            .+++++++++..        ",
"            .+++++++++++.       ",
"             .+++++++++++.      ",
"              .+++++++++++.     ",
"               .+++++.++++.     ",
"               ..++.. .+++.     ",
"........        ...    .++.     ",
"........               ....     ",
" .    ..              ......    ",
" .    ..              ......    ",
" .    ..          ..   ....     ",
" .    ..   ..    ....  ....     ",
"........  ....   ....  ....     ",
".@.@@@.......................   ",
".@.@.@......................... ",
".@.@@@........................# ",
"..............................# ",
"............................... ",
".....++++++++++++++++++++++++.. ",
"................................",
"................................",
".....+++...+++...+++...+++......",
"   .++.++.++.++.++.++.++.++.    ",
"   .++.++.++.++.++.++.++.++.    ",
"    .+++. .+++. .+++. .+++.     ",
"     ...   ...   ...   ...      ",
"                                ",
"                                ",
"                                "};
