<?xml version="1.0" encoding="UTF-8" standalone="no"?>
<!-- Created with Inkscape (http://www.inkscape.org/) -->
<svg
   xmlns:dc="http://purl.org/dc/elements/1.1/"
   xmlns:cc="http://web.resource.org/cc/"
   xmlns:rdf="http://www.w3.org/1999/02/22-rdf-syntax-ns#"
   xmlns:svg="http://www.w3.org/2000/svg"
   xmlns="http://www.w3.org/2000/svg"
   xmlns:xlink="http://www.w3.org/1999/xlink"
   xmlns:sodipodi="http://sodipodi.sourceforge.net/DTD/sodipodi-0.dtd"
   xmlns:inkscape="http://www.inkscape.org/namespaces/inkscape"
   version="1.0"
   width="794.7439"
   height="598.79327"
   viewBox="0 0 600 200"
   id="svg2"
   sodipodi:version="0.32"
   inkscape:version="0.44.1"
   sodipodi:docbase="/home/sja/workspaces/eclipse/svn/modelgui/modelgui-src/src/resources"
   sodipodi:docname="modelgui-logo.svg">
  <metadata
     id="metadata2021">
    <rdf:RDF>
      <cc:Work
         rdf:about="">
        <dc:format>image/svg+xml</dc:format>
        <dc:type
           rdf:resource="http://purl.org/dc/dcmitype/StillImage" />
      </cc:Work>
    </rdf:RDF>
  </metadata>
  <sodipodi:namedview
     inkscape:window-height="948"
     inkscape:window-width="1272"
     inkscape:pageshadow="2"
     inkscape:pageopacity="1"
     guidetolerance="10.0"
     gridtolerance="10.0"
     objecttolerance="10.0"
     borderopacity="1.0"
     bordercolor="#666666"
     pagecolor="black"
     id="base"
     inkscape:zoom="0.68451972"
     inkscape:cx="466.13755"
     inkscape:cy="300.69411"
     inkscape:window-x="0"
     inkscape:window-y="0"
     inkscape:current-layer="g21922"
     width="800px"
     height="600px" />
  <defs
     id="defs4">
    <linearGradient
       inkscape:collect="always"
       id="linearGradient33338">
      <stop
         style="stop-color:black;stop-opacity:1;"
         offset="0"
         id="stop33340" />
      <stop
         style="stop-color:black;stop-opacity:0;"
         offset="1"
         id="stop33342" />
    </linearGradient>
    <linearGradient
       id="linearGradient55755">
      <stop
         style="stop-color:white;stop-opacity:1;"
         offset="0"
         id="stop55757" />
      <stop
         style="stop-color:#978a00;stop-opacity:0;"
         offset="1"
         id="stop55759" />
    </linearGradient>
    <linearGradient
       inkscape:collect="always"
       id="linearGradient24645">
      <stop
         style="stop-color:black;stop-opacity:1;"
         offset="0"
         id="stop24647" />
      <stop
         style="stop-color:black;stop-opacity:0;"
         offset="1"
         id="stop24649" />
    </linearGradient>
    <linearGradient
       id="linearGradient22833">
      <stop
         style="stop-color:#f7ab00;stop-opacity:1;"
         offset="0"
         id="stop22835" />
      <stop
         style="stop-color:black;stop-opacity:1;"
         offset="1"
         id="stop22837" />
    </linearGradient>
    <linearGradient
       inkscape:collect="always"
       id="linearGradient21017">
      <stop
         style="stop-color:black;stop-opacity:1;"
         offset="0"
         id="stop21019" />
      <stop
         style="stop-color:black;stop-opacity:0;"
         offset="1"
         id="stop21021" />
    </linearGradient>
    <linearGradient
       id="linearGradient18306">
      <stop
         style="stop-color:white;stop-opacity:1;"
         offset="0"
         id="stop18308" />
      <stop
         style="stop-color:white;stop-opacity:0;"
         offset="1"
         id="stop18310" />
    </linearGradient>
    <linearGradient
       id="linearGradient11848">
      <stop
         style="stop-color:white;stop-opacity:1;"
         offset="0"
         id="stop11850" />
      <stop
         style="stop-color:white;stop-opacity:0;"
         offset="1"
         id="stop11852" />
    </linearGradient>
    <linearGradient
       id="linearGradient9393">
      <stop
         style="stop-color:white;stop-opacity:1;"
         offset="0"
         id="stop9395" />
      <stop
         style="stop-color:white;stop-opacity:0;"
         offset="1"
         id="stop9397" />
    </linearGradient>
    <linearGradient
       id="linearGradient43415">
      <stop
         style="stop-color:white;stop-opacity:0.27601811"
         offset="0"
         id="stop43417" />
      <stop
         style="stop-color:white;stop-opacity:1"
         offset="1"
         id="stop43419" />
    </linearGradient>
    <linearGradient
       id="linearGradient10101">
      <stop
         style="stop-color:black;stop-opacity:1"
         offset="0"
         id="stop10103" />
      <stop
         style="stop-color:white;stop-opacity:0"
         offset="1"
         id="stop10105" />
    </linearGradient>
    <linearGradient
       x1="289.41843"
       y1="140.69759"
       x2="289.41843"
       y2="108.63457"
       id="linearGradient10107"
       xlink:href="#linearGradient10101"
       gradientUnits="userSpaceOnUse" />
    <linearGradient
       x1="289.41843"
       y1="140.69759"
       x2="289.41843"
       y2="108.63457"
       id="linearGradient10121"
       xlink:href="#linearGradient10101"
       gradientUnits="userSpaceOnUse"
       gradientTransform="translate(82.35921,0.827071)" />
    <linearGradient
       x1="289.41843"
       y1="140.69759"
       x2="289.41843"
       y2="108.63457"
       id="linearGradient10136"
       xlink:href="#linearGradient10101"
       gradientUnits="userSpaceOnUse"
       gradientTransform="translate(89.16906,188.0978)" />
    <linearGradient
       x1="289.41833"
       y1="220.18166"
       x2="289.41833"
       y2="165.3909"
       id="linearGradient36273"
       xlink:href="#linearGradient10101"
       gradientUnits="userSpaceOnUse"
       gradientTransform="translate(-668.0058,106.6511)" />
    <mask
       id="mask36270">
      <rect
         width="452.85471"
         height="87.960503"
         ry="0.92177784"
         x="-605.01483"
         y="215.28571"
         transform="scale(-1,1)"
         style="opacity:1;fill:url(#linearGradient36273);fill-opacity:1;fill-rule:nonzero;stroke:none;stroke-width:5;stroke-linecap:round;stroke-linejoin:round;stroke-miterlimit:4;stroke-dasharray:none;stroke-dashoffset:0;stroke-opacity:1"
         id="rect9214" />
    </mask>
    <linearGradient
       x1="271.58652"
       y1="61.466564"
       x2="271.32126"
       y2="25.993956"
       id="linearGradient43421"
       xlink:href="#linearGradient43415"
       gradientUnits="userSpaceOnUse"
       gradientTransform="translate(96.41383,194.1929)" />
    <linearGradient
       inkscape:collect="always"
       xlink:href="#linearGradient43415"
       id="linearGradient7620"
       gradientUnits="userSpaceOnUse"
       gradientTransform="translate(96.75374,194.0497)"
       x1="271.58652"
       y1="61.466564"
       x2="271.32126"
       y2="25.993956" />
    <linearGradient
       inkscape:collect="always"
       xlink:href="#linearGradient9393"
       id="linearGradient9399"
       x1="68.90625"
       y1="86.910561"
       x2="514.39154"
       y2="86.910561"
       gradientUnits="userSpaceOnUse" />
    <linearGradient
       inkscape:collect="always"
       xlink:href="#linearGradient18306"
       id="linearGradient21930"
       gradientUnits="userSpaceOnUse"
       x1="-58.984356"
       y1="-220.71539"
       x2="-58.984356"
       y2="-160.28441" />
    <linearGradient
       inkscape:collect="always"
       xlink:href="#linearGradient22833"
       id="linearGradient22843"
       gradientUnits="userSpaceOnUse"
       x1="111.13892"
       y1="176.59573"
       x2="141.92741"
       y2="226.90863" />
    <linearGradient
       inkscape:collect="always"
       xlink:href="#linearGradient24645"
       id="linearGradient24651"
       x1="89.027397"
       y1="226.30499"
       x2="89.027397"
       y2="170.40463"
       gradientUnits="userSpaceOnUse" />
    <radialGradient
       inkscape:collect="always"
       xlink:href="#linearGradient22833"
       id="radialGradient25538"
       gradientUnits="userSpaceOnUse"
       gradientTransform="matrix(1.665135,-6.880642e-3,6.61716e-3,1.601375,-80.17019,-113.061)"
       cx="118.64832"
       cy="189.36169"
       fx="118.64832"
       fy="189.36169"
       r="22.52816" />
    <linearGradient
       inkscape:collect="always"
       xlink:href="#linearGradient21017"
       id="linearGradient26454"
       gradientUnits="userSpaceOnUse"
       gradientTransform="translate(622.9081,431.1802)"
       x1="-69.976082"
       y1="-100.80629"
       x2="-69.976082"
       y2="-228.48044" />
    <linearGradient
       inkscape:collect="always"
       xlink:href="#linearGradient22833"
       id="linearGradient55761"
       x1="618.81079"
       y1="363.5282"
       x2="699.90027"
       y2="407.28372"
       gradientUnits="userSpaceOnUse" />
    <linearGradient
       inkscape:collect="always"
       xlink:href="#linearGradient22833"
       id="linearGradient57801"
       gradientUnits="userSpaceOnUse"
       x1="618.81079"
       y1="363.5282"
       x2="699.90027"
       y2="407.28372"
       gradientTransform="translate(-0.922383,0)" />
    <linearGradient
       inkscape:collect="always"
       xlink:href="#linearGradient22833"
       id="linearGradient58801"
       gradientUnits="userSpaceOnUse"
       gradientTransform="translate(-0.922383,0)"
       x1="618.81079"
       y1="363.5282"
       x2="699.90027"
       y2="407.28372" />
    <radialGradient
       inkscape:collect="always"
       xlink:href="#linearGradient22833"
       id="radialGradient59690"
       gradientUnits="userSpaceOnUse"
       gradientTransform="matrix(1.665135,-6.880642e-3,6.61716e-3,1.601375,-80.17019,-113.061)"
       cx="118.64832"
       cy="189.36169"
       fx="118.64832"
       fy="189.36169"
       r="22.52816" />
    <radialGradient
       inkscape:collect="always"
       xlink:href="#linearGradient22833"
       id="radialGradient59694"
       gradientUnits="userSpaceOnUse"
       gradientTransform="matrix(1.665135,-6.880642e-3,6.61716e-3,1.601375,-80.17019,-113.061)"
       cx="118.64832"
       cy="189.36169"
       fx="118.64832"
       fy="189.36169"
       r="22.52816" />
    <linearGradient
       inkscape:collect="always"
       xlink:href="#linearGradient33338"
       id="linearGradient33344"
       x1="435.38504"
       y1="270.3945"
       x2="417.53891"
       y2="148.34908"
       gradientUnits="userSpaceOnUse" />
  </defs>
  <g
     id="layer1"
     transform="translate(-1.49201,-0.159027)">
    <g
       id="g21922"
       transform="translate(-272.5405,-199.9293)">
      <rect
         style="opacity:1;fill:black;fill-opacity:1;fill-rule:nonzero;stroke:none;stroke-width:1;stroke-linecap:round;stroke-linejoin:round;stroke-miterlimit:4;stroke-dasharray:none;stroke-dashoffset:0;stroke-opacity:1"
         id="rect21934"
         width="596.05792"
         height="449.09497"
         x="276.59857"
         y="77.911011"
         ry="0.75658357" />
      <g
         id="g26446">
        <g
           id="g18314"
           transform="translate(622.9081,431.1802)">
          <path
             id="text16365"
             d="M -165.47532,-210.45991 L -165.47532,-140.3576 L -181.40963,-140.3576 L -181.40963,-187.68424 L -187.7747,-140.3576 L -199.07593,-140.3576 L -205.7874,-186.60175 L -205.7874,-140.3576 L -221.72171,-140.3576 L -221.72171,-210.45991 L -198.12334,-210.45991 C -197.43057,-206.24534 -196.69448,-201.2803 -195.91505,-195.5648 L -193.40367,-177.7253 L -189.24689,-210.45991 L -165.47532,-210.45991 M -119.10128,-177.6387 L -119.10128,-163.56627 C -119.10132,-158.39915 -119.36112,-154.60321 -119.88068,-152.17844 C -120.40032,-149.78251 -121.51167,-147.53092 -123.21476,-145.42368 C -124.91792,-143.34529 -127.11177,-141.80093 -129.79632,-140.7906 C -132.45207,-139.80914 -135.51192,-139.31841 -138.97587,-139.31841 C -142.844,-139.31841 -146.12035,-139.73698 -148.80491,-140.5741 C -151.48951,-141.4401 -153.58233,-142.72466 -155.08338,-144.42778 C -156.55558,-146.15977 -157.6092,-148.23815 -158.24426,-150.66295 C -158.87933,-153.11659 -159.19686,-156.78263 -159.19686,-161.66109 L -159.19686,-176.383 C -159.19686,-181.72326 -158.61953,-185.89447 -157.46487,-188.89663 C -156.31021,-191.8987 -154.23183,-194.30905 -151.2297,-196.12769 C -148.2276,-197.94622 -144.38836,-198.85552 -139.71197,-198.85558 C -135.78615,-198.85552 -132.4232,-198.26376 -129.62312,-197.08029 C -126.79424,-195.92557 -124.61482,-194.41008 -123.08486,-192.53381 C -121.55497,-190.65744 -120.51578,-188.72339 -119.96728,-186.73164 C -119.38999,-184.73981 -119.10132,-181.70883 -119.10128,-177.6387 M -136.59438,-181.96867 C -136.59441,-184.91301 -136.75317,-186.76046 -137.07068,-187.51104 C -137.38824,-188.29039 -138.0666,-188.68009 -139.10577,-188.68013 C -140.14498,-188.68009 -140.83778,-188.29039 -141.18416,-187.51104 C -141.53058,-186.76046 -141.70377,-184.91301 -141.70375,-181.96867 L -141.70375,-156.03212 C -141.70377,-153.31865 -141.53058,-151.54336 -141.18416,-150.70625 C -140.83778,-149.89798 -140.15942,-149.49384 -139.14907,-149.49385 C -138.1099,-149.49384 -137.43154,-149.86911 -137.11398,-150.61965 C -136.76761,-151.37017 -136.59441,-152.98669 -136.59438,-155.46922 L -136.59438,-181.96867 M -73.506636,-210.45991 L -73.506636,-140.3576 L -90.999737,-140.3576 L -90.999737,-144.51438 C -92.674018,-142.78239 -94.434873,-141.4834 -96.282308,-140.6174 C -98.129782,-139.75141 -100.06384,-139.31841 -102.08448,-139.31841 C -104.79794,-139.31841 -107.15056,-140.02564 -109.14234,-141.4401 C -111.13413,-142.88342 -112.41869,-144.54324 -112.99601,-146.41957 C -113.54448,-148.29589 -113.81871,-151.35573 -113.81871,-155.59912 L -113.81871,-182.48827 C -113.81871,-186.9048 -113.54448,-190.03681 -112.99601,-191.88432 C -112.41869,-193.73172 -111.1197,-195.34824 -109.09904,-196.73389 C -107.07839,-198.14829 -104.66804,-198.85552 -101.86798,-198.85558 C -99.703005,-198.85552 -97.725652,-198.46582 -95.93591,-197.68648 C -94.117342,-196.90703 -92.471953,-195.73794 -90.999737,-194.1792 L -90.999737,-210.45991 L -73.506636,-210.45991 M -90.999737,-183.35426 C -90.999763,-185.46147 -91.187395,-186.87593 -91.562634,-187.59764 C -91.909057,-188.31925 -92.616285,-188.68009 -93.684322,-188.68013 C -94.723538,-188.68009 -95.430767,-188.34812 -95.80601,-187.68424 C -96.152429,-187.04913 -96.325628,-185.60581 -96.325607,-183.35426 L -96.325607,-155.20942 C -96.325628,-152.87122 -96.152429,-151.32687 -95.80601,-150.57635 C -95.459633,-149.85468 -94.795704,-149.49384 -93.814222,-149.49385 C -92.688452,-149.49384 -91.937923,-149.89798 -91.562634,-150.70625 C -91.187395,-151.54336 -90.999763,-153.56402 -90.999737,-156.76821 L -90.999737,-183.35426 M -27.608889,-168.06945 L -50.254662,-168.06945 L -50.254662,-155.64242 C -50.254682,-153.04442 -50.06705,-151.37017 -49.691765,-150.61965 C -49.316521,-149.86911 -48.594859,-149.49384 -47.526777,-149.49385 C -46.198942,-149.49384 -45.318514,-149.98457 -44.885492,-150.96605 C -44.423654,-151.97636 -44.192722,-153.91042 -44.192696,-156.76821 L -44.192696,-164.34567 L -27.608889,-164.34567 L -27.608889,-160.10229 C -27.608932,-156.5517 -27.839863,-153.82382 -28.301685,-151.91864 C -28.734724,-150.01344 -29.773917,-147.97835 -31.419267,-145.81337 C -33.064695,-143.64838 -35.157515,-142.01743 -37.697732,-140.9205 C -40.209148,-139.85244 -43.370027,-139.31841 -47.180379,-139.31841 C -50.875311,-139.31841 -54.137223,-139.85244 -56.966124,-140.9205 C -59.795052,-141.98856 -62.003337,-143.44632 -63.590987,-145.29378 C -65.149783,-147.17009 -66.232276,-149.21961 -66.838469,-151.44234 C -67.444668,-153.69392 -67.747766,-156.95583 -67.747763,-161.22809 L -67.747763,-177.98509 C -67.747766,-183.00782 -67.069404,-186.96253 -65.712675,-189.84923 C -64.355955,-192.76469 -62.133237,-194.98741 -59.044512,-196.51739 C -55.955811,-198.07612 -52.405234,-198.85552 -48.392772,-198.85558 C -43.485493,-198.85552 -39.444187,-197.91736 -36.26884,-196.04109 C -33.064695,-194.19358 -30.827544,-191.7255 -29.557378,-188.63683 C -28.258427,-185.57694 -27.608932,-181.2614 -27.608889,-175.69021 L -27.608889,-168.06945 M -45.14529,-177.4222 L -45.14529,-181.62227 C -45.145316,-184.59548 -45.304081,-186.5151 -45.621588,-187.38114 C -45.939144,-188.24709 -46.588639,-188.68009 -47.570077,-188.68013 C -48.782492,-188.68009 -49.53302,-188.30482 -49.821664,-187.55434 C -50.110349,-186.83263 -50.254682,-184.85528 -50.254662,-181.62227 L -50.254662,-177.4222 L -45.14529,-177.4222 M -3.8373242,-210.45991 L -3.8373242,-140.3576 L -21.850023,-140.3576 L -21.850023,-210.45991 L -3.8373242,-210.45991 M 44.745003,-184.65326 L 26.515805,-184.65326 L 26.515805,-191.01832 C 26.515778,-195.03071 26.342579,-197.54209 25.996208,-198.55248 C 25.649784,-199.56275 24.827089,-200.06791 23.528122,-200.06797 C 22.402305,-200.06791 21.637344,-199.63491 21.233235,-198.76898 C 20.829082,-197.90292 20.627017,-195.68021 20.627038,-192.10081 L 20.627038,-158.4569 C 20.627017,-155.31044 20.829082,-153.23205 21.233235,-152.22174 C 21.637344,-151.24027 22.445605,-150.74954 23.658021,-150.74955 C 24.985855,-150.74954 25.880716,-151.31243 26.342606,-152.43824 C 26.833309,-153.56402 27.078674,-155.75787 27.078702,-159.0198 L 27.078702,-167.33335 L 23.398223,-167.33335 L 23.398223,-177.98509 L 44.745003,-177.98509 L 44.745003,-140.3576 L 33.270567,-140.3576 L 31.581877,-145.38038 C 30.340586,-143.21539 28.767363,-141.58443 26.862203,-140.4875 C 24.985855,-139.41944 22.763136,-138.88541 20.194041,-138.88541 C 17.134173,-138.88541 14.261959,-139.62151 11.577389,-141.0937 C 8.9216611,-142.59476 6.9010078,-144.44221 5.5154232,-146.63607 C 4.1298261,-148.82992 3.2638318,-151.1248 2.9174378,-153.52073 C 2.5710364,-155.9455 2.3978376,-159.56824 2.3978407,-164.38897 L 2.3978407,-185.21615 C 2.3978376,-191.91313 2.7586685,-196.77713 3.4803346,-199.80817 C 4.2019923,-202.83909 6.2659453,-205.61027 9.6721998,-208.12172 C 13.1073,-210.66191 17.538304,-211.93203 22.965225,-211.9321 C 28.3055,-211.93203 32.736504,-210.83511 36.258251,-208.64132 C 39.779924,-206.4474 42.074808,-203.83499 43.142912,-200.80407 C 44.210928,-197.80189 44.744958,-193.42862 44.745003,-187.68424 L 44.745003,-184.65326 M 93.197422,-210.45991 L 93.197422,-163.60957 C 93.197377,-158.29812 93.024179,-154.55991 92.677825,-152.39494 C 92.331383,-150.25881 91.306623,-148.05052 89.603543,-145.77007 C 87.900379,-143.51848 85.648794,-141.80093 82.848781,-140.6174 C 80.077564,-139.46274 76.801219,-138.88541 73.019736,-138.88541 C 68.834072,-138.88541 65.139163,-139.57821 61.934998,-140.9638 C 58.730805,-142.34939 56.334888,-144.15355 54.747238,-146.37627 C 53.159576,-148.59898 52.221415,-150.93717 51.932754,-153.39083 C 51.644086,-155.87334 51.499753,-161.0693 51.499757,-168.97874 L 51.499757,-210.45991 L 69.728954,-210.45991 L 69.728954,-157.89401 C 69.728933,-154.83414 69.887698,-152.87122 70.205252,-152.00524 C 70.551627,-151.1681 71.229989,-150.74954 72.24034,-150.74955 C 73.394975,-150.74954 74.13107,-151.2114 74.448628,-152.13514 C 74.794999,-153.08772 74.968198,-155.31044 74.968225,-158.8033 L 74.968225,-210.45991 L 93.197422,-210.45991 M 118.48448,-210.45991 L 118.48448,-140.3576 L 100.25528,-140.3576 L 100.25528,-210.45991 L 118.48448,-210.45991"
             style="font-size:88.67790222px;font-style:normal;font-variant:normal;font-weight:normal;font-stretch:condensed;text-align:start;line-height:100%;writing-mode:lr-tb;text-anchor:start;fill:#98cada;fill-opacity:1;stroke:none;stroke-width:1px;stroke-linecap:butt;stroke-linejoin:miter;stroke-opacity:1;font-family:Impact" />
          <path
             id="path18303"
             d="M 22.96875,-211.9375 C 17.541829,-211.93743 13.1226,-210.66519 9.6875,-208.125 C 6.2812455,-205.61355 4.1904078,-202.84342 3.46875,-199.8125 C 2.7470839,-196.78146 2.4062469,-191.91572 2.40625,-185.21875 L 2.40625,-180.09375 C 8.6486313,-179.79607 14.886172,-179.5086 20.625,-179.21875 L 20.625,-192.09375 C 20.624979,-195.67315 20.814598,-197.91519 21.21875,-198.78125 C 21.622859,-199.64718 22.405433,-200.06245 23.53125,-200.0625 C 24.830217,-200.06244 25.653576,-199.57278 26,-198.5625 C 26.346371,-197.55211 26.531224,-195.04363 26.53125,-191.03125 L 26.53125,-184.65625 L 44.75,-184.65625 L 44.75,-187.6875 C 44.749955,-193.43188 44.224264,-197.81031 43.15625,-200.8125 C 42.088146,-203.84342 39.771673,-206.46232 36.25,-208.65625 C 32.728253,-210.85004 28.309025,-211.93743 22.96875,-211.9375 z M -221.71875,-210.46875 L -221.71875,-160.34375 C -217.22816,-161.85476 -211.88824,-163.46633 -205.78125,-165.125 L -205.78125,-186.59375 L -202.78125,-165.90625 C -197.10331,-167.391 -190.77684,-168.92183 -183.75,-170.375 L -181.40625,-187.6875 L -181.40625,-170.875 C -176.43317,-171.87367 -171.1131,-172.82156 -165.46875,-173.75 L -165.46875,-210.46875 L -189.25,-210.46875 L -193.40625,-177.71875 L -195.90625,-195.5625 C -196.68568,-201.278 -197.43223,-206.25417 -198.125,-210.46875 L -221.71875,-210.46875 z M -91,-210.46875 L -91,-194.1875 C -92.472216,-195.74624 -94.118929,-196.90805 -95.9375,-197.6875 C -97.727242,-198.46684 -99.710024,-198.84369 -101.875,-198.84375 C -104.67506,-198.84369 -107.0731,-198.13315 -109.09375,-196.71875 C -111.11441,-195.3331 -112.42268,-193.7224 -113,-191.875 C -113.54847,-190.02749 -113.8125,-186.91653 -113.8125,-182.5 L -113.8125,-179.75 C -108.17588,-180.16774 -102.36435,-180.54469 -96.3125,-180.84375 L -96.3125,-183.34375 C -96.312521,-185.5953 -96.158922,-187.0524 -95.8125,-187.6875 C -95.437257,-188.35138 -94.726719,-188.68746 -93.6875,-188.6875 C -92.619463,-188.68746 -91.90892,-188.31536 -91.5625,-187.59375 C -91.187261,-186.87204 -91.000022,-185.45096 -91,-183.34375 L -91,-181.0625 C -85.33099,-181.3028 -79.527117,-181.50264 -73.5,-181.625 L -73.5,-210.46875 L -91,-210.46875 z M -21.84375,-210.46875 L -21.84375,-181.1875 C -18.615387,-181.07092 -15.371166,-180.93233 -12.0625,-180.78125 C -9.1464967,-180.6481 -6.6585178,-180.53797 -3.84375,-180.40625 L -3.84375,-210.46875 L -21.84375,-210.46875 z M 51.5,-210.46875 L 51.5,-177.5625 C 57.935889,-177.19691 64.065172,-176.81811 69.71875,-176.46875 L 69.71875,-210.46875 L 51.5,-210.46875 z M 74.96875,-210.46875 L 74.96875,-176.15625 C 81.561576,-175.73735 87.647608,-175.33033 93.1875,-174.9375 L 93.1875,-210.46875 L 74.96875,-210.46875 z M 100.25,-210.46875 L 100.25,-174.4375 C 107.29392,-173.91309 113.16894,-173.4074 118.5,-172.9375 L 118.5,-210.46875 L 100.25,-210.46875 z M -139.71875,-198.84375 C -144.39514,-198.84369 -148.21664,-197.94353 -151.21875,-196.125 C -154.22088,-194.30636 -156.31409,-191.90831 -157.46875,-188.90625 C -158.62341,-185.90409 -159.18751,-181.71526 -159.1875,-176.375 L -159.1875,-174.71875 C -153.6729,-175.55487 -147.84206,-176.36553 -141.71875,-177.09375 L -141.71875,-181.96875 C -141.71877,-184.91309 -141.53392,-186.74941 -141.1875,-187.5 C -140.84112,-188.27935 -140.13296,-188.68746 -139.09375,-188.6875 C -138.05458,-188.68746 -137.38006,-188.27934 -137.0625,-187.5 C -136.74499,-186.74942 -136.59378,-184.91309 -136.59375,-181.96875 L -136.59375,-177.65625 C -131.01695,-178.27001 -125.19356,-178.84594 -119.125,-179.34375 C -119.19841,-182.54144 -119.47774,-185.02459 -119.96875,-186.71875 C -120.51725,-188.7105 -121.56386,-190.65488 -123.09375,-192.53125 C -124.62371,-194.40752 -126.79612,-195.93903 -129.625,-197.09375 C -132.42508,-198.27722 -135.79292,-198.84369 -139.71875,-198.84375 z M -48.40625,-198.84375 C -52.418712,-198.84369 -55.942547,-198.08997 -59.03125,-196.53125 C -62.119975,-195.00127 -64.362028,-192.75921 -65.71875,-189.84375 C -66.716597,-187.72064 -67.329801,-185.02855 -67.59375,-181.75 C -61.969245,-181.82442 -56.180827,-181.81978 -50.25,-181.78125 C -50.244957,-184.9125 -50.096032,-186.85368 -49.8125,-187.5625 C -49.523856,-188.31298 -48.774916,-188.68746 -47.5625,-188.6875 C -46.581062,-188.68746 -45.942554,-188.24096 -45.625,-187.375 C -45.311156,-186.51895 -45.159895,-184.63364 -45.15625,-181.71875 C -39.529303,-181.65108 -33.774597,-181.58367 -27.875,-181.40625 C -28.178757,-184.31293 -28.747876,-186.70603 -29.5625,-188.625 C -30.832666,-191.71367 -33.077104,-194.18374 -36.28125,-196.03125 C -39.456597,-197.90752 -43.49897,-198.84369 -48.40625,-198.84375 z M 43.5625,-178 C 43.984306,-177.97684 44.331399,-177.9606 44.75,-177.9375 L 44.75,-178 L 43.5625,-178 z "
             style="font-size:88.67790222px;font-style:normal;font-variant:normal;font-weight:normal;font-stretch:condensed;text-align:start;line-height:100%;writing-mode:lr-tb;text-anchor:start;opacity:0.79729728;fill:url(#linearGradient21930);fill-opacity:1;stroke:none;stroke-width:1px;stroke-linecap:butt;stroke-linejoin:miter;stroke-opacity:1;font-family:Impact" />
        </g>
        <use
           x="0"
           y="0"
           xlink:href="#g18314"
           id="use18318"
           transform="matrix(1,0,0,-1,0,584.532)"
           width="600"
           height="200"
           style="opacity:1;fill-opacity:1" />
        <use
           style="opacity:1;fill-opacity:1"
           height="200"
           width="600"
           transform="matrix(1,0,0,-1,0,584.532)"
           id="use19216"
           xlink:href="#g18314"
           y="0"
           x="0" />
        <rect
           style="opacity:1;fill:url(#linearGradient26454);fill-opacity:1;fill-rule:nonzero;stroke:none;stroke-width:1;stroke-linecap:round;stroke-linejoin:round;stroke-miterlimit:4;stroke-dasharray:none;stroke-dashoffset:0;stroke-opacity:1"
           id="rect20130"
           width="343.99466"
           height="77.142143"
           x="399.60379"
           y="291.79852"
           ry="0.75658357" />
      </g>
      <path
         style="opacity:1;fill:#cc8d00;fill-opacity:1;fill-rule:nonzero;stroke:none;stroke-width:1;stroke-linecap:round;stroke-linejoin:round;stroke-miterlimit:4;stroke-dasharray:none;stroke-dashoffset:0;stroke-opacity:1"
         d="M 715.47803,379.81466 C 715.23647,379.81466 715.02438,379.84301 714.78487,379.84516 L 714.95518,381.50703 C 713.57477,381.53139 712.22312,381.58867 710.92471,381.69 L 709.00308,380.13484 C 708.70133,380.16139 708.35706,380.15036 708.05973,380.18058 C 707.16631,380.27137 706.39149,380.45394 705.53923,380.577 L 706.62075,382.19312 C 705.36915,382.38608 704.18519,382.61282 703.04187,382.87922 L 700.40623,381.52228 C 699.36191,381.77928 698.40854,382.08151 697.45602,382.39133 L 699.36389,383.91597 C 698.34691,384.26204 697.3931,384.65041 696.50517,385.05947 L 693.4033,384.02271 C 692.69258,384.36579 691.88724,384.66618 691.26079,385.04423 C 691.1891,385.0875 691.13612,385.13773 691.06555,385.18144 L 693.77233,386.55365 C 693.02894,387.0351 692.35028,387.54375 691.76011,388.07829 L 688.23782,387.3922 C 688.13026,387.49561 687.95646,387.57685 687.8542,387.68188 C 687.48156,388.0646 687.29077,388.49855 686.98988,388.9016 L 690.08491,389.92312 C 689.67366,390.51014 689.34748,391.12449 689.10976,391.75271 L 685.58013,391.47826 C 685.39729,392.02873 685.2754,392.5961 685.21792,393.17063 L 688.66907,393.84148 C 688.63006,394.49622 688.6892,395.17098 688.83673,395.85402 L 685.53154,396.00649 C 685.67166,396.55898 685.66497,397.0872 685.91992,397.65311 C 685.93643,397.68977 685.98316,397.72322 686.00013,397.75984 L 689.59402,398.03428 C 689.94133,398.73018 690.39058,399.42098 690.90687,400.09255 L 687.89041,400.67193 C 688.04392,400.86109 688.11494,401.06423 688.27995,401.2513 C 688.61991,401.63669 689.13318,401.98837 689.52041,402.36429 L 692.85085,402.19659 C 693.56562,402.867 694.33922,403.51677 695.20811,404.14814 L 692.8132,405.10866 C 693.56322,405.63526 694.39654,406.13595 695.23522,406.63332 L 698.18741,406.05395 C 699.23559,406.65799 700.3306,407.24343 701.50885,407.79207 L 699.91926,409.04227 C 700.82726,409.45285 701.66138,409.89918 702.62846,410.27725 C 702.70032,410.30534 702.78345,410.32558 702.8556,410.35348 L 705.30101,409.36246 C 706.60784,409.85303 707.95369,410.31482 709.35733,410.73464 L 708.56613,412.2593 C 708.77472,412.3197 708.95927,412.39859 709.16953,412.4575 C 710.10514,412.71964 711.10859,412.89673 712.07444,413.12835 L 713.66406,411.87813 C 715.13564,412.2181 716.65066,412.52133 718.18221,412.77768 L 718.33191,414.39381 C 719.5408,414.58613 720.76403,414.75526 721.9967,414.89694 L 722.73738,413.40278 C 724.271,413.5667 725.80404,413.68192 727.36173,413.75345 L 728.40425,415.35434 C 729.45608,415.39488 730.50211,415.5068 731.5576,415.5068 C 731.72371,415.50681 731.86072,415.47733 732.02586,415.47631 L 731.85554,413.81444 C 733.39549,413.79162 734.89059,413.73427 736.329,413.61623 L 738.25062,415.17139 C 738.47179,415.15114 738.72502,415.16313 738.9438,415.14089 C 739.8566,415.04812 740.65868,414.8709 741.52856,414.74449 L 740.44704,413.12835 C 741.80783,412.91718 743.0741,412.64859 744.30601,412.35078 L 746.93478,413.69247 C 747.90242,413.4461 748.83283,413.17677 749.71969,412.8844 L 747.8118,411.35975 C 748.92403,410.97591 749.9496,410.5537 750.90475,410.09429 L 753.99977,411.11581 C 754.57389,410.8277 755.25827,410.58899 755.77486,410.27725 C 755.92744,410.18514 756.00412,410.0664 756.15159,409.97231 L 753.52282,408.63062 C 754.29872,408.11117 754.96933,407.54763 755.56962,406.96875 L 759.13091,407.67009 C 759.14259,407.65821 759.16985,407.65149 759.18143,407.63958 C 759.63063,407.17825 759.8415,406.65134 760.18604,406.16068 L 757.09101,405.13916 C 757.49664,404.51681 757.80511,403.86945 758.01809,403.20286 L 761.51559,403.47729 C 761.66867,402.93262 761.79555,402.38257 761.82727,401.81542 L 758.37611,401.14457 C 758.38504,400.47207 758.278,399.78722 758.09147,399.08628 L 761.39665,398.93383 C 761.2683,398.50334 761.30635,398.09146 761.10887,397.65311 C 761.03808,397.496 760.88529,397.35185 760.80641,397.19571 L 757.21251,396.92128 C 756.83376,396.22706 756.35647,395.54704 755.81013,394.87825 L 758.85185,394.28363 C 758.79255,394.21439 758.78437,394.13912 758.72356,394.07018 C 758.27197,393.55829 757.62759,393.08621 757.09333,392.59127 L 753.79503,392.75898 C 753.0645,392.10701 752.24539,391.48169 751.36885,390.8684 L 753.76374,389.90787 C 752.98328,389.37839 752.14098,388.86666 751.27061,388.36797 L 748.28628,388.94734 C 747.27106,388.38434 746.18131,387.84363 745.0519,387.33121 L 746.67365,386.08099 C 745.90434,385.7412 745.21759,385.36104 744.40718,385.04423 C 744.13272,384.93693 743.81654,384.85909 743.53763,384.75454 L 741.14961,385.73032 C 739.91178,385.28036 738.62977,384.86735 737.30892,384.48011 L 738.09325,382.9402 C 738.01382,382.91767 737.94577,382.88629 737.86613,382.86397 C 736.77115,382.55718 735.5923,382.33595 734.4564,382.07115 L 732.84154,383.33662 C 731.47909,383.03165 730.09128,382.74689 728.67903,382.5133 L 728.53622,380.91242 C 727.258,380.71115 725.96913,380.52333 724.66488,380.37878 L 723.89893,381.8882 C 722.50046,381.74571 721.0918,381.63375 719.67394,381.56802 L 718.63138,379.96713 C 717.57513,379.92625 716.53797,379.81466 715.47803,379.81466 z M 722.22481,395.2899 C 722.40353,395.28109 722.5835,395.2899 722.77107,395.2899 C 725.77215,395.2899 728.72065,396.44254 729.36219,397.86656 C 730.00371,399.29057 728.09377,400.44323 725.09268,400.44323 C 722.0916,400.44324 719.14307,399.29058 718.50155,397.86656 C 717.90012,396.53155 719.54395,395.42208 722.22481,395.2899 z "
         id="path36216" />
      <path
         style="opacity:1;fill:#cc8d00;fill-opacity:1;fill-rule:nonzero;stroke:none;stroke-width:1;stroke-linecap:round;stroke-linejoin:round;stroke-miterlimit:4;stroke-dasharray:none;stroke-dashoffset:0;stroke-opacity:1"
         d="M 779.58837,401.1093 C 779.38973,401.11043 779.21595,401.13486 779.01905,401.13776 L 779.19558,402.51064 C 778.06099,402.5373 776.95075,402.59104 775.88527,402.68092 L 774.27095,401.40456 C 774.02339,401.42793 773.74004,401.42044 773.4962,401.44683 C 772.76354,401.52608 772.13038,401.68066 771.43225,401.78641 L 772.35711,403.11715 C 771.33212,403.28256 770.3635,403.47556 769.42918,403.70117 L 767.23208,402.59203 C 766.37894,402.80938 765.6016,403.0637 764.82512,403.32429 L 766.42749,404.57552 C 765.5988,404.86639 764.82299,405.19191 764.10183,405.53422 L 761.52833,404.69192 C 760.95141,404.97885 760.29576,405.23097 759.78893,405.54641 C 759.73091,405.58252 759.68848,405.62428 759.6314,405.66075 L 761.88734,406.78219 C 761.2866,407.18366 760.7397,407.60732 760.26615,408.05193 L 757.35463,407.50148 C 757.26845,407.58747 757.12734,407.65544 757.04555,407.74273 C 756.7475,408.06084 756.60016,408.42044 756.36159,408.75502 L 758.9291,409.58475 C 758.6038,410.0719 758.34908,410.58126 758.16738,411.10165 L 755.25888,410.89149 C 755.1206,411.34735 755.03283,411.8169 754.99818,412.29208 L 757.85086,412.83027 C 757.83314,413.37164 757.89662,413.92912 758.03291,414.49299 L 755.31834,414.63465 C 755.4457,415.09066 755.45179,415.52731 755.67386,415.99387 C 755.68825,416.02409 755.72742,416.05152 755.74217,416.08171 L 758.70351,416.29157 C 759.00442,416.86514 759.38897,417.43401 759.82829,417.98668 L 757.36051,418.47984 C 757.49091,418.63548 757.55377,418.80305 757.69356,418.95689 C 757.98158,419.27383 758.41138,419.56211 758.73804,419.871 L 761.47304,419.71664 C 762.07553,420.2674 762.72594,420.80083 763.45432,421.3186 L 761.50603,422.12387 C 762.13433,422.5556 762.83057,422.96551 763.53116,423.37267 L 765.94609,422.87981 C 766.8213,423.37414 767.7346,423.85288 768.71553,424.3008 L 767.43582,425.34172 C 768.1915,425.67679 768.88721,426.04178 769.69075,426.34971 C 769.75048,426.37259 769.81928,426.38892 769.87921,426.41164 L 771.86836,425.58093 C 772.95376,425.98025 774.07061,426.35559 775.23407,426.69597 L 774.61693,427.95995 C 774.7898,428.0089 774.94327,428.07323 775.11747,428.12093 C 775.8926,428.33318 776.72164,428.47482 777.52094,428.6617 L 778.80068,427.62079 C 780.01825,427.89484 781.27072,428.13832 782.5358,428.34298 L 782.69437,429.67813 C 783.69269,429.83138 784.70227,429.96539 785.71904,430.07668 L 786.29529,428.83814 C 787.56003,428.96638 788.8232,429.05437 790.1057,429.10615 L 790.99812,430.42447 C 791.86395,430.45301 792.72656,430.54057 793.59452,430.53557 C 793.73113,430.53481 793.84315,430.5098 793.9789,430.50817 L 793.80239,429.13531 C 795.06821,429.10917 796.29639,429.05469 797.47661,428.95032 L 799.09093,430.22669 C 799.27237,430.20892 799.48089,430.21762 799.66027,430.19821 C 800.40886,430.11722 801.06455,429.96694 801.77709,429.85834 L 800.85225,428.52758 C 801.9666,428.3466 803.00198,428.11862 804.00848,427.86661 L 806.1996,428.9632 C 806.98991,428.75497 807.74908,428.52796 808.47197,428.28212 L 806.86957,427.03088 C 807.77578,426.70836 808.60985,426.35452 809.3852,425.97027 L 811.95272,426.79999 C 812.4185,426.55915 812.97604,426.3586 813.39399,426.09848 C 813.51744,426.02162 813.57789,425.92311 813.69708,425.84464 L 811.50595,424.74805 C 812.13258,424.31502 812.67167,423.84604 813.15258,423.36471 L 816.09649,423.9276 C 816.10583,423.91772 816.12808,423.91203 816.13738,423.90214 C 816.49663,423.5187 816.65845,423.08216 816.93101,422.67496 L 814.36348,421.84524 C 814.68337,421.3289 814.92282,420.79234 815.08332,420.24034 L 817.96539,420.45065 C 818.0793,419.99971 818.17158,419.54447 818.18522,419.07551 L 815.33252,418.53731 C 815.32512,417.98141 815.22204,417.41582 815.05326,416.83733 L 817.76784,416.69569 C 817.65286,416.34047 817.67509,415.99984 817.50307,415.63844 C 817.44139,415.50892 817.31258,415.39048 817.24431,415.2618 L 814.28297,415.05195 C 813.95625,414.4799 813.54884,413.92006 813.08489,413.36984 L 815.5731,412.86397 C 815.52282,412.80702 815.51444,412.74486 815.46292,412.68814 C 815.08034,412.26716 814.54009,411.88 814.08988,411.47342 L 811.38131,411.62763 C 810.76629,411.09218 810.07899,410.57919 809.34471,410.0764 L 811.293,409.27113 C 810.63958,408.83716 809.93571,408.41816 809.20904,408.01007 L 806.76769,408.50306 C 805.92051,408.04251 805.01251,407.60071 804.07252,407.1825 L 805.37867,406.14143 C 804.73859,405.86419 804.16553,405.55322 803.49215,405.29518 C 803.26409,405.20779 803.00239,405.14495 802.77074,405.05984 L 800.82845,405.87769 C 799.80067,405.51161 798.73738,405.17628 797.64274,404.86245 L 798.2539,403.58589 C 798.1881,403.56764 798.13145,403.54203 798.06546,403.52396 C 797.1583,403.27554 796.18404,403.09824 795.24418,402.88474 L 793.94403,403.93838 C 792.81696,403.69274 791.66948,403.46393 790.50305,403.27753 L 790.35045,401.95495 C 789.29492,401.79462 788.23094,401.64546 787.15526,401.53215 L 786.55855,402.78341 C 785.40544,402.67225 784.24461,402.58637 783.07724,402.53874 L 782.18478,401.22042 C 781.31531,401.19162 780.45999,401.10429 779.58837,401.1093 z M 785.47614,413.86888 C 785.6229,413.86074 785.77109,413.86718 785.92534,413.8663 C 788.39319,413.8521 790.84309,414.79092 791.40188,415.96495 C 791.96069,417.13896 790.41544,418.10075 787.94759,418.11495 C 785.47973,418.12913 783.02981,417.1903 782.471,416.01628 C 781.94714,414.91563 783.27451,413.9908 785.47614,413.86888 z "
         id="path38040" />
      <path
         style="opacity:1;fill:#cc8d00;fill-opacity:1;fill-rule:nonzero;stroke:none;stroke-width:1;stroke-linecap:round;stroke-linejoin:round;stroke-miterlimit:4;stroke-dasharray:none;stroke-dashoffset:0;stroke-opacity:1"
         d="M 678.92798,407.29281 C 678.6155,407.29461 678.34213,407.33305 678.0324,407.33761 L 678.31009,409.49724 C 676.52527,409.53917 674.77879,409.62371 673.1027,409.76511 L 670.56325,407.75728 C 670.17381,407.79404 669.72809,407.78226 669.3445,407.82378 C 668.19198,407.94845 667.19598,408.19162 666.09776,408.35797 L 667.55263,410.45133 C 665.94025,410.71153 664.41652,411.01515 662.94677,411.37004 L 659.49055,409.62527 C 658.14851,409.96719 656.92569,410.36724 655.70423,410.77718 L 658.22486,412.74546 C 656.92127,413.20302 655.70086,413.71509 654.56643,414.25357 L 650.5181,412.92856 C 649.61057,413.37993 648.57918,413.77652 647.78189,414.27274 C 647.69063,414.32954 647.62386,414.39524 647.5341,414.45262 L 651.08287,416.21673 C 650.13785,416.84827 649.27754,417.51471 648.5326,418.21414 L 643.95254,417.34822 C 643.81699,417.48349 643.59501,417.59041 643.46635,417.72774 C 642.9975,418.22815 642.76571,418.79382 642.3904,419.32013 L 646.42931,420.62537 C 645.91759,421.3917 645.5169,422.19297 645.23106,423.01157 L 640.65576,422.68098 C 640.43826,423.3981 640.30018,424.13672 640.24568,424.8842 L 644.73316,425.73083 C 644.7053,426.58245 644.80514,427.4594 645.01954,428.34643 L 640.74931,428.56925 C 640.94965,429.28659 640.95923,429.97348 641.30856,430.70742 C 641.33121,430.75497 641.39284,430.79812 641.41601,430.8456 L 646.07443,431.17572 C 646.54779,432.078 647.15273,432.97288 647.8438,433.84228 L 643.9618,434.61805 C 644.16692,434.86288 644.2658,435.12648 644.48571,435.36849 C 644.93879,435.86708 645.6149,436.32055 646.12879,436.80646 L 650.43113,436.56363 C 651.3789,437.43005 652.40207,438.26915 653.54784,439.08365 L 650.48302,440.3504 C 651.4714,441.02954 652.56663,441.67436 653.66873,442.31485 L 657.46758,441.53956 C 658.84435,442.31719 660.28107,443.07027 661.82415,443.77488 L 659.81104,445.41232 C 660.9998,445.93943 662.0942,446.51358 663.35824,446.99798 C 663.45217,447.03396 663.56043,447.05966 663.65469,447.09538 L 666.78379,445.78862 C 668.49122,446.41679 670.2481,447.00722 672.07834,447.54267 L 671.10749,449.53101 C 671.37943,449.608 671.62087,449.70921 671.89488,449.78423 C 673.11423,450.11813 674.4184,450.34094 675.67575,450.63493 L 677.68888,448.99747 C 679.60422,449.4286 681.57444,449.8116 683.56448,450.13354 L 683.81396,452.23384 C 685.38439,452.47493 686.97254,452.68574 688.572,452.8608 L 689.47849,450.91247 C 691.46803,451.11421 693.4551,451.25263 695.47253,451.33406 L 696.87641,453.4079 C 698.23843,453.45278 699.59539,453.59053 700.96075,453.58267 C 701.17565,453.58147 701.35187,453.54212 701.56542,453.53956 L 701.28774,451.37995 C 703.27898,451.33882 705.21099,451.25312 707.06758,451.08895 L 709.60705,453.09677 C 709.89247,453.06882 710.22047,453.08251 710.50267,453.05197 C 711.68024,452.92457 712.7117,452.68816 713.83257,452.51732 L 712.37774,450.42393 C 714.13071,450.13925 715.75942,449.7806 717.34274,449.3842 L 720.78954,451.10921 C 722.03275,450.78166 723.22702,450.42455 724.36415,450.0378 L 721.84344,448.06952 C 723.269,447.56215 724.58106,447.00554 725.80075,446.40109 L 729.83965,447.70631 C 730.57237,447.32744 731.44941,447.01196 732.10687,446.60277 C 732.30107,446.48187 732.39616,446.32689 732.58367,446.20346 L 729.13684,444.47844 C 730.12257,443.79724 730.9706,443.05952 731.72714,442.30234 L 736.35812,443.18779 C 736.3728,443.17227 736.40783,443.16333 736.42244,443.14776 C 736.98755,442.54457 737.24214,441.85787 737.67088,441.2173 L 733.63196,439.91208 C 734.13517,439.09984 734.51186,438.25579 734.7643,437.38744 L 739.29806,437.71829 C 739.47725,437.00894 739.6224,436.29279 739.64385,435.55509 L 735.15633,434.70846 C 735.14468,433.83397 734.98256,432.94428 734.71704,432.03426 L 738.98729,431.81144 C 738.80642,431.25265 738.84139,430.71681 738.57078,430.1483 C 738.47375,429.94455 738.27113,429.75825 738.16373,429.55581 L 733.5053,429.22569 C 732.99137,428.32583 732.35048,427.44517 731.62064,426.57963 L 735.53481,425.78386 C 735.45568,425.69427 735.44252,425.59647 735.36147,425.50725 C 734.75963,424.84502 733.90979,424.23598 733.20157,423.59639 L 728.94077,423.83898 C 727.97331,422.99668 726.89212,422.1897 725.73703,421.39876 L 728.80185,420.13201 C 727.77396,419.44934 726.66673,418.79023 725.52363,418.14828 L 721.68317,418.9238 C 720.3505,418.1993 718.92215,417.50433 717.44348,416.84645 L 719.49815,415.20876 C 718.49127,414.77265 717.58976,414.28346 716.53051,413.87753 C 716.17175,413.74006 715.76007,413.64121 715.39567,413.50734 L 712.3403,414.79387 C 710.7235,414.218 709.05088,413.69049 707.32893,413.19682 L 708.29031,411.18868 C 708.18681,411.15999 708.09769,411.11968 707.99388,411.09126 C 706.56687,410.70049 705.03427,410.4216 703.5558,410.08573 L 701.51056,411.74319 C 699.73758,411.35677 697.93253,410.99684 696.09762,410.70361 L 695.85758,408.62309 C 694.19715,408.37089 692.52342,408.13623 690.8313,407.958 L 689.89261,409.92633 C 688.07868,409.75148 686.2526,409.61636 684.41624,409.54144 L 683.01234,407.46762 C 681.64458,407.42231 680.2991,407.28494 678.92798,407.29281 z M 688.1899,427.36464 C 688.42076,427.35185 688.65389,427.36198 688.89652,427.36058 C 692.77864,427.33826 696.63253,428.81509 697.51156,430.66191 C 698.39061,432.50874 695.95981,434.02173 692.07768,434.04405 C 688.19554,434.06636 684.34163,432.58952 683.46257,430.74268 C 682.6385,429.01128 684.72656,427.55645 688.1899,427.36464 z "
         id="path38042" />
      <rect
         style="opacity:1;fill:url(#linearGradient33344);fill-opacity:1.0;fill-rule:nonzero;stroke:black;stroke-width:0.54299998;stroke-linecap:round;stroke-linejoin:round;stroke-miterlimit:4;stroke-dasharray:none;stroke-dashoffset:0;stroke-opacity:1"
         id="rect32451"
         width="255.09532"
         height="153.26715"
         x="331.72888"
         y="148.62057"
         transform="translate(274.0325,200.0883)"
         ry="0.75658357" />
    </g>
  </g>
</svg>
