/* XPM */
static char * kiel_64_xpm[] = {
"64 64 347 2",
"  	c None",
". 	c #DF002A",
"+ 	c #E0052E",
"@ 	c #E10D35",
"# 	c #E84866",
"$ 	c #E00831",
"% 	c #E84967",
"& 	c #F08A9D",
"* 	c #DF032D",
"= 	c #E11239",
"- 	c #E53052",
"; 	c #FFFFFF",
"> 	c #EB5D78",
", 	c #E2143B",
"' 	c #FCEAED",
") 	c #E31C41",
"! 	c #FFFDFD",
"~ 	c #E42A4D",
"{ 	c #FCE4E8",
"] 	c #E32045",
"^ 	c #E94D6A",
"/ 	c #E7405F",
"( 	c #F7C1CB",
"_ 	c #ED7088",
": 	c #EA5773",
"< 	c #EE768D",
"[ 	c #F0869A",
"} 	c #E84765",
"| 	c #EF8095",
"1 	c #F5B1BE",
"2 	c #E42549",
"3 	c #F9D2D9",
"4 	c #F6B5C1",
"5 	c #FBE1E6",
"6 	c #DF012B",
"7 	c #F4A5B4",
"8 	c #FBE0E5",
"9 	c #E2183E",
"0 	c #FEFBFC",
"a 	c #F0889C",
"b 	c #E63455",
"c 	c #E2173D",
"d 	c #E52F51",
"e 	c #E73F5F",
"f 	c #FEF5F7",
"g 	c #E84463",
"h 	c #EE788E",
"i 	c #FCE7EB",
"j 	c #E0042D",
"k 	c #F296A7",
"l 	c #ED7188",
"m 	c #F08B9E",
"n 	c #F29BAB",
"o 	c #EB617B",
"p 	c #F4A6B5",
"q 	c #FADAE0",
"r 	c #E94E6B",
"s 	c #FDEFF2",
"t 	c #F9CFD7",
"u 	c #DF022C",
"v 	c #FCE5E9",
"w 	c #FDF0F2",
"x 	c #F7BFCA",
"y 	c #FEF7F8",
"z 	c #E11037",
"A 	c #E73E5E",
"B 	c #F5B2BF",
"C 	c #EA5A75",
"D 	c #E52D50",
"E 	c #EA5470",
"F 	c #E31F44",
"G 	c #FFFEFE",
"H 	c #EC6A83",
"I 	c #F3A2B1",
"J 	c #FFFCFC",
"K 	c #E2193F",
"L 	c #F7BCC7",
"M 	c #F3A1B0",
"N 	c #EE7B91",
"O 	c #F9CCD4",
"P 	c #E10F37",
"Q 	c #FEF6F7",
"R 	c #EE798F",
"S 	c #FCE6EA",
"T 	c #E00A32",
"U 	c #FDF3F5",
"V 	c #FEFAFB",
"W 	c #E1133A",
"X 	c #FAD9DF",
"Y 	c #E52E50",
"Z 	c #EC6982",
"` 	c #FEF9FA",
" .	c #E53355",
"..	c #EE758C",
"+.	c #FBDEE3",
"@.	c #FADBE1",
"#.	c #EF7F94",
"$.	c #E63758",
"%.	c #F18FA1",
"&.	c #FBE3E8",
"*.	c #EF7C92",
"=.	c #E94C69",
"-.	c #F6B8C4",
";.	c #E74160",
">.	c #F6B7C3",
",.	c #F8C7D0",
"'.	c #F295A6",
").	c #FCEBEE",
"!.	c #E63657",
"~.	c #F7BEC9",
"{.	c #E9536F",
"].	c #E42B4E",
"^.	c #E00B33",
"/.	c #EC667F",
"(.	c #F9D1D9",
"_.	c #FAD7DE",
":.	c #ED6D85",
"<.	c #E10E36",
"[.	c #E73D5D",
"}.	c #E84564",
"|.	c #E63B5B",
"1.	c #E3E5E6",
"2.	c #BCC0C1",
"3.	c #D5D7D8",
"4.	c #D7D9DA",
"5.	c #F8C9D2",
"6.	c #E74362",
"7.	c #F6B4C0",
"8.	c #ACB0B2",
"9.	c #3C474C",
"0.	c #6A7276",
"a.	c #6D7579",
"b.	c #F4A7B5",
"c.	c #B6BABC",
"d.	c #404B50",
"e.	c #DEE0E1",
"f.	c #F5B0BD",
"g.	c #E52C4F",
"h.	c #F29AAB",
"i.	c #C9CCCE",
"j.	c #616A6E",
"k.	c #EAEBEB",
"l.	c #E3E4E5",
"m.	c #666F73",
"n.	c #C6C9CA",
"o.	c #F3A3B2",
"p.	c #E32246",
"q.	c #F18EA1",
"r.	c #DCDEDF",
"s.	c #4E585D",
"t.	c #92999B",
"u.	c #495358",
"v.	c #BEC2C3",
"w.	c #DADCDD",
"x.	c #4F595E",
"y.	c #EF8196",
"z.	c #FDF2F4",
"A.	c #F7F8F8",
"B.	c #414C51",
"C.	c #D9DBDC",
"D.	c #BABEC0",
"E.	c #475156",
"F.	c #6C7478",
"G.	c #DBDDDE",
"H.	c #F0899C",
"I.	c #E2153C",
"J.	c #E74261",
"K.	c #ED6E86",
"L.	c #71797C",
"M.	c #9FA5A7",
"N.	c #BBBFC1",
"O.	c #DDDFDF",
"P.	c #656E72",
"Q.	c #ABB0B2",
"R.	c #A2A8AA",
"S.	c #6E777A",
"T.	c #F8CAD3",
"U.	c #F39EAE",
"V.	c #E32146",
"W.	c #EE7A90",
"X.	c #F9D3DA",
"Y.	c #A9ADB0",
"Z.	c #676F73",
"`.	c #B8BCBE",
" +	c #576065",
".+	c #CDD0D1",
"++	c #5D666A",
"@+	c #4E585C",
"#+	c #7D8488",
"$+	c #687175",
"%+	c #747C7F",
"&+	c #7C8487",
"*+	c #697275",
"=+	c #5A6367",
"-+	c #6B7377",
";+	c #A4A9AB",
">+	c #FAD6DD",
",+	c #F4A9B7",
"'+	c #EF7D92",
")+	c #E9506D",
"!+	c #E32347",
"~+	c #EB5C77",
"{+	c #E9EAEB",
"]+	c #3D484D",
"^+	c #E0E1E2",
"/+	c #A0A6A8",
"(+	c #737B7F",
"_+	c #60696D",
":+	c #727A7E",
"<+	c #9FA4A7",
"[+	c #EDEEEE",
"}+	c #E4E6E6",
"|+	c #F297A8",
"1+	c #878E91",
"2+	c #8F9598",
"3+	c #475257",
"4+	c #FDFDFD",
"5+	c #E7E9E9",
"6+	c #D6D9DA",
"7+	c #C0C3C5",
"8+	c #C9CCCD",
"9+	c #D6D8D9",
"0+	c #959B9D",
"a+	c #7F868A",
"b+	c #3F4A4F",
"c+	c #C6CACB",
"d+	c #E0E2E3",
"e+	c #7B8386",
"f+	c #444E53",
"g+	c #5B6468",
"h+	c #727A7D",
"i+	c #959B9E",
"j+	c #969C9F",
"k+	c #CCCFD0",
"l+	c #3E484D",
"m+	c #EA5974",
"n+	c #9CA1A4",
"o+	c #4D575B",
"p+	c #EDEEEF",
"q+	c #ACB1B3",
"r+	c #656D71",
"s+	c #515B60",
"t+	c #545D62",
"u+	c #F0F1F2",
"v+	c #505A5E",
"w+	c #91979A",
"x+	c #EC647E",
"y+	c #F299AA",
"z+	c #6B7478",
"A+	c #E7E8E9",
"B+	c #F1F2F2",
"C+	c #C3C6C8",
"D+	c #A7ACAE",
"E+	c #858C8F",
"F+	c #888F92",
"G+	c #7A8185",
"H+	c #646D71",
"I+	c #FAFBFB",
"J+	c #E10C34",
"K+	c #E4274B",
"L+	c #EBECED",
"M+	c #586165",
"N+	c #8A9194",
"O+	c #BDC1C3",
"P+	c #C0C4C5",
"Q+	c #D0D3D4",
"R+	c #D0D2D3",
"S+	c #E8E9EA",
"T+	c #E5E6E7",
"U+	c #EA5B76",
"V+	c #CFD2D3",
"W+	c #B3B8BA",
"X+	c #D3D5D6",
"Y+	c #596267",
"Z+	c #EC6780",
"`+	c #EE778D",
" @	c #F18DA0",
".@	c #F39CAC",
"+@	c #F4A4B3",
"@@	c #F4ABB9",
"#@	c #F6BAC5",
"$@	c #FDEEF1",
"%@	c #F4F5F5",
"&@	c #7E8588",
"*@	c #92989B",
"=@	c #EEEFF0",
"-@	c #566064",
";@	c #F0F1F1",
">@	c #757C80",
",@	c #FDF1F3",
"'@	c #F7C2CC",
")@	c #F5B3C0",
"!@	c #F5ACBA",
"~@	c #F39DAD",
"{@	c #F0879B",
"]@	c #E4264A",
"^@	c #E84664",
"/@	c #CACDCF",
"(@	c #F4F4F4",
"_@	c #C4C7C9",
":@	c #E9526E",
"<@	c #FDFEFE",
"[@	c #CDCFD1",
"}@	c #899093",
"|@	c #4C565B",
"1@	c #455054",
"2@	c #555F63",
"3@	c #465055",
"4@	c #838A8D",
"5@	c #F5F6F6",
"6@	c #DFE1E2",
"7@	c #FEF4F6",
"8@	c #E84A68",
"9@	c #E73C5C",
"0@	c #FEF8F9",
"a@	c #E63A5A",
"b@	c #E63859",
"c@	c #F8C6CF",
"d@	c #F08498",
"e@	c #EB637D",
"f@	c #ED6F87",
"g@	c #EF8297",
"h@	c #F8C4CE",
"i@	c #EF7E93",
"j@	c #ED6C84",
"k@	c #E84B69",
"l@	c #E4294C",
"m@	c #E00932",
"n@	c #E0062F",
"o@	c #FAD5DC",
"p@	c #F192A4",
"q@	c #E42448",
"r@	c #F5AFBC",
"s@	c #FDECEF",
"t@	c #E63556",
"u@	c #F298A9",
"v@	c #E53153",
"w@	c #EE748B",
"x@	c #F8C5CF",
"y@	c #F4A8B6",
"z@	c #FAD4DB",
"A@	c #E00730",
"B@	c #FBDFE4",
"C@	c #FCE9ED",
"D@	c #F5ADBB",
"E@	c #E6395A",
"F@	c #E11138",
"    . . . . . . . . . . . . . . . . . . . . . . . . . . . . . . . . . . . . . . . . . . . . . . . . . . . . . . . . . . . . .   ",
"    . . . . . . . . . . . . . . . . . . . . . . . . . . . . . . + . . . . . . . . . . . . . . . . . . . . . . . . . . . . . .   ",
"    . . @ # # # # # # # # # $ . . . . . . . . % . . . . . . . . & . . . . . . . . % . . . . . . . . * # # # # # # # # # = . .   ",
"    . . - ; ; ; ; ; ; ; ; ; > . . . . . . . , ' $ . . . . . . ) ! ~ . . . . . . * { ] . . . . . . . ^ ; ; ; ; ; ; ; ; ; / . .   ",
"    . . - ; ; ; ; ; ; ; ; ; ( . . . . . . . _ ; : . . . . . . < ; [ . . . . . . } ; | . . . . . . . 1 ; ; ; ; ; ; ; ; ; / . .   ",
"    . . - ; ; ; ; ; ; ; ; ; ; 2 . . . . . . 3 ; 4 . . . . . . 3 ; 5 6 . . . . . 7 ; 8 6 . . . . . 9 0 ; ; ; ; ; ; ; ; ; / . .   ",
"    . . - ; ; ; ; ; ; ; ; ; ; a . . . . . b ; ; 0 c . . . . d ; ; ; e . . . . @ f ; ; g . . . . . h ; ; ; ; ; ; ; ; ; ; / . .   ",
"    . . - ; ; ; ; ; ; ; ; ; ; i j . . . . k ; ; ; l . . . . m ; ; ; n . . . . o ; ; ; p . . . . . q ; ; ; ; ; ; ; ; ; ; / . .   ",
"    . . - ; ; ; ; ; ; ; ; ; ; ; r . . . $ s ; ; ; t . . . u v ; ; ; w $ . . . x ; ; ; y z . . . A ; ; ; ; ; ; ; ; ; ; ; / . .   ",
"    . . - ; ; ; ; ; ; ; ; ; ; ; B . . . C ; ; ; ; ; D . . g ; ; ; ; ; E . . F G ; ; ; ; H . . . I ; ; ; ; ; ; ; ; ; ; ; / . .   ",
"    . . - ; ; ; ; ; ; ; ; ; ; ; J K . . L ; ; ; ; ; m . . M ; ; ; ; ; 1 . . N ; ; ; ; ; O . . P Q ; ; ; ; ; ; ; ; ; ; ; / . .   ",
"    . . 2 y ; ; ; ; ; ; ; ; ; ; ; R . F G ; ; ; ; ; S * T U ; ; ; ; ; V W . X ; ; ; ; ; ; Y . Z ; ; ; ; ; ; ; ; ; ; ; `  .. .   ",
"      . . = ..+.; ; ; ; ; ; ; ; ; @.6 #.; ; ; ; ; ; ; } C ; ; ; ; ; ; ; H $.; ; ; ; ; ; ; %.. O ; ; ; ; ; ; ; ; ; &.*.c . .     ",
"      . . . . u =.-.G ; ; ; ; ; ; ; ;.8 ; ; ; ; ; ; ; 7 >.; ; ; ; ; ; ; ,.'.; ; ; ; ; ; ; ).!.; ; ; ; ; ; ; ; ~.{.j . . . .     ",
"      . . . . . . . 2 %.s ; ; ; ; ; X ; ; ; ; ; ; ; ; Q J ; ; ; ; ; ; ; ; U ; ; ; ; ; ; ; ; X ; ; ; ; ; U k ].. . . . . . .     ",
"      . . . . . . . . . ^./.(.; ; ; ; ; ; ; ; ; ; ; ; ; ; ; ; ; ; ; ; ; ; ; ; ; ; ; ; ; ; ; ; ; ; ; _.:.<.. . . . . . . . .     ",
"      . . . . . . . . . . . . [.X ; ; ; ; ; ; ; ; ; ; ; ; ; ; ; ; ; ; ; ; ; ; ; ; ; ; ; ; ; ; ; 5 }.. . . . . . . . . . . .     ",
"      . . . . . . . . . . . |.( ; 1.2.3.; ; ; ; ; ; ; ; ; ; ; ; ; ; ; ; ; ; ; ; ; ; ; ; ; 4.2.1.; 5.6.. . . . . . . . . . .     ",
"      . . . . . . . . . d 7.; ; ; 8.9.0.; ; ; ; ; ; ; ; ; ; ; ; ; ; ; ; ; ; ; ; ; ; ; ; ; a.9.8.; ; ; L $.. . . . . . . . .     ",
"      . . . . . . . 2 b.G ; ; ; ; c.9.d.e.; ; ; ; ; ; ; ; ; ; ; ; ; ; ; ; ; ; ; ; ; ; ; e.d.9.c.; ; ; ; ; f.g.. . . . . . .     ",
"      . . . . . ) h.0 ; ; ; ; ; ; i.d.9.j.k.; l.m.n.; ; ; ; ; ; ; ; ; ; ; ; ; n.m.l.; k.j.9.d.i.; ; ; ; ; ; ! o.p.. . . . .     ",
"      . . . , q.y ; ; ; ; ; ; ; ; r.s.t.9.u.v.w.9.c.; ; ; ; ; ; ; ; ; ; ; ; ; c.9.w.v.u.9.t.x.r.; ; ; ; ; ; ; ; V k K . . .     ",
"        T y.z.; ; ; ; ; ; ; ; ; ; A.B.C.D.E.9.F.9.c.; ; ; ; ; ; ; ; ; ; ; ; ; c.9.F.9.E.D.G.B.A.; ; ; ; ; ; ; ; ; ; Q H.<.      ",
"        . I.J.K.n ,.U ; ; ; ; ; ; ; L.M.N.O.m.9.9.P.Q.l.; ; ; ; ; ; ; ; ; l.Q.P.9.9.m.O.N.R.S.; ; ; ; ; ; ; f T.U.l g 9 .       ",
"        . . . . . . 6 V.^ W.p X.V ; Y.Z.`. +.+`.++9.9.@+; #+$+%+&+%+*+#+; @+9.9.=+`..+ +`.-+;+; 0 >+,+'+)+!+u . . . . . .       ",
"        . . . . . . . . . . . . ~+V {+B.{+u.]+t.; ^+/+(+; _+9.9.9.9.9._+; :+<+O.; t.]+u.[+B.}+! Z . . . . . . . . . . . .       ",
"          . . . . . . . . . $ |+; ; ; 1+2+8.d.3+; 2+M.3.4+5+6+i.7+8+9+5+4+3.M.2+; 3+d.8.0+a+; ; ; I ^.. . . . . . . . .         ",
"          . . . . . . . . 2 t ; ; ; ; l.b+c+d+e+; m.9.9.f+g+h+i+; j+h+g+f+9.9.m.; e+d+k+l+r.; ; ; ; _.D . . . . . . . .         ",
"          . . . . . . . m+z.; ; ; ; ; ; n+o+p+d+; q+r+l+9.9.9.s+; t+9.9.9.l+r+q+; d+u+v+w+; ; ; ; ; ; Q x+. . . . . . .         ",
"          . . . . . $ y+; ; ; ; ; ; ; ; 4+z+%+{+e+q+A+B+C+D+2+E+; F+2+D+C+B+A+q+e+{+G+H+I+; ; ; ; ; ; ; ; 7 J+. . . . .         ",
"            . . . K+(.; ; ; ; ; ; ; ; ; ; L+M+N+A+0.9.$+; O+P+Q+O.R+7+O+; $+9.0.S+2+s+T+; ; ; ; ; ; ; ; ; ; X d . . .           ",
"            . . U+U ; ; ; ; ; ; ; ; ; ; ; ; p+j. +V+W+++; =+9.9.9.9.9.=+; ++W+X+Y+=+S+; ; ; ; ; ; ; ; ; ; ; ; y Z+. .           ",
"            . F `+#.[  @'..@+@@@B #@( 5.$@; ; %@&@l+*@=@; E+ +d.9.b+-@E+; ;@j+l+>@;@; ; ,@5.'@#@)@!@+@~@'.q.{@#.h ]@.           ",
"              . . . . . . . . . . . . ^@y ; ; ; ; /@Y+x.2+.+(@4+p+4+%@V+w+s+-@_@; ; ; ; 0 :@. . . . . . . . . . . .             ",
"              . . . . . . . . . . . g y ; ; ; ; ; ; <@[@}@|@9.1@2@1@9.3@4@8+4+; ; ; ; ; ; V )+. . . . . . . . . . .             ",
"                . . . . . . . . . J.Q ; ; ; ; ; ; ; ; ; ; ; 5@6@.+O.u+; ; ; ; ; ; ; ; ; ; ; V r . . . . . . . . .               ",
"                . . . . . . . . / f ; ; ; ; ; ; ; ; ; ; ; ; ; ; ; ; ; ; ; ; ; ; ; ; ; ; ; ; ; ` =.. . . . . . . .               ",
"                  . . . . . . A 7@; ; ; ; ; ; ; ; ; ; ; ; ; ; ; ; ; ; ; ; ; ; ; ; ; ; ; ; ; ; ; ` 8@. . . . . .                 ",
"                  . . . . . 9@U ; ; ; ; ; ; ; ; ; ; ; ; ; ; ; ; ; ; ; ; ; ; ; ; ; ; ; ; ; ; ; ; ; 0@# . . . . .                 ",
"                  . . . . a@U ; ; ; ; ; ; ; ; ; ; ; ; ; ; ; ; ; ; ; ; ; ; ; ; ; ; ; ; ; ; ; ; ; ; ; y ^@. . . .                 ",
"                    . . b@z.; ; ; i c@7 d@e@J.f@; ; ; ; ; ; ; ; ; ; ; ; ; ; ; ; ; *./ o g@o.h@v G ; ; y g . .                   ",
"                      ^.i@j@k@l@m@. . . . . ] $@; ; ; ; ; ; ; ; ; ; ; ; ; ; ; ; ; 7@~ . . . . . $ K+# H y.P                     ",
"                      . . . . . . . . . . n@T.; ; ; ; ; ; ; ; ; ; ; ; ; ; ; ; ; ; ; o@^.. . . . . . . . . .                     ",
"                        . . . . . . . . . p@; ; ; ; ; ; ; ; ; ; ; ; ; ; ; ; ; ; ; ; ; I . . . . . . . . .                       ",
"                        . . . . . . . . E ; ; ; ; ; ; ; ; ; ; ; ; ; ; ; ; ; ; ; ; ; ; ; x+. . . . . . . .                       ",
"                          . . . . . . q@,@; ; ; ; ; ; ; ; ; G ; ; ; G ; ; ; ; ; ; ; ; ; y d . . . . . .                         ",
"                            . . . . $ t ; ; ; ; ; ; s r@j@$.' ; ; ; z.|.Z+@@s@; ; ; ; ; ; q @ . . . .                           ",
"                            . . . . h.; ; ; y L R t@* . . a ; ; ; ; ; u@. . 6 v@w@-.f ; ; ; ,+. . . .                           ",
"                              . . ~+J 5.[ J.$ . . . . . ] 0@; ; ; ; ; J ].. . . . . n@A g@x@0 j@. .                             ",
"                                6 g z . . . . . . . . . y@; ; ; ; ; ; ; -.. . . . . . . . . @ }.*                               ",
"                                  . . . . . . . . . . b@; ; ; ; ; ; ; ; ; } . . . . . . . . . .                                 ",
"                                    . . . . . . . . . c@; ; ; ; ; ; ; ; ; z@* . . . . . . . .                                   ",
"                                      . . . . . . . : ; ; ; ; ; ; ; ; ; ; ; Z+. . . . . . .                                     ",
"                                      . . . . . . A@B@; ; ; ; ; ; ; ; ; ; ; C@@ . . . . . .                                     ",
"                                        . . . . . < ; ; ; ; ; ; ; ; ; ; ; ; ; [ . . . . .                                       ",
"                                          . . . . ~@; ; ; ; ; ; ; ; ; ; ; ; ; D@. . . .                                         ",
"                                            . . . . H 0@; ; ; ; ; ; ; ; ; 0 ..6 . . .                                           ",
"                                                . . . - q ; ; ; ; ; ; ; 5 E@. . .                                               ",
"                                                  . . . @ 7 ; ; ; ; ; 1 F@. . .                                                 ",
"                                                    . . . . x+Q ; ` _ . . . .                                                   ",
"                                                      . . . . g.-.t@. . . .                                                     ",
"                                                          . . . . . . .                                                         ",
"                                                            . . . . .                                                           ",
"                                                                .                                                               "};
