/* XPM */
static char *logo48[]={
"48 48 652 2",
".z c #000300",
"ef c #040a0d",
".d c #070a06",
"dX c #08050a",
"dQ c #0c1113",
"gi c #0d0604",
".c c #0d0f0b",
".b c #0f110d",
".a c #121107",
"dP c #121411",
"ij c #12301f",
"f1 c #131014",
".e c #151714",
"d8 c #161a1c",
".y c #173826",
"i# c #173b28",
"fO c #18171a",
"d0 c #191b19",
"ia c #1a4b32",
"gj c #1b1716",
".# c #1b1b14",
"em c #1b1d1a",
"fr c #1b1f21",
"ih c #1b462e",
"ii c #1c4930",
".Y c #1c4d33",
"ic c #1c4e35",
"ib c #1d5036",
".g c #1e4e34",
".j c #1e4f35",
".l c #1e5036",
".k c #1e5439",
"dK c #1f201e",
".f c #1f3d2b",
"i. c #1f4c34",
".h c #1f4f35",
"if c #1f5035",
".v c #1f5338",
"id c #1f5339",
".m c #1f583c",
"g# c #202426",
".x c #205036",
".u c #205136",
".w c #205237",
".t c #205338",
".i c #206c49",
"dU c #212129",
".n c #216d49",
"dG c #222421",
".p c #226d48",
".o c #226d49",
"dJ c #231f1e",
"ig c #23593b",
".q c #236e49",
".A c #236f4d",
"dL c #242225",
".r c #246e48",
".s c #246f49",
"ed c #25262e",
".Z c #25533b",
"fW c #262221",
"fE c #262825",
"#q c #26543c",
".E c #26724f",
".B c #267350",
".D c #27694b",
".C c #276b4c",
"dI c #292a28",
"fM c #292a32",
"e# c #292d2f",
"hs c #295640",
"hP c #297550",
".6 c #297553",
"#r c #2a533e",
".N c #2a7550",
".W c #2b734e",
".O c #2b7551",
".U c #2b764f",
".V c #2b7650",
".F c #2b7754",
".G c #2b7855",
"dH c #2c2e2b",
".P c #2c7552",
".X c #2c7750",
"hR c #2c7854",
"hQ c #2c7954",
".I c #2c7955",
"f2 c #2d2b2f",
".Q c #2d7652",
".H c #2d7854",
".J c #2d7855",
"hS c #2d7954",
".K c #2d7a54",
".R c #2e7753",
".L c #2e7a55",
"fQ c #2f2b2a",
"eh c #2f312e",
".0 c #2f7859",
"#m c #2f7953",
".M c #2f7b54",
"ie c #2f7b55",
"Qt c #303436",
"#Z c #305544",
"#Y c #305944",
"hO c #305b43",
".S c #307b54",
".T c #307c55",
"h9 c #317451",
"hT c #317856",
"h7 c #317952",
"h6 c #317c54",
"ga c #322e2d",
"dA c #323034",
"h8 c #327250",
".5 c #327a5d",
".8 c #327c5d",
".7 c #337b5d",
".3 c #337b5e",
".4 c #337b5f",
"#. c #337c5c",
".9 c #337c5d",
"h5 c #347a54",
"## c #347c5c",
".1 c #347c5e",
".2 c #347c5f",
"#a c #347d5c",
"#b c #347e5c",
"aw c #355548",
"#g c #357c5b",
"hU c #357d5a",
"#f c #357d5b",
"hV c #357e5b",
"#c c #357e5c",
"fb c #36373f",
"#e c #367d5b",
"hW c #367e5b",
"#d c #367e5c",
"h4 c #367f58",
"ek c #373539",
"dT c #373836",
"av c #375b48",
"#h c #377d5b",
"hX c #377e5b",
"hY c #377f5b",
"hZ c #377f5c",
"#s c #387960",
"#i c #387f5c",
"h0 c #38805b",
"#j c #38805d",
"ht c #397e60",
"h1 c #39805b",
"#k c #39805d",
"h2 c #39815b",
"#C c #3a8064",
"#B c #3a8066",
"h3 c #3a815b",
"#l c #3a815e",
"#D c #3a8164",
"eV c #3b3736",
"#n c #3b815e",
"#E c #3b8164",
"#A c #3b8166",
"#v c #3c8068",
"#o c #3c815f",
"#F c #3c8164",
"#p c #3c825e",
"#G c #3c8264",
"fI c #3d4143",
"#w c #3d816a",
"#H c #3d8264",
"#I c #3d8364",
"#u c #3e816a",
"#K c #3e8264",
"#t c #3e8269",
"#J c #3e8364",
"gl c #3f3d40",
"#L c #3f8264",
"hy c #3f8364",
"hz c #3f8365",
"hx c #3f8466",
"eS c #40423f",
"a5 c #406150",
"#M c #408365",
"#O c #408464",
"#N c #408465",
"hu c #408467",
"aa c #40846a",
"a# c #40846b",
"#P c #418465",
"hA c #418566",
"ab c #41856a",
"#Q c #428565",
"hB c #428566",
"ac c #42856a",
"ad c #42856b",
"#S c #428666",
"hv c #42866a",
"ae c #42866b",
"fi c #43484a",
"#0 c #437e6a",
"a. c #43856e",
"hC c #438666",
"#R c #438667",
"hw c #43866a",
"af c #43866b",
"a6 c #44625a",
"#x c #448571",
"ag c #44866a",
"#z c #448670",
"hD c #448766",
"ah c #44876b",
"#y c #45856f",
"hE c #458766",
"ai c #45876b",
"hF c #458866",
"hH c #458965",
"#X c #468565",
"aj c #46876a",
"ak c #46876b",
"hG c #468966",
"hN c #477f61",
"ao c #47886b",
"gs c #487f6c",
"#2 c #488775",
"hL c #488966",
"#W c #48896a",
"ap c #48896b",
"dC c #494a48",
"al c #49886c",
"aq c #49896c",
"an c #498a6d",
"hI c #498b68",
"gk c #4a494f",
"dD c #4a4e50",
"#1 c #4a8874",
"hM c #4a8967",
"ar c #4a8a6d",
"fJ c #4b4645",
"ax c #4b7e6f",
"#3 c #4b8978",
"am c #4b8a6e",
"#9 c #4b8a77",
"hJ c #4b8c69",
"#4 c #4c8979",
"g6 c #4c8b72",
"hK c #4c8d6a",
"#5 c #4d8a7a",
"#8 c #4d8b79",
"g5 c #4d8c72",
"g7 c #4e8c73",
"as c #4e8d71",
"fx c #4f5059",
"dO c #4f514e",
"#6 c #4f8b7b",
"#7 c #4f8c7b",
"g8 c #4f8d74",
"#T c #4f8e72",
"eq c #505461",
"#U c #508e70",
"#V c #508e71",
"g9 c #508e75",
"g2 c #508e77",
"g1 c #508e78",
"g0 c #508f77",
"fn c #514f53",
"h. c #518e75",
"g4 c #518e76",
"h# c #528f75",
"ha c #538f75",
"hb c #539075",
"hc c #549075",
"g3 c #54907a",
"hd c #549175",
"eP c #55565f",
"bL c #556e6c",
"ay c #558b7f",
"he c #559175",
"gd c #565a5c",
"hf c #569175",
"hg c #569275",
"fY c #575956",
"bK c #577364",
"au c #578f73",
"hh c #579275",
"hi c #579375",
"hj c #579476",
"fw c #58565a",
"gN c #58937e",
"hk c #589476",
"hl c #589575",
"az c #599085",
"hm c #599575",
"aA c #5a9187",
"at c #5a9479",
"aB c #5b9289",
"gM c #5b9480",
"aJ c #5b9484",
"aI c #5b9485",
"gO c #5b9580",
"fh c #5c5e5b",
"hr c #5c9375",
"aC c #5c9389",
"aH c #5c9487",
"aK c #5c9585",
"hq c #5c9676",
"aL c #5c9685",
"hn c #5c9777",
"d1 c #5d5d66",
"a7 c #5d8680",
"aD c #5d938a",
"aG c #5d9589",
"aM c #5d9684",
"gu c #5d9686",
"aE c #5e948a",
"aF c #5e958a",
"aN c #5e9684",
"gP c #5e9783",
"gL c #5e9785",
"hp c #5e9878",
"ho c #5e9879",
"gv c #5e9887",
"fv c #5f5d61",
"aO c #5f9684",
"aP c #5f9784",
"gK c #5f9986",
"aQ c #609784",
"gw c #609885",
"aR c #619885",
"fu c #625d5c",
"eY c #626769",
"a4 c #62927b",
"aS c #629884",
"gx c #629a87",
"aT c #639984",
"gt c #639d87",
"f3 c #646563",
"aU c #649985",
"dr c #656772",
"aW c #659a85",
"aV c #659a86",
"gy c #659b86",
"gA c #669a83",
"aX c #669b86",
"gQ c #669c87",
"a8 c #679591",
"aY c #679c87",
"gX c #679e80",
"gz c #689c85",
"gC c #689e84",
"fN c #696d7b",
"a9 c #699996",
"gB c #699d86",
"aZ c #699d88",
"gR c #699e86",
"gW c #699f82",
"gY c #69a082",
"fB c #6a686c",
"cn c #6a8e91",
"gS c #6a9e87",
"a0 c #6a9e88",
"gG c #6a9f82",
"gT c #6a9f87",
"gD c #6aa085",
"b. c #6b9b98",
"b# c #6b9c99",
"a1 c #6b9e88",
"a2 c #6b9f88",
"gH c #6ba083",
"a3 c #6ba088",
"gF c #6ba187",
"cm c #6c8276",
"ba c #6c9c9a",
"bb c #6c9d9a",
"gU c #6c9f85",
"gZ c #6ca184",
"gV c #6ca287",
"ea c #6d7274",
"bc c #6d9e9a",
"gE c #6da187",
"gI c #6da285",
"fz c #6e757d",
"bd c #6e9f9b",
"gJ c #6ea386",
"be c #6fa09b",
"bM c #709596",
"bf c #70a19c",
"fs c #727684",
"bh c #72a29c",
"bg c #72a29d",
"dW c #737472",
"bi c #73a39c",
"eK c #747276",
"bj c #74a39c",
"bk c #74a39d",
"eO c #75706f",
"gh c #75767f",
"bl c #75a49d",
"bm c #75a59d",
"fj c #767b7d",
"bn c #76a59c",
"bo c #77a59b",
"bp c #77a69b",
"br c #78a69b",
"bq c #78a69c",
"bs c #79a79c",
"bN c #7aa2a5",
"bt c #7aa89d",
"dz c #7b7d7a",
"f7 c #7b828a",
"bO c #7ba4a9",
"bP c #7ba5ab",
"bu c #7ba89d",
"bQ c #7ca6ab",
"bR c #7ca7aa",
"bv c #7ca89c",
"bS c #7da7aa",
"bT c #7da8ab",
"bw c #7da99c",
"fy c #7e7e88",
"bx c #7ea99c",
"bU c #7ea9ab",
"by c #7eaa9d",
"f6 c #7f7a79",
"eg c #7f8391",
"bz c #7faa9d",
"bA c #7fab9d",
"bV c #80aaac",
"bB c #80ab9d",
"bC c #80ac9e",
"dR c #817e82",
"bW c #81abad",
"bD c #81ac9e",
"dq c #828789",
"bX c #82acad",
"bE c #82ad9e",
"fZ c #838796",
"bY c #84adae",
"bF c #84ae9e",
"bG c #85ae9e",
"bZ c #85aeae",
"bH c #85af9e",
"e1 c #868885",
"b0 c #86aeae",
"b1 c #86afaf",
"bI c #86b09e",
"fA c #878791",
"b2 c #87afae",
"b3 c #88b0ae",
"ey c #89878b",
"fX c #8990a5",
"b4 c #89b0ad",
"fD c #8a8e9c",
"du c #8a8f91",
"b5 c #8ab1ad",
"e. c #8b939a",
"cp c #8bafbc",
"b6 c #8bb2ad",
"bJ c #8bb4a1",
"b7 c #8cb3ae",
"cs c #8cb3bb",
"ei c #8d91a0",
"cq c #8db1be",
"b8 c #8db3af",
"f. c #8e908d",
"b9 c #8eb4af",
"ct c #8eb4bc",
"c. c #8fb4af",
"cv c #8fb5bd",
"fU c #908e92",
"cr c #90b1ba",
"c# c #90b5ae",
"fl c #919698",
"ca c #91b5ae",
"cb c #91b6ae",
"cu c #92b3bc",
"cc c #92b6af",
"cw c #92b6ba",
"d3 c #9397a6",
"cd c #93b7af",
"fd c #949693",
"cx c #94b7bc",
"ce c #94b8af",
"cf c #94b9b0",
"cy c #94b9bd",
"e4 c #959db1",
"cg c #96b9af",
"co c #96babe",
"f0 c #9798a1",
"cJ c #97a3bd",
"cz c #97b9b9",
"ch c #97baaf",
"ci c #98bbaf",
"fS c #99979b",
"cj c #99bbaf",
"cA c #99bbbb",
"ck c #99bcaf",
"gb c #9a9aa4",
"fm c #9a9b98",
"d4 c #9a9ead",
"dt c #9a9fa2",
"dY c #9aa1b6",
"fT c #9c9795",
"d5 c #9da1b1",
"cB c #9dbebe",
"eQ c #9fa6bb",
"cC c #a0bfbb",
"eG c #a1a2ab",
"df c #a1a5b4",
"fK c #a1a6a9",
"fc c #a1a8bd",
"cD c #a1c0bc",
"fk c #a29fa3",
"cE c #a2c1bd",
"cl c #a2c2b4",
"cF c #a3c3be",
"eT c #a5a9b9",
"e9 c #a5acc1",
"d9 c #a6a7b1",
"dp c #a6abad",
"fq c #a8aaa7",
"cG c #a8c5bc",
"cH c #a8c5bd",
"dZ c #a9a7ab",
"d2 c #a9adbc",
"ft c #a9b1c6",
"e8 c #aaafb1",
"gn c #abafbe",
"d7 c #adaeb8",
"d6 c #adb2c1",
"dN c #adb5bd",
"dv c #aeb3b5",
"eR c #aeb5ca",
"do c #afadb1",
"e2 c #afb1ae",
"gq c #afb7bf",
"cI c #b0cdbc",
"eU c #b1b2bc",
"eE c #b2b6c5",
"eJ c #b2b7b9",
"eD c #b2b9ce",
"eF c #b5b6c0",
"dn c #b5babd",
"ee c #b6b8b5",
"dj c #b6baca",
"eN c #b6bed3",
"eX c #b8b6ba",
"eI c #b9bac4",
"fo c #b9bec0",
"dB c #b9c5e0",
"fP c #babecd",
"dS c #bbc3d8",
"fe c #bdbec8",
"f9 c #bdbfbc",
"e6 c #bdc3c5",
"dg c #bdcced",
"eZ c #bebcc0",
"ge c #bec1bd",
"eo c #becae5",
"fR c #c2c3cd",
"gp c #c2c4c1",
"dE c #c2cadf",
"dV c #c2cee9",
"e7 c #c3c8ca",
"eu c #c3c8d7",
"di c #c4c1c6",
"ex c #c6c7d1",
"c5 c #c6d5f6",
"gf c #c7c9c6",
"ev c #c7cbdb",
"dF c #c7ccce",
"go c #c7cfd7",
"cL c #c7d2fb",
"dm c #c9c6cb",
"e3 c #c9d1e6",
"er c #c9d5f0",
"cN c #c9d8fa",
"fG c #cacbd5",
"f4 c #caccc9",
"cM c #cad5fe",
"et c #cbcfdf",
"cP c #cbdafc",
"fH c #cdcbcf",
"es c #cdd5ea",
"cQ c #cddcfd",
"c8 c #ced9f5",
"fC c #cfd4d6",
"dl c #d0d0da",
"f# c #d0d2ce",
"dM c #d0d4e4",
"c7 c #d0e0ff",
"cO c #d1d8fb",
"cR c #d1ddf8",
"dy c #d2daef",
"eL c #d3d0d4",
"eH c #d3d4de",
"gr c #d3dbe4",
"ds c #d4d8e8",
"cS c #d4dffb",
"e5 c #d5ddf3",
"cT c #d5e1fd",
"eM c #d6dcde",
"eW c #d7d8e2",
"cK c #d7e3fe",
"fg c #d8dcec",
"g. c #d9dbd8",
"dk c #d9e1f7",
"dd c #dae5ff",
"dw c #dbdce6",
"ew c #dbdfef",
"fp c #dce2e4",
"cU c #dce4fa",
"fL c #dcecff",
"f8 c #dedbe0",
"ej c #dfe3f3",
"eb c #e0e1eb",
"e0 c #e1dee3",
"fa c #e1e4e0",
"cV c #e1e8fe",
"c6 c #e2e9ff",
"ff c #e3e7f7",
"d. c #e3effe",
"fF c #e5e6f0",
"cW c #e6eafa",
"eA c #e6ecee",
"ep c #e7e2e0",
"c4 c #e7ebfc",
"c9 c #e7f3ff",
"de c #e8e5ea",
"el c #e9eaf4",
"cX c #e9edfd",
"f5 c #eaece9",
"cY c #ebf0ff",
"ez c #edebef",
"gc c #ededf8",
"d# c #edf5fe",
"dh c #eef3f6",
"cZ c #f0f0fb",
"da c #f0f9ff",
"c0 c #f1f2fc",
"c1 c #f2f3fd",
"fV c #f2f4f1",
"eB c #f2f7f9",
"en c #f3f1f5",
"c2 c #f4f5ff",
"db c #f5fafd",
"gg c #f6f8f5",
"dc c #f7fdff",
"dx c #f8f5fa",
"gm c #fafdf9",
"ec c #fbf9fd",
"c3 c #fdfffc",
"eC c #fff9f8",
"Qt.#.a.a.a.a.a.a.a.a.a.a.a.a.a.a.a.b.c.c.c.c.c.c.c.c.c.c.c.c.c.c.c.c.c.c.c.c.c.c.c.c.c.c.c.c.d.e",
".#.f.g.h.i.j.j.k.i.l.l.m.i.i.n.n.n.n.n.o.o.o.o.o.p.q.q.q.q.q.q.q.q.q.q.r.r.s.s.s.s.t.u.v.w.x.y.z",
".a.g.A.B.C.C.D.E.F.E.E.E.F.G.H.H.I.I.I.J.I.K.K.K.K.K.L.L.M.M.N.O.P.P.Q.R.S.T.T.T.T.U.V.W.V.X.Y.z",
".a.Z.0.1.2.3.4.5.6.7.7.8.1.9#.#.#.#.###a#a#a#b#c#c#c#d#d#d#e#f#g#g#e#h#i#j#k#k#l#m#n#n#o#n#p#q.z",
".a#r#s#t#u#v#w#x#y#y#z#z#A#B#C#D#D#E#E#F#F#G#G#H#H#I#J#J#K#K#K#L#M#N#O#O#P#Q#R#S#T#U#V#V#W#X#Y.z",
".a#Z#0#1#2#3#4#5#6#6#7#8#9a.a#aaababacadaeaeafafagagahaiaiaiajakalamanaoapaqaras#T#V#V#Vatauav.z",
".aawaxayazaAaBaCaDaEaFaFaGaHaIaJaJaJaKaKaLaMaNaNaOaPaPaQaRaRaSaTaUaVaVaVaWaXaYaZa0a1a2a2a3a4a5.z",
".aa6a7a8a9b.b#babbbcbdbebfbgbhbibibjbkblbmbnbobpbqbpbrbsbtbubvbwbxbybzbAbBbCbDbEbFbFbGbHbIbJbK.z",
".abLbMbNbObPbQbRbSbTbUbVbWbXbYbZb0b0b1b2b3b4b5b5b6b6b7b8b9c.c#cacacbcccdcdcecfcgchcicicjckclcm.z",
".acncocpcqcqcqcrcscsctcucvcvcwcxcxcxcxcyczczcAcAcAcAcBcBcBcBcCcCcCcCcDcEcEcEcFcFcGcGcGcGcHcHcI.z",
".acJcKcLcMcNcNcNcNcOcPcQcQcRcRcScScScTcKcKcUcUcUcUcVcVcVcVcVcWcWcWcXcXcXcYcYcZc0c0c0c1c1c1c2c3.z",
".acJcKcLcNcNcNcNcNcPcQcRcRcRcScScScTcTcKcKcUcUcUcVcVcVcVcVcWcWcWc4cXcXcXcYcZcYc0c0c0c0c1c1c2c3.z",
".acJcKc5cNcMcNcNcNcPcQcRcRcRcScTcTcTcTcKcKcUcUcUcVcVc6c6cWcWcWc4cXcXcYcYcYc0c0c0c0c1c1c1c2c2c3.z",
".acJcKcLcNc7cKcPcNcQcRcRcScVcVc8cScKcKc6c9d.cYc9d#d#d#cXcVcWcWcXd#dadbdbdbdcdbdac1c0c1c2c2c2c3.z",
".acJcKcLdddedfdgcQcPcQcRcYdhdidjcSdkcZdhdldmdidndodpdqdrdscYcYdldodtdqdudududvdwc1c1c1c2dxdbc3.z",
".acJcKcMdydzdAdBc7cNcNcYdhdCdDdEcKdydFdzdGdHdIdGdJdK.ddLdMcYc0dNdOdP.c.edQ.zdIdRdmdbc1c2dbdbc3.z",
".acJcKcQdSdTdUdVc7cNcVc3dWdXdYcKdddydZd0d1d2d3d4d5d5d4d6cWc4d#d7dJd8d9d7d7e.e#dTeaebecc2ececc3.z",
".acJcKcQdEdCeddVcQc8c3eeefegc6cScTdydoeheidac6c6c6c6c4cWejejcYd7dIekeldbc1dcdtQtemdZdcendxdbc3.z",
".acJcKcQdEdCdUeodVc0epemeqcScSeresdEdodTegcVeteueuevevevetetewd9dHe#dwebdldwexdD.zeyezeAeBecc3.z",
".acJcKcQdEdOeddBeweCdTedeocKerdEeDd2dpdTegdkdjd2d2d6eEeEeFeFeveGehe#dweHeFeIeJea.zeKeLeMeAdbc3.z",
".acJcKcQeNeOePdEc3dWefeQddc8dEeRdYd4doeSegdyeTd3dfd2d2d6eUeUexeGeVdAeWexeGeGeXeY.zdReZdie0enc3.z",
".acJcKcQeRe1dZdce2.zdrc8c8e3eDdYe4d5dodWd3e5eTdfdjetdMeueueudMeGdCdDebdld9e6e7dAdLdvdve8dFeAc3.z",
".acJcKcQe9f.f#fadIfbe9ererdSfcd3dfd6dZfdeKeIeJdpe8dZdRfefffgcXd9fhfifjfkfldofmfndoeMeZdpfofpc3.z",
".acJcKcQe9e1fqe1frfsftdEdEe9e4e4eDeudZfu.ddHdTdHdIdP.dd7d#ejdad7dC.c.zemdKdGdJfvdeeAdFe8dnfpc3.z",
".aeQddcQfteOdCdTfwfseQeNfte4d4fte3esdtdJfxfyePd1fzfyfAfgcYc4dbeUdHd8eyeKfvfBQtdKdufpfCe8dnfpc3.z",
".aeQcVc7eDdCefdQdOdqfDe9dYd3fcdSe5dyflemeiejeTd2dMcYd#c4cWcXdbeUfEQtfFfGdofHdifIfJfKfCe8eZfpc3.z",
".aeQfLc7eDehfMfNfOe1dqfDd3dYeNescVdyfldGfAdMd5d4fPdMfgewebebc0eUfQe#eHfRfkeXe0fSdOeYdoeJe7eAc3.z",
".aeQcVcTeRfEfbdBfbdTfTfyeifte3dkc6dyfUdKfAdsd4d3d7fPexexfGdlfFd7ehe#eWfRfSdZfHdZfhdTfUfofCfVc3.z",
".aeQcVcTeEfWfMeofXdXfYf.fZeNdycUc6dyduemfZdsd5f0d9eIfefefeexebe8ehe#eWdidtfke6dZfhdKdqfofCdhc3.z",
".aeQcVcKd6dGfMdSe9fxf1eOdqeTdydkc6dyey.efAfgeGf0eUexfGfGfGdlfFdvehf2eWdifkdofHeZf3.bflfof4f5c3.z",
".aeQcVcKftdKfMdSeQegfbdKf6f7dSdkc6dyey.efAfgeGeGfRfgebebebebc0eXehdAdwdmfkdne0f8dCd0dvf9f9g.c3.z",
".aeQfLcKftdJfMdSeQfZfZg#gaf6gbe5c6dyfUeSd3ejd7d7dMcYdadagcgcdbeJdOdDfFeLdofHdhdv.zgdfpgee2gfc3.z",
".aeQfLcKd2emfMdSfcfZfcfDd8fYfjd4cUdMdRf3dRfedZdZeIfGdid7fFc0dce8f3eYe8fodpdFe6dK.ce7dhgffqf9gg.z",
".beQcVcVfZ.zdLeNfcfDe9dEghdQ.cd8eEdMek.d.zdPemd0.edP.zg#eWc2dcfU.d.dgigjemfEfQdIfKecfVf4fqeefV.z",
".ceQfLcKe9gkfsdEfcfDe9esdEd1fbgld3etghfxd1fnglglfngdfnghfFc1dcfofwfvfvgkfIfieadFc3dcf5gffqeefV.z",
".cfcfLcRcTcKcKe3eQfDftese5etd6d5dffPfgcXcXdMd7d7eHgcc0c0cZcZc0c2dcdcenfHe8e7dhecdbfVfagefqf9gm.z",
".cfcfLcRcScScTe3eQfDgndydkdyfPeTd4eTeuewejdld9eGfRdwebebebfFfFgcc0dxezdifKdnf8eAeAfaf#eee2f4c3.z",
".cfcd.cScScRcSesfceigndycVdkdMdjd5d4eUetewetd9f0d7fRexexfGgoeHebgceBeze6dtdpe7eLf#gff9e2gpfac3.z",
".cfcd.cScTcKcKesftd4eDdycVcVejeteEd9d2euewdld7eGd9eUgqeFeXdndif8dhecezdFdpdZeXf9f9eeeegpg.f5c3.z",
".cfcd.cScKcKcUdydSeEeudkcVcVcVewevdjeIetewdwfReFeFeIeIfofedidme0endbdheMe6fodigpgfgff4g.f5gmc3.z",
".cfcd.cScTcUcUdkese3dycUcVcVcVcVewdMdMewffffdweHeHeHeWeWgrdwe0ezdxdbdxezfpfpfpfafafaf5fVgmgmc3.z",
".cgsgtgugvaPgwgwaPaPgwgxgxgxaWaWaTaTaTaWgygzaWgAgAgAgAgzgzgzgBgCgDgEgFgDgDgCgGgHgHgHgIgIgIgJgJ.z",
".cgsgtgKgLaMaPgMgNgOgPgxgxaWaWaWaWgygQgQgQgBgBgBgRgRgRgSgSgSgTgUgFgFgVgVgVgVgIgIgGgIgWgXgYgZgJ.z",
".cgsgtg0g1g2g3g4g5g6g7g8g9h.h#h#h#hahbhbhchdhehehehfhfhghghghhhihihjhjhkhlhlhmhmhnhohphqhohrgJ.z",
".chshthuhvhuhwhx#Khyhz#N#PhAhBhBhBhB#ShChChChDhDhDhDhEhEhEhEhFhFhFhFhGhGhGhGhHhIhJhKhIhLhMhNhO.z",
".c.lhPhQhRhRhShShThUhVhWhWhXhYhZhZhZhZhZ#ih0h0h0h0h1h1h1h1h1h1h1h2h2h2h2h2h3h4h5h6h6h7h6h8h9i..z",
".ci#iaib.Licicid.M.Mieie.S.S.T.T.T.T.T.T.Th6h6h6h6h6h6h6h6h6h6h6h6h6h6h6h6h6h6h6ifif.gigihiiij.z",
".e.z.z.z.z.z.z.z.z.z.z.z.z.z.z.z.z.z.z.z.z.z.z.z.z.z.z.z.z.z.z.z.z.z.z.z.z.z.z.z.z.z.z.z.z.z.z.z"};
